<svg version="1.1" id="Layer_1" xmlns="http://www.w3.org/2000/svg" xmlns:xlink="http://www.w3.org/1999/xlink" x="0px" y="0px"
	 width="100%" viewBox="0 0 225 225" enable-background="new 0 0 225 225" xml:space="preserve">
<path fill="#010101" opacity="1.000000" stroke="none" 
	d="
M127.000000,226.000000 
	C84.666672,226.000000 42.833340,226.000000 1.000006,226.000000 
	C1.000004,151.000000 1.000004,76.000015 1.000002,1.000016 
	C75.999992,1.000010 150.999985,1.000010 225.999969,1.000005 
	C225.999985,75.999985 225.999985,150.999969 226.000000,225.999969 
	C193.166672,226.000000 160.333328,226.000000 127.000000,226.000000 
M189.806931,196.197510 
	C191.726654,196.311768 193.417374,196.485046 193.059555,199.242432 
	C192.804565,201.207275 192.515396,203.436798 193.193069,205.177795 
	C193.868973,206.914322 195.505707,209.051422 197.122772,209.473175 
	C199.835205,210.180634 202.866196,209.666702 205.827438,209.666702 
	C205.827438,207.502914 205.827438,206.192505 205.827438,204.677780 
	C204.360077,204.354202 202.964203,204.046402 201.465088,203.715836 
	C201.465088,201.397018 201.465088,199.284882 201.465088,198.065445 
	C203.267715,196.450455 204.710007,195.446457 205.722839,194.115631 
	C206.156189,193.546219 205.694901,192.295944 205.639709,191.348114 
	C204.002090,191.094299 202.737305,190.898270 201.528259,190.710892 
	C201.329788,188.741257 201.152924,186.986191 200.985535,185.324951 
	C198.192322,185.324951 195.754791,185.324951 193.072723,185.324951 
	C193.072723,187.198700 193.072723,188.823624 193.072723,190.448532 
	C192.573593,190.316833 192.074463,190.185135 191.575333,190.053436 
	C190.735046,191.770752 189.894760,193.488068 188.430145,194.829208 
	C183.412231,187.954407 176.451584,190.174484 169.893448,191.030914 
	C166.945923,191.415817 164.761917,193.058640 165.040726,197.149902 
	C170.204071,196.357910 175.095428,195.607651 179.986801,194.857376 
	C180.070480,195.690125 180.154160,196.522858 180.237839,197.355591 
	C177.601761,197.569794 174.884827,197.457458 172.351089,198.084900 
	C169.501831,198.790497 166.817871,200.163544 163.177048,201.292877 
	C163.017578,200.663315 162.766159,200.041458 162.712677,199.403015 
	C162.071228,191.746887 158.567795,189.196838 151.103683,191.013885 
	C150.079147,191.263306 149.084579,191.635880 147.906906,192.004395 
	C147.728729,189.413864 147.574249,187.168137 147.422684,184.964539 
	C144.469513,184.964539 141.904633,184.964539 139.473969,184.964539 
	C139.473969,193.222153 139.473969,201.125153 139.473969,209.069672 
	C142.341003,209.069672 144.899796,209.069672 147.767776,209.069672 
	C147.767776,205.898468 147.415573,203.018295 147.920746,200.297318 
	C148.162674,198.994125 150.028351,197.992401 151.158615,196.854141 
	C152.150177,198.050064 153.783737,199.141373 153.999252,200.463776 
	C154.444244,203.194016 154.133286,206.047455 154.133286,209.009521 
	C157.963867,209.679581 161.432175,210.247330 164.199478,207.561844 
	C166.287277,208.379242 168.375015,209.884109 170.462906,209.884354 
	C176.575333,209.885101 182.687820,209.286499 188.843643,208.920151 
	C188.843643,204.687927 188.843643,200.409729 189.806931,196.197510 
M108.371399,196.795670 
	C107.087929,191.837326 103.012680,190.650330 98.802376,190.265030 
	C92.244690,189.664932 85.790611,189.917511 82.009209,197.358795 
	C79.619263,188.869812 73.085190,190.104233 67.264938,190.186264 
	C62.963825,190.246857 58.586277,190.724792 57.097137,196.439407 
	C60.102455,196.644180 62.794144,196.827591 65.485832,197.010986 
	C64.951218,197.830124 64.495071,197.936920 64.033173,197.976395 
	C57.803928,198.508896 55.560036,200.201660 55.920628,204.382660 
	C56.374554,209.645828 60.368488,210.067566 64.320869,209.928436 
	C70.093620,209.725220 75.854126,209.174133 81.984047,208.745880 
	C81.984047,206.986816 81.984047,205.184250 81.984047,202.778656 
	C88.189865,212.925629 103.284515,212.626160 109.019638,203.823334 
	C109.143150,205.571457 109.266670,207.319565 109.391304,209.083557 
	C112.118225,209.083557 114.425629,209.083557 116.407303,209.083557 
	C117.406090,207.058884 118.293518,205.259933 120.004959,201.790588 
	C122.732216,211.547073 128.753464,209.024078 134.903641,209.005219 
	C131.725845,204.842499 129.061691,201.352631 126.347824,197.797638 
	C128.948578,195.518448 131.203964,193.541916 133.877655,191.198807 
	C127.386208,190.546310 121.805771,190.109558 118.036362,196.426208 
	C117.790985,196.022293 117.545609,195.618378 117.300232,195.214462 
	C117.300232,191.775909 117.300232,188.337341 117.300232,184.784988 
	C114.374207,184.784988 111.865509,184.784988 109.025887,184.784988 
	C109.025887,189.136566 109.025887,193.105759 108.371399,196.795670 
M95.686546,57.129169 
	C107.848045,57.132046 120.010803,57.027763 132.170639,57.171463 
	C142.020233,57.287865 143.578842,58.524654 146.900757,67.920685 
	C147.784622,70.420708 148.528320,72.986008 149.117447,75.571228 
	C150.323853,80.865204 151.381882,86.192993 152.364227,90.857384 
	C158.561356,92.913986 164.377838,94.400459 169.770828,96.827797 
	C172.332779,97.980911 175.821075,100.973816 175.766510,103.051277 
	C175.699020,105.622078 172.900833,109.004150 170.374832,110.448387 
	C164.660233,113.715691 158.364243,115.956238 152.364212,118.742561 
	C151.174622,119.294983 149.612778,120.240517 149.309357,121.312416 
	C147.355179,128.215683 145.703171,135.204468 143.966858,142.105972 
	C146.363571,143.339447 149.285782,144.843369 151.693802,146.082657 
	C148.590637,151.112259 145.983932,155.337173 143.185730,159.872482 
	C161.089264,164.565826 178.674744,166.618469 192.251373,178.893845 
	C225.300400,138.238937 220.321747,77.254578 181.163773,42.218468 
	C140.408997,5.753637 79.560127,7.796222 41.585033,47.087299 
	C4.258431,85.707413 6.198085,144.210968 35.696960,178.826767 
	C49.212215,166.412201 66.971344,164.654831 84.740318,159.723862 
	C81.637009,154.995270 78.902794,150.829071 75.766228,146.049805 
	C78.652847,144.629242 81.667595,143.145630 83.875511,142.059082 
	C82.142174,135.643768 80.195602,129.522705 78.927406,123.264183 
	C78.340080,120.365753 77.016609,119.239494 74.492523,118.178902 
	C68.096199,115.491226 61.551437,112.919952 55.664341,109.322975 
	C49.610180,105.623932 49.941353,100.736473 56.281429,97.640739 
	C61.297501,95.191483 66.794785,93.609901 72.217285,92.163918 
	C74.679977,91.507210 75.598259,90.773796 76.131859,88.152885 
	C77.617050,80.858063 79.541542,73.641022 81.571342,66.472198 
	C83.414902,59.961132 87.492470,56.211124 95.686546,57.129169 
M21.740782,184.394485 
	C21.134190,184.989059 20.009214,185.575485 19.999697,186.179459 
	C19.879843,193.784912 19.921007,201.392929 19.921007,208.688614 
	C24.988802,209.143295 29.546764,209.614166 34.114910,209.944077 
	C38.391281,210.252899 42.723122,209.216293 43.938969,204.928894 
	C44.873379,201.633926 44.668476,197.200760 43.132668,194.220795 
	C41.080837,190.239578 36.518326,189.664078 32.115246,190.799835 
	C30.809422,191.136673 29.518793,191.532410 27.828903,192.012634 
	C27.828903,189.285583 27.828903,187.013336 27.828903,184.387589 
	C25.895273,184.387589 24.264874,184.387589 21.740782,184.394485 
M54.667439,190.685059 
	C54.667439,188.737228 54.667439,186.789398 54.667439,184.640747 
	C51.612251,184.640747 49.063454,184.640747 46.280655,184.640747 
	C46.280655,192.872604 46.280655,200.798218 46.280655,208.918823 
	C49.076553,208.918823 51.797119,208.918823 54.667408,208.918823 
	C54.667408,202.932144 54.667408,197.286957 54.667439,190.685059 
M206.751312,189.838593 
	C207.823898,188.616257 208.896500,187.393936 209.969101,186.171616 
	C208.988174,185.509903 207.700836,184.074875 207.079651,184.321030 
	C204.462021,185.358246 204.322647,187.311096 206.751312,189.838593 
z"/>
<path fill="#FDFDFD" opacity="1.000000" stroke="none" 
	d="
M95.217674,57.148624 
	C87.492470,56.211124 83.414902,59.961132 81.571342,66.472198 
	C79.541542,73.641022 77.617050,80.858063 76.131859,88.152885 
	C75.598259,90.773796 74.679977,91.507210 72.217285,92.163918 
	C66.794785,93.609901 61.297501,95.191483 56.281429,97.640739 
	C49.941353,100.736473 49.610180,105.623932 55.664341,109.322975 
	C61.551437,112.919952 68.096199,115.491226 74.492523,118.178902 
	C77.016609,119.239494 78.340080,120.365753 78.927406,123.264183 
	C80.195602,129.522705 82.142174,135.643768 83.875511,142.059082 
	C81.667595,143.145630 78.652847,144.629242 75.766228,146.049805 
	C78.902794,150.829071 81.637009,154.995270 84.740318,159.723862 
	C66.971344,164.654831 49.212215,166.412201 35.696960,178.826767 
	C6.198085,144.210968 4.258431,85.707413 41.585033,47.087299 
	C79.560127,7.796222 140.408997,5.753637 181.163773,42.218468 
	C220.321747,77.254578 225.300400,138.238937 192.251373,178.893845 
	C178.674744,166.618469 161.089264,164.565826 143.185730,159.872482 
	C145.983932,155.337173 148.590637,151.112259 151.693802,146.082657 
	C149.285782,144.843369 146.363571,143.339447 143.966858,142.105972 
	C145.703171,135.204468 147.355179,128.215683 149.309357,121.312416 
	C149.612778,120.240517 151.174622,119.294983 152.364212,118.742561 
	C158.364243,115.956238 164.660233,113.715691 170.374832,110.448387 
	C172.900833,109.004150 175.699020,105.622078 175.766510,103.051277 
	C175.821075,100.973816 172.332779,97.980911 169.770828,96.827797 
	C164.377838,94.400459 158.561356,92.913986 152.364227,90.857384 
	C151.381882,86.192993 150.323853,80.865204 149.117447,75.571228 
	C148.528320,72.986008 147.784622,70.420708 146.900757,67.920685 
	C143.578842,58.524654 142.020233,57.287865 132.170639,57.171463 
	C120.010803,57.027763 107.848045,57.132046 95.217674,57.148624 
z"/>
<path fill="#F0F0F0" opacity="1.000000" stroke="none" 
	d="
M109.022385,202.918350 
	C103.284515,212.626160 88.189865,212.925629 81.984047,202.778656 
	C81.984047,205.184250 81.984047,206.986816 81.984047,208.745880 
	C75.854126,209.174133 70.093620,209.725220 64.320869,209.928436 
	C60.368488,210.067566 56.374554,209.645828 55.920628,204.382660 
	C55.560036,200.201660 57.803928,198.508896 64.033173,197.976395 
	C64.495071,197.936920 64.951218,197.830124 65.485832,197.010986 
	C62.794144,196.827591 60.102455,196.644180 57.097137,196.439407 
	C58.586277,190.724792 62.963825,190.246857 67.264938,190.186264 
	C73.085190,190.104233 79.619263,188.869812 82.009209,197.358795 
	C85.790611,189.917511 92.244690,189.664932 98.802376,190.265030 
	C103.012680,190.650330 107.087929,191.837326 108.721054,197.127625 
	C109.070717,197.459595 109.046387,197.846054 108.596237,197.937347 
	C104.815331,198.201263 101.617661,199.046082 98.440636,196.375626 
	C97.278961,195.399185 93.767754,196.405914 91.888062,197.483856 
	C91.104446,197.933243 91.134758,202.098663 91.922707,202.534195 
	C93.814003,203.579636 97.564819,204.507248 98.444901,203.544357 
	C101.421288,200.287933 104.751587,201.643814 108.216461,201.659180 
	C108.615585,202.149246 108.818985,202.533798 109.022385,202.918350 
M65.707108,205.049698 
	C68.859055,205.383362 72.225365,206.150238 73.444023,200.516312 
	C70.385902,202.793030 65.931267,199.014175 65.707108,205.049698 
z"/>
<path fill="#EEEEEE" opacity="1.000000" stroke="none" 
	d="
M164.051147,206.809250 
	C161.432175,210.247330 157.963867,209.679581 154.133286,209.009521 
	C154.133286,206.047455 154.444244,203.194016 153.999252,200.463776 
	C153.783737,199.141373 152.150177,198.050064 151.158630,196.854156 
	C150.028351,197.992401 148.162674,198.994125 147.920746,200.297318 
	C147.415573,203.018295 147.767776,205.898468 147.767776,209.069672 
	C144.899796,209.069672 142.341003,209.069672 139.473969,209.069672 
	C139.473969,201.125153 139.473969,193.222153 139.473969,184.964539 
	C141.904633,184.964539 144.469513,184.964539 147.422684,184.964539 
	C147.574249,187.168137 147.728729,189.413864 147.906906,192.004395 
	C149.084579,191.635880 150.079147,191.263306 151.103683,191.013885 
	C158.567795,189.196838 162.071228,191.746887 162.712677,199.403015 
	C162.766159,200.041458 163.017578,200.663315 163.612015,201.666595 
	C164.048370,203.629974 164.049759,205.219604 164.051147,206.809250 
z"/>
<path fill="#F7F7F7" opacity="1.000000" stroke="none" 
	d="
M22.187628,184.391037 
	C24.264874,184.387589 25.895273,184.387589 27.828903,184.387589 
	C27.828903,187.013336 27.828903,189.285583 27.828903,192.012634 
	C29.518793,191.532410 30.809422,191.136673 32.115246,190.799835 
	C36.518326,189.664078 41.080837,190.239578 43.132668,194.220795 
	C44.668476,197.200760 44.873379,201.633926 43.938969,204.928894 
	C42.723122,209.216293 38.391281,210.252899 34.114910,209.944077 
	C29.546764,209.614166 24.988802,209.143295 19.921007,208.688614 
	C19.921007,201.392929 19.879843,193.784912 19.999697,186.179459 
	C20.009214,185.575485 21.134190,184.989059 22.187628,184.391037 
M33.967999,196.378616 
	C32.003407,197.355591 29.858398,198.117798 28.225525,199.489609 
	C27.896631,199.765930 29.268543,203.411301 30.281994,203.643219 
	C32.048191,204.047440 34.145447,203.005051 36.103931,202.569031 
	C35.626617,200.619812 35.149303,198.670609 33.967999,196.378616 
z"/>
<path fill="#F9F9F9" opacity="1.000000" stroke="none" 
	d="
M109.046387,197.846054 
	C109.046387,197.846054 109.070717,197.459595 109.048302,197.267273 
	C109.025887,193.105759 109.025887,189.136566 109.025887,184.784988 
	C111.865509,184.784988 114.374207,184.784988 117.300232,184.784988 
	C117.300232,188.337341 117.300232,191.775909 117.300232,195.214462 
	C117.545609,195.618378 117.790985,196.022293 118.036362,196.426208 
	C121.805771,190.109558 127.386208,190.546310 133.877655,191.198807 
	C131.203964,193.541916 128.948578,195.518448 126.347824,197.797638 
	C129.061691,201.352631 131.725845,204.842499 134.903641,209.005219 
	C128.753464,209.024078 122.732216,211.547073 120.004959,201.790588 
	C118.293518,205.259933 117.406090,207.058884 116.407303,209.083557 
	C114.425629,209.083557 112.118225,209.083557 109.391304,209.083557 
	C109.266670,207.319565 109.143150,205.571457 109.021011,203.370850 
	C108.818985,202.533798 108.615585,202.149246 108.621185,201.508362 
	C108.902252,200.116699 108.974319,198.981369 109.046387,197.846054 
z"/>
<path fill="#F4F4F4" opacity="1.000000" stroke="none" 
	d="
M164.125305,207.185547 
	C164.049759,205.219604 164.048370,203.629974 164.054489,201.643280 
	C166.817871,200.163544 169.501831,198.790497 172.351089,198.084900 
	C174.884827,197.457458 177.601761,197.569794 180.237839,197.355591 
	C180.154160,196.522858 180.070480,195.690125 179.986801,194.857376 
	C175.095428,195.607651 170.204071,196.357910 165.040726,197.149902 
	C164.761917,193.058640 166.945923,191.415817 169.893448,191.030914 
	C176.451584,190.174484 183.412231,187.954407 188.716522,195.174713 
	C188.985733,195.733337 188.932648,195.937103 188.843643,196.131516 
	C188.843643,200.409729 188.843643,204.687927 188.843643,208.920151 
	C182.687820,209.286499 176.575333,209.885101 170.462906,209.884354 
	C168.375015,209.884109 166.287277,208.379242 164.125305,207.185547 
M177.841583,205.126740 
	C178.691132,204.419464 179.540680,203.712189 180.390244,203.004913 
	C177.933029,201.908279 175.966248,201.754532 174.046692,201.988388 
	C173.337128,202.074844 172.738678,203.073227 172.089554,203.655701 
	C172.604126,204.198349 173.041855,205.069092 173.650162,205.211594 
	C174.733932,205.465454 175.920837,205.278946 177.841583,205.126740 
z"/>
<path fill="#F2F2F2" opacity="1.000000" stroke="none" 
	d="
M189.325287,196.164520 
	C188.932648,195.937103 188.985733,195.733337 189.028687,195.362793 
	C189.894760,193.488068 190.735046,191.770752 191.575333,190.053436 
	C192.074463,190.185135 192.573593,190.316833 193.072723,190.448532 
	C193.072723,188.823624 193.072723,187.198700 193.072723,185.324951 
	C195.754791,185.324951 198.192322,185.324951 200.985535,185.324951 
	C201.152924,186.986191 201.329788,188.741257 201.528259,190.710892 
	C202.737305,190.898270 204.002090,191.094299 205.639709,191.348114 
	C205.694901,192.295944 206.156189,193.546219 205.722839,194.115631 
	C204.710007,195.446457 203.267715,196.450455 201.465088,198.065445 
	C201.465088,199.284882 201.465088,201.397018 201.465088,203.715836 
	C202.964203,204.046402 204.360077,204.354202 205.827438,204.677780 
	C205.827438,206.192505 205.827438,207.502914 205.827438,209.666702 
	C202.866196,209.666702 199.835205,210.180634 197.122772,209.473175 
	C195.505707,209.051422 193.868973,206.914322 193.193069,205.177795 
	C192.515396,203.436798 192.804565,201.207275 193.059555,199.242432 
	C193.417374,196.485046 191.726654,196.311768 189.325287,196.164520 
z"/>
<path fill="#E8E8E8" opacity="1.000000" stroke="none" 
	d="
M54.667423,191.163406 
	C54.667408,197.286957 54.667408,202.932144 54.667408,208.918823 
	C51.797119,208.918823 49.076553,208.918823 46.280655,208.918823 
	C46.280655,200.798218 46.280655,192.872604 46.280655,184.640747 
	C49.063454,184.640747 51.612251,184.640747 54.667439,184.640747 
	C54.667439,186.789398 54.667439,188.737228 54.667423,191.163406 
z"/>
<path fill="#565656" opacity="1.000000" stroke="none" 
	d="
M206.411926,189.637726 
	C204.322647,187.311096 204.462021,185.358246 207.079651,184.321030 
	C207.700836,184.074875 208.988174,185.509903 209.969101,186.171616 
	C208.896500,187.393936 207.823898,188.616257 206.411926,189.637726 
z"/>
<path fill="#0E0E0E" opacity="1.000000" stroke="none" 
	d="
M108.596237,197.937347 
	C108.974319,198.981369 108.902252,200.116699 108.425461,201.402832 
	C104.751587,201.643814 101.421288,200.287933 98.444901,203.544357 
	C97.564819,204.507248 93.814003,203.579636 91.922707,202.534195 
	C91.134758,202.098663 91.104446,197.933243 91.888062,197.483856 
	C93.767754,196.405914 97.278961,195.399185 98.440636,196.375626 
	C101.617661,199.046082 104.815331,198.201263 108.596237,197.937347 
z"/>
<path fill="#111111" opacity="1.000000" stroke="none" 
	d="
M65.354675,204.773071 
	C65.931267,199.014175 70.385902,202.793030 73.444023,200.516312 
	C72.225365,206.150238 68.859055,205.383362 65.354675,204.773071 
z"/>
<path fill="#0A0A0A" opacity="1.000000" stroke="none" 
	d="
M34.319992,196.550003 
	C35.149303,198.670609 35.626617,200.619812 36.103935,202.569031 
	C34.145447,203.005051 32.048191,204.047440 30.281994,203.643219 
	C29.268543,203.411301 27.896631,199.765930 28.225525,199.489609 
	C29.858398,198.117798 32.003407,197.355591 34.319992,196.550003 
z"/>
<path fill="#101010" opacity="1.000000" stroke="none" 
	d="
M177.453094,205.201675 
	C175.920837,205.278946 174.733932,205.465454 173.650162,205.211594 
	C173.041855,205.069092 172.604126,204.198349 172.089554,203.655701 
	C172.738678,203.073227 173.337128,202.074844 174.046692,201.988388 
	C175.966248,201.754532 177.933029,201.908279 180.390244,203.004913 
	C179.540680,203.712189 178.691132,204.419464 177.453094,205.201675 
z"/>
</svg>