<svg version="1.1" id="Layer_1" xmlns="http://www.w3.org/2000/svg" xmlns:xlink="http://www.w3.org/1999/xlink" x="0px" y="0px"
	 width="100%" viewBox="0 0 400 400" enable-background="new 0 0 400 400" xml:space="preserve">
<path fill="#FFFEFE" opacity="1.000000" stroke="none" 
	d="
M1.000000,201.000000 
	C1.000000,134.373566 1.000000,67.747139 1.000000,1.060356 
	C134.212601,1.060356 267.425232,1.060356 401.000000,1.060356 
	C401.000000,42.353523 401.000000,83.708099 400.615295,125.646133 
	C392.806091,127.519302 385.368439,128.769135 378.650513,132.855316 
	C385.815247,140.810593 385.582214,142.601578 377.046204,147.966003 
	C375.920563,148.673416 374.757965,149.322296 373.608612,149.991638 
	C355.226013,160.696579 335.673492,165.473679 314.277191,162.910690 
	C306.996033,162.038498 299.474670,163.171082 292.063080,163.387589 
	C292.066803,164.003479 292.070526,164.619354 292.074249,165.235229 
	C307.131989,177.274139 323.873535,180.726181 342.410889,174.524338 
	C359.045959,168.958954 374.778687,161.522873 389.573578,150.908051 
	C391.443268,153.288666 393.204742,155.531525 394.951263,157.755310 
	C396.940399,155.533813 398.970215,153.266907 401.000000,151.000000 
	C401.000000,167.354233 401.000000,183.708450 400.531342,200.531708 
	C379.112793,201.000717 358.162903,201.000717 336.660156,201.000717 
	C334.733490,210.975143 332.684875,220.554871 331.078278,230.208176 
	C329.681152,238.602890 326.287842,243.438034 319.873871,244.997513 
	C309.999847,247.398254 302.940155,243.877274 299.233185,234.356262 
	C297.072754,228.807526 294.259033,224.090637 287.820190,223.132751 
	C278.460632,221.740311 269.086823,220.407166 259.682251,219.389236 
	C258.118591,219.219986 256.023010,220.418152 254.765305,221.609451 
	C250.329941,225.810593 245.658142,229.707367 239.373138,230.173904 
	C233.361694,230.620148 227.291168,230.270203 221.115524,230.270203 
	C221.546143,231.785507 221.946655,233.208527 222.354843,234.629303 
	C236.296875,283.157562 209.918289,334.808502 162.371017,351.473785 
	C149.195206,356.091919 135.725937,360.149811 121.481674,355.836151 
	C117.226585,354.547546 112.952133,353.322906 108.881660,352.126343 
	C107.563538,355.019775 106.052238,357.615997 105.165138,360.410370 
	C101.487556,371.994751 93.675468,379.041595 81.799248,380.847229 
	C70.016197,382.638641 60.646782,374.739655 62.662548,363.701874 
	C63.692566,358.061829 64.210197,352.969055 62.668930,347.523071 
	C62.242401,346.015930 62.435009,344.202118 62.785896,342.627625 
	C65.122475,332.142639 59.868046,324.015076 54.529037,315.958496 
	C53.906956,315.019806 52.318848,314.415131 51.093063,314.233795 
	C44.595875,313.272644 39.579170,309.658417 34.267838,306.101501 
	C29.422712,302.856781 26.381853,296.886658 19.798470,296.243073 
	C11.336884,295.415894 6.843094,284.953369 8.366347,277.658112 
	C9.826201,270.666473 14.829262,267.157440 19.991035,263.670288 
	C14.928780,249.202057 21.342997,242.166550 29.522902,238.718704 
	C34.309807,236.701004 39.787579,235.515579 44.970264,235.461517 
	C50.600002,235.402817 55.594994,235.739395 61.397545,233.499725 
	C74.352936,228.499191 88.158165,236.408997 92.952194,249.595764 
	C93.808075,251.950027 95.325790,254.063690 97.024834,257.182129 
	C102.178482,240.671478 113.016541,232.887589 129.393036,231.430328 
	C120.741920,221.172287 126.932465,211.186615 128.818771,201.000000 
	C85.960655,201.000000 43.480328,201.000000 1.000000,201.000000 
M59.357700,283.389313 
	C54.455593,280.818726 49.553486,278.248108 45.795822,276.277649 
	C42.858086,280.608551 40.375229,284.268829 37.636402,288.306488 
	C39.739567,289.916901 42.660805,291.797302 45.147953,294.138855 
	C49.212807,297.965729 53.915489,299.751404 59.301369,298.674988 
	C62.016376,298.132385 63.157059,298.918121 64.393600,301.093689 
	C68.093803,307.603729 71.880486,314.072083 75.872574,320.405945 
	C78.146927,324.014435 79.695541,327.474609 78.946686,331.989716 
	C78.251022,336.184082 78.442986,340.534454 78.372887,344.818207 
	C78.353355,346.011383 78.790672,347.212006 79.116730,348.926086 
	C84.024307,345.156006 88.434860,344.891357 93.421661,349.797394 
	C93.855400,341.495361 87.918953,334.261383 93.278976,327.505249 
	C100.906761,330.876984 108.177818,334.705109 115.865021,337.300873 
	C122.386055,339.502838 129.549622,342.022552 136.150696,341.408966 
	C181.252426,337.216522 213.634323,298.171875 209.838165,253.069229 
	C209.121567,244.555069 208.164505,235.851746 201.300705,229.204147 
	C181.192566,209.729370 182.696884,182.730515 204.704056,165.508728 
	C210.415039,161.039581 216.971939,159.270950 224.219650,159.207977 
	C217.885544,163.511627 211.774261,167.449646 205.966766,171.793823 
	C204.830383,172.643860 204.023102,175.371445 204.504929,176.717102 
	C207.981033,186.424927 211.683121,196.059586 215.609711,205.595505 
	C218.126236,211.707077 223.176468,214.728088 229.653534,215.258453 
	C236.301926,215.802887 241.540558,213.738037 245.293427,207.672195 
	C246.599228,205.561569 249.925598,203.433380 252.294739,203.471191 
	C261.756866,203.622162 271.257599,204.211426 280.647217,205.402008 
	C295.805267,207.324051 309.495819,211.877792 314.211395,229.661972 
	C317.668793,215.191086 320.867767,201.801636 324.192566,187.885696 
	C313.720520,192.509903 304.387085,187.763947 294.921082,185.146912 
	C285.369965,182.506332 275.550018,180.523880 266.581360,176.818924 
	C272.613892,168.921463 277.733185,161.805756 283.388306,155.144989 
	C284.604279,153.712753 287.762390,153.442795 290.014832,153.472473 
	C295.740326,153.547958 301.455566,154.240768 307.182861,154.398056 
	C310.318085,154.484161 313.825043,152.981903 316.544128,153.945679 
	C323.591187,156.443588 327.376160,153.185989 330.958405,147.898453 
	C337.374756,138.427658 345.788605,134.282120 357.126465,139.068100 
	C357.287140,139.135941 357.618927,138.798386 357.871033,138.649948 
	C352.748627,130.166245 344.447662,124.988518 334.909058,125.291832 
	C322.958374,125.671860 310.997833,126.350319 299.095673,127.473495 
	C287.518188,128.566010 279.166809,124.891182 273.731598,114.144081 
	C269.486023,105.749222 262.456238,101.244019 252.482742,102.579033 
	C241.764267,104.013786 230.979248,104.992447 220.297150,106.647102 
	C208.603912,108.458389 199.156631,105.115738 191.076218,96.442841 
	C186.804413,91.857841 181.746902,87.913078 176.663406,84.200584 
	C170.987167,80.055199 164.341309,78.134468 157.306595,79.050964 
	C154.334900,79.438126 151.535995,81.151657 147.426880,82.737709 
	C151.542511,84.665031 154.129211,85.482948 156.197250,87.005394 
	C157.284164,87.805550 157.964188,89.873528 157.863998,91.301353 
	C157.804443,92.150146 155.942627,93.003365 154.766769,93.615891 
	C152.260208,94.921616 149.672623,96.071823 147.118240,97.285759 
	C155.276901,101.774765 158.753983,107.750999 160.238327,116.042007 
	C161.052719,120.590881 164.343842,125.150085 167.634125,128.657883 
	C170.250290,131.447006 170.035736,133.240250 168.930252,136.329880 
	C160.079514,161.066055 151.395782,185.862259 142.746902,210.670059 
	C141.733994,213.575378 141.242722,216.662552 140.520706,219.620041 
	C158.509705,225.797821 168.285004,238.057556 169.611221,256.335938 
	C170.928253,274.488068 164.366730,289.381927 148.675079,299.363007 
	C137.512390,306.463318 125.232307,307.415100 112.591156,304.286530 
	C109.125572,303.428802 105.462631,302.470947 102.521706,300.578033 
	C96.422119,296.652039 90.934380,291.772644 84.819511,287.874329 
	C81.538445,285.782654 80.442863,283.574768 81.503479,280.074585 
	C82.178917,277.845612 83.374496,275.694397 83.613098,273.432007 
	C83.950409,270.233582 83.619278,266.964691 83.583351,264.402130 
	C78.015091,264.815674 73.866478,265.123779 69.520874,265.446503 
	C69.188377,266.659424 68.740906,268.291748 68.152992,270.436401 
	C63.922016,265.374176 65.099533,257.437012 58.176682,255.343140 
	C55.681305,258.523132 53.294472,261.564789 50.273869,265.414093 
	C53.323563,270.934082 56.658264,276.969971 60.007748,282.994049 
	C60.007748,282.994049 60.029263,282.979279 59.357700,283.389313 
M140.932022,252.559937 
	C134.321106,247.060547 127.377663,246.140839 120.761551,249.888245 
	C114.660004,253.344193 111.295143,260.340515 112.455917,267.157501 
	C113.655197,274.200592 118.878662,279.576233 125.801163,280.891602 
	C132.828598,282.226868 139.702103,279.274841 143.430695,273.320038 
	C147.394211,266.990021 146.705551,259.912018 140.932022,252.559937 
M193.346359,94.875145 
	C200.926636,103.871666 210.467972,106.361267 222.291275,103.542816 
	C214.147171,93.173462 204.290558,87.410667 191.209137,86.900658 
	C191.967102,89.687828 192.571762,91.911209 193.346359,94.875145 
M68.628616,247.971664 
	C68.151886,248.388824 67.192871,248.970047 67.270622,249.198563 
	C68.472160,252.730118 69.373688,256.488525 71.316269,259.584869 
	C72.153191,260.918854 75.193855,261.088806 77.273613,261.242279 
	C77.695709,261.273438 78.947372,258.716187 78.706390,257.589722 
	C77.632454,252.569763 74.931320,248.840073 68.628616,247.971664 
M48.597919,251.666916 
	C43.571362,250.620331 38.844555,251.010193 34.960495,253.964157 
	C39.810638,255.675491 44.645626,257.381470 50.400997,259.412231 
	C51.229710,258.152496 52.599060,256.070984 54.249863,253.561615 
	C52.136177,252.808472 50.758572,252.317612 48.597919,251.666916 
M83.378395,363.991699 
	C85.475075,361.738190 87.977684,359.724426 89.506577,357.135590 
	C90.339523,355.725189 90.248993,352.693604 89.250542,351.566650 
	C88.154968,350.330109 85.535538,350.443726 82.377090,349.677002 
	C85.214211,356.574524 82.957497,360.890472 78.322594,365.547974 
	C80.606163,364.897583 81.658920,364.597717 83.378395,363.991699 
M40.120842,277.361969 
	C39.396603,276.655090 38.664398,275.330933 37.949406,275.340179 
	C32.781052,275.406860 27.875141,276.365479 24.033476,280.788757 
	C27.403563,281.193634 30.523708,281.029755 33.222649,282.017181 
	C37.424309,283.554321 39.068233,281.731720 40.120842,277.361969 
z"/>
<path fill="#00AB39" opacity="1.000000" stroke="none" 
	d="
M1.000000,201.468658 
	C43.480328,201.000000 85.960655,201.000000 128.818771,201.000000 
	C126.932465,211.186615 120.741920,221.172287 129.393036,231.430328 
	C113.016541,232.887589 102.178482,240.671478 97.024834,257.182129 
	C95.325790,254.063690 93.808075,251.950027 92.952194,249.595764 
	C88.158165,236.408997 74.352936,228.499191 61.397545,233.499725 
	C55.594994,235.739395 50.600002,235.402817 44.970264,235.461517 
	C39.787579,235.515579 34.309807,236.701004 29.522902,238.718704 
	C21.342997,242.166550 14.928780,249.202057 19.991035,263.670288 
	C14.829262,267.157440 9.826201,270.666473 8.366347,277.658112 
	C6.843094,284.953369 11.336884,295.415894 19.798470,296.243073 
	C26.381853,296.886658 29.422712,302.856781 34.267838,306.101501 
	C39.579170,309.658417 44.595875,313.272644 51.093063,314.233795 
	C52.318848,314.415131 53.906956,315.019806 54.529037,315.958496 
	C59.868046,324.015076 65.122475,332.142639 62.785896,342.627625 
	C62.435009,344.202118 62.242401,346.015930 62.668930,347.523071 
	C64.210197,352.969055 63.692566,358.061829 62.662548,363.701874 
	C60.646782,374.739655 70.016197,382.638641 81.799248,380.847229 
	C93.675468,379.041595 101.487556,371.994751 105.165138,360.410370 
	C106.052238,357.615997 107.563538,355.019775 108.881660,352.126343 
	C112.952133,353.322906 117.226585,354.547546 121.481674,355.836151 
	C135.725937,360.149811 149.195206,356.091919 162.371017,351.473785 
	C209.918289,334.808502 236.296875,283.157562 222.354843,234.629303 
	C221.946655,233.208527 221.546143,231.785507 221.115524,230.270203 
	C227.291168,230.270203 233.361694,230.620148 239.373138,230.173904 
	C245.658142,229.707367 250.329941,225.810593 254.765305,221.609451 
	C256.023010,220.418152 258.118591,219.219986 259.682251,219.389236 
	C269.086823,220.407166 278.460632,221.740311 287.820190,223.132751 
	C294.259033,224.090637 297.072754,228.807526 299.233185,234.356262 
	C302.940155,243.877274 309.999847,247.398254 319.873871,244.997513 
	C326.287842,243.438034 329.681152,238.602890 331.078278,230.208176 
	C332.684875,220.554871 334.733490,210.975143 336.660156,201.000717 
	C358.162903,201.000717 379.112793,201.000717 400.531342,201.000366 
	C401.000000,267.630188 401.000000,334.260345 401.000000,400.945251 
	C267.776154,400.945251 134.552277,400.945251 1.000000,400.945251 
	C1.000000,334.646149 1.000000,268.291718 1.000000,201.468658 
z"/>
<path fill="#EE3329" opacity="1.000000" stroke="none" 
	d="
M401.000000,150.531357 
	C398.970215,153.266907 396.940399,155.533813 394.951263,157.755310 
	C393.204742,155.531525 391.443268,153.288666 389.573578,150.908051 
	C374.778687,161.522873 359.045959,168.958954 342.410889,174.524338 
	C323.873535,180.726181 307.131989,177.274139 292.074249,165.235229 
	C292.070526,164.619354 292.066803,164.003479 292.063080,163.387589 
	C299.474670,163.171082 306.996033,162.038498 314.277191,162.910690 
	C335.673492,165.473679 355.226013,160.696579 373.608612,149.991638 
	C374.757965,149.322296 375.920563,148.673416 377.046204,147.966003 
	C385.582214,142.601578 385.815247,140.810593 378.650513,132.855316 
	C385.368439,128.769135 392.806091,127.519302 400.615295,126.114792 
	C401.000000,134.020905 401.000000,142.041809 401.000000,150.531357 
z"/>
<path fill="#EE3026" opacity="1.000000" stroke="none" 
	d="
M59.992973,283.005829 
	C56.658264,276.969971 53.323563,270.934082 50.273869,265.414093 
	C53.294472,261.564789 55.681305,258.523132 58.176682,255.343140 
	C65.099533,257.437012 63.922016,265.374176 68.152992,270.436401 
	C68.740906,268.291748 69.188377,266.659424 69.520874,265.446503 
	C73.866478,265.123779 78.015091,264.815674 83.583351,264.402130 
	C83.619278,266.964691 83.950409,270.233582 83.613098,273.432007 
	C83.374496,275.694397 82.178917,277.845612 81.503479,280.074585 
	C80.442863,283.574768 81.538445,285.782654 84.819511,287.874329 
	C90.934380,291.772644 96.422119,296.652039 102.521706,300.578033 
	C105.462631,302.470947 109.125572,303.428802 112.591156,304.286530 
	C125.232307,307.415100 137.512390,306.463318 148.675079,299.363007 
	C164.366730,289.381927 170.928253,274.488068 169.611221,256.335938 
	C168.285004,238.057556 158.509705,225.797821 140.520706,219.620041 
	C141.242722,216.662552 141.733994,213.575378 142.746902,210.670059 
	C151.395782,185.862259 160.079514,161.066055 168.930252,136.329880 
	C170.035736,133.240250 170.250290,131.447006 167.634125,128.657883 
	C164.343842,125.150085 161.052719,120.590881 160.238327,116.042007 
	C158.753983,107.750999 155.276901,101.774765 147.118240,97.285759 
	C149.672623,96.071823 152.260208,94.921616 154.766769,93.615891 
	C155.942627,93.003365 157.804443,92.150146 157.863998,91.301353 
	C157.964188,89.873528 157.284164,87.805550 156.197250,87.005394 
	C154.129211,85.482948 151.542511,84.665031 147.426880,82.737709 
	C151.535995,81.151657 154.334900,79.438126 157.306595,79.050964 
	C164.341309,78.134468 170.987167,80.055199 176.663406,84.200584 
	C181.746902,87.913078 186.804413,91.857841 191.076218,96.442841 
	C199.156631,105.115738 208.603912,108.458389 220.297150,106.647102 
	C230.979248,104.992447 241.764267,104.013786 252.482742,102.579033 
	C262.456238,101.244019 269.486023,105.749222 273.731598,114.144081 
	C279.166809,124.891182 287.518188,128.566010 299.095673,127.473495 
	C310.997833,126.350319 322.958374,125.671860 334.909058,125.291832 
	C344.447662,124.988518 352.748627,130.166245 357.871033,138.649948 
	C357.618927,138.798386 357.287140,139.135941 357.126465,139.068100 
	C345.788605,134.282120 337.374756,138.427658 330.958405,147.898453 
	C327.376160,153.185989 323.591187,156.443588 316.544128,153.945679 
	C313.825043,152.981903 310.318085,154.484161 307.182861,154.398056 
	C301.455566,154.240768 295.740326,153.547958 290.014832,153.472473 
	C287.762390,153.442795 284.604279,153.712753 283.388306,155.144989 
	C277.733185,161.805756 272.613892,168.921463 266.581360,176.818924 
	C275.550018,180.523880 285.369965,182.506332 294.921082,185.146912 
	C304.387085,187.763947 313.720520,192.509903 324.192566,187.885696 
	C320.867767,201.801636 317.668793,215.191086 314.211395,229.661972 
	C309.495819,211.877792 295.805267,207.324051 280.647217,205.402008 
	C271.257599,204.211426 261.756866,203.622162 252.294739,203.471191 
	C249.925598,203.433380 246.599228,205.561569 245.293427,207.672195 
	C241.540558,213.738037 236.301926,215.802887 229.653534,215.258453 
	C223.176468,214.728088 218.126236,211.707077 215.609711,205.595505 
	C211.683121,196.059586 207.981033,186.424927 204.504929,176.717102 
	C204.023102,175.371445 204.830383,172.643860 205.966766,171.793823 
	C211.774261,167.449646 217.885544,163.511627 224.219650,159.207977 
	C216.971939,159.270950 210.415039,161.039581 204.704056,165.508728 
	C182.696884,182.730515 181.192566,209.729370 201.300705,229.204147 
	C208.164505,235.851746 209.121567,244.555069 209.838165,253.069229 
	C213.634323,298.171875 181.252426,337.216522 136.150696,341.408966 
	C129.549622,342.022552 122.386055,339.502838 115.865021,337.300873 
	C108.177818,334.705109 100.906761,330.876984 93.278976,327.505249 
	C87.918953,334.261383 93.855400,341.495361 93.421661,349.797394 
	C88.434860,344.891357 84.024307,345.156006 79.116730,348.926086 
	C78.790672,347.212006 78.353355,346.011383 78.372887,344.818207 
	C78.442986,340.534454 78.251022,336.184082 78.946686,331.989716 
	C79.695541,327.474609 78.146927,324.014435 75.872574,320.405945 
	C71.880486,314.072083 68.093803,307.603729 64.393600,301.093689 
	C63.157059,298.918121 62.016376,298.132385 59.301369,298.674988 
	C53.915489,299.751404 49.212807,297.965729 45.147953,294.138855 
	C42.660805,291.797302 39.739567,289.916901 37.636402,288.306488 
	C40.375229,284.268829 42.858086,280.608551 45.795822,276.277649 
	C49.553486,278.248108 54.455593,280.818726 59.576820,283.375519 
	C60.043797,283.416809 60.291649,283.471863 60.539509,283.526917 
	C60.357334,283.353210 60.175156,283.179504 59.992973,283.005829 
M269.052216,130.183548 
	C269.141815,130.192642 269.231384,130.201736 269.320984,130.210846 
	C269.225677,130.123001 269.130341,130.035156 268.725555,129.337753 
	C261.248169,126.166557 253.770782,122.995354 246.293396,119.824150 
	C246.622498,122.675758 247.721497,124.179024 248.171432,125.856407 
	C250.076736,132.959579 254.378082,135.038498 261.177307,132.202469 
	C263.708374,131.146759 266.466431,130.635315 269.052216,130.183548 
z"/>
<path fill="#EE3228" opacity="1.000000" stroke="none" 
	d="
M141.196381,252.816620 
	C146.705551,259.912018 147.394211,266.990021 143.430695,273.320038 
	C139.702103,279.274841 132.828598,282.226868 125.801163,280.891602 
	C118.878662,279.576233 113.655197,274.200592 112.455917,267.157501 
	C111.295143,260.340515 114.660004,253.344193 120.761551,249.888245 
	C127.377663,246.140839 134.321106,247.060547 141.196381,252.816620 
z"/>
<path fill="#EF362C" opacity="1.000000" stroke="none" 
	d="
M193.261383,94.504868 
	C192.571762,91.911209 191.967102,89.687828 191.209137,86.900658 
	C204.290558,87.410667 214.147171,93.173462 222.291275,103.542816 
	C210.467972,106.361267 200.926636,103.871666 193.261383,94.504868 
z"/>
<path fill="#EF3B31" opacity="1.000000" stroke="none" 
	d="
M69.018410,247.984695 
	C74.931320,248.840073 77.632454,252.569763 78.706390,257.589722 
	C78.947372,258.716187 77.695709,261.273438 77.273613,261.242279 
	C75.193855,261.088806 72.153191,260.918854 71.316269,259.584869 
	C69.373688,256.488525 68.472160,252.730118 67.270622,249.198563 
	C67.192871,248.970047 68.151886,248.388824 69.018410,247.984695 
z"/>
<path fill="#EF3F36" opacity="1.000000" stroke="none" 
	d="
M48.989441,251.746826 
	C50.758572,252.317612 52.136177,252.808472 54.249863,253.561615 
	C52.599060,256.070984 51.229710,258.152496 50.400997,259.412231 
	C44.645626,257.381470 39.810638,255.675491 34.960495,253.964157 
	C38.844555,251.010193 43.571362,250.620331 48.989441,251.746826 
z"/>
<path fill="#EF3D33" opacity="1.000000" stroke="none" 
	d="
M83.045036,364.144775 
	C81.658920,364.597717 80.606163,364.897583 78.322594,365.547974 
	C82.957497,360.890472 85.214211,356.574524 82.377090,349.677002 
	C85.535538,350.443726 88.154968,350.330109 89.250542,351.566650 
	C90.248993,352.693604 90.339523,355.725189 89.506577,357.135590 
	C87.977684,359.724426 85.475075,361.738190 83.045036,364.144775 
z"/>
<path fill="#EF3D34" opacity="1.000000" stroke="none" 
	d="
M40.091431,277.766479 
	C39.068233,281.731720 37.424309,283.554321 33.222649,282.017181 
	C30.523708,281.029755 27.403563,281.193634 24.033476,280.788757 
	C27.875141,276.365479 32.781052,275.406860 37.949406,275.340179 
	C38.664398,275.330933 39.396603,276.655090 40.091431,277.766479 
z"/>
<path fill="#FEF5F5" opacity="1.000000" stroke="none" 
	d="
M269.120972,129.875671 
	C266.466431,130.635315 263.708374,131.146759 261.177307,132.202469 
	C254.378082,135.038498 250.076736,132.959579 248.171432,125.856407 
	C247.721497,124.179024 246.622498,122.675758 246.293396,119.824150 
	C253.770782,122.995354 261.248169,126.166557 268.903748,129.626984 
	C269.081940,129.916229 269.120972,129.875671 269.120972,129.875671 
z"/>
<path fill="#FEF5F5" opacity="1.000000" stroke="none" 
	d="
M269.058472,129.931763 
	C269.130341,130.035156 269.225677,130.123001 269.320984,130.210846 
	C269.231384,130.201736 269.141815,130.192642 269.086609,130.029602 
	C269.120972,129.875671 269.081940,129.916229 269.058472,129.931763 
z"/>
<path fill="#FFFEFE" opacity="1.000000" stroke="none" 
	d="
M60.000362,282.999939 
	C60.175156,283.179504 60.357334,283.353210 60.539509,283.526917 
	C60.291649,283.471863 60.043797,283.416809 59.912605,283.170502 
	C60.029263,282.979279 60.007748,282.994049 60.000362,282.999939 
z"/>
</svg>