<svg version="1.1" id="Layer_1" xmlns="http://www.w3.org/2000/svg" xmlns:xlink="http://www.w3.org/1999/xlink" x="0px" y="0px"
	 width="100%" viewBox="0 0 1066 1023" enable-background="new 0 0 1066 1023" xml:space="preserve">
<path fill="#D73648" opacity="1.000000" stroke="none" 
	d="
M1.000000,500.000000 
	C1.000000,333.700500 1.000000,167.401031 1.000000,1.050771 
	C356.227173,1.050771 711.454346,1.050771 1067.000000,1.050771 
	C1067.000000,167.026733 1067.000000,333.053650 1066.659180,499.937988 
	C1064.065918,500.530640 1061.813477,500.034210 1059.561035,500.033966 
	C709.171021,499.999695 358.781036,500.001190 8.391056,500.001129 
	C5.927371,500.001129 3.463685,500.000397 1.000000,500.000000 
M492.920776,270.576935 
	C510.066528,284.224274 529.474976,287.723511 551.216919,283.254822 
	C528.707458,272.322571 511.798828,255.221863 495.650238,237.266159 
	C479.421417,219.221176 464.853058,199.898346 451.216644,179.490280 
	C453.146759,178.846268 454.408997,178.435364 455.664490,178.004715 
	C482.215546,168.897751 499.156250,141.682358 494.859375,113.986992 
	C491.655090,93.333778 477.536438,82.697815 458.702118,77.012566 
	C444.091248,72.602196 429.046875,73.448456 414.078857,73.431084 
	C399.801605,73.414520 385.524353,73.427513 371.116028,73.427513 
	C372.201874,79.576752 373.855499,84.620872 373.861511,89.666962 
	C373.904846,126.143234 373.730072,162.621017 373.372437,199.095856 
	C373.235321,213.080734 372.440216,227.059158 371.944061,241.040482 
	C371.850861,243.666290 371.873688,246.384949 375.459076,246.414841 
	C386.207550,246.504501 396.957275,246.447113 406.881256,246.447113 
	C405.327179,225.868042 403.808472,205.757538 402.250793,185.130707 
	C408.777191,185.130707 413.922485,185.368484 419.033386,185.051819 
	C422.792633,184.818878 425.006927,186.013687 427.084778,189.290115 
	C433.411377,199.265884 440.045685,209.056091 446.824585,218.733322 
	C460.035706,237.592865 473.903687,255.903229 492.920776,270.576935 
M665.742004,215.226273 
	C669.173096,209.737808 673.103455,204.494293 675.939453,198.713867 
	C683.715759,182.863693 685.029785,165.836685 683.944946,148.505280 
	C681.873596,115.411514 663.227356,90.734726 631.479736,81.081406 
	C620.153259,77.637428 608.043274,75.646507 596.211731,75.227631 
	C573.424316,74.420837 550.580383,75.201012 527.760132,75.353485 
	C526.856750,75.359520 525.955505,75.677780 525.642517,75.737709 
	C526.837219,82.805656 528.428589,89.439232 529.017273,96.160614 
	C532.526550,136.232941 531.437622,176.380554 530.575378,216.517654 
	C530.414429,224.009964 529.898438,231.495819 529.802917,238.987946 
	C529.738464,244.038940 532.463379,247.100021 537.283630,247.051071 
	C559.922180,246.821198 582.645020,247.490189 605.172119,245.725098 
	C628.772705,243.875870 649.465149,234.220947 665.742004,215.226273 
M72.017357,157.563004 
	C71.510696,163.867386 70.622009,170.168045 70.560890,176.476746 
	C70.226280,211.020584 82.232254,239.999161 110.081070,261.370483 
	C128.616531,275.594635 150.064682,282.148499 173.154572,283.674469 
	C198.069611,285.321045 221.479080,280.237305 243.027512,267.394897 
	C244.439102,266.553619 246.473480,264.898499 246.400833,263.735443 
	C246.009613,257.471252 245.043701,251.242920 244.214828,244.504227 
	C242.978668,245.302734 242.251862,245.661728 241.655716,246.173096 
	C206.432449,276.386200 159.969528,267.155060 132.704895,240.984955 
	C100.993469,210.546509 92.943741,157.158829 113.907036,116.634567 
	C130.091782,85.347748 160.382965,70.595009 194.787201,78.147125 
	C212.806534,82.102562 228.043777,90.820045 236.293427,108.559357 
	C237.247406,110.610718 238.000336,112.755569 238.846466,114.857079 
	C239.357742,114.997086 239.869003,115.137100 240.380264,115.277107 
	C243.552277,108.270195 247.244995,101.445236 249.772217,94.213013 
	C253.412033,83.796967 250.063263,77.158310 240.110626,72.408127 
	C225.244247,65.312714 209.672836,60.688118 193.246597,59.395241 
	C155.895203,56.455379 123.907295,67.558601 99.055412,96.394302 
	C84.091393,113.757088 75.849167,134.247971 72.017357,157.563004 
M915.493042,274.823456 
	C919.954346,274.823456 924.415649,274.823456 928.786316,274.823456 
	C924.429504,239.112503 924.410706,203.713501 923.939941,168.009659 
	C945.998779,165.609604 967.401062,166.042343 988.484131,172.538223 
	C989.340759,170.074066 990.044617,168.393921 990.510559,166.650208 
	C992.671875,158.562561 987.383362,152.032379 979.009033,152.117355 
	C962.022644,152.289795 945.035034,152.338058 928.047729,152.406540 
	C926.790710,152.411606 925.532654,152.168503 923.629761,151.975220 
	C924.354248,127.249695 925.069214,102.851936 925.800354,77.901398 
	C953.425964,78.507111 980.584473,76.276138 1007.705566,84.588890 
	C1007.892700,81.468002 1008.293640,78.383385 1008.219482,75.310226 
	C1008.031494,67.519096 1003.325256,63.034035 995.570984,63.035412 
	C962.754028,63.041229 929.937134,63.058067 897.120178,63.070755 
	C895.531006,63.071369 893.941833,63.070835 892.360107,63.070835 
	C892.300720,64.297470 892.208374,64.801292 892.262512,65.288872 
	C896.532288,103.796616 896.527222,142.425461 895.468262,181.077438 
	C894.729309,208.051590 893.786011,235.020126 893.031921,261.993896 
	C892.749756,272.086609 895.591187,274.874908 905.504333,274.828278 
	C908.502808,274.814178 911.501343,274.824371 915.493042,274.823456 
M862.770691,91.661476 
	C868.209351,92.979088 873.648010,94.296692 879.117188,95.621704 
	C880.366211,80.564789 874.579895,74.034668 860.193054,74.032112 
	C838.367798,74.028244 816.542480,74.031044 794.717224,74.031029 
	C788.237061,74.031021 781.756897,74.031029 775.176758,74.031029 
	C775.835632,78.315598 776.902039,82.222504 776.966797,86.145958 
	C777.538696,120.770058 778.148682,155.396255 778.282104,190.023636 
	C778.343018,205.838409 777.409180,221.658997 776.821411,237.473038 
	C776.644165,242.240677 778.289734,246.444275 783.070007,246.791992 
	C792.266235,247.460907 801.545532,246.986893 811.049500,246.986893 
	C804.151550,218.765015 808.174866,190.584244 806.829834,162.488831 
	C826.173523,160.574203 844.655884,160.425461 862.882385,167.181503 
	C863.280396,164.257278 863.736877,161.813507 863.925903,159.349228 
	C864.565918,151.006348 861.405579,147.748138 853.028320,147.791931 
	C842.699036,147.845932 832.369385,147.809586 822.039856,147.811554 
	C817.096497,147.812500 812.153198,147.811707 806.531677,147.811707 
	C807.110291,127.906593 807.669495,108.669617 808.240112,89.039383 
	C826.562195,89.041374 844.355835,87.561668 862.770691,91.661476 
M243.654755,184.092087 
	C238.272308,195.524078 232.869095,206.946411 227.530731,218.398956 
	C226.766663,220.038147 226.205536,221.794434 225.745575,223.547714 
	C225.016891,226.325363 225.999039,228.284241 229.026306,228.387756 
	C233.775330,228.550171 238.533966,228.430862 243.014587,228.430862 
	C243.872345,224.467743 244.225372,220.937164 245.412277,217.713638 
	C248.800140,208.512573 252.645966,199.480316 256.048126,190.284164 
	C257.065369,187.534515 258.626678,187.013153 261.250854,187.032227 
	C275.739899,187.137451 290.231232,187.177353 304.718994,187.005630 
	C307.752747,186.969666 309.046661,188.083542 310.099976,190.764633 
	C314.232819,201.283890 318.427612,211.787186 323.002625,222.117859 
	C324.026855,224.430664 326.580109,227.544449 328.605408,227.681061 
	C337.589905,228.287094 346.638397,227.943619 355.669220,227.943619 
	C353.012054,223.043655 350.248962,218.693619 348.193756,214.031540 
	C338.403534,191.823364 328.780884,169.541122 319.147766,147.263962 
	C312.088654,130.939285 305.060883,114.600647 298.121765,98.224739 
	C296.487122,94.367142 293.609436,92.748985 289.680084,92.248947 
	C285.803040,91.755585 285.559570,94.979233 284.510742,97.200966 
	C270.954651,125.917046 257.461426,154.662796 243.654755,184.092087 
M225.340668,358.500214 
	C224.891632,374.312256 224.485519,390.125671 223.966293,405.935425 
	C223.818909,410.423157 222.961426,414.921783 223.215134,419.370605 
	C223.308411,421.006104 225.475357,423.576843 227.037369,423.863586 
	C230.685364,424.533203 234.539978,424.077362 237.706909,424.077362 
	C237.706909,402.011169 237.706909,380.649780 237.706909,358.950989 
	C238.511093,359.615631 239.287064,360.161102 239.950882,360.819580 
	C260.528168,381.230957 281.186035,401.562714 301.571594,422.163971 
	C304.934631,425.562683 308.090393,426.668365 312.703491,425.289215 
	C312.703491,422.167145 312.666595,419.192841 312.709351,416.219635 
	C313.075409,390.755829 313.193604,365.284485 313.945404,339.831940 
	C314.308289,327.546692 313.447449,326.360657 300.477234,328.372498 
	C300.477234,349.531586 300.477234,370.689392 300.477234,392.516327 
	C298.756653,391.004547 297.487213,389.987762 296.329102,388.856964 
	C276.305786,369.305084 256.216858,349.818970 236.361694,330.097656 
	C233.054977,326.813232 229.864914,326.173370 225.344986,327.438232 
	C225.344986,337.547546 225.344986,347.523865 225.340668,358.500214 
M615.126099,389.187439 
	C622.706116,400.325775 630.004395,411.669922 637.947571,422.542999 
	C645.470825,432.841217 656.211609,435.891388 669.431519,434.528503 
	C654.080994,418.157684 640.573730,401.448700 629.024658,382.822174 
	C631.123413,382.061737 632.677673,381.558899 634.185608,380.942749 
	C646.017334,376.108215 653.395508,364.119568 652.282104,351.579254 
	C651.236816,339.805359 643.684204,330.904022 630.330750,329.391388 
	C614.724609,327.623566 598.885681,327.910797 583.347717,327.314117 
	C583.871399,332.308533 584.582397,336.248291 584.638611,340.197388 
	C584.768982,349.350952 584.565979,358.509003 584.528748,367.665344 
	C584.463013,383.815582 584.444580,399.966034 584.349792,416.116089 
	C584.326721,420.038910 585.394531,423.325012 589.775818,423.686218 
	C594.362915,424.064392 599.005432,423.770752 603.231323,423.770752 
	C603.231323,410.973785 603.231323,398.756378 603.231323,386.078522 
	C606.975464,386.980865 611.539856,383.723419 615.126099,389.187439 
M712.120422,133.517776 
	C711.894348,155.678513 711.655518,177.839142 711.450195,200.000076 
	C711.391541,206.332642 711.319336,212.668549 711.458740,218.998398 
	C711.573792,224.223846 713.916870,227.296280 718.684692,227.524582 
	C726.296204,227.889038 733.937805,227.622086 742.071899,227.622086 
	C741.523987,222.796600 740.801270,218.394867 740.561279,213.966980 
	C739.669128,197.507217 738.285095,181.038101 738.303284,164.573853 
	C738.327393,142.766968 739.502808,120.961609 740.162964,99.154984 
	C740.284363,95.143784 738.103271,92.558823 734.306274,92.413979 
	C726.024353,92.098022 717.722168,92.316315 709.405457,92.316315 
	C710.320068,106.026840 711.203979,119.277061 712.120422,133.517776 
M124.968491,370.511414 
	C125.377533,358.196045 125.775436,345.880280 126.203857,333.565582 
	C126.304253,330.679810 125.926842,327.843109 122.433990,327.633240 
	C117.353630,327.327972 112.241287,327.554932 108.095573,327.554932 
	C108.095573,350.211853 107.399048,372.198853 108.330101,394.116699 
	C108.997833,409.835876 118.963669,420.801758 134.161011,423.741943 
	C142.680008,425.390137 151.732437,425.819855 160.371994,424.993896 
	C179.905243,423.126465 191.340088,411.574524 194.102951,392.145630 
	C194.990692,385.903015 195.198471,379.551453 195.492599,373.239258 
	C196.104889,360.099030 196.550964,346.951111 197.101593,333.807861 
	C197.253555,330.180084 196.097260,327.237427 192.141739,327.133850 
	C188.588333,327.040741 185.010193,327.892334 181.160294,328.361664 
	C181.290787,329.557617 181.503464,330.672119 181.520737,331.789673 
	C181.808502,350.408051 183.299179,369.112183 182.011490,387.622589 
	C180.591064,408.040985 167.357101,416.811737 146.985168,413.453705 
	C133.900681,411.296906 127.659683,405.196503 125.974106,391.919861 
	C125.118546,385.180847 125.263329,378.314880 124.968491,370.511414 
M464.415466,365.975861 
	C469.210022,355.733185 474.057343,345.514679 478.774750,335.236603 
	C480.842896,330.730774 479.911835,327.708008 476.351562,327.433197 
	C472.257782,327.117188 468.120880,327.359802 464.788574,327.359802 
	C457.779602,352.954834 445.759247,375.605438 435.086304,400.020294 
	C433.658539,396.977539 432.764862,395.223602 431.998230,393.415802 
	C423.948425,374.433014 415.899109,355.449890 407.899231,336.446014 
	C406.139648,332.266052 403.810883,328.423218 398.974365,327.964417 
	C393.763184,327.470032 388.468842,327.852631 382.772095,327.852631 
	C383.245087,329.096710 383.488892,329.843597 383.806335,330.557770 
	C397.314056,360.946228 410.914307,391.294128 424.248962,421.758301 
	C426.248962,426.327484 429.665344,424.495911 432.646515,424.772614 
	C435.565643,425.043549 438.180908,425.227173 439.831635,421.383179 
	C447.704834,403.049316 455.970886,384.884186 464.415466,365.975861 
M506.885986,423.582062 
	C519.879456,423.582428 532.872864,423.587189 545.866333,423.581726 
	C555.711487,423.577606 558.467529,419.954224 556.304321,411.502563 
	C544.859131,412.279602 533.655151,413.073425 522.445496,413.776428 
	C519.858948,413.938629 517.096863,413.779510 517.067200,410.203217 
	C516.980347,399.750488 517.036316,389.296600 517.036316,377.819336 
	C528.983521,378.799561 540.323914,379.729980 552.130005,380.698639 
	C552.130005,379.103210 552.141846,377.471222 552.127930,375.839447 
	C552.073486,369.452026 550.470276,367.869385 544.157349,367.951172 
	C542.158569,367.977051 540.159790,368.018066 538.161011,368.020447 
	C531.067993,368.028961 523.974976,368.023773 517.097351,368.023773 
	C517.097351,358.012207 517.097351,347.799225 517.097351,336.384827 
	C530.325500,337.581421 542.785767,338.708527 555.229187,339.834106 
	C555.872681,330.319061 553.539856,327.675293 544.368896,327.657013 
	C533.374573,327.635071 522.380127,327.651001 511.385773,327.650574 
	C506.790833,327.650421 502.195892,327.650543 497.913361,327.650543 
	C498.331512,332.043030 498.991180,335.788635 498.995758,339.535034 
	C499.026855,365.018158 498.926117,390.501495 498.853241,415.984711 
	C498.835815,422.070709 499.737518,423.058868 506.885986,423.582062 
M719.990295,410.580383 
	C713.058533,417.502991 696.634399,414.361450 688.002319,407.503632 
	C685.450989,405.476715 683.124023,403.167358 680.222900,400.564575 
	C679.435303,404.497131 678.576782,407.849030 678.130188,411.254944 
	C677.597534,415.316986 679.350098,418.497833 683.020203,420.260254 
	C698.958008,427.913757 714.610840,427.506195 729.480896,417.662384 
	C743.438293,408.422791 749.157593,381.097229 725.141479,371.235626 
	C721.912903,369.909912 718.645813,368.676056 715.435669,367.307922 
	C711.313721,365.551208 707.052490,364.017487 703.173035,361.819702 
	C697.063660,358.358612 694.665466,352.536743 696.335022,346.680664 
	C698.076538,340.571838 703.464539,336.255188 709.999268,336.148132 
	C717.823425,336.019928 724.773071,338.397705 730.144409,344.350159 
	C731.097534,345.406372 731.570801,346.895569 732.265686,348.184845 
	C734.953613,344.739441 736.249634,342.415436 737.140381,339.945251 
	C739.107849,334.488892 738.142883,331.640839 732.804138,329.599792 
	C719.490417,324.509979 706.116516,323.979645 693.256226,331.030823 
	C682.984131,336.662842 678.528015,347.078033 680.715332,358.522369 
	C682.338745,367.015717 687.751648,372.351257 695.088745,375.893951 
	C701.965454,379.214355 709.244995,381.712128 716.068054,385.129395 
	C727.223145,390.716278 728.835571,400.548889 719.990295,410.580383 
M963.461609,352.973602 
	C967.961731,346.782715 972.565491,340.662567 976.877441,334.343292 
	C977.774719,333.028381 978.192627,330.766479 977.693237,329.339172 
	C977.367188,328.407074 975.020142,327.883881 973.521118,327.727661 
	C971.050415,327.470184 968.514587,327.850311 966.040649,327.609009 
	C963.041626,327.316498 961.763977,328.496979 960.733582,331.345337 
	C955.611572,345.504211 946.540283,357.403931 938.481812,370.526306 
	C937.115845,368.524902 936.131409,367.205200 935.274353,365.807373 
	C928.840454,355.314606 922.568542,344.718475 915.916382,334.366486 
	C914.306702,331.861542 911.661804,328.689423 909.154724,328.354248 
	C902.751648,327.498291 896.157776,328.069031 889.830078,328.069031 
	C901.586426,345.919067 913.262756,363.509521 924.725769,381.237885 
	C926.065247,383.309448 926.842407,386.146484 926.825989,388.621613 
	C926.762878,398.103760 926.306641,407.584595 925.917969,417.062653 
	C925.766968,420.744904 927.101501,423.524536 930.911926,423.827606 
	C935.646362,424.204132 940.433533,423.917877 945.464233,423.917877 
	C945.090332,416.965179 945.132874,410.620605 944.336487,404.383179 
	C942.486694,389.896423 944.868225,376.775543 954.787292,365.435059 
	C957.941895,361.828308 960.312317,357.535675 963.461609,352.973602 
M850.046936,415.242859 
	C850.046936,390.340424 850.046936,365.437988 850.046936,340.115662 
	C857.427307,340.494965 865.033936,340.987366 872.648499,341.242432 
	C877.942810,341.419739 880.707703,338.650330 880.757690,333.442719 
	C880.774780,331.667877 880.556335,329.890778 880.439758,328.023529 
	C879.452942,327.874512 878.813171,327.694061 878.173279,327.693420 
	C855.200195,327.670044 832.226746,327.596100 809.254150,327.693756 
	C801.930786,327.724884 798.575439,332.497528 799.713318,340.361206 
	C810.103455,340.361206 820.458496,340.361206 831.515747,340.361206 
	C831.515747,358.440430 831.567078,376.544830 831.491089,394.648682 
	C831.459656,402.137207 831.154907,409.624542 830.975830,417.112488 
	C830.890076,420.699646 832.260803,423.640259 835.997498,423.989258 
	C840.732422,424.431519 845.539917,424.096222 850.635010,424.096222 
	C850.428284,421.066437 850.261230,418.617889 850.046936,415.242859 
M766.370911,350.499603 
	C766.435425,358.322021 766.639160,366.146332 766.533752,373.966461 
	C766.347412,387.782104 766.022461,401.596497 765.648560,415.408508 
	C765.529236,419.816132 767.008911,423.225800 771.584534,423.775024 
	C775.944397,424.298279 780.416321,423.887726 784.956848,423.887726 
	C784.619019,417.594757 784.054077,411.952820 784.058960,406.311310 
	C784.079285,382.843567 784.252808,359.375824 784.414429,335.908386 
	C784.451050,330.582275 782.632263,327.527344 778.367004,327.196594 
	C774.111206,326.866516 769.809875,327.124207 765.239990,327.124207 
	C765.627136,334.961395 765.986267,342.231903 766.370911,350.499603 
M362.460571,404.896637 
	C362.365265,402.237305 362.161407,399.576752 362.191925,396.918854 
	C362.426666,376.465790 362.659912,356.012451 363.011383,335.561188 
	C363.084503,331.308411 361.619720,328.088928 357.314789,327.562469 
	C352.951508,327.028900 348.472137,327.444702 343.645660,327.444702 
	C343.755646,329.679749 343.880035,331.314636 343.909943,332.951233 
	C344.235077,350.740265 344.709778,368.528717 344.795441,386.319031 
	C344.843445,396.291626 344.271667,406.268402 343.915436,416.241058 
	C343.779480,420.046844 345.259766,423.246094 348.971741,423.744690 
	C353.773926,424.389740 358.728302,423.902008 363.583923,423.902008 
	C363.211731,417.447052 362.876923,411.640778 362.460571,404.896637 
z"/>
<path fill="#D73648" opacity="1.000000" stroke="none" 
	d="
M1067.000000,525.000000 
	C1067.000000,691.299500 1067.000000,857.598999 1067.000000,1023.949219 
	C711.772766,1023.949219 356.545532,1023.949219 1.000000,1023.949219 
	C1.000000,857.973267 1.000000,691.946350 1.340862,525.062012 
	C3.934040,524.469360 6.186333,524.965942 8.438673,524.966187 
	C358.828735,525.000427 709.218811,524.998962 1059.608887,524.998962 
	C1062.072632,524.998962 1064.536255,524.999634 1067.000000,525.000000 
M967.506042,756.951782 
	C961.601868,755.277222 955.750488,752.399292 949.784241,752.137329 
	C924.535583,751.028503 899.252808,750.696228 873.981812,750.107849 
	C873.791748,750.103455 873.592651,750.483948 873.879578,750.188416 
	C879.061218,770.577637 877.577637,791.009583 878.749756,811.730347 
	C861.085571,811.730347 844.310974,811.730347 827.655029,811.730347 
	C828.780762,816.593689 830.429626,821.039001 830.743835,825.576782 
	C831.686768,839.193726 832.651917,852.848267 832.616455,866.485535 
	C832.550659,891.791382 831.809509,917.096008 831.283813,942.399841 
	C831.171448,947.808899 832.949707,950.963745 837.398193,950.862488 
	C858.006470,950.393433 878.789307,951.104370 899.168152,948.606506 
	C927.918335,945.082397 949.690552,924.610474 954.561218,897.743347 
	C956.341431,887.922974 959.871765,882.736755 968.925720,877.815125 
	C995.093018,863.590698 1004.630066,839.805481 1002.686707,810.718689 
	C1001.065186,786.449097 991.429565,767.500061 967.506042,756.951782 
M463.432922,922.523132 
	C458.584656,902.401184 458.309509,881.918579 457.943542,861.039490 
	C463.908905,861.039490 469.222168,861.242249 474.510406,860.966431 
	C477.899323,860.789673 479.846313,861.958496 481.745758,864.810730 
	C490.879028,878.525513 500.002563,892.264038 509.679260,905.595093 
	C521.747314,922.220825 535.072937,937.717468 552.176208,949.584229 
	C568.894836,961.184021 586.927612,963.313049 606.136780,958.132385 
	C562.682373,933.935181 535.296448,894.503906 506.851166,855.420471 
	C508.706482,854.747192 509.637115,854.396729 510.576172,854.070618 
	C530.388611,847.191101 543.454163,833.732239 549.385254,813.635803 
	C555.702332,792.231689 549.184021,772.436401 532.286804,761.038574 
	C522.088867,754.159790 510.536438,750.467468 498.467651,750.188538 
	C475.001373,749.646301 451.510773,750.155579 428.030334,750.251770 
	C427.774902,750.252808 427.520691,750.556396 428.496338,749.934692 
	C429.052795,761.580750 430.113861,772.472534 429.998199,783.351807 
	C429.528992,827.487732 428.695251,871.619751 428.004303,915.753357 
	C427.904449,922.128723 428.409454,922.707703 434.623047,922.738037 
	C443.951843,922.783569 453.281158,922.724609 463.432922,922.523132 
M628.499939,922.129822 
	C639.948853,921.432251 651.580872,921.786865 662.811035,919.832153 
	C692.015015,914.749146 714.976868,900.305786 727.651672,872.382874 
	C734.639038,856.989746 735.946777,840.625732 734.944580,823.968933 
	C733.004883,791.731384 715.236206,767.535950 684.743713,757.455933 
	C674.432068,754.047058 663.367493,751.705994 652.551697,751.276550 
	C627.762024,750.292419 602.913635,750.782227 578.089050,750.697815 
	C577.345459,750.695312 576.600952,750.963379 576.001770,751.077698 
	C577.077332,755.742004 578.627197,760.040588 578.980957,764.435425 
	C580.209595,779.700867 581.834473,795.000000 581.828003,810.285706 
	C581.813904,843.596863 580.939270,876.908508 580.304504,910.217834 
	C580.117249,920.043091 581.903381,922.128296 591.509216,922.129517 
	C603.506104,922.131104 615.502991,922.129822 628.499939,922.129822 
M149.874420,757.221069 
	C160.258606,753.092834 171.111267,751.083984 182.166367,752.224731 
	C207.319107,754.820190 228.241470,764.059265 237.570801,790.053406 
	C237.660980,790.304688 238.079117,790.438354 238.645554,790.841309 
	C240.239105,788.302002 242.040390,785.894226 243.346451,783.242615 
	C245.325195,779.225220 247.271545,775.141968 248.679886,770.903320 
	C252.449738,759.557495 249.465454,753.077393 238.626587,747.928162 
	C224.201263,741.075195 209.052094,736.766113 193.152161,735.441528 
	C154.385590,732.212036 121.355789,743.903503 96.527199,774.600464 
	C74.910042,801.326965 67.508270,832.668457 70.354973,866.416565 
	C72.426300,890.972595 82.223961,912.385132 100.205284,929.579163 
	C121.197678,949.652466 146.876801,958.460327 175.409271,959.800598 
	C199.118698,960.914246 221.349533,955.601318 241.827301,943.456299 
	C243.259888,942.606689 245.378342,940.991394 245.307480,939.847961 
	C244.915283,933.518677 243.943283,927.225342 243.118713,920.502319 
	C241.917786,921.204773 241.451675,921.391418 241.090698,921.700745 
	C203.920288,953.557922 156.304047,942.606934 130.081635,915.077576 
	C102.002464,885.598999 95.808929,850.139954 105.710747,811.636108 
	C111.952538,787.364502 125.376915,768.095398 149.874420,757.221069 
M329.533630,905.005310 
	C334.904877,905.005310 340.276093,905.005310 345.949158,905.005310 
	C344.035614,901.573181 342.280334,898.940247 341.022583,896.087952 
	C330.488007,872.197754 320.016754,848.279541 309.583649,824.344788 
	C302.275482,807.578979 295.071655,790.767761 287.786774,773.991760 
	C286.238647,770.426636 283.375275,768.895264 279.530731,768.522461 
	C275.637207,768.144775 275.385468,771.267151 274.346130,773.475342 
	C255.363342,813.807556 236.436798,854.166199 217.525665,894.532104 
	C216.683990,896.328674 215.851089,898.195374 215.456039,900.120056 
	C214.839005,903.126343 216.213730,905.000732 219.398605,905.061035 
	C223.874817,905.145874 228.353836,905.082520 232.698364,905.082520 
	C233.538956,901.282593 233.884293,897.734680 235.116364,894.527466 
	C238.693695,885.215515 242.493927,875.980896 246.557419,866.872437 
	C247.196777,865.439392 249.648087,863.981262 251.283401,863.956177 
	C265.942688,863.731506 280.607635,863.903748 295.268890,863.757019 
	C298.088959,863.728821 299.340057,864.695801 300.333496,867.263611 
	C304.353180,877.653625 308.751923,887.897827 312.715607,898.308167 
	C314.524292,903.058655 317.622040,905.174866 322.553802,905.014893 
	C324.551147,904.950134 326.552399,905.004883 329.533630,905.005310 
M846.298157,696.924561 
	C847.580261,696.569214 848.882507,696.273865 850.141357,695.849487 
	C868.001404,689.829346 880.511841,678.564392 884.004456,659.444519 
	C887.585083,639.842773 882.064392,623.083313 865.983459,610.701538 
	C853.287781,600.926208 838.427490,598.521729 822.901489,600.108032 
	C804.361450,602.002258 788.827637,609.367310 781.859741,627.881226 
	C774.737000,646.806519 775.541809,665.599609 789.595764,681.338867 
	C804.581055,698.121033 824.240479,701.041687 846.298157,696.924561 
M285.811584,703.851318 
	C272.275513,689.200073 260.109619,673.527222 249.590714,656.160156 
	C250.920273,655.651184 251.671890,655.342834 252.437271,655.073608 
	C266.223175,650.224365 274.300903,638.330872 273.197510,624.498779 
	C272.214630,612.177185 263.985718,603.936401 248.662506,601.936157 
	C238.654556,600.629700 228.408157,601.114929 218.266617,600.881897 
	C213.525879,600.772888 208.780563,600.863281 204.289902,600.863281 
	C204.759628,605.133667 205.419357,608.740479 205.500015,612.360229 
	C205.670654,620.016968 205.558594,627.680420 205.527176,635.341064 
	C205.454071,653.164368 205.380402,670.987732 205.259048,688.810730 
	C205.231613,692.840332 206.067459,696.438416 210.762314,696.842651 
	C215.349808,697.237671 219.997925,696.928589 224.673553,696.928589 
	C224.106110,684.088196 223.561264,671.758972 223.019318,659.495300 
	C233.531967,658.625610 233.306030,658.771301 238.222214,666.395691 
	C244.532806,676.182556 251.005127,685.885986 257.863098,695.293396 
	C264.994293,705.075562 278.197113,709.833313 288.204681,706.745544 
	C287.535034,705.922974 286.918518,705.165649 285.811584,703.851318 
M767.141968,777.354919 
	C765.083496,772.903442 762.143433,769.060852 756.974487,768.764709 
	C749.584229,768.341309 742.151611,768.656921 734.197937,768.656921 
	C735.087524,770.196289 735.616760,771.184021 736.211487,772.130493 
	C749.051208,792.568604 761.975403,812.954346 774.644104,833.497742 
	C776.192261,836.008362 777.074097,839.359680 777.073975,842.321411 
	C777.073364,855.647705 776.675903,868.974792 776.348511,882.299805 
	C776.246704,886.444519 777.452087,890.003723 781.953430,890.318970 
	C788.512085,890.778259 795.126770,890.436890 801.313416,890.436890 
	C800.863831,873.234070 800.342712,856.771606 800.100159,840.305054 
	C800.063354,837.810242 800.751770,834.936890 802.069763,832.847351 
	C813.703308,814.403992 825.562073,796.102722 837.330444,777.744263 
	C838.308533,776.218506 839.500183,774.674377 839.907288,772.974670 
	C840.503174,770.486816 839.906921,768.168945 836.621643,768.125610 
	C831.498230,768.058044 826.373230,768.107727 821.901306,768.107727 
	C814.797913,788.334656 803.762756,805.500916 792.488647,823.797607 
	C783.759094,807.785034 775.636719,792.886169 767.141968,777.354919 
M714.678833,610.623535 
	C724.976562,612.056641 733.900146,616.606445 742.232056,623.341431 
	C742.993286,621.337524 743.600159,619.843384 744.131958,618.322876 
	C747.100952,609.833862 746.291565,608.070801 737.864685,604.879700 
	C721.731384,598.770325 705.280884,598.449768 688.778320,602.853943 
	C669.111206,608.102783 657.030212,620.719604 654.502197,641.157288 
	C651.005676,669.425110 662.774597,691.642456 693.435791,697.713928 
	C711.713440,701.333130 729.558777,697.812866 747.161926,692.913574 
	C748.213379,692.620911 749.608826,690.973938 749.622559,689.940918 
	C749.771301,678.779419 749.808533,667.611755 749.565613,656.452576 
	C749.490967,653.020874 747.410645,650.297119 743.741211,649.995850 
	C739.654297,649.660339 735.518677,649.918945 732.210815,649.918945 
	C732.210815,659.222107 732.211243,668.007690 732.210754,676.793335 
	C732.210266,685.800537 732.209900,685.800476 723.556519,687.561768 
	C693.735779,693.631531 672.194214,675.817688 674.262878,646.798279 
	C675.987061,622.610779 691.881470,608.011292 714.678833,610.623535 
M406.256439,848.718445 
	C406.145447,847.593994 406.034485,846.469482 405.889832,845.003723 
	C394.161713,849.013245 382.372131,850.578003 370.269867,849.976196 
	C367.011658,849.814148 364.471741,848.914795 364.433228,845.333984 
	C364.301422,833.075378 364.382660,820.814575 364.382660,807.364197 
	C376.837891,808.542480 388.774048,809.671753 400.953796,810.823975 
	C400.953796,809.319153 400.958008,807.836426 400.953094,806.353760 
	C400.928101,798.794556 399.128998,796.847717 391.496002,796.875244 
	C386.005951,796.895081 380.519409,797.404419 375.027527,797.573608 
	C371.269257,797.689453 367.504517,797.595825 363.695770,797.595825 
	C363.695770,785.352112 363.695770,773.412659 363.695770,760.248413 
	C377.313782,761.372009 390.576721,762.466309 403.836700,763.560425 
	C404.729614,752.937561 401.896271,749.812134 390.625305,749.809631 
	C382.794983,749.807922 374.964630,749.809326 367.134308,749.809326 
	C358.499817,749.809326 349.865356,749.809326 341.636841,749.809326 
	C342.169891,755.841431 343.092010,761.417419 343.082794,766.991821 
	C343.036774,794.811707 342.753448,822.631226 342.537048,850.450745 
	C342.476929,858.183167 344.074707,859.862427 351.822418,859.875000 
	C366.483429,859.898682 381.144623,859.848572 395.805481,859.901245 
	C403.765686,859.929810 406.062408,857.733826 406.256439,848.718445 
M109.107765,607.550476 
	C109.391396,610.860901 109.911194,614.170654 109.920845,617.481873 
	C109.990341,641.303833 109.998398,665.126282 109.917198,688.948242 
	C109.902237,693.339111 111.145012,696.713440 115.919746,697.141235 
	C120.137924,697.519165 124.416725,697.220337 128.347443,697.220337 
	C128.347443,684.454529 128.347443,672.246094 128.347443,659.817139 
	C131.464172,659.817139 134.373398,660.256775 137.097855,659.733765 
	C144.878174,658.240295 153.019409,657.400696 160.222580,654.395691 
	C173.107407,649.020325 179.502884,636.705322 177.502167,624.262817 
	C175.438721,611.430115 166.821884,603.258789 151.796936,602.109009 
	C137.557007,601.019348 123.200195,601.455139 108.894394,601.248169 
	C108.660316,601.244812 108.421036,601.600891 108.029472,601.912231 
	C108.345642,603.452393 108.676941,605.066223 109.107765,607.550476 
M615.613220,646.858337 
	C610.461426,644.561401 605.287598,642.312378 600.164917,639.952209 
	C596.101013,638.079834 591.913391,636.374878 588.119202,634.044434 
	C583.690613,631.324158 581.424744,626.998352 582.141052,621.731689 
	C582.889221,616.230225 585.916748,611.921631 591.276428,610.271057 
	C594.480408,609.284424 598.169128,609.205444 601.544739,609.579041 
	C609.014282,610.405762 614.562805,614.869751 619.217041,620.855591 
	C620.191223,619.349609 620.887634,618.421021 621.430847,617.410156 
	C626.332520,608.288757 624.866333,603.588013 614.891968,601.218750 
	C607.584290,599.482849 599.733887,598.681763 592.271484,599.281433 
	C582.485535,600.067810 574.085022,604.738525 569.108887,613.795776 
	C562.018311,626.701721 566.975708,641.508667 580.966919,648.628967 
	C588.354187,652.388367 596.287537,655.076904 603.663269,658.856079 
	C610.628784,662.425049 612.726013,667.874084 611.006348,675.099854 
	C609.476501,681.528015 603.796021,686.545471 597.188171,686.971863 
	C586.539978,687.658875 577.150146,684.611755 569.384460,677.088989 
	C568.369629,676.105896 567.335999,675.142273 565.634399,673.527466 
	C564.764709,677.993774 563.277222,681.753174 563.576782,685.364197 
	C563.802490,688.085327 565.673828,691.593750 567.918762,693.072571 
	C581.846497,702.246765 606.956360,699.135193 618.512329,687.243042 
	C630.346069,675.065063 629.314392,656.736877 615.613220,646.858337 
M486.933472,645.605469 
	C491.935028,652.422791 495.565521,659.486328 494.478394,668.530945 
	C493.608093,675.771973 494.020813,683.164246 493.798584,690.487488 
	C493.695251,693.892151 494.717834,696.686340 498.442749,696.942383 
	C503.200836,697.269470 507.998413,697.021729 512.841736,697.021729 
	C512.841736,694.039551 512.900879,691.580017 512.831421,689.124084 
	C512.549194,679.141968 512.078674,669.161743 512.025757,659.179016 
	C512.012573,656.695129 512.727661,653.822998 514.085205,651.778137 
	C523.376038,637.784424 532.921875,623.959778 542.402832,610.092529 
	C543.341187,608.720032 544.505371,607.494629 545.375061,606.083923 
	C547.802734,602.145935 546.754333,600.211914 542.185364,600.114929 
	C539.688782,600.061951 537.168457,600.321045 534.697449,600.065674 
	C531.197876,599.703979 529.832886,601.153931 528.196167,604.359131 
	C521.433350,617.602600 514.039307,630.523804 506.251526,644.702576 
	C498.100739,631.117859 491.062592,619.089905 483.660736,607.290039 
	C482.088257,604.783264 479.381073,601.666321 476.864716,601.332458 
	C470.463745,600.483154 463.874908,601.049988 457.245026,601.049988 
	C467.175964,615.940552 476.862518,630.464783 486.933472,645.605469 
M397.754852,651.110474 
	C409.686951,651.691345 421.619019,652.272278 433.868866,652.868652 
	C433.934845,651.758301 434.112640,650.297424 434.092712,648.839172 
	C434.001495,642.156616 432.474670,640.674500 425.708130,640.891541 
	C421.214050,641.035645 416.728485,641.478638 412.234406,641.581177 
	C406.808441,641.705139 401.377472,641.610535 396.025513,641.610535 
	C396.025513,631.292847 396.025513,621.218323 396.025513,609.908813 
	C409.819427,611.035400 423.153748,612.124512 436.556244,613.219177 
	C439.180939,602.952026 437.559143,600.805725 426.727570,600.804443 
	C415.896118,600.803162 405.064636,600.804138 394.233185,600.804138 
	C388.621704,600.804138 383.010254,600.804138 377.082428,600.804138 
	C377.082428,602.665222 377.053375,603.960327 377.086914,605.253906 
	C377.436249,618.732178 378.027863,632.209106 378.089203,645.688538 
	C378.155090,660.182495 377.739838,674.678894 377.503998,689.173767 
	C377.437775,693.242371 378.436951,696.730591 383.132996,697.101440 
	C387.557251,697.450806 392.030762,697.176392 396.852661,697.176392 
	C396.852661,694.891418 396.897339,693.101379 396.845398,691.314026 
	C396.506805,679.658386 396.100128,668.004272 395.846558,656.346802 
	C395.809601,654.646667 396.470398,652.931274 397.754852,651.110474 
M930.909119,678.454773 
	C931.123962,655.141235 931.335205,631.827637 931.557434,608.514221 
	C931.589417,605.163879 931.216309,601.615234 927.222412,601.200867 
	C922.216125,600.681458 917.115051,601.075806 911.913086,601.075806 
	C911.913086,603.011353 911.906860,604.660767 911.914001,606.310120 
	C912.029846,632.947571 912.336670,659.586243 912.164490,686.221802 
	C912.101929,695.892334 912.812744,697.409790 922.494446,697.530762 
	C935.151794,697.689026 947.812561,697.582642 960.471863,697.579773 
	C971.063354,697.577454 973.946655,693.853027 971.746399,684.419739 
	C958.207642,685.222412 944.852356,686.014221 930.909180,686.840820 
	C930.909180,683.684204 930.909180,681.564087 930.909119,678.454773 
M330.534302,632.493530 
	C330.786316,624.338379 331.000763,616.181885 331.305511,608.028687 
	C331.468414,603.670776 329.499878,600.776489 325.233215,600.328979 
	C320.999420,599.885071 316.682678,600.231873 312.100220,600.231873 
	C312.100220,602.035645 312.077148,603.330505 312.103729,604.624390 
	C312.448761,621.429749 312.985718,638.233826 313.085907,655.040527 
	C313.152405,666.191467 312.602264,677.346252 312.315735,688.498962 
	C312.204407,692.832214 313.728485,696.324402 318.334778,696.854004 
	C322.707764,697.356750 327.183960,696.962097 330.513885,696.962097 
	C330.513885,675.397095 330.513885,654.445496 330.534302,632.493530 
z"/>
<path fill="#FFFFFF" opacity="1.000000" stroke="none" 
	d="
M1067.000000,524.537354 
	C1064.536255,524.999634 1062.072632,524.998962 1059.608887,524.998962 
	C709.218811,524.998962 358.828735,525.000427 8.438673,524.966187 
	C6.186333,524.965942 3.934040,524.469360 1.340862,524.602295 
	C1.000000,516.975098 1.000000,508.950195 1.000000,500.462646 
	C3.463685,500.000397 5.927371,500.001129 8.391056,500.001129 
	C358.781036,500.001190 709.171021,499.999695 1059.561035,500.033966 
	C1061.813477,500.034210 1064.065918,500.530640 1066.659180,500.397705 
	C1067.000000,508.024902 1067.000000,516.049805 1067.000000,524.537354 
z"/>
<path fill="#FFFDFD" opacity="1.000000" stroke="none" 
	d="
M492.641052,270.352844 
	C473.903687,255.903229 460.035706,237.592865 446.824585,218.733322 
	C440.045685,209.056091 433.411377,199.265884 427.084778,189.290115 
	C425.006927,186.013687 422.792633,184.818878 419.033386,185.051819 
	C413.922485,185.368484 408.777191,185.130707 402.250793,185.130707 
	C403.808472,205.757538 405.327179,225.868042 406.881256,246.447113 
	C396.957275,246.447113 386.207550,246.504501 375.459076,246.414841 
	C371.873688,246.384949 371.850861,243.666290 371.944061,241.040482 
	C372.440216,227.059158 373.235321,213.080734 373.372437,199.095856 
	C373.730072,162.621017 373.904846,126.143234 373.861511,89.666962 
	C373.855499,84.620872 372.201874,79.576752 371.116028,73.427513 
	C385.524353,73.427513 399.801605,73.414520 414.078857,73.431084 
	C429.046875,73.448456 444.091248,72.602196 458.702118,77.012566 
	C477.536438,82.697815 491.655090,93.333778 494.859375,113.986992 
	C499.156250,141.682358 482.215546,168.897751 455.664490,178.004715 
	C454.408997,178.435364 453.146759,178.846268 451.216644,179.490280 
	C464.853058,199.898346 479.421417,219.221176 495.650238,237.266159 
	C511.798828,255.221863 528.707458,272.322571 551.216919,283.254822 
	C529.474976,287.723511 510.066528,284.224274 492.641052,270.352844 
M462.674591,147.995834 
	C463.557159,145.669617 464.657440,143.400818 465.288239,141.008224 
	C471.006592,119.317947 464.812866,93.358704 433.912445,87.561882 
	C424.349915,85.767982 414.166595,87.282921 403.237061,87.282921 
	C403.237061,115.653923 403.237061,143.805969 403.237061,172.471832 
	C408.042633,172.471832 413.207520,172.110870 418.306946,172.535553 
	C438.267242,174.197800 452.554504,165.676620 462.674591,147.995834 
z"/>
<path fill="#FFFDFD" opacity="1.000000" stroke="none" 
	d="
M665.509705,215.495819 
	C649.465149,234.220947 628.772705,243.875870 605.172119,245.725098 
	C582.645020,247.490189 559.922180,246.821198 537.283630,247.051071 
	C532.463379,247.100021 529.738464,244.038940 529.802917,238.987946 
	C529.898438,231.495819 530.414429,224.009964 530.575378,216.517654 
	C531.437622,176.380554 532.526550,136.232941 529.017273,96.160614 
	C528.428589,89.439232 526.837219,82.805656 525.642517,75.737709 
	C525.955505,75.677780 526.856750,75.359520 527.760132,75.353485 
	C550.580383,75.201012 573.424316,74.420837 596.211731,75.227631 
	C608.043274,75.646507 620.153259,77.637428 631.479736,81.081406 
	C663.227356,90.734726 681.873596,115.411514 683.944946,148.505280 
	C685.029785,165.836685 683.715759,182.863693 675.939453,198.713867 
	C673.103455,204.494293 669.173096,209.737808 665.509705,215.495819 
M558.085938,154.502228 
	C558.146851,164.664536 558.019531,174.832336 558.315613,184.987778 
	C558.698914,198.132202 559.332581,211.271469 560.038879,224.403259 
	C560.319885,229.627106 562.712646,232.107193 567.297791,232.132004 
	C577.457947,232.187027 587.669373,232.666275 597.769775,231.853363 
	C621.160645,229.970825 638.110657,218.555542 647.218750,196.437485 
	C653.212158,181.882965 654.061584,166.606735 652.868835,151.249100 
	C648.679138,97.306961 601.403931,81.834579 559.894531,89.684906 
	C559.295227,110.901039 558.693481,132.202255 558.085938,154.502228 
z"/>
<path fill="#FFFDFD" opacity="1.000000" stroke="none" 
	d="
M72.061844,157.125946 
	C75.849167,134.247971 84.091393,113.757088 99.055412,96.394302 
	C123.907295,67.558601 155.895203,56.455379 193.246597,59.395241 
	C209.672836,60.688118 225.244247,65.312714 240.110626,72.408127 
	C250.063263,77.158310 253.412033,83.796967 249.772217,94.213013 
	C247.244995,101.445236 243.552277,108.270195 240.380264,115.277107 
	C239.869003,115.137100 239.357742,114.997086 238.846466,114.857079 
	C238.000336,112.755569 237.247406,110.610718 236.293427,108.559357 
	C228.043777,90.820045 212.806534,82.102562 194.787201,78.147125 
	C160.382965,70.595009 130.091782,85.347748 113.907036,116.634567 
	C92.943741,157.158829 100.993469,210.546509 132.704895,240.984955 
	C159.969528,267.155060 206.432449,276.386200 241.655716,246.173096 
	C242.251862,245.661728 242.978668,245.302734 244.214828,244.504227 
	C245.043701,251.242920 246.009613,257.471252 246.400833,263.735443 
	C246.473480,264.898499 244.439102,266.553619 243.027512,267.394897 
	C221.479080,280.237305 198.069611,285.321045 173.154572,283.674469 
	C150.064682,282.148499 128.616531,275.594635 110.081070,261.370483 
	C82.232254,239.999161 70.226280,211.020584 70.560890,176.476746 
	C70.622009,170.168045 71.510696,163.867386 72.061844,157.125946 
z"/>
<path fill="#FFFCFD" opacity="1.000000" stroke="none" 
	d="
M914.996460,274.823456 
	C911.501343,274.824371 908.502808,274.814178 905.504333,274.828278 
	C895.591187,274.874908 892.749756,272.086609 893.031921,261.993896 
	C893.786011,235.020126 894.729309,208.051590 895.468262,181.077438 
	C896.527222,142.425461 896.532288,103.796616 892.262512,65.288872 
	C892.208374,64.801292 892.300720,64.297470 892.360107,63.070835 
	C893.941833,63.070835 895.531006,63.071369 897.120178,63.070755 
	C929.937134,63.058067 962.754028,63.041229 995.570984,63.035412 
	C1003.325256,63.034035 1008.031494,67.519096 1008.219482,75.310226 
	C1008.293640,78.383385 1007.892700,81.468002 1007.705566,84.588890 
	C980.584473,76.276138 953.425964,78.507111 925.800354,77.901398 
	C925.069214,102.851936 924.354248,127.249695 923.629761,151.975220 
	C925.532654,152.168503 926.790710,152.411606 928.047729,152.406540 
	C945.035034,152.338058 962.022644,152.289795 979.009033,152.117355 
	C987.383362,152.032379 992.671875,158.562561 990.510559,166.650208 
	C990.044617,168.393921 989.340759,170.074066 988.484131,172.538223 
	C967.401062,166.042343 945.998779,165.609604 923.939941,168.009659 
	C924.410706,203.713501 924.429504,239.112503 928.786316,274.823456 
	C924.415649,274.823456 919.954346,274.823456 914.996460,274.823456 
z"/>
<path fill="#FFFDFD" opacity="1.000000" stroke="none" 
	d="
M862.361572,91.537384 
	C844.355835,87.561668 826.562195,89.041374 808.240112,89.039383 
	C807.669495,108.669617 807.110291,127.906593 806.531677,147.811707 
	C812.153198,147.811707 817.096497,147.812500 822.039856,147.811554 
	C832.369385,147.809586 842.699036,147.845932 853.028320,147.791931 
	C861.405579,147.748138 864.565918,151.006348 863.925903,159.349228 
	C863.736877,161.813507 863.280396,164.257278 862.882385,167.181503 
	C844.655884,160.425461 826.173523,160.574203 806.829834,162.488831 
	C808.174866,190.584244 804.151550,218.765015 811.049500,246.986893 
	C801.545532,246.986893 792.266235,247.460907 783.070007,246.791992 
	C778.289734,246.444275 776.644165,242.240677 776.821411,237.473038 
	C777.409180,221.658997 778.343018,205.838409 778.282104,190.023636 
	C778.148682,155.396255 777.538696,120.770058 776.966797,86.145958 
	C776.902039,82.222504 775.835632,78.315598 775.176758,74.031029 
	C781.756897,74.031029 788.237061,74.031021 794.717224,74.031029 
	C816.542480,74.031044 838.367798,74.028244 860.193054,74.032112 
	C874.579895,74.034668 880.366211,80.564789 879.117188,95.621704 
	C873.648010,94.296692 868.209351,92.979088 862.361572,91.537384 
z"/>
<path fill="#FFFCFD" opacity="1.000000" stroke="none" 
	d="
M243.803528,183.746567 
	C257.461426,154.662796 270.954651,125.917046 284.510742,97.200966 
	C285.559570,94.979233 285.803040,91.755585 289.680084,92.248947 
	C293.609436,92.748985 296.487122,94.367142 298.121765,98.224739 
	C305.060883,114.600647 312.088654,130.939285 319.147766,147.263962 
	C328.780884,169.541122 338.403534,191.823364 348.193756,214.031540 
	C350.248962,218.693619 353.012054,223.043655 355.669220,227.943619 
	C346.638397,227.943619 337.589905,228.287094 328.605408,227.681061 
	C326.580109,227.544449 324.026855,224.430664 323.002625,222.117859 
	C318.427612,211.787186 314.232819,201.283890 310.099976,190.764633 
	C309.046661,188.083542 307.752747,186.969666 304.718994,187.005630 
	C290.231232,187.177353 275.739899,187.137451 261.250854,187.032227 
	C258.626678,187.013153 257.065369,187.534515 256.048126,190.284164 
	C252.645966,199.480316 248.800140,208.512573 245.412277,217.713638 
	C244.225372,220.937164 243.872345,224.467743 243.014587,228.430862 
	C238.533966,228.430862 233.775330,228.550171 229.026306,228.387756 
	C225.999039,228.284241 225.016891,226.325363 225.745575,223.547714 
	C226.205536,221.794434 226.766663,220.038147 227.530731,218.398956 
	C232.869095,206.946411 238.272308,195.524078 243.803528,183.746567 
M302.384155,175.617203 
	C302.334503,174.081543 302.695282,172.386887 302.171570,171.034851 
	C297.008636,157.705795 291.705048,144.431137 286.422607,131.148529 
	C285.791168,129.560760 285.048157,128.017365 283.944397,125.520218 
	C276.464355,142.683151 269.422363,158.840973 262.088531,175.668472 
	C275.959869,175.668472 288.764893,175.668472 302.384155,175.617203 
z"/>
<path fill="#FEFBFC" opacity="1.000000" stroke="none" 
	d="
M225.342834,358.000183 
	C225.344986,347.523865 225.344986,337.547546 225.344986,327.438232 
	C229.864914,326.173370 233.054977,326.813232 236.361694,330.097656 
	C256.216858,349.818970 276.305786,369.305084 296.329102,388.856964 
	C297.487213,389.987762 298.756653,391.004547 300.477234,392.516327 
	C300.477234,370.689392 300.477234,349.531586 300.477234,328.372498 
	C313.447449,326.360657 314.308289,327.546692 313.945404,339.831940 
	C313.193604,365.284485 313.075409,390.755829 312.709351,416.219635 
	C312.666595,419.192841 312.703491,422.167145 312.703491,425.289215 
	C308.090393,426.668365 304.934631,425.562683 301.571594,422.163971 
	C281.186035,401.562714 260.528168,381.230957 239.950882,360.819580 
	C239.287064,360.161102 238.511093,359.615631 237.706909,358.950989 
	C237.706909,380.649780 237.706909,402.011169 237.706909,424.077362 
	C234.539978,424.077362 230.685364,424.533203 227.037369,423.863586 
	C225.475357,423.576843 223.308411,421.006104 223.215134,419.370605 
	C222.961426,414.921783 223.818909,410.423157 223.966293,405.935425 
	C224.485519,390.125671 224.891632,374.312256 225.342834,358.000183 
z"/>
<path fill="#FEFBFC" opacity="1.000000" stroke="none" 
	d="
M614.940979,388.843903 
	C611.539856,383.723419 606.975464,386.980865 603.231323,386.078522 
	C603.231323,398.756378 603.231323,410.973785 603.231323,423.770752 
	C599.005432,423.770752 594.362915,424.064392 589.775818,423.686218 
	C585.394531,423.325012 584.326721,420.038910 584.349792,416.116089 
	C584.444580,399.966034 584.463013,383.815582 584.528748,367.665344 
	C584.565979,358.509003 584.768982,349.350952 584.638611,340.197388 
	C584.582397,336.248291 583.871399,332.308533 583.347717,327.314117 
	C598.885681,327.910797 614.724609,327.623566 630.330750,329.391388 
	C643.684204,330.904022 651.236816,339.805359 652.282104,351.579254 
	C653.395508,364.119568 646.017334,376.108215 634.185608,380.942749 
	C632.677673,381.558899 631.123413,382.061737 629.024658,382.822174 
	C640.573730,401.448700 654.080994,418.157684 669.431519,434.528503 
	C656.211609,435.891388 645.470825,432.841217 637.947571,422.542999 
	C630.004395,411.669922 622.706116,400.325775 614.940979,388.843903 
M602.279053,344.862427 
	C602.279053,355.638153 602.279053,366.413879 602.279053,378.230835 
	C608.374207,377.521240 614.185364,377.351288 619.747925,376.087128 
	C629.967224,373.764740 635.420227,367.361572 635.824219,358.336121 
	C636.229675,349.275726 629.710754,339.618225 620.491272,337.274597 
	C614.996033,335.877747 609.075867,336.152466 603.049316,335.650970 
	C602.747009,339.012360 602.525696,341.472870 602.279053,344.862427 
z"/>
<path fill="#FEFCFC" opacity="1.000000" stroke="none" 
	d="
M712.104126,133.022522 
	C711.203979,119.277061 710.320068,106.026840 709.405457,92.316315 
	C717.722168,92.316315 726.024353,92.098022 734.306274,92.413979 
	C738.103271,92.558823 740.284363,95.143784 740.162964,99.154984 
	C739.502808,120.961609 738.327393,142.766968 738.303284,164.573853 
	C738.285095,181.038101 739.669128,197.507217 740.561279,213.966980 
	C740.801270,218.394867 741.523987,222.796600 742.071899,227.622086 
	C733.937805,227.622086 726.296204,227.889038 718.684692,227.524582 
	C713.916870,227.296280 711.573792,224.223846 711.458740,218.998398 
	C711.319336,212.668549 711.391541,206.332642 711.450195,200.000076 
	C711.655518,177.839142 711.894348,155.678513 712.104126,133.022522 
z"/>
<path fill="#FEFCFC" opacity="1.000000" stroke="none" 
	d="
M124.962181,371.008850 
	C125.263329,378.314880 125.118546,385.180847 125.974106,391.919861 
	C127.659683,405.196503 133.900681,411.296906 146.985168,413.453705 
	C167.357101,416.811737 180.591064,408.040985 182.011490,387.622589 
	C183.299179,369.112183 181.808502,350.408051 181.520737,331.789673 
	C181.503464,330.672119 181.290787,329.557617 181.160294,328.361664 
	C185.010193,327.892334 188.588333,327.040741 192.141739,327.133850 
	C196.097260,327.237427 197.253555,330.180084 197.101593,333.807861 
	C196.550964,346.951111 196.104889,360.099030 195.492599,373.239258 
	C195.198471,379.551453 194.990692,385.903015 194.102951,392.145630 
	C191.340088,411.574524 179.905243,423.126465 160.371994,424.993896 
	C151.732437,425.819855 142.680008,425.390137 134.161011,423.741943 
	C118.963669,420.801758 108.997833,409.835876 108.330101,394.116699 
	C107.399048,372.198853 108.095573,350.211853 108.095573,327.554932 
	C112.241287,327.554932 117.353630,327.327972 122.433990,327.633240 
	C125.926842,327.843109 126.304253,330.679810 126.203857,333.565582 
	C125.775436,345.880280 125.377533,358.196045 124.962181,371.008850 
z"/>
<path fill="#FEFBFC" opacity="1.000000" stroke="none" 
	d="
M464.256317,366.317444 
	C455.970886,384.884186 447.704834,403.049316 439.831635,421.383179 
	C438.180908,425.227173 435.565643,425.043549 432.646515,424.772614 
	C429.665344,424.495911 426.248962,426.327484 424.248962,421.758301 
	C410.914307,391.294128 397.314056,360.946228 383.806335,330.557770 
	C383.488892,329.843597 383.245087,329.096710 382.772095,327.852631 
	C388.468842,327.852631 393.763184,327.470032 398.974365,327.964417 
	C403.810883,328.423218 406.139648,332.266052 407.899231,336.446014 
	C415.899109,355.449890 423.948425,374.433014 431.998230,393.415802 
	C432.764862,395.223602 433.658539,396.977539 435.086304,400.020294 
	C445.759247,375.605438 457.779602,352.954834 464.788574,327.359802 
	C468.120880,327.359802 472.257782,327.117188 476.351562,327.433197 
	C479.911835,327.708008 480.842896,330.730774 478.774750,335.236603 
	C474.057343,345.514679 469.210022,355.733185 464.256317,366.317444 
z"/>
<path fill="#FEFAFB" opacity="1.000000" stroke="none" 
	d="
M506.435425,423.580811 
	C499.737518,423.058868 498.835815,422.070709 498.853241,415.984711 
	C498.926117,390.501495 499.026855,365.018158 498.995758,339.535034 
	C498.991180,335.788635 498.331512,332.043030 497.913361,327.650543 
	C502.195892,327.650543 506.790833,327.650421 511.385773,327.650574 
	C522.380127,327.651001 533.374573,327.635071 544.368896,327.657013 
	C553.539856,327.675293 555.872681,330.319061 555.229187,339.834106 
	C542.785767,338.708527 530.325500,337.581421 517.097351,336.384827 
	C517.097351,347.799225 517.097351,358.012207 517.097351,368.023773 
	C523.974976,368.023773 531.067993,368.028961 538.161011,368.020447 
	C540.159790,368.018066 542.158569,367.977051 544.157349,367.951172 
	C550.470276,367.869385 552.073486,369.452026 552.127930,375.839447 
	C552.141846,377.471222 552.130005,379.103210 552.130005,380.698639 
	C540.323914,379.729980 528.983521,378.799561 517.036316,377.819336 
	C517.036316,389.296600 516.980347,399.750488 517.067200,410.203217 
	C517.096863,413.779510 519.858948,413.938629 522.445496,413.776428 
	C533.655151,413.073425 544.859131,412.279602 556.304321,411.502563 
	C558.467529,419.954224 555.711487,423.577606 545.866333,423.581726 
	C532.872864,423.587189 519.879456,423.582428 506.435425,423.580811 
z"/>
<path fill="#FEFBFC" opacity="1.000000" stroke="none" 
	d="
M720.261353,410.320557 
	C728.835571,400.548889 727.223145,390.716278 716.068054,385.129395 
	C709.244995,381.712128 701.965454,379.214355 695.088745,375.893951 
	C687.751648,372.351257 682.338745,367.015717 680.715332,358.522369 
	C678.528015,347.078033 682.984131,336.662842 693.256226,331.030823 
	C706.116516,323.979645 719.490417,324.509979 732.804138,329.599792 
	C738.142883,331.640839 739.107849,334.488892 737.140381,339.945251 
	C736.249634,342.415436 734.953613,344.739441 732.265686,348.184845 
	C731.570801,346.895569 731.097534,345.406372 730.144409,344.350159 
	C724.773071,338.397705 717.823425,336.019928 709.999268,336.148132 
	C703.464539,336.255188 698.076538,340.571838 696.335022,346.680664 
	C694.665466,352.536743 697.063660,358.358612 703.173035,361.819702 
	C707.052490,364.017487 711.313721,365.551208 715.435669,367.307922 
	C718.645813,368.676056 721.912903,369.909912 725.141479,371.235626 
	C749.157593,381.097229 743.438293,408.422791 729.480896,417.662384 
	C714.610840,427.506195 698.958008,427.913757 683.020203,420.260254 
	C679.350098,418.497833 677.597534,415.316986 678.130188,411.254944 
	C678.576782,407.849030 679.435303,404.497131 680.222900,400.564575 
	C683.124023,403.167358 685.450989,405.476715 688.002319,407.503632 
	C696.634399,414.361450 713.058533,417.502991 720.261353,410.320557 
z"/>
<path fill="#FEFCFC" opacity="1.000000" stroke="none" 
	d="
M963.251648,353.265259 
	C960.312317,357.535675 957.941895,361.828308 954.787292,365.435059 
	C944.868225,376.775543 942.486694,389.896423 944.336487,404.383179 
	C945.132874,410.620605 945.090332,416.965179 945.464233,423.917877 
	C940.433533,423.917877 935.646362,424.204132 930.911926,423.827606 
	C927.101501,423.524536 925.766968,420.744904 925.917969,417.062653 
	C926.306641,407.584595 926.762878,398.103760 926.825989,388.621613 
	C926.842407,386.146484 926.065247,383.309448 924.725769,381.237885 
	C913.262756,363.509521 901.586426,345.919067 889.830078,328.069031 
	C896.157776,328.069031 902.751648,327.498291 909.154724,328.354248 
	C911.661804,328.689423 914.306702,331.861542 915.916382,334.366486 
	C922.568542,344.718475 928.840454,355.314606 935.274353,365.807373 
	C936.131409,367.205200 937.115845,368.524902 938.481812,370.526306 
	C946.540283,357.403931 955.611572,345.504211 960.733582,331.345337 
	C961.763977,328.496979 963.041626,327.316498 966.040649,327.609009 
	C968.514587,327.850311 971.050415,327.470184 973.521118,327.727661 
	C975.020142,327.883881 977.367188,328.407074 977.693237,329.339172 
	C978.192627,330.766479 977.774719,333.028381 976.877441,334.343292 
	C972.565491,340.662567 967.961731,346.782715 963.251648,353.265259 
z"/>
<path fill="#FFFDFD" opacity="1.000000" stroke="none" 
	d="
M850.070557,415.706116 
	C850.261230,418.617889 850.428284,421.066437 850.635010,424.096222 
	C845.539917,424.096222 840.732422,424.431519 835.997498,423.989258 
	C832.260803,423.640259 830.890076,420.699646 830.975830,417.112488 
	C831.154907,409.624542 831.459656,402.137207 831.491089,394.648682 
	C831.567078,376.544830 831.515747,358.440430 831.515747,340.361206 
	C820.458496,340.361206 810.103455,340.361206 799.713318,340.361206 
	C798.575439,332.497528 801.930786,327.724884 809.254150,327.693756 
	C832.226746,327.596100 855.200195,327.670044 878.173279,327.693420 
	C878.813171,327.694061 879.452942,327.874512 880.439758,328.023529 
	C880.556335,329.890778 880.774780,331.667877 880.757690,333.442719 
	C880.707703,338.650330 877.942810,341.419739 872.648499,341.242432 
	C865.033936,340.987366 857.427307,340.494965 850.046936,340.115662 
	C850.046936,365.437988 850.046936,390.340424 850.070557,415.706116 
z"/>
<path fill="#FEFAFB" opacity="1.000000" stroke="none" 
	d="
M766.358154,350.001007 
	C765.986267,342.231903 765.627136,334.961395 765.239990,327.124207 
	C769.809875,327.124207 774.111206,326.866516 778.367004,327.196594 
	C782.632263,327.527344 784.451050,330.582275 784.414429,335.908386 
	C784.252808,359.375824 784.079285,382.843567 784.058960,406.311310 
	C784.054077,411.952820 784.619019,417.594757 784.956848,423.887726 
	C780.416321,423.887726 775.944397,424.298279 771.584534,423.775024 
	C767.008911,423.225800 765.529236,419.816132 765.648560,415.408508 
	C766.022461,401.596497 766.347412,387.782104 766.533752,373.966461 
	C766.639160,366.146332 766.435425,358.322021 766.358154,350.001007 
z"/>
<path fill="#FFFCFD" opacity="1.000000" stroke="none" 
	d="
M362.501343,405.365570 
	C362.876923,411.640778 363.211731,417.447052 363.583923,423.902008 
	C358.728302,423.902008 353.773926,424.389740 348.971741,423.744690 
	C345.259766,423.246094 343.779480,420.046844 343.915436,416.241058 
	C344.271667,406.268402 344.843445,396.291626 344.795441,386.319031 
	C344.709778,368.528717 344.235077,350.740265 343.909943,332.951233 
	C343.880035,331.314636 343.755646,329.679749 343.645660,327.444702 
	C348.472137,327.444702 352.951508,327.028900 357.314789,327.562469 
	C361.619720,328.088928 363.084503,331.308411 363.011383,335.561188 
	C362.659912,356.012451 362.426666,376.465790 362.191925,396.918854 
	C362.161407,399.576752 362.365265,402.237305 362.501343,405.365570 
z"/>
<path fill="#FFFDFD" opacity="1.000000" stroke="none" 
	d="
M967.865173,757.080444 
	C991.429565,767.500061 1001.065186,786.449097 1002.686707,810.718689 
	C1004.630066,839.805481 995.093018,863.590698 968.925720,877.815125 
	C959.871765,882.736755 956.341431,887.922974 954.561218,897.743347 
	C949.690552,924.610474 927.918335,945.082397 899.168152,948.606506 
	C878.789307,951.104370 858.006470,950.393433 837.398193,950.862488 
	C832.949707,950.963745 831.171448,947.808899 831.283813,942.399841 
	C831.809509,917.096008 832.550659,891.791382 832.616455,866.485535 
	C832.651917,852.848267 831.686768,839.193726 830.743835,825.576782 
	C830.429626,821.039001 828.780762,816.593689 827.655029,811.730347 
	C844.310974,811.730347 861.085571,811.730347 878.749756,811.730347 
	C877.577637,791.009583 879.061218,770.577637 873.879578,750.188416 
	C873.592651,750.483948 873.791748,750.103455 873.981812,750.107849 
	C899.252808,750.696228 924.535583,751.028503 949.784241,752.137329 
	C955.750488,752.399292 961.601868,755.277222 967.865173,757.080444 
M942.510071,834.009277 
	C951.065186,843.839355 954.737305,855.751587 956.620544,868.779663 
	C957.872864,867.924927 958.625671,867.557800 959.188843,866.999573 
	C960.959167,865.244629 962.765381,863.508057 964.368286,861.604919 
	C979.345703,843.822632 980.689575,823.221802 976.002014,801.742371 
	C972.147278,784.079041 961.282898,771.844604 944.499634,765.120239 
	C932.350952,760.252686 919.712891,759.280090 906.741516,760.818054 
	C903.271484,761.229370 902.301331,762.507751 902.234619,765.735107 
	C901.932068,780.378235 901.445679,795.017578 901.063232,809.659241 
	C901.029907,810.936890 901.271057,812.221680 901.388977,813.551147 
	C917.061096,816.291931 931.190674,821.572876 942.510071,834.009277 
M877.992981,822.602417 
	C871.083618,822.602417 864.174255,822.602417 856.825623,822.602417 
	C856.386414,833.470947 855.629456,842.935791 855.693176,852.395081 
	C855.872375,879.020752 856.403503,905.643982 856.758301,932.268616 
	C856.815735,936.578369 858.572937,939.553467 863.111389,939.544312 
	C872.423096,939.525574 881.813416,939.848511 891.029846,938.793884 
	C914.741516,936.080750 933.565125,912.800659 931.622253,888.874146 
	C930.040771,888.874146 928.414795,888.874207 926.788757,888.874207 
	C913.302917,888.874084 899.817078,888.886719 886.331238,888.868774 
	C878.988525,888.859009 877.412842,886.965271 877.592957,879.562683 
	C878.050171,860.768127 878.333618,841.969360 877.992981,822.602417 
M901.977051,861.539429 
	C902.198792,865.022034 901.932983,868.636108 902.823975,871.938171 
	C903.364258,873.940491 905.609131,876.862244 907.234497,876.960876 
	C915.601379,877.468750 924.015625,877.196411 932.376648,877.196411 
	C932.801880,856.243652 917.567566,833.204163 901.943909,829.480347 
	C901.943909,839.746094 901.943909,850.167603 901.977051,861.539429 
z"/>
<path fill="#FFFDFD" opacity="1.000000" stroke="none" 
	d="
M463.021576,922.616638 
	C453.281158,922.724609 443.951843,922.783569 434.623047,922.738037 
	C428.409454,922.707703 427.904449,922.128723 428.004303,915.753357 
	C428.695251,871.619751 429.528992,827.487732 429.998199,783.351807 
	C430.113861,772.472534 429.052795,761.580750 428.496338,749.934692 
	C427.520691,750.556396 427.774902,750.252808 428.030334,750.251770 
	C451.510773,750.155579 475.001373,749.646301 498.467651,750.188538 
	C510.536438,750.467468 522.088867,754.159790 532.286804,761.038574 
	C549.184021,772.436401 555.702332,792.231689 549.385254,813.635803 
	C543.454163,833.732239 530.388611,847.191101 510.576172,854.070618 
	C509.637115,854.396729 508.706482,854.747192 506.851166,855.420471 
	C535.296448,894.503906 562.682373,933.935181 606.136780,958.132385 
	C586.927612,963.313049 568.894836,961.184021 552.176208,949.584229 
	C535.072937,937.717468 521.747314,922.220825 509.679260,905.595093 
	C500.002563,892.264038 490.879028,878.525513 481.745758,864.810730 
	C479.846313,861.958496 477.899323,860.789673 474.510406,860.966431 
	C469.222168,861.242249 463.908905,861.039490 457.943542,861.039490 
	C458.309509,881.918579 458.584656,902.401184 463.021576,922.616638 
M511.780273,832.244019 
	C512.674011,831.043030 513.616699,829.875122 514.453979,828.636047 
	C527.566040,809.231934 523.625000,781.603882 505.880859,769.695374 
	C491.472809,760.025879 475.511353,760.888245 458.597107,762.997314 
	C458.597107,791.568787 458.597107,819.745911 458.597107,848.186523 
	C464.689911,848.186523 470.827850,848.146790 476.965149,848.194580 
	C490.776459,848.302002 502.146545,843.011292 511.780273,832.244019 
z"/>
<path fill="#FFFDFD" opacity="1.000000" stroke="none" 
	d="
M627.999878,922.129761 
	C615.502991,922.129822 603.506104,922.131104 591.509216,922.129517 
	C581.903381,922.128296 580.117249,920.043091 580.304504,910.217834 
	C580.939270,876.908508 581.813904,843.596863 581.828003,810.285706 
	C581.834473,795.000000 580.209595,779.700867 578.980957,764.435425 
	C578.627197,760.040588 577.077332,755.742004 576.001770,751.077698 
	C576.600952,750.963379 577.345459,750.695312 578.089050,750.697815 
	C602.913635,750.782227 627.762024,750.292419 652.551697,751.276550 
	C663.367493,751.705994 674.432068,754.047058 684.743713,757.455933 
	C715.236206,767.535950 733.004883,791.731384 734.944580,823.968933 
	C735.946777,840.625732 734.639038,856.989746 727.651672,872.382874 
	C714.976868,900.305786 692.015015,914.749146 662.811035,919.832153 
	C651.580872,921.786865 639.948853,921.432251 627.999878,922.129761 
M610.246338,898.858826 
	C611.555420,905.945923 613.219360,907.916565 618.581238,907.962891 
	C627.738342,908.041931 636.911621,908.236633 646.052551,907.820557 
	C673.250732,906.582397 692.493103,891.839661 700.649414,865.869019 
	C704.888489,852.371338 705.802979,838.476196 704.180054,824.392273 
	C701.621887,802.191467 691.934509,784.383911 671.991211,773.358093 
	C652.831116,762.765381 632.218872,761.868225 611.195496,765.111267 
	C608.571655,787.968018 608.032349,860.769348 610.246338,898.858826 
z"/>
<path fill="#FFFDFD" opacity="1.000000" stroke="none" 
	d="
M149.529938,757.394409 
	C125.376915,768.095398 111.952538,787.364502 105.710747,811.636108 
	C95.808929,850.139954 102.002464,885.598999 130.081635,915.077576 
	C156.304047,942.606934 203.920288,953.557922 241.090698,921.700745 
	C241.451675,921.391418 241.917786,921.204773 243.118713,920.502319 
	C243.943283,927.225342 244.915283,933.518677 245.307480,939.847961 
	C245.378342,940.991394 243.259888,942.606689 241.827301,943.456299 
	C221.349533,955.601318 199.118698,960.914246 175.409271,959.800598 
	C146.876801,958.460327 121.197678,949.652466 100.205284,929.579163 
	C82.223961,912.385132 72.426300,890.972595 70.354973,866.416565 
	C67.508270,832.668457 74.910042,801.326965 96.527199,774.600464 
	C121.355789,743.903503 154.385590,732.212036 193.152161,735.441528 
	C209.052094,736.766113 224.201263,741.075195 238.626587,747.928162 
	C249.465454,753.077393 252.449738,759.557495 248.679886,770.903320 
	C247.271545,775.141968 245.325195,779.225220 243.346451,783.242615 
	C242.040390,785.894226 240.239105,788.302002 238.645554,790.841309 
	C238.079117,790.438354 237.660980,790.304688 237.570801,790.053406 
	C228.241470,764.059265 207.319107,754.820190 182.166367,752.224731 
	C171.111267,751.083984 160.258606,753.092834 149.529938,757.394409 
z"/>
<path fill="#FEFCFD" opacity="1.000000" stroke="none" 
	d="
M329.042725,905.005310 
	C326.552399,905.004883 324.551147,904.950134 322.553802,905.014893 
	C317.622040,905.174866 314.524292,903.058655 312.715607,898.308167 
	C308.751923,887.897827 304.353180,877.653625 300.333496,867.263611 
	C299.340057,864.695801 298.088959,863.728821 295.268890,863.757019 
	C280.607635,863.903748 265.942688,863.731506 251.283401,863.956177 
	C249.648087,863.981262 247.196777,865.439392 246.557419,866.872437 
	C242.493927,875.980896 238.693695,885.215515 235.116364,894.527466 
	C233.884293,897.734680 233.538956,901.282593 232.698364,905.082520 
	C228.353836,905.082520 223.874817,905.145874 219.398605,905.061035 
	C216.213730,905.000732 214.839005,903.126343 215.456039,900.120056 
	C215.851089,898.195374 216.683990,896.328674 217.525665,894.532104 
	C236.436798,854.166199 255.363342,813.807556 274.346130,773.475342 
	C275.385468,771.267151 275.637207,768.144775 279.530731,768.522461 
	C283.375275,768.895264 286.238647,770.426636 287.786774,773.991760 
	C295.071655,790.767761 302.275482,807.578979 309.583649,824.344788 
	C320.016754,848.279541 330.488007,872.197754 341.022583,896.087952 
	C342.280334,898.940247 344.035614,901.573181 345.949158,905.005310 
	C340.276093,905.005310 334.904877,905.005310 329.042725,905.005310 
M284.318054,827.132629 
	C281.030304,818.955017 277.742554,810.777344 273.974670,801.405396 
	C266.797729,818.449707 260.231354,834.034851 253.684357,849.628174 
	C253.444855,850.198608 253.394318,850.848450 253.211777,851.655396 
	C266.846191,851.655396 280.210510,851.655396 294.168976,851.655396 
	C290.900024,843.450317 287.785797,835.633606 284.318054,827.132629 
z"/>
<path fill="#FEFCFC" opacity="1.000000" stroke="none" 
	d="
M845.882874,696.983032 
	C824.240479,701.041687 804.581055,698.121033 789.595764,681.338867 
	C775.541809,665.599609 774.737000,646.806519 781.859741,627.881226 
	C788.827637,609.367310 804.361450,602.002258 822.901489,600.108032 
	C838.427490,598.521729 853.287781,600.926208 865.983459,610.701538 
	C882.064392,623.083313 887.585083,639.842773 884.004456,659.444519 
	C880.511841,678.564392 868.001404,689.829346 850.141357,695.849487 
	C848.882507,696.273865 847.580261,696.569214 845.882874,696.983032 
M862.873169,634.903870 
	C860.960144,630.867798 859.548401,626.486694 857.048523,622.854553 
	C845.319214,605.812500 819.738892,604.878113 806.529419,620.793396 
	C794.091919,635.778564 794.156372,663.175232 806.883118,677.884033 
	C816.205627,688.658325 828.375122,690.402771 841.496521,687.572510 
	C853.707520,684.938660 860.501526,676.743958 863.220947,664.838074 
	C865.442749,655.110779 865.580383,645.401184 862.873169,634.903870 
z"/>
<path fill="#FEFBFB" opacity="1.000000" stroke="none" 
	d="
M286.056793,704.129883 
	C286.918518,705.165649 287.535034,705.922974 288.204681,706.745544 
	C278.197113,709.833313 264.994293,705.075562 257.863098,695.293396 
	C251.005127,685.885986 244.532806,676.182556 238.222214,666.395691 
	C233.306030,658.771301 233.531967,658.625610 223.019318,659.495300 
	C223.561264,671.758972 224.106110,684.088196 224.673553,696.928589 
	C219.997925,696.928589 215.349808,697.237671 210.762314,696.842651 
	C206.067459,696.438416 205.231613,692.840332 205.259048,688.810730 
	C205.380402,670.987732 205.454071,653.164368 205.527176,635.341064 
	C205.558594,627.680420 205.670654,620.016968 205.500015,612.360229 
	C205.419357,608.740479 204.759628,605.133667 204.289902,600.863281 
	C208.780563,600.863281 213.525879,600.772888 218.266617,600.881897 
	C228.408157,601.114929 238.654556,600.629700 248.662506,601.936157 
	C263.985718,603.936401 272.214630,612.177185 273.197510,624.498779 
	C274.300903,638.330872 266.223175,650.224365 252.437271,655.073608 
	C251.671890,655.342834 250.920273,655.651184 249.590714,656.160156 
	C260.109619,673.527222 272.275513,689.200073 286.056793,704.129883 
M254.941284,637.052673 
	C259.018250,618.212097 244.258362,605.509705 223.018112,609.712097 
	C223.018112,623.235962 223.018112,636.782166 223.018112,651.184448 
	C228.832947,650.622864 234.311096,650.508545 239.611160,649.478210 
	C246.422760,648.153992 252.004532,644.700684 254.941284,637.052673 
z"/>
<path fill="#FEFCFC" opacity="1.000000" stroke="none" 
	d="
M767.328125,777.671143 
	C775.636719,792.886169 783.759094,807.785034 792.488647,823.797607 
	C803.762756,805.500916 814.797913,788.334656 821.901306,768.107727 
	C826.373230,768.107727 831.498230,768.058044 836.621643,768.125610 
	C839.906921,768.168945 840.503174,770.486816 839.907288,772.974670 
	C839.500183,774.674377 838.308533,776.218506 837.330444,777.744263 
	C825.562073,796.102722 813.703308,814.403992 802.069763,832.847351 
	C800.751770,834.936890 800.063354,837.810242 800.100159,840.305054 
	C800.342712,856.771606 800.863831,873.234070 801.313416,890.436890 
	C795.126770,890.436890 788.512085,890.778259 781.953430,890.318970 
	C777.452087,890.003723 776.246704,886.444519 776.348511,882.299805 
	C776.675903,868.974792 777.073364,855.647705 777.073975,842.321411 
	C777.074097,839.359680 776.192261,836.008362 774.644104,833.497742 
	C761.975403,812.954346 749.051208,792.568604 736.211487,772.130493 
	C735.616760,771.184021 735.087524,770.196289 734.197937,768.656921 
	C742.151611,768.656921 749.584229,768.341309 756.974487,768.764709 
	C762.143433,769.060852 765.083496,772.903442 767.328125,777.671143 
z"/>
<path fill="#FEFBFB" opacity="1.000000" stroke="none" 
	d="
M714.255188,610.538330 
	C691.881470,608.011292 675.987061,622.610779 674.262878,646.798279 
	C672.194214,675.817688 693.735779,693.631531 723.556519,687.561768 
	C732.209900,685.800476 732.210266,685.800537 732.210754,676.793335 
	C732.211243,668.007690 732.210815,659.222107 732.210815,649.918945 
	C735.518677,649.918945 739.654297,649.660339 743.741211,649.995850 
	C747.410645,650.297119 749.490967,653.020874 749.565613,656.452576 
	C749.808533,667.611755 749.771301,678.779419 749.622559,689.940918 
	C749.608826,690.973938 748.213379,692.620911 747.161926,692.913574 
	C729.558777,697.812866 711.713440,701.333130 693.435791,697.713928 
	C662.774597,691.642456 651.005676,669.425110 654.502197,641.157288 
	C657.030212,620.719604 669.111206,608.102783 688.778320,602.853943 
	C705.280884,598.449768 721.731384,598.770325 737.864685,604.879700 
	C746.291565,608.070801 747.100952,609.833862 744.131958,618.322876 
	C743.600159,619.843384 742.993286,621.337524 742.232056,623.341431 
	C733.900146,616.606445 724.976562,612.056641 714.255188,610.538330 
z"/>
<path fill="#FEFCFD" opacity="1.000000" stroke="none" 
	d="
M406.256592,849.154297 
	C406.062408,857.733826 403.765686,859.929810 395.805481,859.901245 
	C381.144623,859.848572 366.483429,859.898682 351.822418,859.875000 
	C344.074707,859.862427 342.476929,858.183167 342.537048,850.450745 
	C342.753448,822.631226 343.036774,794.811707 343.082794,766.991821 
	C343.092010,761.417419 342.169891,755.841431 341.636841,749.809326 
	C349.865356,749.809326 358.499817,749.809326 367.134308,749.809326 
	C374.964630,749.809326 382.794983,749.807922 390.625305,749.809631 
	C401.896271,749.812134 404.729614,752.937561 403.836700,763.560425 
	C390.576721,762.466309 377.313782,761.372009 363.695770,760.248413 
	C363.695770,773.412659 363.695770,785.352112 363.695770,797.595825 
	C367.504517,797.595825 371.269257,797.689453 375.027527,797.573608 
	C380.519409,797.404419 386.005951,796.895081 391.496002,796.875244 
	C399.128998,796.847717 400.928101,798.794556 400.953094,806.353760 
	C400.958008,807.836426 400.953796,809.319153 400.953796,810.823975 
	C388.774048,809.671753 376.837891,808.542480 364.382660,807.364197 
	C364.382660,820.814575 364.301422,833.075378 364.433228,845.333984 
	C364.471741,848.914795 367.011658,849.814148 370.269867,849.976196 
	C382.372131,850.578003 394.161713,849.013245 405.889832,845.003723 
	C406.034485,846.469482 406.145447,847.593994 406.256592,849.154297 
z"/>
<path fill="#FEFCFD" opacity="1.000000" stroke="none" 
	d="
M109.058006,607.115234 
	C108.676941,605.066223 108.345642,603.452393 108.029472,601.912231 
	C108.421036,601.600891 108.660316,601.244812 108.894394,601.248169 
	C123.200195,601.455139 137.557007,601.019348 151.796936,602.109009 
	C166.821884,603.258789 175.438721,611.430115 177.502167,624.262817 
	C179.502884,636.705322 173.107407,649.020325 160.222580,654.395691 
	C153.019409,657.400696 144.878174,658.240295 137.097855,659.733765 
	C134.373398,660.256775 131.464172,659.817139 128.347443,659.817139 
	C128.347443,672.246094 128.347443,684.454529 128.347443,697.220337 
	C124.416725,697.220337 120.137924,697.519165 115.919746,697.141235 
	C111.145012,696.713440 109.902237,693.339111 109.917198,688.948242 
	C109.998398,665.126282 109.990341,641.303833 109.920845,617.481873 
	C109.911194,614.170654 109.391396,610.860901 109.058006,607.115234 
M158.927780,633.888550 
	C161.465515,615.306335 150.210678,606.970032 127.402313,610.739929 
	C127.402313,624.294617 127.402313,637.838989 127.402313,651.333374 
	C144.254852,653.922974 154.175125,648.604126 158.927780,633.888550 
z"/>
<path fill="#FEFBFC" opacity="1.000000" stroke="none" 
	d="
M615.935303,647.021362 
	C629.314392,656.736877 630.346069,675.065063 618.512329,687.243042 
	C606.956360,699.135193 581.846497,702.246765 567.918762,693.072571 
	C565.673828,691.593750 563.802490,688.085327 563.576782,685.364197 
	C563.277222,681.753174 564.764709,677.993774 565.634399,673.527466 
	C567.335999,675.142273 568.369629,676.105896 569.384460,677.088989 
	C577.150146,684.611755 586.539978,687.658875 597.188171,686.971863 
	C603.796021,686.545471 609.476501,681.528015 611.006348,675.099854 
	C612.726013,667.874084 610.628784,662.425049 603.663269,658.856079 
	C596.287537,655.076904 588.354187,652.388367 580.966919,648.628967 
	C566.975708,641.508667 562.018311,626.701721 569.108887,613.795776 
	C574.085022,604.738525 582.485535,600.067810 592.271484,599.281433 
	C599.733887,598.681763 607.584290,599.482849 614.891968,601.218750 
	C624.866333,603.588013 626.332520,608.288757 621.430847,617.410156 
	C620.887634,618.421021 620.191223,619.349609 619.217041,620.855591 
	C614.562805,614.869751 609.014282,610.405762 601.544739,609.579041 
	C598.169128,609.205444 594.480408,609.284424 591.276428,610.271057 
	C585.916748,611.921631 582.889221,616.230225 582.141052,621.731689 
	C581.424744,626.998352 583.690613,631.324158 588.119202,634.044434 
	C591.913391,636.374878 596.101013,638.079834 600.164917,639.952209 
	C605.287598,642.312378 610.461426,644.561401 615.935303,647.021362 
z"/>
<path fill="#FEFBFC" opacity="1.000000" stroke="none" 
	d="
M486.741272,645.297241 
	C476.862518,630.464783 467.175964,615.940552 457.245026,601.049988 
	C463.874908,601.049988 470.463745,600.483154 476.864716,601.332458 
	C479.381073,601.666321 482.088257,604.783264 483.660736,607.290039 
	C491.062592,619.089905 498.100739,631.117859 506.251526,644.702576 
	C514.039307,630.523804 521.433350,617.602600 528.196167,604.359131 
	C529.832886,601.153931 531.197876,599.703979 534.697449,600.065674 
	C537.168457,600.321045 539.688782,600.061951 542.185364,600.114929 
	C546.754333,600.211914 547.802734,602.145935 545.375061,606.083923 
	C544.505371,607.494629 543.341187,608.720032 542.402832,610.092529 
	C532.921875,623.959778 523.376038,637.784424 514.085205,651.778137 
	C512.727661,653.822998 512.012573,656.695129 512.025757,659.179016 
	C512.078674,669.161743 512.549194,679.141968 512.831421,689.124084 
	C512.900879,691.580017 512.841736,694.039551 512.841736,697.021729 
	C507.998413,697.021729 503.200836,697.269470 498.442749,696.942383 
	C494.717834,696.686340 493.695251,693.892151 493.798584,690.487488 
	C494.020813,683.164246 493.608093,675.771973 494.478394,668.530945 
	C495.565521,659.486328 491.935028,652.422791 486.741272,645.297241 
z"/>
<path fill="#FEFBFB" opacity="1.000000" stroke="none" 
	d="
M397.281586,651.166748 
	C396.470398,652.931274 395.809601,654.646667 395.846558,656.346802 
	C396.100128,668.004272 396.506805,679.658386 396.845398,691.314026 
	C396.897339,693.101379 396.852661,694.891418 396.852661,697.176392 
	C392.030762,697.176392 387.557251,697.450806 383.132996,697.101440 
	C378.436951,696.730591 377.437775,693.242371 377.503998,689.173767 
	C377.739838,674.678894 378.155090,660.182495 378.089203,645.688538 
	C378.027863,632.209106 377.436249,618.732178 377.086914,605.253906 
	C377.053375,603.960327 377.082428,602.665222 377.082428,600.804138 
	C383.010254,600.804138 388.621704,600.804138 394.233185,600.804138 
	C405.064636,600.804138 415.896118,600.803162 426.727570,600.804443 
	C437.559143,600.805725 439.180939,602.952026 436.556244,613.219177 
	C423.153748,612.124512 409.819427,611.035400 396.025513,609.908813 
	C396.025513,621.218323 396.025513,631.292847 396.025513,641.610535 
	C401.377472,641.610535 406.808441,641.705139 412.234406,641.581177 
	C416.728485,641.478638 421.214050,641.035645 425.708130,640.891541 
	C432.474670,640.674500 434.001495,642.156616 434.092712,648.839172 
	C434.112640,650.297424 433.934845,651.758301 433.868866,652.868652 
	C421.619019,652.272278 409.686951,651.691345 397.281586,651.166748 
z"/>
<path fill="#FEFBFB" opacity="1.000000" stroke="none" 
	d="
M930.909180,678.949341 
	C930.909180,681.564087 930.909180,683.684204 930.909180,686.840820 
	C944.852356,686.014221 958.207642,685.222412 971.746399,684.419739 
	C973.946655,693.853027 971.063354,697.577454 960.471863,697.579773 
	C947.812561,697.582642 935.151794,697.689026 922.494446,697.530762 
	C912.812744,697.409790 912.101929,695.892334 912.164490,686.221802 
	C912.336670,659.586243 912.029846,632.947571 911.914001,606.310120 
	C911.906860,604.660767 911.913086,603.011353 911.913086,601.075806 
	C917.115051,601.075806 922.216125,600.681458 927.222412,601.200867 
	C931.216309,601.615234 931.589417,605.163879 931.557434,608.514221 
	C931.335205,631.827637 931.123962,655.141235 930.909180,678.949341 
z"/>
<path fill="#FEFBFB" opacity="1.000000" stroke="none" 
	d="
M330.524109,632.993713 
	C330.513885,654.445496 330.513885,675.397095 330.513885,696.962097 
	C327.183960,696.962097 322.707764,697.356750 318.334778,696.854004 
	C313.728485,696.324402 312.204407,692.832214 312.315735,688.498962 
	C312.602264,677.346252 313.152405,666.191467 313.085907,655.040527 
	C312.985718,638.233826 312.448761,621.429749 312.103729,604.624390 
	C312.077148,603.330505 312.100220,602.035645 312.100220,600.231873 
	C316.682678,600.231873 320.999420,599.885071 325.233215,600.328979 
	C329.499878,600.776489 331.468414,603.670776 331.305511,608.028687 
	C331.000763,616.181885 330.786316,624.338379 330.524109,632.993713 
z"/>
<path fill="#D7384A" opacity="1.000000" stroke="none" 
	d="
M462.481049,148.319901 
	C452.554504,165.676620 438.267242,174.197800 418.306946,172.535553 
	C413.207520,172.110870 408.042633,172.471832 403.237061,172.471832 
	C403.237061,143.805969 403.237061,115.653923 403.237061,87.282921 
	C414.166595,87.282921 424.349915,85.767982 433.912445,87.561882 
	C464.812866,93.358704 471.006592,119.317947 465.288239,141.008224 
	C464.657440,143.400818 463.557159,145.669617 462.481049,148.319901 
z"/>
<path fill="#D73749" opacity="1.000000" stroke="none" 
	d="
M558.088806,154.002853 
	C558.693481,132.202255 559.295227,110.901039 559.894531,89.684906 
	C601.403931,81.834579 648.679138,97.306961 652.868835,151.249100 
	C654.061584,166.606735 653.212158,181.882965 647.218750,196.437485 
	C638.110657,218.555542 621.160645,229.970825 597.769775,231.853363 
	C587.669373,232.666275 577.457947,232.187027 567.297791,232.132004 
	C562.712646,232.107193 560.319885,229.627106 560.038879,224.403259 
	C559.332581,211.271469 558.698914,198.132202 558.315613,184.987778 
	C558.019531,174.832336 558.146851,164.664536 558.088806,154.002853 
z"/>
<path fill="#D83C4D" opacity="1.000000" stroke="none" 
	d="
M301.977051,175.642838 
	C288.764893,175.668472 275.959869,175.668472 262.088531,175.668472 
	C269.422363,158.840973 276.464355,142.683151 283.944397,125.520218 
	C285.048157,128.017365 285.791168,129.560760 286.422607,131.148529 
	C291.705048,144.431137 297.008636,157.705795 302.171570,171.034851 
	C302.695282,172.386887 302.334503,174.081543 301.977051,175.642838 
z"/>
<path fill="#D8394B" opacity="1.000000" stroke="none" 
	d="
M602.291748,344.397888 
	C602.525696,341.472870 602.747009,339.012360 603.049316,335.650970 
	C609.075867,336.152466 614.996033,335.877747 620.491272,337.274597 
	C629.710754,339.618225 636.229675,349.275726 635.824219,358.336121 
	C635.420227,367.361572 629.967224,373.764740 619.747925,376.087128 
	C614.185364,377.351288 608.374207,377.521240 602.279053,378.230835 
	C602.279053,366.413879 602.279053,355.638153 602.291748,344.397888 
z"/>
<path fill="#D7384A" opacity="1.000000" stroke="none" 
	d="
M942.271606,833.744263 
	C931.190674,821.572876 917.061096,816.291931 901.388977,813.551147 
	C901.271057,812.221680 901.029907,810.936890 901.063232,809.659241 
	C901.445679,795.017578 901.932068,780.378235 902.234619,765.735107 
	C902.301331,762.507751 903.271484,761.229370 906.741516,760.818054 
	C919.712891,759.280090 932.350952,760.252686 944.499634,765.120239 
	C961.282898,771.844604 972.147278,784.079041 976.002014,801.742371 
	C980.689575,823.221802 979.345703,843.822632 964.368286,861.604919 
	C962.765381,863.508057 960.959167,865.244629 959.188843,866.999573 
	C958.625671,867.557800 957.872864,867.924927 956.620544,868.779663 
	C954.737305,855.751587 951.065186,843.839355 942.271606,833.744263 
z"/>
<path fill="#D7384A" opacity="1.000000" stroke="none" 
	d="
M878.339844,822.887329 
	C878.333618,841.969360 878.050171,860.768127 877.592957,879.562683 
	C877.412842,886.965271 878.988525,888.859009 886.331238,888.868774 
	C899.817078,888.886719 913.302917,888.874084 926.788757,888.874207 
	C928.414795,888.874207 930.040771,888.874146 931.622253,888.874146 
	C933.565125,912.800659 914.741516,936.080750 891.029846,938.793884 
	C881.813416,939.848511 872.423096,939.525574 863.111389,939.544312 
	C858.572937,939.553467 856.815735,936.578369 856.758301,932.268616 
	C856.403503,905.643982 855.872375,879.020752 855.693176,852.395081 
	C855.629456,842.935791 856.386414,833.470947 856.825623,822.602417 
	C864.174255,822.602417 871.083618,822.602417 878.339844,822.887329 
z"/>
<path fill="#D7384A" opacity="1.000000" stroke="none" 
	d="
M901.960449,861.064331 
	C901.943909,850.167603 901.943909,839.746094 901.943909,829.480347 
	C917.567566,833.204163 932.801880,856.243652 932.376648,877.196411 
	C924.015625,877.196411 915.601379,877.468750 907.234497,876.960876 
	C905.609131,876.862244 903.364258,873.940491 902.823975,871.938171 
	C901.932983,868.636108 902.198792,865.022034 901.960449,861.064331 
z"/>
<path fill="#D73749" opacity="1.000000" stroke="none" 
	d="
M511.544495,832.512390 
	C502.146545,843.011292 490.776459,848.302002 476.965149,848.194580 
	C470.827850,848.146790 464.689911,848.186523 458.597107,848.186523 
	C458.597107,819.745911 458.597107,791.568787 458.597107,762.997314 
	C475.511353,760.888245 491.472809,760.025879 505.880859,769.695374 
	C523.625000,781.603882 527.566040,809.231934 514.453979,828.636047 
	C513.616699,829.875122 512.674011,831.043030 511.544495,832.512390 
z"/>
<path fill="#D73749" opacity="1.000000" stroke="none" 
	d="
M610.195923,898.417847 
	C608.032349,860.769348 608.571655,787.968018 611.195496,765.111267 
	C632.218872,761.868225 652.831116,762.765381 671.991211,773.358093 
	C691.934509,784.383911 701.621887,802.191467 704.180054,824.392273 
	C705.802979,838.476196 704.888489,852.371338 700.649414,865.869019 
	C692.493103,891.839661 673.250732,906.582397 646.052551,907.820557 
	C636.911621,908.236633 627.738342,908.041931 618.581238,907.962891 
	C613.219360,907.916565 611.555420,905.945923 610.195923,898.417847 
z"/>
<path fill="#D8394B" opacity="1.000000" stroke="none" 
	d="
M284.494812,827.474731 
	C287.785797,835.633606 290.900024,843.450317 294.168976,851.655396 
	C280.210510,851.655396 266.846191,851.655396 253.211777,851.655396 
	C253.394318,850.848450 253.444855,850.198608 253.684357,849.628174 
	C260.231354,834.034851 266.797729,818.449707 273.974670,801.405396 
	C277.742554,810.777344 281.030304,818.955017 284.494812,827.474731 
z"/>
<path fill="#D7384A" opacity="1.000000" stroke="none" 
	d="
M862.948303,635.305969 
	C865.580383,645.401184 865.442749,655.110779 863.220947,664.838074 
	C860.501526,676.743958 853.707520,684.938660 841.496521,687.572510 
	C828.375122,690.402771 816.205627,688.658325 806.883118,677.884033 
	C794.156372,663.175232 794.091919,635.778564 806.529419,620.793396 
	C819.738892,604.878113 845.319214,605.812500 857.048523,622.854553 
	C859.548401,626.486694 860.960144,630.867798 862.948303,635.305969 
z"/>
<path fill="#D7384A" opacity="1.000000" stroke="none" 
	d="
M254.831558,637.432251 
	C252.004532,644.700684 246.422760,648.153992 239.611160,649.478210 
	C234.311096,650.508545 228.832947,650.622864 223.018112,651.184448 
	C223.018112,636.782166 223.018112,623.235962 223.018112,609.712097 
	C244.258362,605.509705 259.018250,618.212097 254.831558,637.432251 
z"/>
<path fill="#D7384A" opacity="1.000000" stroke="none" 
	d="
M158.845505,634.307129 
	C154.175125,648.604126 144.254852,653.922974 127.402313,651.333374 
	C127.402313,637.838989 127.402313,624.294617 127.402313,610.739929 
	C150.210678,606.970032 161.465515,615.306335 158.845505,634.307129 
z"/>
</svg>