<svg version="1.1" id="Layer_1" xmlns="http://www.w3.org/2000/svg" xmlns:xlink="http://www.w3.org/1999/xlink" x="0px" y="0px"
	 width="100%" viewBox="0 0 413 122" enable-background="new 0 0 413 122" xml:space="preserve">
<path fill="#FDFCFC" opacity="1.000000" stroke="none" 
	d="
M3.000000,123.000000 
	C2.333333,122.502747 1.104617,122.023689 1.087847,121.505402 
	C0.937366,116.854614 1.000000,112.196915 1.000000,107.541252 
	C1.000000,72.124939 1.000000,36.708626 1.000000,1.000000 
	C21.353294,1.000000 41.707989,1.000000 62.282715,1.245165 
	C45.988522,9.308809 29.454323,17.085833 12.993903,25.015999 
	C11.503819,25.733879 10.488828,27.437893 9.253208,28.683954 
	C9.557752,29.032488 9.862296,29.381021 10.166840,29.729555 
	C45.570049,29.729555 80.973259,29.729555 116.376465,29.729555 
	C116.662025,29.327078 116.947578,28.924603 117.233139,28.522125 
	C115.760910,27.246582 114.477409,25.588217 112.787155,24.754940 
	C96.563965,16.757113 80.272156,8.898499 64.000000,1.000000 
	C180.599564,1.000000 297.199127,1.000000 413.899353,1.000000 
	C413.899353,41.575958 413.899353,82.152245 413.899353,123.000000 
	C317.979279,123.000000 221.958298,123.000000 125.448761,122.567810 
	C124.631325,119.792046 124.302452,117.448479 123.737167,115.039032 
	C123.500763,114.973160 123.021446,115.078850 122.558815,114.989487 
	C102.823273,114.890106 83.550323,114.848946 64.277473,114.878738 
	C44.511768,114.909294 24.746170,115.009254 4.741032,115.025978 
	C4.501538,114.973114 4.029015,115.104759 3.633312,115.232147 
	C3.158407,117.906364 3.079204,120.453178 3.000000,123.000000 
M104.113190,33.042004 
	C76.394676,33.089905 48.676163,33.137802 20.420181,33.124622 
	C20.285944,33.414722 20.151709,33.704819 19.806723,34.729542 
	C19.867842,35.485508 19.928959,36.241470 19.959307,37.572052 
	C20.298458,37.686539 20.637608,37.801022 21.901718,38.097324 
	C49.607948,38.037457 77.314178,37.977589 105.584869,37.943310 
	C105.718803,37.630287 105.852730,37.317261 106.186295,36.263649 
	C106.115219,35.506569 106.044144,34.749493 106.001648,33.456696 
	C105.683281,33.366264 105.364906,33.275837 104.113190,33.042004 
M112.567291,96.245331 
	C80.742401,96.189583 48.917507,96.128090 17.092602,96.118164 
	C16.438251,96.117958 15.783714,96.716339 14.971354,97.499657 
	C14.971354,97.499657 15.068026,97.980339 14.913908,98.649033 
	C14.955673,99.102448 14.997438,99.555870 15.011589,100.616524 
	C15.347266,100.762138 15.682943,100.907745 16.941555,101.217575 
	C48.624207,101.155838 80.306862,101.094109 112.623306,101.046364 
	C112.768883,100.690247 112.914467,100.334129 113.220085,99.322517 
	C113.150558,98.882904 113.081024,98.443298 113.114410,97.502129 
	C113.056335,97.341637 112.998268,97.181145 112.567291,96.245331 
M82.020363,54.331009 
	C81.976097,53.898396 81.931824,53.465786 82.018318,52.113541 
	C82.018318,48.719795 82.018318,45.326046 82.018318,41.936211 
	C77.958633,41.936211 75.025551,41.936211 71.654037,41.936211 
	C71.078377,59.053459 70.511665,75.904633 69.935944,93.023834 
	C73.330360,93.023834 75.988045,92.885391 78.625351,93.058075 
	C82.101898,93.285706 83.332481,91.920853 83.156479,88.392334 
	C82.601204,77.260269 82.301773,66.115456 82.020363,54.331009 
M21.672346,92.623802 
	C22.109453,92.721611 22.546560,92.819420 23.887941,93.041977 
	C26.930317,92.996574 29.972692,92.951172 33.501316,93.012962 
	C33.501316,93.012962 33.969482,92.843414 34.741501,92.506012 
	C34.226971,78.068001 33.731140,63.629292 33.190609,49.192261 
	C32.885571,41.044952 32.851978,41.040459 24.722254,41.678719 
	C24.248520,41.715912 23.791395,41.964638 23.015215,42.215572 
	C22.567129,58.751148 22.117680,75.337166 21.672346,92.623802 
M213.964569,99.639633 
	C214.316574,99.785149 214.668564,99.930672 215.844910,100.322319 
	C217.555069,100.249039 219.265244,100.175751 221.640701,100.145744 
	C221.772263,99.760788 221.903839,99.375824 222.226471,98.071449 
	C222.162659,73.050270 222.098862,48.029087 222.092117,22.320791 
	C221.712677,22.161373 221.333252,22.001955 220.138046,21.590313 
	C218.441528,21.665876 216.744995,21.741438 214.358856,21.763479 
	C214.234863,22.176783 214.110855,22.590088 213.795227,23.923361 
	C213.866455,48.949547 213.937668,73.975739 213.964569,99.639633 
M8.432541,105.047028 
	C8.319620,105.356361 8.206699,105.665688 7.945815,106.777657 
	C8.000494,107.860268 8.055174,108.942879 8.057431,110.578468 
	C8.368226,110.705597 8.679021,110.832726 9.912148,111.148521 
	C26.519880,111.159508 43.127678,111.203979 59.735329,111.172752 
	C79.160095,111.136230 98.584747,111.033722 118.501411,111.064949 
	C118.655525,110.998840 118.809639,110.932739 119.665245,110.604904 
	C119.430634,108.789780 119.196022,106.974648 118.502693,104.981804 
	C118.502693,104.981804 118.021347,105.083321 117.092880,104.925560 
	C81.055588,104.978157 45.018299,105.030762 8.432541,105.047028 
M388.939026,54.296097 
	C388.595917,54.102024 388.252777,53.907951 387.023102,53.417984 
	C377.232025,53.417984 367.440948,53.417984 357.551666,53.417984 
	C357.551666,45.289196 357.551666,37.733196 357.551666,29.757160 
	C368.458679,29.757160 379.059662,29.757160 390.390564,29.757160 
	C389.872070,26.802616 389.444855,24.368155 388.501984,21.688120 
	C388.319366,21.741966 388.136749,21.795815 387.056335,21.576443 
	C374.720917,21.659279 362.385498,21.742115 349.352936,21.792410 
	C349.215240,22.200680 349.077545,22.608950 348.734161,23.933035 
	C348.809998,49.285564 348.885834,74.638092 348.925110,100.612030 
	C349.283447,100.741554 349.641785,100.871078 350.916595,101.213150 
	C363.277985,101.141060 375.639343,101.068962 388.500885,101.125328 
	C388.661865,101.064476 388.822876,101.003616 389.800110,100.676399 
	C389.800110,98.240204 389.800110,95.804008 389.800110,92.776413 
	C378.888885,92.776413 368.211792,92.776413 357.647278,92.776413 
	C357.647278,82.155579 357.647278,72.135475 357.647278,61.743340 
	C368.261993,61.743340 378.507050,61.743340 388.884796,61.743340 
	C388.884796,59.235374 388.884796,57.106525 388.939026,54.296097 
M311.393097,28.534981 
	C319.070923,26.661116 324.050171,30.775373 328.431152,36.633236 
	C330.743591,34.978973 332.854584,33.468834 334.951294,31.968878 
	C330.540039,25.220871 326.332031,21.589603 320.331909,20.491842 
	C317.410309,19.957312 314.238708,20.989422 311.194733,20.885996 
	C302.307281,20.584030 294.153931,27.255690 292.902557,36.082417 
	C291.541565,45.682751 294.709442,52.004784 303.818970,56.970833 
	C309.938690,60.306999 316.354675,63.099899 322.472443,66.439331 
	C326.484863,68.629532 328.811890,72.194489 329.069946,76.947479 
	C329.461334,84.155266 324.552185,90.694618 317.115417,92.752151 
	C309.976501,94.727280 302.969727,91.492783 299.123108,84.446411 
	C295.689117,78.155922 295.689117,78.155914 288.675415,81.552010 
	C288.744354,82.142120 288.762024,82.794205 288.907867,83.416267 
	C289.096039,84.219170 289.327698,85.022423 289.642120,85.783600 
	C294.077362,96.520340 301.860077,101.456505 313.715332,101.248955 
	C323.634399,101.075302 333.368256,94.961967 336.542938,85.223236 
	C340.088867,74.345894 336.812134,64.451492 327.230774,58.997379 
	C321.941650,55.986595 316.193817,53.748192 310.556152,51.392830 
	C305.311401,49.201626 301.299774,45.777660 301.441772,39.900299 
	C301.578033,34.260426 305.098938,30.449955 311.393097,28.534981 
M252.369934,92.744217 
	C249.194321,89.960686 245.255310,87.681610 243.009766,84.283478 
	C238.947479,78.136108 239.099167,77.790192 232.279831,81.772926 
	C236.176666,99.123428 250.585800,104.074699 264.518250,100.269707 
	C274.322510,97.592125 280.545044,89.196121 281.369080,80.068771 
	C282.348694,69.218384 277.540314,61.919380 268.038361,57.358002 
	C262.360382,54.632294 256.332947,52.533554 250.931946,49.355392 
	C242.753784,44.543022 243.186905,34.817646 251.405121,30.023151 
	C257.172150,26.658676 263.998260,27.641836 268.736572,32.560009 
	C269.955109,33.824821 271.077545,35.182220 272.320892,36.583580 
	C274.810638,34.893410 276.983398,33.418407 279.136627,31.956673 
	C272.914856,21.673820 264.928833,18.155848 252.097794,20.651981 
	C244.567245,22.116959 239.090729,26.813103 237.053665,34.384109 
	C234.997513,42.026066 236.425797,49.079277 243.219879,53.985271 
	C246.556015,56.394276 250.352631,58.182201 254.003036,60.134937 
	C258.104340,62.328888 262.506989,64.040627 266.369324,66.583656 
	C274.725677,72.085640 275.142334,82.444740 267.607422,89.055824 
	C263.419312,92.730446 258.553711,93.745712 252.369934,92.744217 
M190.027588,90.742165 
	C184.781784,92.103447 179.234909,95.234848 174.361649,94.405937 
	C167.273712,93.200333 160.197327,90.365952 154.614288,84.774086 
	C144.203903,74.347244 141.539124,58.203178 148.671600,45.276035 
	C155.996094,32.000938 170.934082,25.112871 184.997391,29.320873 
	C190.533417,30.977356 195.547256,34.378971 200.654099,36.914021 
	C201.377563,26.781538 201.122894,26.269899 191.289520,22.546879 
	C184.143295,19.841244 176.806854,19.084751 169.259155,20.814039 
	C152.885986,24.565372 141.922180,34.505085 137.402451,50.502357 
	C132.892273,66.465813 137.230408,80.710281 149.711990,91.635406 
	C162.258728,102.617554 176.787857,105.230865 192.495789,98.855804 
	C201.336807,95.267677 201.784271,94.277260 200.366104,84.457115 
	C197.136536,86.420212 193.906982,88.383316 190.027588,90.742165 
M45.857399,61.371571 
	C45.577290,68.181381 45.043690,74.992249 45.072197,81.800774 
	C45.124371,94.259911 41.872589,93.104530 56.756706,92.933205 
	C57.045425,92.929886 57.331425,92.690369 58.108101,92.340729 
	C57.534935,75.693985 56.955441,58.863457 56.370682,41.879955 
	C52.802608,41.879955 49.866295,41.879955 45.903072,41.879955 
	C45.903072,48.187832 45.903072,54.294415 45.857399,61.371571 
M93.899338,42.107063 
	C93.658730,43.555195 93.257065,44.997337 93.203003,46.452400 
	C92.770844,58.085243 92.168602,69.718735 92.080322,81.355537 
	C91.980209,94.552948 89.175842,93.035095 103.803810,92.925072 
	C104.086792,92.922943 104.367821,92.661430 105.091972,92.300583 
	C104.517014,75.654800 103.935623,58.822918 103.345116,41.727154 
	C100.027191,41.727154 97.390999,41.727154 93.899338,42.107063 
M409.996338,92.921974 
	C409.805847,91.952347 409.615326,90.982712 409.311768,89.437637 
	C407.836700,91.262733 406.855957,92.476234 405.980499,93.559433 
	C404.913574,92.100761 403.980896,90.825668 403.048218,89.550568 
	C402.591003,89.770195 402.133789,89.989822 401.676544,90.209442 
	C402.235504,93.514587 402.794464,96.819733 403.216125,99.313042 
	C405.538544,99.612663 407.463654,99.861031 409.996918,100.187866 
	C409.996918,98.588821 409.996918,96.192635 409.996338,92.921974 
z"/>
<path fill="#BF3B3C" opacity="1.000000" stroke="none" 
	d="
M63.750000,1.000000 
	C80.272156,8.898499 96.563965,16.757113 112.787155,24.754940 
	C114.477409,25.588217 115.760910,27.246582 117.233139,28.522125 
	C116.947578,28.924603 116.662025,29.327078 116.376465,29.729555 
	C80.973259,29.729555 45.570049,29.729555 10.166840,29.729555 
	C9.862296,29.381021 9.557752,29.032488 9.253208,28.683954 
	C10.488828,27.437893 11.503819,25.733879 12.993903,25.015999 
	C29.454323,17.085833 45.988522,9.308809 62.751373,1.245165 
	C63.000000,1.000000 63.500000,1.000000 63.750000,1.000000 
z"/>
<path fill="#BE393A" opacity="1.000000" stroke="none" 
	d="
M4.980527,115.078850 
	C24.746170,115.009254 44.511768,114.909294 64.277473,114.878738 
	C83.550323,114.848946 102.823273,114.890106 122.641197,115.146378 
	C123.448662,115.296730 123.711121,115.200821 123.973572,115.104912 
	C124.302452,117.448479 124.631325,119.792046 124.980103,122.567810 
	C84.645775,123.000000 44.291542,123.000000 3.468657,123.000000 
	C3.079204,120.453178 3.158407,117.906364 3.723238,115.384621 
	C4.466086,115.299416 4.723307,115.189133 4.980527,115.078850 
z"/>
<path fill="#363636" opacity="1.000000" stroke="none" 
	d="
M311.013184,28.655773 
	C305.098938,30.449955 301.578033,34.260426 301.441772,39.900299 
	C301.299774,45.777660 305.311401,49.201626 310.556152,51.392830 
	C316.193817,53.748192 321.941650,55.986595 327.230774,58.997379 
	C336.812134,64.451492 340.088867,74.345894 336.542938,85.223236 
	C333.368256,94.961967 323.634399,101.075302 313.715332,101.248955 
	C301.860077,101.456505 294.077362,96.520340 289.642120,85.783600 
	C289.327698,85.022423 289.096039,84.219170 288.907867,83.416267 
	C288.762024,82.794205 288.744354,82.142120 288.675415,81.552010 
	C295.689117,78.155914 295.689117,78.155922 299.123108,84.446411 
	C302.969727,91.492783 309.976501,94.727280 317.115417,92.752151 
	C324.552185,90.694618 329.461334,84.155266 329.069946,76.947479 
	C328.811890,72.194489 326.484863,68.629532 322.472443,66.439331 
	C316.354675,63.099899 309.938690,60.306999 303.818970,56.970833 
	C294.709442,52.004784 291.541565,45.682751 292.902557,36.082417 
	C294.153931,27.255690 302.307281,20.584030 311.194733,20.885996 
	C314.238708,20.989422 317.410309,19.957312 320.331909,20.491842 
	C326.332031,21.589603 330.540039,25.220871 334.951294,31.968878 
	C332.854584,33.468834 330.743591,34.978973 328.431152,36.633236 
	C324.050171,30.775373 319.070923,26.661116 311.013184,28.655773 
z"/>
<path fill="#363636" opacity="1.000000" stroke="none" 
	d="
M252.774139,92.836334 
	C258.553711,93.745712 263.419312,92.730446 267.607422,89.055824 
	C275.142334,82.444740 274.725677,72.085640 266.369324,66.583656 
	C262.506989,64.040627 258.104340,62.328888 254.003036,60.134937 
	C250.352631,58.182201 246.556015,56.394276 243.219879,53.985271 
	C236.425797,49.079277 234.997513,42.026066 237.053665,34.384109 
	C239.090729,26.813103 244.567245,22.116959 252.097794,20.651981 
	C264.928833,18.155848 272.914856,21.673820 279.136627,31.956673 
	C276.983398,33.418407 274.810638,34.893410 272.320892,36.583580 
	C271.077545,35.182220 269.955109,33.824821 268.736572,32.560009 
	C263.998260,27.641836 257.172150,26.658676 251.405121,30.023151 
	C243.186905,34.817646 242.753784,44.543022 250.931946,49.355392 
	C256.332947,52.533554 262.360382,54.632294 268.038361,57.358002 
	C277.540314,61.919380 282.348694,69.218384 281.369080,80.068771 
	C280.545044,89.196121 274.322510,97.592125 264.518250,100.269707 
	C250.585800,104.074699 236.176666,99.123428 232.279831,81.772926 
	C239.099167,77.790192 238.947479,78.136108 243.009766,84.283478 
	C245.255310,87.681610 249.194321,89.960686 252.774139,92.836334 
z"/>
<path fill="#373737" opacity="1.000000" stroke="none" 
	d="
M190.352509,90.544296 
	C193.906982,88.383316 197.136536,86.420212 200.367294,84.459122 
	C201.784271,94.277260 201.336807,95.267677 192.495789,98.855804 
	C176.787857,105.230865 162.258728,102.617554 149.711990,91.635406 
	C137.230408,80.710281 132.892273,66.465813 137.402451,50.502357 
	C141.922180,34.505085 152.885986,24.565372 169.259155,20.814039 
	C176.806854,19.084751 184.143295,19.841244 191.289520,22.546879 
	C201.122894,26.269899 201.377563,26.781538 200.654099,36.914021 
	C195.547256,34.378971 190.533417,30.977356 184.997391,29.320873 
	C170.934082,25.112871 155.996094,32.000938 148.671600,45.276035 
	C141.539124,58.203178 144.203903,74.347244 154.614288,84.774086 
	C160.197327,90.365952 167.273712,93.200333 174.361649,94.405937 
	C179.234909,95.234848 184.781784,92.103447 190.352509,90.544296 
z"/>
<path fill="#373737" opacity="1.000000" stroke="none" 
	d="
M348.961670,99.990623 
	C348.885834,74.638092 348.809998,49.285564 349.095093,23.355705 
	C349.654053,22.460567 349.852051,22.142759 350.050079,21.824951 
	C362.385498,21.742115 374.720917,21.659279 387.598938,21.894360 
	C388.433563,22.119413 388.725586,22.026550 389.017639,21.933689 
	C389.444855,24.368155 389.872070,26.802616 390.390564,29.757160 
	C379.059662,29.757160 368.458679,29.757160 357.551666,29.757160 
	C357.551666,37.733196 357.551666,45.289196 357.551666,53.417984 
	C367.440948,53.417984 377.232025,53.417984 387.571777,53.819420 
	C388.375244,54.473129 388.630035,54.725399 388.884796,54.977673 
	C388.884796,57.106525 388.884796,59.235374 388.884796,61.743340 
	C378.507050,61.743340 368.261993,61.743340 357.647278,61.743340 
	C357.647278,72.135475 357.647278,82.155579 357.647278,92.776413 
	C368.211792,92.776413 378.888885,92.776413 389.800110,92.776413 
	C389.800110,95.804008 389.800110,98.240204 389.293518,100.651611 
	C388.524841,100.750175 388.262787,100.873520 388.000732,100.996872 
	C375.639343,101.068962 363.277985,101.141060 350.351990,100.878281 
	C349.512177,100.359154 349.236908,100.174889 348.961670,99.990623 
z"/>
<path fill="#BE393A" opacity="1.000000" stroke="none" 
	d="
M118.009445,110.959839 
	C98.584747,111.033722 79.160095,111.136230 59.735329,111.172752 
	C43.127678,111.203979 26.519880,111.159508 9.361414,110.850479 
	C8.637767,110.296066 8.404158,110.120422 8.109854,110.025490 
	C8.055174,108.942879 8.000494,107.860268 8.221116,106.287331 
	C8.753901,105.624290 8.915431,105.386414 8.981009,105.083366 
	C45.018299,105.030762 81.055588,104.978157 117.630196,105.164581 
	C118.432144,105.322250 118.696777,105.240883 118.961411,105.159523 
	C119.196022,106.974648 119.430634,108.789780 119.213348,110.591881 
	C118.510788,110.705856 118.260117,110.832848 118.009445,110.959839 
z"/>
<path fill="#333333" opacity="1.000000" stroke="none" 
	d="
M220.975403,100.102478 
	C219.265244,100.175751 217.555069,100.249039 215.325760,99.966934 
	C214.540710,99.408340 214.274796,99.205132 214.008881,99.001923 
	C213.937668,73.975739 213.866455,48.949547 214.139404,23.340450 
	C214.671875,22.444029 214.860184,22.130516 215.048477,21.817001 
	C216.744995,21.741438 218.441528,21.665876 220.655914,21.970524 
	C221.460892,22.569790 221.747971,22.788845 222.035065,23.007902 
	C222.098862,48.029087 222.162659,73.050270 221.887421,98.643112 
	C221.357376,99.510674 221.166397,99.806572 220.975403,100.102478 
z"/>
<path fill="#BE3637" opacity="1.000000" stroke="none" 
	d="
M33.015068,92.905762 
	C29.972692,92.951172 26.930317,92.996574 23.282167,92.739822 
	C22.340338,92.266174 22.004280,92.094681 21.668226,91.923187 
	C22.117680,75.337166 22.567129,58.751148 23.015215,42.215572 
	C23.791395,41.964638 24.248520,41.715912 24.722254,41.678719 
	C32.851978,41.040459 32.885571,41.044952 33.190609,49.192261 
	C33.731140,63.629292 34.226971,78.068001 34.260544,92.527756 
	C33.524746,92.668259 33.269909,92.787010 33.015068,92.905762 
z"/>
<path fill="#BF3D3E" opacity="1.000000" stroke="none" 
	d="
M45.880234,60.886284 
	C45.903072,54.294415 45.903072,48.187832 45.903072,41.879955 
	C49.866295,41.879955 52.802608,41.879955 56.370682,41.879955 
	C56.955441,58.863457 57.534935,75.693985 58.108101,92.340729 
	C57.331425,92.690369 57.045425,92.929886 56.756706,92.933205 
	C41.872589,93.104530 45.124371,94.259911 45.072197,81.800774 
	C45.043690,74.992249 45.577290,68.181381 45.880234,60.886284 
z"/>
<path fill="#BF3D3E" opacity="1.000000" stroke="none" 
	d="
M81.903351,54.975571 
	C82.301773,66.115456 82.601204,77.260269 83.156479,88.392334 
	C83.332481,91.920853 82.101898,93.285706 78.625351,93.058075 
	C75.988045,92.885391 73.330360,93.023834 69.935944,93.023834 
	C70.511665,75.904633 71.078377,59.053459 71.654037,41.936211 
	C75.025551,41.936211 77.958633,41.936211 82.018318,41.936211 
	C82.018318,45.326046 82.018318,48.719795 81.735275,52.712929 
	C81.602608,53.866734 81.752975,54.421150 81.903351,54.975571 
z"/>
<path fill="#BF3D3E" opacity="1.000000" stroke="none" 
	d="
M94.327072,41.917107 
	C97.390999,41.727154 100.027191,41.727154 103.345116,41.727154 
	C103.935623,58.822918 104.517014,75.654800 105.091972,92.300583 
	C104.367821,92.661430 104.086792,92.922943 103.803810,92.925072 
	C89.175842,93.035095 91.980209,94.552948 92.080322,81.355537 
	C92.168602,69.718735 92.770844,58.085243 93.203003,46.452400 
	C93.257065,44.997337 93.658730,43.555195 94.327072,41.917107 
z"/>
<path fill="#C04142" opacity="1.000000" stroke="none" 
	d="
M111.989510,101.032379 
	C80.306862,101.094109 48.624207,101.155838 16.400091,100.892746 
	C15.585485,100.381714 15.312345,100.195496 15.039204,100.009285 
	C14.997438,99.555870 14.955673,99.102448 15.159212,98.243698 
	C15.473010,97.738884 15.620872,97.583290 15.596807,97.549240 
	C15.464149,97.361588 15.289505,97.203613 15.129262,97.035461 
	C15.783714,96.716339 16.438251,96.117958 17.092602,96.118164 
	C48.917507,96.128090 80.742401,96.189583 112.596703,96.733444 
	C112.754570,97.482262 112.883034,97.742973 113.011490,98.003685 
	C113.081024,98.443298 113.150558,98.882904 112.893158,99.746933 
	C112.373985,100.458359 112.181747,100.745361 111.989510,101.032379 
z"/>
<path fill="#BE393A" opacity="1.000000" stroke="none" 
	d="
M19.990076,36.997437 
	C19.928959,36.241470 19.867842,35.485508 20.108635,34.278137 
	C20.664848,33.674458 20.847216,33.460781 20.957647,33.185699 
	C48.676163,33.137802 76.394676,33.089905 104.686951,33.296577 
	C105.453804,33.769829 105.691254,33.916916 105.973061,33.992413 
	C106.044144,34.749493 106.115219,35.506569 105.874908,36.726952 
	C105.290710,37.364212 105.109673,37.606705 105.020409,37.917717 
	C77.314178,37.977589 49.607948,38.037457 21.334221,37.797466 
	C20.560566,37.249027 20.301683,37.082306 19.990076,36.997437 
z"/>
<path fill="#5D5D5D" opacity="1.000000" stroke="none" 
	d="
M409.996643,93.359207 
	C409.996918,96.192635 409.996918,98.588821 409.996918,100.187866 
	C407.463654,99.861031 405.538544,99.612663 403.216125,99.313042 
	C402.794464,96.819733 402.235504,93.514587 401.676544,90.209442 
	C402.133789,89.989822 402.591003,89.770195 403.048218,89.550568 
	C403.980896,90.825668 404.913574,92.100761 405.980499,93.559433 
	C406.855957,92.476234 407.836700,91.262733 409.311768,89.437637 
	C409.615326,90.982712 409.805847,91.952347 409.996643,93.359207 
z"/>
<path fill="#BB2829" opacity="1.000000" stroke="none" 
	d="
M81.961853,54.653290 
	C81.752975,54.421150 81.602608,53.866734 81.669891,53.172745 
	C81.931824,53.465786 81.976097,53.898396 81.961853,54.653290 
z"/>
<path fill="#BA2526" opacity="1.000000" stroke="none" 
	d="
M8.083643,110.301979 
	C8.404158,110.120422 8.637767,110.296066 8.900249,110.756134 
	C8.679021,110.832726 8.368226,110.705597 8.083643,110.301979 
z"/>
<path fill="#BA2526" opacity="1.000000" stroke="none" 
	d="
M118.255432,111.012390 
	C118.260117,110.832848 118.510788,110.705856 118.862602,110.722748 
	C118.809639,110.932739 118.655525,110.998840 118.255432,111.012390 
z"/>
<path fill="#BA2123" opacity="1.000000" stroke="none" 
	d="
M4.741034,115.025986 
	C4.723307,115.189133 4.466086,115.299416 4.118939,115.257233 
	C4.029015,115.104759 4.501538,114.973114 4.741034,115.025986 
z"/>
<path fill="#BC2B2D" opacity="1.000000" stroke="none" 
	d="
M33.258194,92.959366 
	C33.269909,92.787010 33.524746,92.668259 33.874535,92.696457 
	C33.969482,92.843414 33.501316,93.012962 33.258194,92.959366 
z"/>
<path fill="#BA2123" opacity="1.000000" stroke="none" 
	d="
M118.732056,105.070663 
	C118.696777,105.240883 118.432144,105.322250 118.094429,105.243469 
	C118.021347,105.083321 118.502693,104.981804 118.732056,105.070663 
z"/>
<path fill="#BA2123" opacity="1.000000" stroke="none" 
	d="
M123.737167,115.039032 
	C123.711121,115.200821 123.448662,115.296730 123.103828,115.235748 
	C123.021446,115.078850 123.500763,114.973160 123.737167,115.039032 
z"/>
<path fill="#BA2123" opacity="1.000000" stroke="none" 
	d="
M8.706775,105.065201 
	C8.915431,105.386414 8.753901,105.624290 8.295097,105.886017 
	C8.206699,105.665688 8.319620,105.356361 8.706775,105.065201 
z"/>
<path fill="#212121" opacity="1.000000" stroke="none" 
	d="
M214.703674,21.790241 
	C214.860184,22.130516 214.671875,22.444029 214.235214,22.880466 
	C214.110855,22.590088 214.234863,22.176783 214.703674,21.790241 
z"/>
<path fill="#1F1F1F" opacity="1.000000" stroke="none" 
	d="
M388.250793,101.061096 
	C388.262787,100.873520 388.524841,100.750175 388.885376,100.784790 
	C388.822876,101.003616 388.661865,101.064476 388.250793,101.061096 
z"/>
<path fill="#232323" opacity="1.000000" stroke="none" 
	d="
M348.943390,100.301331 
	C349.236908,100.174889 349.512177,100.359154 349.893768,100.772011 
	C349.641785,100.871078 349.283447,100.741554 348.943390,100.301331 
z"/>
<path fill="#BA2425" opacity="1.000000" stroke="none" 
	d="
M112.306412,101.039368 
	C112.181747,100.745361 112.373985,100.458359 112.813141,100.074684 
	C112.914467,100.334129 112.768883,100.690247 112.306412,101.039368 
z"/>
<path fill="#BA2425" opacity="1.000000" stroke="none" 
	d="
M15.025396,100.312904 
	C15.312345,100.195496 15.585485,100.381714 15.938623,100.810638 
	C15.682943,100.907745 15.347266,100.762138 15.025396,100.312904 
z"/>
<path fill="#212121" opacity="1.000000" stroke="none" 
	d="
M221.308060,100.124115 
	C221.166397,99.806572 221.357376,99.510674 221.791885,99.102821 
	C221.903839,99.375824 221.772263,99.760788 221.308060,100.124115 
z"/>
<path fill="#212121" opacity="1.000000" stroke="none" 
	d="
M213.986725,99.320778 
	C214.274796,99.205132 214.540710,99.408340 214.913589,99.843872 
	C214.668564,99.930672 214.316574,99.785149 213.986725,99.320778 
z"/>
<path fill="#BA2425" opacity="1.000000" stroke="none" 
	d="
M113.062950,97.752907 
	C112.883034,97.742973 112.754570,97.482262 112.783157,97.121109 
	C112.998268,97.181145 113.056335,97.341637 113.062950,97.752907 
z"/>
<path fill="#BA2425" opacity="1.000000" stroke="none" 
	d="
M15.050306,97.267563 
	C15.289505,97.203613 15.464149,97.361588 15.596807,97.549240 
	C15.620872,97.583290 15.473010,97.738884 15.236271,97.909348 
	C15.068026,97.980339 14.971354,97.499657 15.050306,97.267563 
z"/>
<path fill="#212121" opacity="1.000000" stroke="none" 
	d="
M222.063599,22.664345 
	C221.747971,22.788845 221.460892,22.569790 221.063812,22.096634 
	C221.333252,22.001955 221.712677,22.161373 222.063599,22.664345 
z"/>
<path fill="#BC2B2D" opacity="1.000000" stroke="none" 
	d="
M21.670284,92.273499 
	C22.004280,92.094681 22.340338,92.266174 22.830030,92.677444 
	C22.546560,92.819420 22.109453,92.721611 21.670284,92.273499 
z"/>
<path fill="#262626" opacity="1.000000" stroke="none" 
	d="
M388.911926,54.636883 
	C388.630035,54.725399 388.375244,54.473129 388.015045,53.967369 
	C388.252777,53.907951 388.595917,54.102024 388.911926,54.636883 
z"/>
<path fill="#BA2123" opacity="1.000000" stroke="none" 
	d="
M105.302643,37.930515 
	C105.109673,37.606705 105.290710,37.364212 105.775093,37.097244 
	C105.852730,37.317261 105.718803,37.630287 105.302643,37.930515 
z"/>
<path fill="#BA2123" opacity="1.000000" stroke="none" 
	d="
M19.974691,37.284744 
	C20.301683,37.082306 20.560566,37.249027 20.871742,37.706558 
	C20.637608,37.801022 20.298458,37.686539 19.974691,37.284744 
z"/>
<path fill="#BA2123" opacity="1.000000" stroke="none" 
	d="
M105.987350,33.724556 
	C105.691254,33.916916 105.453804,33.769829 105.153625,33.368279 
	C105.364906,33.275837 105.683281,33.366264 105.987350,33.724556 
z"/>
<path fill="#BA2123" opacity="1.000000" stroke="none" 
	d="
M20.688915,33.155159 
	C20.847216,33.460781 20.664848,33.674458 20.214008,33.910828 
	C20.151709,33.704819 20.285944,33.414722 20.688915,33.155159 
z"/>
<path fill="#232323" opacity="1.000000" stroke="none" 
	d="
M388.759827,21.810904 
	C388.725586,22.026550 388.433563,22.119413 388.047821,22.030968 
	C388.136749,21.795815 388.319366,21.741966 388.759827,21.810904 
z"/>
<path fill="#232323" opacity="1.000000" stroke="none" 
	d="
M349.701508,21.808681 
	C349.852051,22.142759 349.654053,22.460567 349.197937,22.897797 
	C349.077545,22.608950 349.215240,22.200680 349.701508,21.808681 
z"/>
</svg>