<svg version="1.1" id="Layer_1" xmlns="http://www.w3.org/2000/svg" xmlns:xlink="http://www.w3.org/1999/xlink" x="0px" y="0px"
	 width="100%" viewBox="0 0 510 142" enable-background="new 0 0 510 142" xml:space="preserve">
<path fill="#3A2D71" opacity="1.000000" stroke="none" 
	d="
M371.000000,143.000000 
	C247.333374,143.000000 124.166756,143.000000 1.000099,143.000000 
	C1.000066,95.666725 1.000066,48.333454 1.000033,1.000137 
	C170.999878,1.000092 340.999756,1.000092 510.999725,1.000046 
	C510.999817,48.333195 510.999817,95.666389 510.999908,142.999786 
	C464.500000,143.000000 418.000000,143.000000 371.000000,143.000000 
M253.968826,81.716492 
	C256.540924,85.284576 259.113007,88.852661 261.855225,93.051689 
	C263.531738,94.369392 265.208282,95.687088 266.976166,97.684982 
	C272.203827,101.177589 277.355530,104.794823 282.719086,108.064491 
	C283.882477,108.773720 286.045929,108.769638 287.342194,108.187988 
	C298.374329,103.237717 307.485931,95.969902 314.196808,85.076553 
	C314.856018,83.913322 315.515228,82.750084 316.671814,81.152908 
	C317.245636,79.762634 317.819427,78.372360 318.918121,76.414467 
	C320.206421,72.253792 321.494720,68.093109 323.138977,63.352554 
	C323.209930,62.229759 323.280884,61.106960 323.736786,59.358276 
	C323.730530,58.876225 323.724243,58.394173 324.027283,57.191086 
	C323.728729,53.340134 323.430176,49.489185 322.879303,45.038010 
	C303.648468,25.867601 274.234589,23.860149 253.217712,39.552570 
	C245.982452,44.954834 244.761993,51.126644 246.670776,59.638725 
	C246.867325,60.727364 247.063873,61.815998 247.210815,63.655922 
	C247.436752,64.097786 247.662674,64.539650 247.748428,65.592300 
	C248.003708,66.353195 248.258987,67.114082 248.538361,68.562889 
	C249.032104,70.366753 249.525848,72.170609 250.027023,74.708748 
	C251.347168,76.805519 252.667313,78.902290 253.968826,81.716492 
M432.504669,78.302765 
	C432.658264,73.167007 432.929230,68.029602 432.857330,62.897011 
	C432.844360,61.972324 431.420135,61.067406 429.769501,60.262550 
	C425.624573,60.407990 421.420746,60.169090 417.349030,60.792618 
	C411.806427,61.641392 408.897003,66.202332 409.726776,71.723167 
	C410.471039,76.675056 413.944153,79.450615 419.554779,79.719604 
	C421.876953,79.830940 425.185455,78.838737 425.244904,82.675873 
	C425.311218,86.954071 421.713013,85.698555 419.298553,85.832664 
	C416.383453,85.994583 413.452454,85.871017 410.593689,85.871017 
	C410.593689,88.489433 410.593689,90.365288 410.593689,92.356735 
	C415.454529,92.356735 419.942444,92.645988 424.375366,92.276184 
	C428.897888,91.898895 431.576050,89.098373 431.985596,84.471359 
	C432.146301,82.655754 432.031799,80.815804 432.504669,78.302765 
M337.939758,47.845486 
	C336.493927,47.941853 335.048065,48.038223 333.577240,48.136253 
	C333.577240,63.105125 333.577240,77.673531 333.577240,92.330124 
	C339.712250,92.330124 345.545410,92.821365 351.261017,92.211235 
	C359.186615,91.365166 364.543945,85.429092 365.078369,77.509247 
	C365.402710,72.702553 365.418701,67.835106 365.069061,63.031654 
	C364.441589,54.412212 357.962921,48.313763 349.330780,47.909603 
	C345.840118,47.746166 342.336548,47.858322 337.939758,47.845486 
M150.445572,91.315079 
	C158.463196,94.641724 165.407227,93.425919 170.540421,87.796768 
	C175.252975,82.628883 176.432343,74.691498 172.693863,68.770752 
	C166.902786,59.599201 158.649429,57.926579 148.342667,62.869644 
	C148.342667,57.106216 148.342667,52.196224 148.342667,47.184235 
	C145.850952,47.184235 143.939560,47.184235 141.672699,47.184235 
	C141.672699,57.132984 141.680923,66.775009 141.669815,76.417023 
	C141.662491,82.778374 144.414032,87.589203 150.445572,91.315079 
M113.427841,90.198372 
	C117.979370,91.426163 122.530899,92.653946 127.796158,94.074265 
	C128.039062,98.142784 124.651619,99.827492 120.052643,100.286850 
	C120.052643,102.410210 120.052643,104.355255 120.052643,106.272484 
	C127.450356,107.046028 133.928940,102.946426 134.269409,96.151680 
	C134.849442,84.575867 134.429184,72.949944 134.429184,61.153282 
	C132.177032,61.153282 130.262543,61.153282 127.872879,61.153282 
	C127.872879,66.999329 127.899300,72.617737 127.865341,78.235779 
	C127.832321,83.698212 125.963547,86.112862 121.809479,86.186523 
	C117.640961,86.260429 115.786133,83.929077 115.734093,78.353249 
	C115.680603,72.621300 115.722229,66.888458 115.722229,61.170219 
	C112.967751,61.170219 111.026863,61.170219 109.096848,61.170219 
	C108.980675,61.911919 108.839317,62.402363 108.836845,62.893509 
	C108.810036,68.218460 108.299149,73.607834 108.965240,78.846779 
	C109.438881,82.571976 111.506561,86.094490 113.427841,90.198372 
M180.000061,76.557259 
	C180.407730,84.573776 184.332123,90.061470 191.374054,92.462135 
	C197.362701,94.503723 202.204453,93.152374 206.361603,88.374779 
	C205.206818,86.773117 204.061554,85.184677 203.066330,83.804321 
	C195.379120,87.900757 190.601822,86.686539 188.264526,80.137131 
	C196.537964,80.137131 204.623245,80.137131 212.616180,80.137131 
	C214.040482,69.551109 207.909729,61.406891 198.018951,60.089642 
	C189.439529,58.947048 181.492630,65.835747 180.000061,76.557259 
M403.692780,80.580940 
	C403.627411,78.585876 403.709869,76.572952 403.471313,74.598816 
	C402.391449,65.662422 394.534882,59.259670 385.692627,60.016651 
	C377.129395,60.749752 369.993683,68.944046 370.494659,77.469177 
	C371.017700,86.369209 378.428223,93.560272 387.414856,92.959702 
	C392.365845,92.628830 397.248901,91.469772 402.262665,92.266960 
	C402.629700,92.325325 403.086761,91.817703 403.692780,91.460854 
	C403.692780,88.181992 403.692780,84.858963 403.692780,80.580940 
M90.940422,92.946587 
	C96.112473,91.482925 100.331207,88.852211 102.643425,83.301033 
	C100.796463,82.241356 99.017670,81.220787 97.187340,80.170662 
	C96.476219,81.116585 96.070702,81.628311 95.694519,82.160774 
	C92.772842,86.296303 88.638405,87.139122 84.189270,85.729767 
	C79.685188,84.303009 77.825722,80.691376 77.871109,76.038956 
	C77.913307,71.712822 77.685272,67.371887 77.968254,63.063213 
	C78.360764,57.086758 83.767120,52.749245 89.437241,54.340954 
	C92.382942,55.167873 94.846558,57.712067 98.137444,59.882477 
	C99.121223,59.337505 100.797302,58.409027 102.432083,57.503426 
	C99.228867,49.888790 92.406708,46.201473 84.596817,47.553806 
	C77.241112,48.827492 71.481140,55.189693 71.072800,62.784428 
	C70.858673,66.766968 71.012833,70.770012 71.022621,74.763741 
	C71.052406,86.916801 77.781052,93.364212 90.940422,92.946587 
M219.839417,71.430130 
	C219.431580,78.323570 219.023727,85.217010 218.604828,92.296982 
	C221.503189,92.296982 223.415390,92.296982 225.852295,92.296982 
	C225.852295,88.212158 225.850296,84.425735 225.852676,80.639313 
	C225.858871,70.724480 227.883804,68.223328 237.376740,66.523857 
	C237.376740,64.465263 237.376740,62.388939 237.376740,60.343460 
	C229.547272,59.675510 224.400925,62.821587 219.839417,71.430130 
z"/>
<path fill="#EFEDF3" opacity="1.000000" stroke="none" 
	d="
M338.389313,47.845276 
	C342.336548,47.858322 345.840118,47.746166 349.330780,47.909603 
	C357.962921,48.313763 364.441589,54.412212 365.069061,63.031654 
	C365.418701,67.835106 365.402710,72.702553 365.078369,77.509247 
	C364.543945,85.429092 359.186615,91.365166 351.261017,92.211235 
	C345.545410,92.821365 339.712250,92.330124 333.577240,92.330124 
	C333.577240,77.673531 333.577240,63.105125 333.577240,48.136253 
	C335.048065,48.038223 336.493927,47.941853 338.389313,47.845276 
M355.204163,57.229820 
	C350.728363,53.561234 345.623657,54.660229 340.359070,54.930801 
	C340.359070,65.331154 340.359070,75.359856 340.359070,85.938583 
	C342.786591,85.938583 344.897888,85.942017 347.009155,85.937859 
	C351.215302,85.929573 355.698669,85.151443 356.935638,80.827744 
	C359.119659,73.193748 360.132416,65.268250 355.204163,57.229820 
z"/>
<path fill="#F6F5F8" opacity="1.000000" stroke="none" 
	d="
M150.105164,91.137955 
	C144.414032,87.589203 141.662491,82.778374 141.669815,76.417023 
	C141.680923,66.775009 141.672699,57.132984 141.672699,47.184235 
	C143.939560,47.184235 145.850952,47.184235 148.342667,47.184235 
	C148.342667,52.196224 148.342667,57.106216 148.342667,62.869644 
	C158.649429,57.926579 166.902786,59.599201 172.693863,68.770752 
	C176.432343,74.691498 175.252975,82.628883 170.540421,87.796768 
	C165.407227,93.425919 158.463196,94.641724 150.105164,91.137955 
M149.392441,80.956490 
	C152.958115,85.999352 157.316956,87.622917 162.071991,85.679321 
	C166.149231,84.012764 168.591446,79.614510 167.881180,75.217407 
	C167.039261,70.005302 161.750977,66.175682 156.639938,67.076813 
	C150.565475,68.147804 147.629166,73.260162 149.392441,80.956490 
z"/>
<path fill="#F4F3F7" opacity="1.000000" stroke="none" 
	d="
M246.808441,58.980183 
	C244.761993,51.126644 245.982452,44.954834 253.217712,39.552570 
	C274.234589,23.860149 303.648468,25.867601 322.973999,45.814983 
	C323.285126,50.365345 323.501556,54.138733 323.717987,57.912121 
	C323.724243,58.394173 323.730530,58.876225 323.308350,59.827026 
	C322.847595,61.507996 322.815308,62.720215 322.783020,63.932434 
	C321.494720,68.093109 320.206421,72.253792 318.375763,76.865433 
	C317.280426,78.739891 316.727448,80.163376 316.174438,81.586861 
	C315.515228,82.750084 314.856018,83.913322 313.671936,84.994614 
	C312.359253,83.584122 311.571411,82.255577 310.948578,80.616196 
	C312.536530,77.298805 314.319153,74.407448 315.324829,71.267250 
	C322.614014,48.507591 321.171204,44.236149 297.308838,35.970490 
	C285.500793,31.880314 273.976349,34.705166 262.411407,39.290756 
	C260.662781,39.799320 259.328674,40.388229 257.677856,41.080574 
	C256.902008,42.107914 256.442932,43.031818 255.811188,44.253662 
	C250.196396,47.251217 251.454117,52.415955 250.905472,57.136154 
	C250.992264,57.870056 251.240860,58.443394 251.677826,59.398705 
	C252.714432,63.892403 253.562683,68.004128 254.401367,72.069504 
	C262.179077,71.578629 262.401276,71.839355 261.211914,80.050247 
	C260.349487,80.406044 259.739899,80.716003 258.951538,80.700912 
	C256.633759,78.333557 254.494720,76.291252 252.355682,74.248955 
	C252.639252,73.914665 252.922821,73.580376 253.206390,73.246094 
	C252.144135,73.488884 251.081863,73.731674 250.019592,73.974472 
	C249.525848,72.170609 249.032104,70.366753 248.606308,67.907776 
	C248.412369,66.495621 248.150482,65.738564 247.888611,64.981522 
	C247.662674,64.539650 247.436752,64.097786 247.390762,63.042744 
	C247.316620,61.279770 247.062531,60.129978 246.808441,58.980183 
z"/>
<path fill="#F1F1F5" opacity="1.000000" stroke="none" 
	d="
M113.145325,89.952911 
	C111.506561,86.094490 109.438881,82.571976 108.965240,78.846779 
	C108.299149,73.607834 108.810036,68.218460 108.836845,62.893509 
	C108.839317,62.402363 108.980675,61.911919 109.096848,61.170219 
	C111.026863,61.170219 112.967751,61.170219 115.722229,61.170219 
	C115.722229,66.888458 115.680603,72.621300 115.734093,78.353249 
	C115.786133,83.929077 117.640961,86.260429 121.809479,86.186523 
	C125.963547,86.112862 127.832321,83.698212 127.865341,78.235779 
	C127.899300,72.617737 127.872879,66.999329 127.872879,61.153282 
	C130.262543,61.153282 132.177032,61.153282 134.429184,61.153282 
	C134.429184,72.949944 134.849442,84.575867 134.269409,96.151680 
	C133.928940,102.946426 127.450356,107.046028 120.052643,106.272484 
	C120.052643,104.355255 120.052643,102.410210 120.052643,100.286850 
	C124.651619,99.827492 128.039062,98.142784 127.796158,94.074265 
	C122.530899,92.653946 117.979370,91.426163 113.145325,89.952911 
z"/>
<path fill="#F6F5F8" opacity="1.000000" stroke="none" 
	d="
M180.002686,76.130920 
	C181.492630,65.835747 189.439529,58.947048 198.018951,60.089642 
	C207.909729,61.406891 214.040482,69.551109 212.616180,80.137131 
	C204.623245,80.137131 196.537964,80.137131 188.264526,80.137131 
	C190.601822,86.686539 195.379120,87.900757 203.066330,83.804321 
	C204.061554,85.184677 205.206818,86.773117 206.361603,88.374779 
	C202.204453,93.152374 197.362701,94.503723 191.374054,92.462135 
	C184.332123,90.061470 180.407730,84.573776 180.002686,76.130920 
M194.624023,73.784218 
	C198.163879,73.784218 201.703735,73.784218 205.813339,73.784218 
	C203.446838,68.600319 200.000168,66.594040 195.548035,67.108124 
	C191.986923,67.519325 188.675934,69.003952 187.940536,73.784203 
	C190.112305,73.784203 191.907288,73.784203 194.624023,73.784218 
z"/>
<path fill="#F4F3F7" opacity="1.000000" stroke="none" 
	d="
M403.692780,81.058441 
	C403.692780,84.858963 403.692780,88.181992 403.692780,91.460854 
	C403.086761,91.817703 402.629700,92.325325 402.262665,92.266960 
	C397.248901,91.469772 392.365845,92.628830 387.414856,92.959702 
	C378.428223,93.560272 371.017700,86.369209 370.494659,77.469177 
	C369.993683,68.944046 377.129395,60.749752 385.692627,60.016651 
	C394.534882,59.259670 402.391449,65.662422 403.471313,74.598816 
	C403.709869,76.572952 403.627411,78.585876 403.692780,81.058441 
M396.858093,75.740402 
	C396.273529,71.043007 393.586517,68.048584 389.056610,67.132561 
	C384.992279,66.310699 381.433655,67.692101 379.061676,71.244087 
	C376.566345,74.980827 376.726593,78.818993 379.328644,82.441399 
	C381.863586,85.970345 385.551544,86.928848 389.546753,85.988945 
	C394.369690,84.854332 396.694031,81.435120 396.858093,75.740402 
z"/>
<path fill="#F5F4F7" opacity="1.000000" stroke="none" 
	d="
M90.515442,92.997391 
	C77.781052,93.364212 71.052406,86.916801 71.022621,74.763741 
	C71.012833,70.770012 70.858673,66.766968 71.072800,62.784428 
	C71.481140,55.189693 77.241112,48.827492 84.596817,47.553806 
	C92.406708,46.201473 99.228867,49.888790 102.432083,57.503426 
	C100.797302,58.409027 99.121223,59.337505 98.137444,59.882477 
	C94.846558,57.712067 92.382942,55.167873 89.437241,54.340954 
	C83.767120,52.749245 78.360764,57.086758 77.968254,63.063213 
	C77.685272,67.371887 77.913307,71.712822 77.871109,76.038956 
	C77.825722,80.691376 79.685188,84.303009 84.189270,85.729767 
	C88.638405,87.139122 92.772842,86.296303 95.694519,82.160774 
	C96.070702,81.628311 96.476219,81.116585 97.187340,80.170662 
	C99.017670,81.220787 100.796463,82.241356 102.643425,83.301033 
	C100.331207,88.852211 96.112473,91.482925 90.515442,92.997391 
z"/>
<path fill="#F2F1F6" opacity="1.000000" stroke="none" 
	d="
M432.042664,78.986938 
	C432.031799,80.815804 432.146301,82.655754 431.985596,84.471359 
	C431.576050,89.098373 428.897888,91.898895 424.375366,92.276184 
	C419.942444,92.645988 415.454529,92.356735 410.593689,92.356735 
	C410.593689,90.365288 410.593689,88.489433 410.593689,85.871017 
	C413.452454,85.871017 416.383453,85.994583 419.298553,85.832664 
	C421.713013,85.698555 425.311218,86.954071 425.244904,82.675873 
	C425.185455,78.838737 421.876953,79.830940 419.554779,79.719604 
	C413.944153,79.450615 410.471039,76.675056 409.726776,71.723167 
	C408.897003,66.202332 411.806427,61.641392 417.349030,60.792618 
	C421.420746,60.169090 425.624573,60.407990 430.366394,60.630581 
	C430.963287,62.893959 430.963287,64.789307 430.963287,67.038185 
	C427.312775,67.038185 423.995819,66.726967 420.783783,67.172249 
	C419.226715,67.388107 417.866180,69.022018 416.416656,70.013924 
	C417.801208,70.988632 419.191772,72.798820 420.569214,72.788879 
	C425.676025,72.752029 429.501648,74.537094 432.042664,78.986938 
z"/>
<path fill="#EFEEF4" opacity="1.000000" stroke="none" 
	d="
M310.783569,80.927032 
	C311.571411,82.255577 312.359253,83.584122 313.443054,85.172958 
	C307.485931,95.969902 298.374329,103.237717 287.342194,108.187988 
	C286.045929,108.769638 283.882477,108.773720 282.719086,108.064491 
	C277.355530,104.794823 272.203827,101.177589 267.358154,97.423492 
	C268.884918,97.039986 270.029694,96.917984 271.547424,96.805733 
	C274.259308,97.977585 276.804688,98.853554 278.894196,100.361275 
	C283.257050,103.509438 287.053925,103.264656 291.581818,100.297829 
	C299.418457,95.163010 305.640533,88.629791 310.783569,80.927032 
z"/>
<path fill="#EFEDF3" opacity="1.000000" stroke="none" 
	d="
M219.957977,71.062218 
	C224.400925,62.821587 229.547272,59.675510 237.376740,60.343460 
	C237.376740,62.388939 237.376740,64.465263 237.376740,66.523857 
	C227.883804,68.223328 225.858871,70.724480 225.852676,80.639313 
	C225.850296,84.425735 225.852295,88.212158 225.852295,92.296982 
	C223.415390,92.296982 221.503189,92.296982 218.604828,92.296982 
	C219.023727,85.217010 219.431580,78.323570 219.957977,71.062218 
z"/>
<path fill="#4A3E7C" opacity="1.000000" stroke="none" 
	d="
M432.273682,78.644852 
	C429.501648,74.537094 425.676025,72.752029 420.569214,72.788879 
	C419.191772,72.798820 417.801208,70.988632 416.416656,70.013924 
	C417.866180,69.022018 419.226715,67.388107 420.783783,67.172249 
	C423.995819,66.726967 427.312775,67.038185 430.963287,67.038185 
	C430.963287,64.789307 430.963287,62.893959 430.805389,60.575989 
	C431.420135,61.067406 432.844360,61.972324 432.857330,62.897011 
	C432.929230,68.029602 432.658264,73.167007 432.273682,78.644852 
z"/>
<path fill="#EBE9F0" opacity="1.000000" stroke="none" 
	d="
M259.130280,81.025970 
	C259.739899,80.716003 260.349487,80.406044 261.400574,80.271774 
	C261.901703,80.632057 261.961395,80.816635 261.770447,81.218384 
	C261.646667,82.453423 261.882385,83.471642 261.879089,84.489082 
	C261.870453,87.133156 261.756805,89.776878 261.685089,92.420746 
	C259.113007,88.852661 256.540924,85.284576 254.408051,81.350624 
	C256.274933,80.998497 257.702606,81.012238 259.130280,81.025970 
z"/>
<path fill="#A39DBC" opacity="1.000000" stroke="none" 
	d="
M261.770142,92.736221 
	C261.756805,89.776878 261.870453,87.133156 261.879089,84.489082 
	C261.882385,83.471642 261.646667,82.453423 262.064270,81.367493 
	C263.415894,83.002037 264.223022,84.704651 265.037567,86.879456 
	C264.939240,94.980629 265.000946,95.059517 271.152618,95.391357 
	C271.184998,96.045547 271.179718,96.420761 271.174438,96.795975 
	C270.029694,96.917984 268.884918,97.039986 267.312500,97.083389 
	C265.208282,95.687088 263.531738,94.369392 261.770142,92.736221 
z"/>
<path fill="#7E76A2" opacity="1.000000" stroke="none" 
	d="
M258.951538,80.700912 
	C257.702606,81.012238 256.274933,80.998497 254.417358,80.991913 
	C252.667313,78.902290 251.347168,76.805519 250.023315,74.341614 
	C251.081863,73.731674 252.144135,73.488884 253.206390,73.246094 
	C252.922821,73.580376 252.639252,73.914665 252.355682,74.248955 
	C254.494720,76.291252 256.633759,78.333557 258.951538,80.700912 
z"/>
<path fill="#EFEEF4" opacity="1.000000" stroke="none" 
	d="
M323.872620,57.551605 
	C323.501556,54.138733 323.285126,50.365345 323.100189,46.115097 
	C323.430176,49.489185 323.728729,53.340134 323.872620,57.551605 
z"/>
<path fill="#EFEEF4" opacity="1.000000" stroke="none" 
	d="
M316.423126,81.369888 
	C316.727448,80.163376 317.280426,78.739891 318.113342,77.149246 
	C317.819427,78.372360 317.245636,79.762634 316.423126,81.369888 
z"/>
<path fill="#EFEEF4" opacity="1.000000" stroke="none" 
	d="
M322.960999,63.642494 
	C322.815308,62.720215 322.847595,61.507996 323.115845,60.139969 
	C323.280884,61.106960 323.209930,62.229759 322.960999,63.642494 
z"/>
<path fill="#EFEEF4" opacity="1.000000" stroke="none" 
	d="
M246.739609,59.309456 
	C247.062531,60.129978 247.316620,61.279770 247.415558,62.667099 
	C247.063873,61.815998 246.867325,60.727364 246.739609,59.309456 
z"/>
<path fill="#EFEEF4" opacity="1.000000" stroke="none" 
	d="
M247.818512,65.286911 
	C248.150482,65.738564 248.412369,66.495621 248.594269,67.563828 
	C248.258987,67.114082 248.003708,66.353195 247.818512,65.286911 
z"/>
<path fill="#3F3274" opacity="1.000000" stroke="none" 
	d="
M355.496399,57.514130 
	C360.132416,65.268250 359.119659,73.193748 356.935638,80.827744 
	C355.698669,85.151443 351.215302,85.929573 347.009155,85.937859 
	C344.897888,85.942017 342.786591,85.938583 340.359070,85.938583 
	C340.359070,75.359856 340.359070,65.331154 340.359070,54.930801 
	C345.623657,54.660229 350.728363,53.561234 355.496399,57.514130 
z"/>
<path fill="#403375" opacity="1.000000" stroke="none" 
	d="
M149.226990,80.613983 
	C147.629166,73.260162 150.565475,68.147804 156.639938,67.076813 
	C161.750977,66.175682 167.039261,70.005302 167.881180,75.217407 
	C168.591446,79.614510 166.149231,84.012764 162.071991,85.679321 
	C157.316956,87.622917 152.958115,85.999352 149.226990,80.613983 
z"/>
<path fill="#423576" opacity="1.000000" stroke="none" 
	d="
M271.547424,96.805733 
	C271.179718,96.420761 271.184998,96.045547 271.423340,95.161766 
	C274.042267,91.202133 273.019867,88.805923 269.290192,87.410225 
	C267.934875,86.903053 266.453827,86.731804 265.030151,86.407272 
	C264.223022,84.704651 263.415894,83.002037 262.314911,81.150314 
	C261.961395,80.816635 261.901703,80.632057 261.653351,80.225937 
	C262.401276,71.839355 262.179077,71.578629 254.401367,72.069504 
	C253.562683,68.004128 252.714432,63.892403 251.745377,59.132477 
	C251.438812,57.981380 251.253052,57.478485 251.067291,56.975594 
	C251.454117,52.415955 250.196396,47.251217 256.093445,44.350616 
	C256.980072,44.557636 257.411804,44.965633 257.977051,45.733696 
	C259.848022,46.159355 261.585480,46.224949 263.322906,46.290543 
	C263.231384,44.652542 263.150208,43.013870 263.043335,41.376873 
	C262.999573,40.706409 262.900116,40.039581 262.825958,39.371101 
	C273.976349,34.705166 285.500793,31.880314 297.308838,35.970490 
	C321.171204,44.236149 322.614014,48.507591 315.324829,71.267250 
	C314.319153,74.407448 312.536530,77.298805 310.948578,80.616196 
	C305.640533,88.629791 299.418457,95.163010 291.581818,100.297829 
	C287.053925,103.264656 283.257050,103.509438 278.894196,100.361275 
	C276.804688,98.853554 274.259308,97.977585 271.547424,96.805733 
M267.622345,69.810654 
	C268.605713,69.760330 269.753632,70.016029 270.537506,69.594604 
	C272.069275,68.771080 273.397705,67.569298 274.810303,66.524101 
	C273.885498,65.504303 272.501434,63.469193 272.116638,63.643246 
	C270.579102,64.338737 269.179901,65.577087 268.073914,66.902061 
	C267.392090,67.718880 267.332855,69.055389 266.965607,70.292770 
	C266.965607,70.292770 266.830994,70.047379 266.830994,70.047379 
	C266.830994,70.047379 266.889557,70.254379 267.622345,69.810654 
M294.895233,62.772572 
	C294.026398,65.279343 293.157593,67.786110 291.783447,70.445068 
	C291.535034,70.688332 291.286591,70.931595 290.330688,71.469009 
	C288.039948,71.971985 285.593536,72.132034 283.504791,73.080055 
	C281.636261,73.928131 279.309662,75.385719 278.798767,77.065201 
	C278.427887,78.284355 280.520782,81.488640 281.820709,81.674911 
	C283.536377,81.920776 285.908020,80.447418 287.351227,79.046959 
	C289.368164,77.089783 290.788300,74.517578 292.878204,72.132179 
	C293.151276,72.021942 293.355713,71.836182 294.268463,71.270500 
	C296.057922,71.213425 297.996643,71.563919 299.592987,70.979393 
	C301.055206,70.443970 303.034851,69.002670 303.178925,67.772278 
	C303.359772,66.227959 302.270935,64.089226 301.039001,62.962788 
	C300.008301,62.020363 297.983978,62.164639 296.040802,61.181286 
	C295.042206,58.546200 294.230530,55.817131 292.971375,53.313057 
	C292.272888,51.923950 291.009644,50.418415 289.649017,49.913250 
	C288.836365,49.611526 286.417358,51.070942 286.354950,51.866859 
	C286.237793,53.360664 286.910126,55.335934 287.966034,56.413155 
	C290.041809,58.530827 292.604828,60.170853 294.895233,62.772572 
M279.139709,58.772762 
	C279.941467,61.339676 280.525818,64.005936 281.634521,66.432625 
	C282.209869,67.691956 283.648865,69.250999 284.814423,69.353981 
	C286.014893,69.460052 288.081604,68.192757 288.432159,67.098129 
	C288.777161,66.021049 287.781219,64.049454 286.777283,63.102978 
	C284.733368,61.176071 282.288055,59.674999 279.995667,57.100323 
	C280.090027,55.948166 280.605377,54.608215 280.192352,53.682426 
	C279.294891,51.670643 277.923553,49.870262 276.745941,47.983459 
	C274.995209,49.131065 272.957947,50.012608 271.575104,51.501831 
	C270.217682,52.963676 269.525421,55.043163 268.738861,56.488518 
	C272.099213,57.001762 275.504486,57.521870 279.139709,58.772762 
M263.888367,59.927334 
	C263.275940,59.771389 262.572601,59.758362 262.065887,59.436176 
	C258.917999,57.434715 256.605133,59.037735 255.995728,61.799297 
	C255.626511,63.472412 256.934448,66.515099 258.405792,67.376656 
	C261.066925,68.934937 263.569702,67.424133 264.488800,64.389458 
	C264.892883,63.055283 264.623901,61.517254 263.888367,59.927334 
M273.582886,82.730873 
	C273.915863,81.007492 274.756531,79.175301 274.417969,77.595856 
	C274.156525,76.376083 272.482330,74.738487 271.315582,74.634018 
	C270.124634,74.527367 268.088470,75.831474 267.714417,76.950035 
	C267.359833,78.010368 268.400696,79.884697 269.349396,80.925797 
	C270.136475,81.789497 271.682251,81.961815 273.582886,82.730873 
M282.826385,92.076767 
	C284.200012,85.614998 278.585419,87.618309 275.704803,85.689835 
	C276.587677,94.559296 277.255554,95.217445 282.826385,92.076767 
M303.147919,52.406956 
	C301.407166,52.318806 299.559753,51.868813 297.982086,52.333885 
	C297.410767,52.502293 296.845795,55.347813 297.420044,56.101048 
	C298.208069,57.134720 300.898254,58.168175 301.334229,57.739185 
	C302.484344,56.607544 302.858307,54.687141 303.147919,52.406956 
M291.244415,84.506111 
	C290.003082,85.509949 288.761749,86.513794 287.520416,87.517632 
	C288.758514,88.213501 289.996643,88.909363 291.234741,89.605225 
	C291.452057,88.016327 291.669373,86.427437 291.244415,84.506111 
z"/>
<path fill="#EFEEF4" opacity="1.000000" stroke="none" 
	d="
M262.411407,39.290756 
	C262.900116,40.039581 262.999573,40.706409 263.043335,41.376873 
	C263.150208,43.013870 263.231384,44.652542 263.322906,46.290543 
	C261.585480,46.224949 259.848022,46.159355 258.058411,45.404724 
	C258.002350,43.469498 257.998474,42.223316 257.994598,40.977135 
	C259.328674,40.388229 260.662781,39.799320 262.411407,39.290756 
z"/>
<path fill="#E4E2EB" opacity="1.000000" stroke="none" 
	d="
M257.677856,41.080574 
	C257.998474,42.223316 258.002350,43.469498 257.924896,45.044659 
	C257.411804,44.965633 256.980072,44.557636 256.266113,44.052677 
	C256.442932,43.031818 256.902008,42.107914 257.677856,41.080574 
z"/>
<path fill="#EFEEF4" opacity="1.000000" stroke="none" 
	d="
M250.905487,57.136154 
	C251.253052,57.478485 251.438812,57.981380 251.557007,58.750504 
	C251.240860,58.443394 250.992264,57.870056 250.905487,57.136154 
z"/>
<path fill="#4E427F" opacity="1.000000" stroke="none" 
	d="
M194.163147,73.784210 
	C191.907288,73.784203 190.112305,73.784203 187.940536,73.784203 
	C188.675934,69.003952 191.986923,67.519325 195.548035,67.108124 
	C200.000168,66.594040 203.446838,68.600319 205.813339,73.784218 
	C201.703735,73.784218 198.163879,73.784218 194.163147,73.784210 
z"/>
<path fill="#423576" opacity="1.000000" stroke="none" 
	d="
M396.867310,76.134186 
	C396.694031,81.435120 394.369690,84.854332 389.546753,85.988945 
	C385.551544,86.928848 381.863586,85.970345 379.328644,82.441399 
	C376.726593,78.818993 376.566345,74.980827 379.061676,71.244087 
	C381.433655,67.692101 384.992279,66.310699 389.056610,67.132561 
	C393.586517,68.048584 396.273529,71.043007 396.867310,76.134186 
z"/>
<path fill="#EBE9F0" opacity="1.000000" stroke="none" 
	d="
M265.037567,86.879456 
	C266.453827,86.731804 267.934875,86.903053 269.290192,87.410225 
	C273.019867,88.805923 274.042267,91.202133 271.385681,94.882782 
	C265.000946,95.059517 264.939240,94.980629 265.037567,86.879456 
z"/>
<path fill="#EBE9F0" opacity="1.000000" stroke="none" 
	d="
M292.463806,72.208542 
	C290.788300,74.517578 289.368164,77.089783 287.351227,79.046959 
	C285.908020,80.447418 283.536377,81.920776 281.820709,81.674911 
	C280.520782,81.488640 278.427887,78.284355 278.798767,77.065201 
	C279.309662,75.385719 281.636261,73.928131 283.504791,73.080055 
	C285.593536,72.132034 288.039948,71.971985 290.903503,71.518707 
	C291.805511,71.781784 292.134644,71.995163 292.463806,72.208542 
z"/>
<path fill="#F2F1F6" opacity="1.000000" stroke="none" 
	d="
M278.909760,58.041977 
	C275.504486,57.521870 272.099213,57.001762 268.738861,56.488518 
	C269.525421,55.043163 270.217682,52.963676 271.575104,51.501831 
	C272.957947,50.012608 274.995209,49.131065 276.745941,47.983459 
	C277.923553,49.870262 279.294891,51.670643 280.192352,53.682426 
	C280.605377,54.608215 280.090027,55.948166 279.726318,57.536041 
	C279.274597,57.995167 279.092163,58.018574 278.909760,58.041977 
z"/>
<path fill="#EFEEF4" opacity="1.000000" stroke="none" 
	d="
M292.288788,70.292885 
	C293.157593,67.786110 294.026398,65.279343 295.290466,62.356384 
	C295.923676,61.902702 296.161652,61.865204 296.399628,61.827709 
	C297.983978,62.164639 300.008301,62.020363 301.039001,62.962788 
	C302.270935,64.089226 303.359772,66.227959 303.178925,67.772278 
	C303.034851,69.002670 301.055206,70.443970 299.592987,70.979393 
	C297.996643,71.563919 296.057922,71.213425 293.580750,71.100815 
	C292.691620,70.718384 292.490204,70.505630 292.288788,70.292885 
z"/>
<path fill="#F1F1F5" opacity="1.000000" stroke="none" 
	d="
M264.274445,59.999557 
	C264.623901,61.517254 264.892883,63.055283 264.488800,64.389458 
	C263.569702,67.424133 261.066925,68.934937 258.405792,67.376656 
	C256.934448,66.515099 255.626511,63.472412 255.995728,61.799297 
	C256.605133,59.037735 258.917999,57.434715 262.065887,59.436176 
	C262.572601,59.758362 263.275940,59.771389 264.274445,59.999557 
z"/>
<path fill="#DEDCE7" opacity="1.000000" stroke="none" 
	d="
M279.024719,58.407372 
	C279.092163,58.018574 279.274597,57.995167 279.732544,57.985115 
	C282.288055,59.674999 284.733368,61.176071 286.777283,63.102978 
	C287.781219,64.049454 288.777161,66.021049 288.432159,67.098129 
	C288.081604,68.192757 286.014893,69.460052 284.814423,69.353981 
	C283.648865,69.250999 282.209869,67.691956 281.634521,66.432625 
	C280.525818,64.005936 279.941467,61.339676 279.024719,58.407372 
z"/>
<path fill="#E4E2EB" opacity="1.000000" stroke="none" 
	d="
M296.220215,61.504498 
	C296.161652,61.865204 295.923676,61.902702 295.325989,61.974346 
	C292.604828,60.170853 290.041809,58.530827 287.966034,56.413155 
	C286.910126,55.335934 286.237793,53.360664 286.354950,51.866859 
	C286.417358,51.070942 288.836365,49.611526 289.649017,49.913250 
	C291.009644,50.418415 292.272888,51.923950 292.971375,53.313057 
	C294.230530,55.817131 295.042206,58.546200 296.220215,61.504498 
z"/>
<path fill="#E4E2EB" opacity="1.000000" stroke="none" 
	d="
M273.237396,82.585648 
	C271.682251,81.961815 270.136475,81.789497 269.349396,80.925797 
	C268.400696,79.884697 267.359833,78.010368 267.714417,76.950035 
	C268.088470,75.831474 270.124634,74.527367 271.315582,74.634018 
	C272.482330,74.738487 274.156525,76.376083 274.417969,77.595856 
	C274.756531,79.175301 273.915863,81.007492 273.237396,82.585648 
z"/>
<path fill="#EBE9F0" opacity="1.000000" stroke="none" 
	d="
M282.599426,92.418182 
	C277.255554,95.217445 276.587677,94.559296 275.704803,85.689835 
	C278.585419,87.618309 284.200012,85.614998 282.599426,92.418182 
z"/>
<path fill="#D4D2E0" opacity="1.000000" stroke="none" 
	d="
M266.994080,70.158569 
	C267.332855,69.055389 267.392090,67.718880 268.073914,66.902061 
	C269.179901,65.577087 270.579102,64.338737 272.116638,63.643246 
	C272.501434,63.469193 273.885498,65.504303 274.810303,66.524109 
	C273.397705,67.569298 272.069275,68.771080 270.537506,69.594604 
	C269.753632,70.016029 268.605713,69.760330 267.279480,70.005722 
	C266.936615,70.200798 266.994080,70.158569 266.994080,70.158569 
z"/>
<path fill="#E4E2EB" opacity="1.000000" stroke="none" 
	d="
M303.344604,52.743874 
	C302.858307,54.687141 302.484344,56.607544 301.334229,57.739185 
	C300.898254,58.168175 298.208069,57.134720 297.420044,56.101048 
	C296.845795,55.347813 297.410767,52.502293 297.982086,52.333885 
	C299.559753,51.868813 301.407166,52.318806 303.344604,52.743874 
z"/>
<path fill="#D4D2E0" opacity="1.000000" stroke="none" 
	d="
M291.565552,84.672325 
	C291.669373,86.427437 291.452057,88.016327 291.234741,89.605225 
	C289.996643,88.909363 288.758514,88.213501 287.520416,87.517632 
	C288.761749,86.513794 290.003082,85.509949 291.565552,84.672325 
z"/>
<path fill="#EFEEF4" opacity="1.000000" stroke="none" 
	d="
M292.671021,72.170364 
	C292.134644,71.995163 291.805511,71.781784 291.257263,71.371635 
	C291.286591,70.931595 291.535034,70.688332 292.036133,70.368973 
	C292.490204,70.505630 292.691620,70.718384 293.192291,71.253014 
	C293.355713,71.836182 293.151276,72.021942 292.671021,72.170364 
z"/>
<path fill="#D4D2E0" opacity="1.000000" stroke="none" 
	d="
M266.913086,70.227585 
	C266.889557,70.254379 266.830994,70.047379 266.830994,70.047379 
	C266.830994,70.047379 266.965607,70.292770 266.979858,70.225670 
	C266.994080,70.158569 266.936615,70.200798 266.913086,70.227585 
z"/>
</svg>