<svg version="1.1" id="Layer_1" xmlns="http://www.w3.org/2000/svg" xmlns:xlink="http://www.w3.org/1999/xlink" x="0px" y="0px"
	 width="100%" viewBox="0 0 496 322" enable-background="new 0 0 496 322" xml:space="preserve">
<path fill="#14141F" opacity="1.000000" stroke="none" 
	d="
M313.000000,323.000000 
	C208.698395,323.000000 104.896797,323.000000 1.047596,323.000000 
	C1.047596,215.731216 1.047596,108.462402 1.047596,1.096797 
	C166.218231,1.096797 331.436554,1.096797 496.827423,1.096797 
	C496.827423,108.333107 496.827423,215.666534 496.827423,323.000000 
	C435.795807,323.000000 374.647919,323.000000 313.000000,323.000000 
M78.233582,131.816528 
	C67.422020,131.816528 56.608681,131.927002 45.799919,131.752975 
	C42.302143,131.696640 41.045490,132.989029 41.096565,136.376587 
	C41.211895,144.026108 40.833721,151.696030 41.279907,159.321152 
	C41.456394,162.337296 43.290073,165.256454 44.825268,169.472153 
	C48.373104,163.792892 52.517868,163.548386 57.010704,163.683044 
	C64.156471,163.897217 71.314003,163.685226 78.465500,163.757812 
	C81.299240,163.786560 82.894341,162.777512 82.883812,159.750031 
	C82.855476,151.599915 83.021378,143.443741 82.703552,135.305862 
	C82.656448,134.099670 80.406975,132.979492 78.233582,131.816528 
M389.283997,131.070663 
	C382.238800,127.432884 375.144531,126.991005 368.748840,132.085999 
	C362.022827,137.444153 360.987274,144.974045 362.698669,152.902115 
	C364.861786,162.922623 372.673492,167.843185 382.588470,166.440628 
	C391.376129,165.197571 397.788696,156.199188 395.827423,146.720825 
	C394.455688,146.720825 392.986725,146.720825 391.517792,146.720825 
	C388.874756,146.720825 386.231720,146.720825 383.195526,146.720825 
	C383.294250,148.491577 383.371124,149.870148 383.448944,151.266083 
	C385.625153,151.502045 387.396088,151.694077 389.173676,151.886810 
	C388.168671,158.927643 383.306763,162.246719 376.830444,160.538803 
	C372.020142,159.270264 369.339355,155.644287 368.858124,149.755585 
	C368.251526,142.333115 370.432159,137.154160 375.000000,135.168686 
	C379.537445,133.196426 385.125793,134.216461 387.418610,138.334869 
	C389.680450,142.397705 392.086304,141.202499 395.971375,139.774658 
	C393.709076,136.676514 391.808655,134.073929 389.283997,131.070663 
M52.994381,128.379761 
	C54.168980,128.896301 55.329239,129.816269 56.520687,129.858627 
	C61.337635,130.029800 66.166389,129.836411 70.986794,129.949005 
	C85.058495,130.277649 85.149033,126.840233 84.351875,143.482376 
	C83.961075,151.640961 87.211159,156.426025 94.123322,160.538696 
	C94.123322,158.231735 94.127289,156.314209 94.122627,154.396698 
	C94.103233,146.414246 94.321205,138.421143 93.967140,130.453491 
	C93.765617,125.918556 87.899651,121.244240 83.205078,121.217026 
	C75.222435,121.170738 67.221619,121.524445 59.262787,121.086304 
	C54.156841,120.805214 52.072166,122.371803 52.994381,128.379761 
M236.888794,162.372437 
	C236.484329,165.015244 237.254257,166.313324 240.284119,166.072586 
	C243.749985,165.797195 247.257614,166.101257 250.739227,165.959732 
	C260.270844,165.572296 265.989746,159.208511 266.604492,148.444458 
	C267.187317,138.239090 261.625946,130.375488 252.476700,129.338608 
	C247.452652,128.769226 242.311081,129.236755 236.888153,129.236755 
	C236.888153,140.201981 236.888153,150.799683 236.888794,162.372437 
M186.615692,166.009354 
	C187.402054,165.464996 188.870819,164.919754 188.870132,164.376404 
	C188.862564,158.403900 189.255524,152.328613 188.298264,146.484558 
	C186.995300,138.530014 180.226059,135.484253 172.810394,138.748230 
	C171.652145,139.258026 170.560989,139.920212 168.883453,140.804764 
	C168.883453,136.608994 168.883453,132.881439 168.883453,129.236038 
	C166.944473,129.236038 165.469086,129.236038 163.768097,129.236038 
	C163.768097,141.501602 163.768097,153.597580 163.768097,165.672943 
	C165.855331,165.672943 167.748047,165.672943 169.985168,165.672943 
	C169.985168,160.699448 169.886032,156.057083 170.011551,151.420807 
	C170.152176,146.226501 172.380844,143.388458 176.248917,143.463608 
	C181.066132,143.557190 182.244797,147.138000 182.570694,150.943619 
	C182.910431,154.910934 182.852203,158.925964 182.736526,162.913406 
	C182.670731,165.181473 183.190826,166.442535 186.615692,166.009354 
M207.588272,160.918777 
	C203.615982,160.460312 201.297180,158.440292 201.082916,153.801514 
	C207.688065,153.801514 214.098328,153.801514 220.468689,153.801514 
	C220.967911,144.533279 217.115601,138.803070 210.099960,137.901337 
	C201.976273,136.857193 196.041321,140.992767 194.374466,148.859161 
	C192.726669,156.635620 196.604004,163.920349 203.516083,166.034393 
	C210.620972,168.207413 217.076401,165.383148 219.711014,158.854538 
	C217.007782,157.691483 214.450699,156.139145 211.977615,159.539078 
	C211.342361,160.412445 209.599091,160.479874 207.588272,160.918777 
M271.653809,155.434875 
	C270.361359,159.147247 270.999298,162.547073 274.222351,164.794708 
	C279.638458,168.571686 284.847137,166.702225 289.471863,164.851425 
	C291.286346,165.321625 293.100830,165.791824 295.179626,166.330521 
	C295.179626,158.940201 295.465820,152.442139 295.090942,145.982437 
	C294.779663,140.619003 290.901001,137.900177 284.521149,137.716995 
	C277.593384,137.518112 273.920258,139.941116 272.506042,147.030853 
	C275.362762,146.072342 277.682007,145.737991 279.492676,144.596710 
	C283.595490,142.010651 287.785004,143.256119 288.684448,147.654373 
	C283.018555,149.825684 275.693512,148.033005 271.653809,155.434875 
M331.194244,149.656769 
	C327.161621,150.428772 323.433014,152.202896 323.274292,156.619217 
	C323.175110,159.377090 324.309875,163.202957 326.297363,164.808228 
	C331.066498,168.660233 336.284210,166.775238 339.955994,164.343094 
	C342.753021,165.156754 344.699738,165.723053 347.060394,166.409760 
	C347.060394,159.262131 347.232330,153.113373 347.010315,146.978897 
	C346.803162,141.254654 343.426819,138.262283 337.286682,137.794312 
	C329.810577,137.224518 325.892883,139.555557 324.481049,145.414642 
	C327.090118,146.760315 329.056915,147.150085 331.726074,144.541321 
	C334.877899,141.460831 339.293762,143.360901 340.771149,147.778885 
	C337.815826,148.312195 334.882202,148.841583 331.194244,149.656769 
M405.203186,139.455200 
	C403.704742,141.235672 402.206299,143.016144 400.369934,145.198135 
	C402.943146,146.004395 404.500641,146.492401 405.975250,146.954453 
	C411.106476,141.717346 415.746338,142.027771 417.761353,147.578949 
	C413.575623,148.561295 409.302429,149.281158 405.223969,150.602066 
	C401.249725,151.889206 399.640869,155.154633 399.946442,159.241867 
	C400.246429,163.254822 402.645050,166.092178 406.452637,166.276077 
	C410.365631,166.465057 414.343384,165.314209 418.093140,164.778214 
	C419.791077,165.272964 421.654572,165.815948 424.030670,166.508316 
	C424.030670,159.242615 424.214355,152.774719 423.968231,146.323212 
	C423.794800,141.777786 420.988739,138.673981 416.590240,138.194122 
	C413.091400,137.812408 409.449005,138.746033 405.203186,139.455200 
M467.311432,157.572083 
	C465.624481,155.359222 464.330170,152.563660 462.144470,151.090897 
	C459.771484,149.491898 456.492584,149.302200 453.765839,148.131775 
	C452.660492,147.657318 451.970490,146.215240 451.091461,145.213470 
	C452.274902,144.483658 453.419281,143.247711 454.651672,143.152664 
	C456.176239,143.035095 458.556976,143.365463 459.199554,144.374054 
	C461.541901,148.050522 464.214691,146.141464 467.063202,145.590271 
	C466.218597,141.052002 463.272247,138.790253 459.277161,138.065186 
	C454.794708,137.251678 450.213074,137.162094 446.713074,140.883118 
	C443.324890,144.485306 444.248047,149.966995 448.758850,152.122894 
	C451.573792,153.468262 454.810638,153.926147 457.638519,155.251129 
	C458.984985,155.882019 459.818939,157.606720 460.885071,158.835953 
	C459.406403,159.641403 457.980652,160.943970 456.433807,161.108597 
	C454.968811,161.264496 452.655029,160.692078 451.970703,159.630356 
	C449.533020,155.848160 446.892517,157.341446 443.965088,158.395416 
	C446.448700,164.623413 450.935760,167.345734 457.286285,166.705185 
	C463.633331,166.065002 466.120453,163.966888 467.311432,157.572083 
M142.512619,129.029221 
	C138.260986,129.029221 134.009338,129.029221 129.846527,129.029221 
	C129.846527,131.414673 129.846527,133.125900 129.846527,135.187927 
	C133.850266,135.187927 137.457108,135.187927 141.462936,135.187927 
	C141.462936,145.616928 141.462936,155.693909 141.462936,165.863159 
	C143.669098,165.863159 145.458649,165.863159 147.674469,165.863159 
	C147.674469,155.628326 147.674469,145.557816 147.674469,134.967438 
	C151.810379,134.967438 155.543854,134.967438 159.285156,134.967438 
	C159.285156,132.716293 159.285156,130.999252 159.285156,129.029221 
	C153.783859,129.029221 148.644852,129.029221 142.512619,129.029221 
M316.212280,160.942169 
	C313.016357,161.290161 310.380676,160.582169 310.220245,156.802811 
	C310.032379,152.376526 310.176300,147.936188 310.176300,143.302628 
	C313.094513,143.172653 315.506683,143.065216 318.218353,142.944443 
	C318.109100,141.214844 318.019745,139.800690 317.932617,138.421219 
	C315.147034,138.264847 312.736908,138.129562 310.274200,137.991333 
	C310.154053,135.379105 310.056549,133.258713 309.956635,131.086578 
	C307.903503,131.086578 306.028259,131.086578 303.920959,131.086578 
	C303.920959,133.561508 303.920959,135.696442 303.920959,138.100250 
	C302.302429,138.205902 300.882385,138.298599 299.239197,138.405853 
	C299.239197,140.050323 299.239197,141.436401 299.239197,142.996887 
	C300.855499,143.095840 302.267273,143.182266 304.024231,143.289810 
	C304.024231,148.437286 303.958374,153.231064 304.043182,158.022202 
	C304.124512,162.616669 306.285126,165.630341 311.061615,166.121307 
	C313.332794,166.354752 315.647827,166.161407 318.864349,166.161407 
	C318.088135,163.968002 317.553314,162.456741 316.212280,160.942169 
M431.166199,160.337311 
	C431.166199,162.124863 431.166199,163.912415 431.166199,165.735168 
	C433.568481,165.735168 435.454163,165.735168 437.369507,165.735168 
	C437.369507,153.162872 437.369507,140.917572 437.369507,128.592896 
	C435.203888,128.592896 433.346191,128.592896 431.166016,128.592896 
	C431.166016,139.116577 431.166016,149.245544 431.166199,160.337311 
z"/>
<path fill="#E46BB9" opacity="1.000000" stroke="none" 
	d="
M78.705002,131.818024 
	C80.406975,132.979492 82.656448,134.099670 82.703552,135.305862 
	C83.021378,143.443741 82.855476,151.599915 82.883812,159.750031 
	C82.894341,162.777512 81.299240,163.786560 78.465500,163.757812 
	C71.314003,163.685226 64.156471,163.897217 57.010704,163.683044 
	C52.517868,163.548386 48.373104,163.792892 44.825268,169.472153 
	C43.290073,165.256454 41.456394,162.337296 41.279907,159.321152 
	C40.833721,151.696030 41.211895,144.026108 41.096565,136.376587 
	C41.045490,132.989029 42.302143,131.696640 45.799919,131.752975 
	C56.608681,131.927002 67.422020,131.816528 78.705002,131.818024 
M75.094193,150.455231 
	C75.094193,146.354553 75.094193,142.253891 75.094193,137.872833 
	C72.674339,137.989655 70.943253,138.073212 69.223206,138.156235 
	C69.223206,144.736633 69.223206,150.837326 69.223206,157.128281 
	C71.203430,157.128281 72.924828,157.128281 75.094589,157.128281 
	C75.094589,155.040298 75.094589,153.237900 75.094193,150.455231 
M65.177666,145.978683 
	C63.287796,145.334076 61.397926,144.689484 59.080074,143.898895 
	C59.080074,149.056168 59.080074,153.072510 59.080074,157.141037 
	C61.259045,157.141037 63.099781,157.141037 65.228821,157.141037 
	C65.228821,153.436188 65.228821,150.155319 65.177666,145.978683 
M48.915272,153.428711 
	C48.331223,158.928452 51.702847,157.687332 54.801624,157.096329 
	C54.801624,154.672577 54.801624,152.460373 54.801624,148.356705 
	C52.115520,150.262680 50.517788,151.396378 48.915272,153.428711 
z"/>
<path fill="#F4F4F5" opacity="1.000000" stroke="none" 
	d="
M389.596100,131.270996 
	C391.808655,134.073929 393.709076,136.676514 395.971375,139.774658 
	C392.086304,141.202499 389.680450,142.397705 387.418610,138.334869 
	C385.125793,134.216461 379.537445,133.196426 375.000000,135.168686 
	C370.432159,137.154160 368.251526,142.333115 368.858124,149.755585 
	C369.339355,155.644287 372.020142,159.270264 376.830444,160.538803 
	C383.306763,162.246719 388.168671,158.927643 389.173676,151.886810 
	C387.396088,151.694077 385.625153,151.502045 383.448944,151.266083 
	C383.371124,149.870148 383.294250,148.491577 383.195526,146.720825 
	C386.231720,146.720825 388.874756,146.720825 391.517792,146.720825 
	C392.986725,146.720825 394.455688,146.720825 395.827423,146.720825 
	C397.788696,156.199188 391.376129,165.197571 382.588470,166.440628 
	C372.673492,167.843185 364.861786,162.922623 362.698669,152.902115 
	C360.987274,144.974045 362.022827,137.444153 368.748840,132.085999 
	C375.144531,126.991005 382.238800,127.432884 389.596100,131.270996 
z"/>
<path fill="#F8F8F8" opacity="1.000000" stroke="none" 
	d="
M52.986954,127.922722 
	C52.072166,122.371803 54.156841,120.805214 59.262787,121.086304 
	C67.221619,121.524445 75.222435,121.170738 83.205078,121.217026 
	C87.899651,121.244240 93.765617,125.918556 93.967140,130.453491 
	C94.321205,138.421143 94.103233,146.414246 94.122627,154.396698 
	C94.127289,156.314209 94.123322,158.231735 94.123322,160.538696 
	C87.211159,156.426025 83.961075,151.640961 84.351875,143.482376 
	C85.149033,126.840233 85.058495,130.277649 70.986794,129.949005 
	C66.166389,129.836411 61.337635,130.029800 56.520687,129.858627 
	C55.329239,129.816269 54.168980,128.896301 52.986954,127.922722 
z"/>
<path fill="#FAFAFA" opacity="1.000000" stroke="none" 
	d="
M236.888474,161.884918 
	C236.888153,150.799683 236.888153,140.201981 236.888153,129.236755 
	C242.311081,129.236755 247.452652,128.769226 252.476700,129.338608 
	C261.625946,130.375488 267.187317,138.239090 266.604492,148.444458 
	C265.989746,159.208511 260.270844,165.572296 250.739227,165.959732 
	C247.257614,166.101257 243.749985,165.797195 240.284119,166.072586 
	C237.254257,166.313324 236.484329,165.015244 236.888474,161.884918 
M254.969620,136.121704 
	C251.145325,135.615829 247.321045,135.109955 243.413300,134.593048 
	C243.413300,143.650406 243.413300,151.812851 243.413300,160.104660 
	C245.585526,160.104660 247.569382,160.573547 249.187744,160.003983 
	C252.258133,158.923340 256.090240,157.991730 257.870178,155.668411 
	C261.897308,150.411850 260.397461,141.589050 254.969620,136.121704 
z"/>
<path fill="#F9F9F9" opacity="1.000000" stroke="none" 
	d="
M186.164871,166.009735 
	C183.190826,166.442535 182.670731,165.181473 182.736526,162.913406 
	C182.852203,158.925964 182.910431,154.910934 182.570694,150.943619 
	C182.244797,147.138000 181.066132,143.557190 176.248917,143.463608 
	C172.380844,143.388458 170.152176,146.226501 170.011551,151.420807 
	C169.886032,156.057083 169.985168,160.699448 169.985168,165.672943 
	C167.748047,165.672943 165.855331,165.672943 163.768097,165.672943 
	C163.768097,153.597580 163.768097,141.501602 163.768097,129.236038 
	C165.469086,129.236038 166.944473,129.236038 168.883453,129.236038 
	C168.883453,132.881439 168.883453,136.608994 168.883453,140.804764 
	C170.560989,139.920212 171.652145,139.258026 172.810394,138.748230 
	C180.226059,135.484253 186.995300,138.530014 188.298264,146.484558 
	C189.255524,152.328613 188.862564,158.403900 188.870132,164.376404 
	C188.870819,164.919754 187.402054,165.464996 186.164871,166.009735 
z"/>
<path fill="#F4F4F4" opacity="1.000000" stroke="none" 
	d="
M207.976562,160.918152 
	C209.599091,160.479874 211.342361,160.412445 211.977615,159.539078 
	C214.450699,156.139145 217.007782,157.691483 219.711014,158.854538 
	C217.076401,165.383148 210.620972,168.207413 203.516083,166.034393 
	C196.604004,163.920349 192.726669,156.635620 194.374466,148.859161 
	C196.041321,140.992767 201.976273,136.857193 210.099960,137.901337 
	C217.115601,138.803070 220.967911,144.533279 220.468689,153.801514 
	C214.098328,153.801514 207.688065,153.801514 201.082916,153.801514 
	C201.297180,158.440292 203.615982,160.460312 207.976562,160.918152 
M201.380280,148.908066 
	C205.551392,148.908066 209.722519,148.908066 213.893631,148.908066 
	C214.174683,148.390045 214.455734,147.872040 214.736786,147.354019 
	C212.721390,145.929031 210.875351,143.749985 208.652039,143.250641 
	C205.056946,142.443192 202.365585,144.465240 201.380280,148.908066 
z"/>
<path fill="#F6F6F7" opacity="1.000000" stroke="none" 
	d="
M271.786163,155.069550 
	C275.693512,148.033005 283.018555,149.825684 288.684448,147.654373 
	C287.785004,143.256119 283.595490,142.010651 279.492676,144.596710 
	C277.682007,145.737991 275.362762,146.072342 272.506042,147.030853 
	C273.920258,139.941116 277.593384,137.518112 284.521149,137.716995 
	C290.901001,137.900177 294.779663,140.619003 295.090942,145.982437 
	C295.465820,152.442139 295.179626,158.940201 295.179626,166.330521 
	C293.100830,165.791824 291.286346,165.321625 289.471863,164.851425 
	C284.847137,166.702225 279.638458,168.571686 274.222351,164.794708 
	C270.999298,162.547073 270.361359,159.147247 271.786163,155.069550 
M286.526398,160.038727 
	C287.567688,157.912796 288.608978,155.786865 290.185303,152.568619 
	C285.909943,153.527908 283.146484,153.689209 280.863678,154.820450 
	C279.326050,155.582413 278.467346,157.714447 277.304901,159.233566 
	C279.094208,160.048218 280.822327,161.114166 282.698730,161.571259 
	C283.633240,161.798889 284.839478,160.911118 286.526398,160.038727 
z"/>
<path fill="#F6F6F7" opacity="1.000000" stroke="none" 
	d="
M331.571411,149.513870 
	C334.882202,148.841583 337.815826,148.312195 340.771149,147.778885 
	C339.293762,143.360901 334.877899,141.460831 331.726074,144.541321 
	C329.056915,147.150085 327.090118,146.760315 324.480988,145.414230 
	C325.892883,139.555557 329.810577,137.224518 337.286682,137.794312 
	C343.426819,138.262283 346.803162,141.254654 347.010315,146.978897 
	C347.232330,153.113373 347.060394,159.262131 347.060394,166.409760 
	C344.699738,165.723053 342.753021,165.156754 339.955994,164.343094 
	C336.284210,166.775238 331.066498,168.660233 326.297363,164.808228 
	C324.309875,163.202957 323.175110,159.377090 323.274292,156.619217 
	C323.433014,152.202896 327.161621,150.428772 331.571411,149.513870 
M340.320831,153.109238 
	C337.579315,153.684189 334.664795,153.871323 332.164551,154.986984 
	C330.778381,155.605499 330.084747,157.775909 329.078979,159.246826 
	C330.711090,160.090256 332.410156,161.750504 333.962708,161.623230 
	C338.536255,161.248260 341.057373,158.461517 340.320831,153.109238 
z"/>
<path fill="#F6F6F7" opacity="1.000000" stroke="none" 
	d="
M405.536774,139.275452 
	C409.449005,138.746033 413.091400,137.812408 416.590240,138.194122 
	C420.988739,138.673981 423.794800,141.777786 423.968231,146.323212 
	C424.214355,152.774719 424.030670,159.242615 424.030670,166.508316 
	C421.654572,165.815948 419.791077,165.272964 418.093140,164.778214 
	C414.343384,165.314209 410.365631,166.465057 406.452637,166.276077 
	C402.645050,166.092178 400.246429,163.254822 399.946442,159.241867 
	C399.640869,155.154633 401.249725,151.889206 405.223969,150.602066 
	C409.302429,149.281158 413.575623,148.561295 417.761353,147.578949 
	C415.746338,142.027771 411.106476,141.717346 405.975250,146.954453 
	C404.500641,146.492401 402.943146,146.004395 400.369934,145.198135 
	C402.206299,143.016144 403.704742,141.235672 405.536774,139.275452 
M412.676300,161.306396 
	C416.720032,159.994995 418.263733,157.258362 417.648743,152.969254 
	C415.057526,153.456558 412.578979,153.459106 410.576843,154.437042 
	C408.781036,155.314209 407.509308,157.264313 406.006409,158.741089 
	C407.982910,159.674545 409.959412,160.608002 412.676300,161.306396 
z"/>
<path fill="#F5F5F6" opacity="1.000000" stroke="none" 
	d="
M467.281586,157.935303 
	C466.120453,163.966888 463.633331,166.065002 457.286285,166.705185 
	C450.935760,167.345734 446.448700,164.623413 443.965088,158.395416 
	C446.892517,157.341446 449.533020,155.848160 451.970703,159.630356 
	C452.655029,160.692078 454.968811,161.264496 456.433807,161.108597 
	C457.980652,160.943970 459.406403,159.641403 460.885071,158.835953 
	C459.818939,157.606720 458.984985,155.882019 457.638519,155.251129 
	C454.810638,153.926147 451.573792,153.468262 448.758850,152.122894 
	C444.248047,149.966995 443.324890,144.485306 446.713074,140.883118 
	C450.213074,137.162094 454.794708,137.251678 459.277161,138.065186 
	C463.272247,138.790253 466.218597,141.052002 467.063202,145.590271 
	C464.214691,146.141464 461.541901,148.050522 459.199554,144.374054 
	C458.556976,143.365463 456.176239,143.035095 454.651672,143.152664 
	C453.419281,143.247711 452.274902,144.483658 451.091461,145.213470 
	C451.970490,146.215240 452.660492,147.657318 453.765839,148.131775 
	C456.492584,149.302200 459.771484,149.491898 462.144470,151.090897 
	C464.330170,152.563660 465.624481,155.359222 467.281586,157.935303 
z"/>
<path fill="#EBEBEC" opacity="1.000000" stroke="none" 
	d="
M143.009232,129.029221 
	C148.644852,129.029221 153.783859,129.029221 159.285156,129.029221 
	C159.285156,130.999252 159.285156,132.716293 159.285156,134.967438 
	C155.543854,134.967438 151.810379,134.967438 147.674469,134.967438 
	C147.674469,145.557816 147.674469,155.628326 147.674469,165.863159 
	C145.458649,165.863159 143.669098,165.863159 141.462936,165.863159 
	C141.462936,155.693909 141.462936,145.616928 141.462936,135.187927 
	C137.457108,135.187927 133.850266,135.187927 129.846527,135.187927 
	C129.846527,133.125900 129.846527,131.414673 129.846527,129.029221 
	C134.009338,129.029221 138.260986,129.029221 143.009232,129.029221 
z"/>
<path fill="#FAFAFA" opacity="1.000000" stroke="none" 
	d="
M316.615387,160.943817 
	C317.553314,162.456741 318.088135,163.968002 318.864349,166.161407 
	C315.647827,166.161407 313.332794,166.354752 311.061615,166.121307 
	C306.285126,165.630341 304.124512,162.616669 304.043182,158.022202 
	C303.958374,153.231064 304.024231,148.437286 304.024231,143.289810 
	C302.267273,143.182266 300.855499,143.095840 299.239197,142.996887 
	C299.239197,141.436401 299.239197,140.050323 299.239197,138.405853 
	C300.882385,138.298599 302.302429,138.205902 303.920959,138.100250 
	C303.920959,135.696442 303.920959,133.561508 303.920959,131.086578 
	C306.028259,131.086578 307.903503,131.086578 309.956635,131.086578 
	C310.056549,133.258713 310.154053,135.379105 310.274200,137.991333 
	C312.736908,138.129562 315.147034,138.264847 317.932617,138.421219 
	C318.019745,139.800690 318.109100,141.214844 318.218353,142.944443 
	C315.506683,143.065216 313.094513,143.172653 310.176300,143.302628 
	C310.176300,147.936188 310.032379,152.376526 310.220245,156.802811 
	C310.380676,160.582169 313.016357,161.290161 316.615387,160.943817 
z"/>
<path fill="#E2E2E4" opacity="1.000000" stroke="none" 
	d="
M431.166107,159.855911 
	C431.166016,149.245544 431.166016,139.116577 431.166016,128.592896 
	C433.346191,128.592896 435.203888,128.592896 437.369507,128.592896 
	C437.369507,140.917572 437.369507,153.162872 437.369507,165.735168 
	C435.454163,165.735168 433.568481,165.735168 431.166199,165.735168 
	C431.166199,163.912415 431.166199,162.124863 431.166107,159.855911 
z"/>
<path fill="#171521" opacity="1.000000" stroke="none" 
	d="
M75.094391,150.945374 
	C75.094589,153.237900 75.094589,155.040298 75.094589,157.128281 
	C72.924828,157.128281 71.203430,157.128281 69.223206,157.128281 
	C69.223206,150.837326 69.223206,144.736633 69.223206,138.156235 
	C70.943253,138.073212 72.674339,137.989655 75.094193,137.872833 
	C75.094193,142.253891 75.094193,146.354553 75.094391,150.945374 
z"/>
<path fill="#221929" opacity="1.000000" stroke="none" 
	d="
M65.203247,146.426575 
	C65.228821,150.155319 65.228821,153.436188 65.228821,157.141037 
	C63.099781,157.141037 61.259045,157.141037 59.080074,157.141037 
	C59.080074,153.072510 59.080074,149.056168 59.080074,143.898895 
	C61.397926,144.689484 63.287796,145.334076 65.203247,146.426575 
z"/>
<path fill="#1E1826" opacity="1.000000" stroke="none" 
	d="
M48.917664,152.979401 
	C50.517788,151.396378 52.115520,150.262680 54.801624,148.356705 
	C54.801624,152.460373 54.801624,154.672577 54.801624,157.096329 
	C51.702847,157.687332 48.331223,158.928452 48.917664,152.979401 
z"/>
<path fill="#181823" opacity="1.000000" stroke="none" 
	d="
M255.304260,136.338501 
	C260.397461,141.589050 261.897308,150.411850 257.870178,155.668411 
	C256.090240,157.991730 252.258133,158.923340 249.187744,160.003983 
	C247.569382,160.573547 245.585526,160.104660 243.413300,160.104660 
	C243.413300,151.812851 243.413300,143.650406 243.413300,134.593048 
	C247.321045,135.109955 251.145325,135.615829 255.304260,136.338501 
z"/>
<path fill="#1D1D28" opacity="1.000000" stroke="none" 
	d="
M201.274017,148.504669 
	C202.365585,144.465240 205.056946,142.443192 208.652039,143.250641 
	C210.875351,143.749985 212.721390,145.929031 214.736786,147.354019 
	C214.455734,147.872040 214.174683,148.390045 213.893631,148.908066 
	C209.722519,148.908066 205.551392,148.908066 201.274017,148.504669 
z"/>
<path fill="#22222C" opacity="1.000000" stroke="none" 
	d="
M286.224609,160.283325 
	C284.839478,160.911118 283.633240,161.798889 282.698730,161.571259 
	C280.822327,161.114166 279.094208,160.048218 277.304901,159.233566 
	C278.467346,157.714447 279.326050,155.582413 280.863678,154.820450 
	C283.146484,153.689209 285.909943,153.527908 290.185303,152.568619 
	C288.608978,155.786865 287.567688,157.912796 286.224609,160.283325 
z"/>
<path fill="#22222C" opacity="1.000000" stroke="none" 
	d="
M340.616394,153.382233 
	C341.057373,158.461517 338.536255,161.248260 333.962708,161.623230 
	C332.410156,161.750504 330.711090,160.090256 329.078979,159.246826 
	C330.084747,157.775909 330.778381,155.605499 332.164551,154.986984 
	C334.664795,153.871323 337.579315,153.684189 340.616394,153.382233 
z"/>
<path fill="#22222C" opacity="1.000000" stroke="none" 
	d="
M412.306091,161.423920 
	C409.959412,160.608002 407.982910,159.674545 406.006409,158.741089 
	C407.509308,157.264313 408.781036,155.314209 410.576843,154.437042 
	C412.578979,153.459106 415.057526,153.456558 417.648743,152.969254 
	C418.263733,157.258362 416.720032,159.994995 412.306091,161.423920 
z"/>
</svg>