<svg version="1.1" id="Layer_1" xmlns="http://www.w3.org/2000/svg" xmlns:xlink="http://www.w3.org/1999/xlink" x="0px" y="0px"
	 width="100%" viewBox="0 0 1049 527" enable-background="new 0 0 1049 527" xml:space="preserve">
<path fill="#FFFFFF" opacity="1.000000" stroke="none" 
	d="
M1.000002,437.000000 
	C1.000000,291.742340 1.000000,146.484695 1.000000,1.000000 
	C133.355255,1.000000 265.710663,1.000000 398.532410,1.468657 
	C399.054749,15.290547 399.110748,28.643780 399.096008,42.460499 
	C399.072632,48.614922 399.120026,54.305862 399.096832,60.455597 
	C399.073853,64.942139 399.121399,68.969872 399.099243,73.447296 
	C399.076141,76.930000 399.122742,79.963028 399.097839,83.448410 
	C399.073700,87.266495 399.121033,90.632225 399.098938,94.447922 
	C399.075623,97.934250 399.121765,100.970612 399.098938,104.466644 
	C399.076019,109.281670 399.122101,113.637016 399.099548,118.433258 
	C399.076569,121.248779 399.122223,123.623421 399.099487,126.431976 
	C399.077179,128.911484 399.123291,130.957062 399.100891,133.448349 
	C399.079163,136.596817 399.125885,139.299591 399.104889,142.427002 
	C399.084167,144.567947 399.131165,146.284241 399.103546,148.432785 
	C399.077698,150.910019 399.126495,152.955002 399.104706,155.458679 
	C399.079102,159.948029 399.124115,163.978638 399.101562,168.466644 
	C399.079193,172.952179 399.124359,176.980362 399.101410,181.466949 
	C399.080780,185.952972 399.128235,189.980591 399.108490,194.453857 
	C399.089233,197.599380 399.137177,200.299255 399.112610,203.411819 
	C399.086945,205.216660 399.133789,206.608780 399.105774,208.458832 
	C399.076752,212.945129 399.122589,216.973526 399.097168,221.373581 
	C399.074280,222.497238 399.122681,223.249222 399.098022,224.464706 
	C399.024994,243.858521 399.024994,262.788849 399.024994,281.836487 
	C429.732452,281.836487 459.865570,281.836487 490.461426,281.909241 
	C496.282471,281.934357 501.640747,281.886749 507.461029,281.911865 
	C513.614746,281.602875 519.306519,281.221100 525.438477,280.910583 
	C534.268738,279.364258 542.658875,277.746735 551.450684,276.078308 
	C556.240356,274.631012 560.628296,273.234650 565.368530,271.795776 
	C570.354553,269.423462 575.057251,267.220184 579.608459,264.738922 
	C590.809143,258.632416 601.246277,251.465866 610.355896,241.976837 
	C616.139160,235.361801 622.027039,229.185547 626.998291,222.343338 
	C635.661377,210.420029 642.503723,197.479126 646.460083,182.852768 
	C647.810364,178.449814 648.823364,174.231750 649.913818,169.597366 
	C650.607239,165.458038 651.223083,161.735016 651.913086,157.570663 
	C652.268921,153.754837 652.550598,150.380371 652.905762,146.556396 
	C652.930359,143.074249 652.881348,140.041565 652.906250,136.591339 
	C652.598328,132.783463 652.216492,129.393173 651.906738,125.589890 
	C651.263550,121.452904 650.548218,117.728897 649.904236,113.606796 
	C649.261597,110.139824 648.547729,107.070930 647.780273,103.628998 
	C646.187927,99.154808 644.649170,95.053650 643.064331,90.570580 
	C640.715393,85.110184 638.412598,80.031708 636.056885,74.594543 
	C633.373901,70.142700 630.743713,66.049545 627.968140,61.637527 
	C624.583984,57.195961 621.345337,53.073257 617.968750,48.643463 
	C614.257080,44.875317 610.683289,41.414257 606.969543,37.644272 
	C601.920837,33.539520 597.012146,29.743687 591.956421,25.631397 
	C586.241150,22.192949 580.672913,19.070955 574.932373,15.634531 
	C570.173523,13.269052 565.586975,11.218003 560.620667,9.087667 
	C556.826843,8.061229 553.412781,7.114075 549.647827,5.986346 
	C543.865417,4.592958 538.433716,3.380145 532.612427,2.097973 
	C530.815247,1.685742 529.407593,1.342870 528.000000,0.999999 
	C701.920959,1.000000 875.841858,1.000000 1050.000000,1.000000 
	C1050.000000,145.355255 1050.000000,289.710663 1049.609985,434.390991 
	C1046.491211,412.602448 1036.275024,394.803833 1017.960022,382.080933 
	C1008.077637,375.215912 996.956848,371.324402 984.830017,369.860077 
	C974.282837,368.586487 963.963318,368.698242 953.574707,370.772858 
	C940.875488,373.308929 929.639221,378.522003 919.450012,386.711884 
	C910.440674,393.953369 903.690002,402.745270 899.142761,413.035004 
	C891.513611,430.298492 890.043396,448.357574 893.950684,466.911072 
	C897.145508,482.081482 903.996826,495.408051 915.406433,505.632446 
	C930.921997,519.536194 949.408142,527.024719 970.569946,527.042908 
	C971.713562,527.043884 972.856689,527.666687 974.000000,528.000000 
	C917.977966,528.000000 861.955994,528.000000 805.628357,527.595459 
	C809.558838,526.794495 813.839294,526.662170 818.023621,525.957886 
	C841.969543,521.927490 859.762634,509.184357 870.996033,487.644073 
	C880.984436,468.490936 882.418091,448.067932 877.860779,427.371094 
	C872.737488,404.104065 859.449951,386.580902 837.646729,376.361755 
	C824.626648,370.259277 810.651306,368.050720 796.278320,369.028351 
	C785.056641,369.791656 774.276672,372.224426 764.785034,378.684204 
	C760.941223,381.300171 757.196350,384.061493 752.805908,387.183685 
	C752.805908,361.253784 752.805908,336.310852 752.805908,311.212189 
	C740.507141,311.212189 728.437866,311.212189 716.194580,311.212189 
	C716.194580,382.814819 716.194580,454.205261 716.194580,525.797852 
	C727.791809,525.797852 739.194580,525.797852 750.986938,525.797852 
	C750.986938,519.581482 750.986938,513.536987 750.986938,507.209106 
	C760.619873,517.488586 772.086670,523.410156 785.344971,525.976929 
	C789.536743,526.788452 793.780212,527.333191 798.000000,528.000000 
	C690.311340,528.000000 582.622620,528.000000 474.630280,527.594055 
	C485.172272,527.286316 495.611877,525.349976 505.579803,520.999268 
	C518.594177,515.318848 528.986389,506.634949 535.868835,494.116882 
	C536.547546,492.882355 536.269775,489.773254 535.397888,489.243835 
	C526.821167,484.035889 518.024597,479.190216 511.603638,475.552368 
	C506.036835,480.061066 501.419342,484.421753 496.207458,487.888824 
	C486.349854,494.446381 475.556519,497.075012 463.553009,495.100525 
	C450.699280,492.986206 440.568970,487.070190 432.883453,476.537689 
	C425.497772,466.416077 424.416168,454.942657 425.032532,443.062958 
	C425.584595,432.421967 429.134216,422.806396 436.535248,415.042145 
	C447.101868,403.956848 460.159973,399.500641 475.465881,400.925568 
	C485.572144,401.866455 494.221802,405.469788 501.259583,412.782837 
	C504.101501,415.735870 506.807587,418.819611 509.585907,421.855194 
	C518.040588,416.906036 526.548523,412.036591 534.887329,406.892975 
	C535.845154,406.302246 536.683655,403.663300 536.175720,402.856079 
	C533.174255,398.086029 530.318787,393.015015 526.378540,389.083191 
	C513.709351,376.441223 497.715149,370.539337 480.236084,369.135864 
	C465.340851,367.939850 450.494293,369.173279 436.459503,375.031891 
	C422.649658,380.796539 410.622864,388.765167 401.822876,401.409943 
	C390.389679,417.838379 386.281281,435.710358 387.835968,455.520264 
	C388.793518,467.721283 391.814575,479.040588 398.103485,489.372253 
	C410.851990,510.316071 429.830872,522.055542 453.832886,525.986206 
	C458.538971,526.756897 463.276794,527.333740 468.000000,528.000000 
	C416.311310,528.000000 364.622650,528.000000 312.632477,527.592468 
	C321.220886,526.123413 330.300415,525.862854 338.956451,523.813599 
	C352.121246,520.696838 363.793060,514.398315 371.663147,502.782074 
	C377.685852,493.892548 379.525696,484.220703 378.228119,473.349670 
	C377.006561,463.115417 372.977478,455.184448 364.967621,448.985748 
	C352.995239,439.720581 338.451508,438.020477 324.341339,434.984497 
	C313.809021,432.718292 303.175476,430.764282 292.847809,427.771301 
	C287.623810,426.257385 283.795074,422.337067 283.753021,415.585938 
	C283.714630,409.429108 288.589600,404.573730 294.848145,402.193237 
	C306.923462,397.600464 319.630981,397.761322 331.991516,400.661804 
	C341.512177,402.895905 350.666473,406.691315 359.958679,409.784149 
	C364.434113,401.252167 369.280060,392.013855 374.229248,382.578674 
	C373.289337,381.981567 372.522095,381.421875 371.692841,380.978149 
	C357.159912,373.201202 341.267517,370.145386 325.152863,369.243866 
	C314.235382,368.633057 303.098999,369.682373 292.224030,371.178192 
	C280.603058,372.776672 269.799652,377.422302 261.108337,385.518616 
	C250.088135,395.784302 246.177948,408.466522 247.731522,423.726776 
	C249.020493,436.388000 255.401215,444.884308 265.129883,451.530762 
	C276.367889,459.208374 289.746704,460.413300 302.640839,463.036987 
	C313.195587,465.184662 323.724884,467.492889 334.180573,470.073975 
	C338.216309,471.070251 341.600922,473.457092 341.985077,478.240936 
	C342.444611,483.962952 341.392731,489.379974 335.677643,491.904266 
	C330.609802,494.142700 325.162506,496.397461 319.743774,496.807251 
	C301.111908,498.216309 283.130737,495.128510 266.259308,486.696350 
	C263.122955,485.128845 259.011749,481.588257 257.063721,482.524231 
	C254.413574,483.797455 253.363937,488.476135 251.712082,491.737091 
	C248.610962,497.858978 245.570175,504.011414 242.437622,510.284637 
	C260.783112,521.202576 279.995483,526.444275 300.566467,527.038086 
	C302.052338,527.080933 303.522522,527.666687 305.000000,528.000000 
	C230.977982,528.000000 156.955978,528.000000 82.628357,527.595459 
	C100.806236,527.107178 116.877365,521.203613 130.114899,506.354401 
	C130.114899,513.594238 130.114899,519.658997 130.114899,525.752136 
	C141.901459,525.752136 153.303268,525.752136 164.782623,525.752136 
	C164.782623,454.122223 164.782623,382.740356 164.782623,311.215851 
	C152.496796,311.215851 140.428955,311.215851 127.971382,311.215851 
	C127.971382,336.796600 127.971382,362.165131 127.971382,387.265076 
	C122.593582,383.446320 117.743126,378.939056 112.049118,376.160278 
	C95.698196,368.180817 78.475182,367.168488 60.709900,370.922577 
	C33.454952,376.681976 15.037700,392.401733 5.834743,418.666718 
	C3.751393,424.612518 2.587262,430.880371 1.000002,437.000000 
M547.000000,498.500000 
	C547.000000,507.594543 547.000000,516.689087 547.000000,525.720520 
	C559.635559,525.720520 571.703064,525.720520 584.000000,525.720520 
	C584.000000,508.309998 583.749329,491.173065 584.082397,474.047516 
	C584.331848,461.221558 584.395447,448.274597 586.224182,435.624756 
	C588.836731,417.553375 602.746399,405.922424 620.933105,404.080688 
	C626.141907,403.553223 631.449402,403.999908 636.759888,403.999908 
	C636.759888,392.119659 636.759888,380.710632 636.759888,368.929016 
	C616.101990,369.050415 597.309814,373.122833 582.733093,391.045349 
	C582.733093,383.303467 582.733093,377.226685 582.733093,371.311859 
	C570.632324,371.311859 558.896973,371.311859 547.000000,371.311859 
	C547.000000,413.582336 547.000000,455.541168 547.000000,498.500000 
M690.000000,406.500000 
	C690.000000,394.736511 690.000000,382.973022 690.000000,371.290070 
	C677.351379,371.290070 665.279480,371.290070 653.287354,371.290070 
	C653.287354,422.981262 653.287354,474.381866 653.287354,525.709961 
	C665.648621,525.709961 677.720459,525.709961 690.000000,525.709961 
	C690.000000,486.113525 690.000000,446.806763 690.000000,406.500000 
M213.495346,371.000000 
	C206.063400,371.000000 198.631439,371.000000 191.287369,371.000000 
	C191.287369,422.980713 191.287369,474.381622 191.287369,525.709839 
	C203.648834,525.709839 215.720749,525.709839 227.712097,525.709839 
	C227.712097,474.018188 227.712097,422.617279 227.712097,371.000000 
	C223.114700,371.000000 218.803421,371.000000 213.495346,371.000000 
M648.000000,323.553711 
	C648.747253,327.289459 648.676880,331.462982 650.397827,334.677429 
	C655.219971,343.684296 663.347778,346.784790 673.375427,346.061859 
	C681.754700,345.457764 688.005676,341.879700 692.076416,334.512146 
	C696.260437,326.939575 695.995605,319.349609 691.562927,312.115997 
	C686.148132,303.279449 677.337830,301.106110 667.908081,302.133179 
	C656.657776,303.358612 647.393005,311.775940 648.000000,323.553711 
M197.084702,305.391907 
	C188.502563,310.390106 186.315216,318.166779 186.919586,327.528381 
	C187.424957,335.355957 192.060242,340.367401 198.204178,343.481201 
	C208.380341,348.638519 221.653427,347.444458 230.198654,336.300171 
	C236.602951,327.947968 234.162186,312.920837 225.665298,306.902527 
	C216.614059,300.491577 207.405136,300.632812 197.084702,305.391907 
z"/>
<path fill="#000000" opacity="1.000000" stroke="none" 
	d="
M798.437500,528.000000 
	C793.780212,527.333191 789.536743,526.788452 785.344971,525.976929 
	C772.086670,523.410156 760.619873,517.488586 750.986938,507.209106 
	C750.986938,513.536987 750.986938,519.581482 750.986938,525.797852 
	C739.194580,525.797852 727.791809,525.797852 716.194580,525.797852 
	C716.194580,454.205261 716.194580,382.814819 716.194580,311.212189 
	C728.437866,311.212189 740.507141,311.212189 752.805908,311.212189 
	C752.805908,336.310852 752.805908,361.253784 752.805908,387.183685 
	C757.196350,384.061493 760.941223,381.300171 764.785034,378.684204 
	C774.276672,372.224426 785.056641,369.791656 796.278320,369.028351 
	C810.651306,368.050720 824.626648,370.259277 837.646729,376.361755 
	C859.449951,386.580902 872.737488,404.104065 877.860779,427.371094 
	C882.418091,448.067932 880.984436,468.490936 870.996033,487.644073 
	C859.762634,509.184357 841.969543,521.927490 818.023621,525.957886 
	C813.839294,526.662170 809.558838,526.794495 805.161377,527.595459 
	C802.958313,528.000000 800.916687,528.000000 798.437500,528.000000 
M815.384216,403.998199 
	C804.519348,399.694580 793.546631,399.391602 782.427063,402.994873 
	C768.685547,407.447845 759.802673,416.821381 755.049805,430.216248 
	C751.896057,439.104370 751.169495,448.184113 752.921509,457.594757 
	C755.523804,471.572266 762.117981,482.786804 774.610229,489.814178 
	C784.475586,495.363922 795.210571,497.131866 806.484680,495.008667 
	C815.497375,493.311310 823.482117,489.199402 829.543518,482.647247 
	C838.557312,472.903778 842.326294,461.086151 842.185913,447.494537 
	C841.980286,427.594299 833.564697,413.304443 815.384216,403.998199 
z"/>
<path fill="#000000" opacity="1.000000" stroke="none" 
	d="
M1.000002,437.468567 
	C2.587262,430.880371 3.751393,424.612518 5.834743,418.666718 
	C15.037700,392.401733 33.454952,376.681976 60.709900,370.922577 
	C78.475182,367.168488 95.698196,368.180817 112.049118,376.160278 
	C117.743126,378.939056 122.593582,383.446320 127.971382,387.265076 
	C127.971382,362.165131 127.971382,336.796600 127.971382,311.215851 
	C140.428955,311.215851 152.496796,311.215851 164.782623,311.215851 
	C164.782623,382.740356 164.782623,454.122223 164.782623,525.752136 
	C153.303268,525.752136 141.901459,525.752136 130.114899,525.752136 
	C130.114899,519.658997 130.114899,513.594238 130.114899,506.354401 
	C116.877365,521.203613 100.806236,527.107178 82.161377,527.595459 
	C80.285645,528.000000 78.571281,528.000000 76.266891,527.595337 
	C69.386894,526.460144 62.882645,526.512878 56.844719,524.861145 
	C32.981506,518.333069 15.676392,503.961365 6.936730,480.422821 
	C4.366840,473.501312 2.946940,466.152802 1.000000,459.000000 
	C1.000000,451.979034 1.000000,444.958099 1.000002,437.468567 
M40.001350,462.282379 
	C42.562534,470.978943 46.695885,478.996063 53.618900,484.762573 
	C64.368935,493.716797 76.876213,497.648529 91.057076,495.028961 
	C102.434837,492.927246 112.119774,488.231934 119.082016,478.571564 
	C127.692070,466.624756 130.465057,453.576935 128.067612,439.053101 
	C123.804230,413.225372 105.514366,400.810883 83.395340,400.339447 
	C71.007545,400.075378 59.407001,404.632660 50.623631,414.739990 
	C38.638367,428.531830 35.901516,444.124359 40.001350,462.282379 
z"/>
<path fill="#000000" opacity="1.000000" stroke="none" 
	d="
M974.437500,528.000000 
	C972.856689,527.666687 971.713562,527.043884 970.569946,527.042908 
	C949.408142,527.024719 930.921997,519.536194 915.406433,505.632446 
	C903.996826,495.408051 897.145508,482.081482 893.950684,466.911072 
	C890.043396,448.357574 891.513611,430.298492 899.142761,413.035004 
	C903.690002,402.745270 910.440674,393.953369 919.450012,386.711884 
	C929.639221,378.522003 940.875488,373.308929 953.574707,370.772858 
	C963.963318,368.698242 974.282837,368.586487 984.830017,369.860077 
	C996.956848,371.324402 1008.077637,375.215912 1017.960022,382.080933 
	C1036.275024,394.803833 1046.491211,412.602448 1049.609985,434.857971 
	C1050.000000,443.020905 1050.000000,451.041809 1049.531372,459.531372 
	C1009.242432,460.000000 969.422058,460.000000 929.527771,460.000000 
	C930.646790,469.152740 934.845581,476.904999 941.411011,482.657928 
	C955.985657,495.428864 973.304626,498.420349 991.988892,494.525238 
	C1002.878601,492.255035 1012.174072,487.011261 1020.038147,478.528687 
	C1026.935547,486.494232 1033.623657,494.218140 1040.293701,501.921021 
	C1028.119385,516.364807 1012.749878,523.752258 994.671692,526.017090 
	C990.103333,526.589417 985.556641,527.334351 981.000000,528.000000 
	C978.958313,528.000000 976.916687,528.000000 974.437500,528.000000 
M980.855957,399.331238 
	C974.149536,399.554535 967.286377,398.942474 960.767700,400.166199 
	C944.644836,403.192810 931.075867,418.527222 929.220459,434.745453 
	C957.762939,434.745453 986.295044,434.745453 1014.914612,434.745453 
	C1014.569397,433.247375 1014.267578,432.013641 1014.001648,430.772186 
	C1010.706604,415.386200 996.072083,401.497192 980.855957,399.331238 
z"/>
<path fill="#000000" opacity="1.000000" stroke="none" 
	d="
M305.437500,528.000000 
	C303.522522,527.666687 302.052338,527.080933 300.566467,527.038086 
	C279.995483,526.444275 260.783112,521.202576 242.437622,510.284637 
	C245.570175,504.011414 248.610962,497.858978 251.712082,491.737091 
	C253.363937,488.476135 254.413574,483.797455 257.063721,482.524231 
	C259.011749,481.588257 263.122955,485.128845 266.259308,486.696350 
	C283.130737,495.128510 301.111908,498.216309 319.743774,496.807251 
	C325.162506,496.397461 330.609802,494.142700 335.677643,491.904266 
	C341.392731,489.379974 342.444611,483.962952 341.985077,478.240936 
	C341.600922,473.457092 338.216309,471.070251 334.180573,470.073975 
	C323.724884,467.492889 313.195587,465.184662 302.640839,463.036987 
	C289.746704,460.413300 276.367889,459.208374 265.129883,451.530762 
	C255.401215,444.884308 249.020493,436.388000 247.731522,423.726776 
	C246.177948,408.466522 250.088135,395.784302 261.108337,385.518616 
	C269.799652,377.422302 280.603058,372.776672 292.224030,371.178192 
	C303.098999,369.682373 314.235382,368.633057 325.152863,369.243866 
	C341.267517,370.145386 357.159912,373.201202 371.692841,380.978149 
	C372.522095,381.421875 373.289337,381.981567 374.229248,382.578674 
	C369.280060,392.013855 364.434113,401.252167 359.958679,409.784149 
	C350.666473,406.691315 341.512177,402.895905 331.991516,400.661804 
	C319.630981,397.761322 306.923462,397.600464 294.848145,402.193237 
	C288.589600,404.573730 283.714630,409.429108 283.753021,415.585938 
	C283.795074,422.337067 287.623810,426.257385 292.847809,427.771301 
	C303.175476,430.764282 313.809021,432.718292 324.341339,434.984497 
	C338.451508,438.020477 352.995239,439.720581 364.967621,448.985748 
	C372.977478,455.184448 377.006561,463.115417 378.228119,473.349670 
	C379.525696,484.220703 377.685852,493.892548 371.663147,502.782074 
	C363.793060,514.398315 352.121246,520.696838 338.956451,523.813599 
	C330.300415,525.862854 321.220886,526.123413 312.165497,527.592468 
	C309.958344,528.000000 307.916656,528.000000 305.437500,528.000000 
z"/>
<path fill="#000000" opacity="1.000000" stroke="none" 
	d="
M468.428467,528.000000 
	C463.276794,527.333740 458.538971,526.756897 453.832886,525.986206 
	C429.830872,522.055542 410.851990,510.316071 398.103485,489.372253 
	C391.814575,479.040588 388.793518,467.721283 387.835968,455.520264 
	C386.281281,435.710358 390.389679,417.838379 401.822876,401.409943 
	C410.622864,388.765167 422.649658,380.796539 436.459503,375.031891 
	C450.494293,369.173279 465.340851,367.939850 480.236084,369.135864 
	C497.715149,370.539337 513.709351,376.441223 526.378540,389.083191 
	C530.318787,393.015015 533.174255,398.086029 536.175720,402.856079 
	C536.683655,403.663300 535.845154,406.302246 534.887329,406.892975 
	C526.548523,412.036591 518.040588,416.906036 509.585907,421.855194 
	C506.807587,418.819611 504.101501,415.735870 501.259583,412.782837 
	C494.221802,405.469788 485.572144,401.866455 475.465881,400.925568 
	C460.159973,399.500641 447.101868,403.956848 436.535248,415.042145 
	C429.134216,422.806396 425.584595,432.421967 425.032532,443.062958 
	C424.416168,454.942657 425.497772,466.416077 432.883453,476.537689 
	C440.568970,487.070190 450.699280,492.986206 463.553009,495.100525 
	C475.556519,497.075012 486.349854,494.446381 496.207458,487.888824 
	C501.419342,484.421753 506.036835,480.061066 511.603638,475.552368 
	C518.024597,479.190216 526.821167,484.035889 535.397888,489.243835 
	C536.269775,489.773254 536.547546,492.882355 535.868835,494.116882 
	C528.986389,506.634949 518.594177,515.318848 505.579803,520.999268 
	C495.611877,525.349976 485.172272,527.286316 474.163300,527.594055 
	C472.285645,528.000000 470.571289,528.000000 468.428467,528.000000 
z"/>
<path fill="#FFFFFF" opacity="1.000000" stroke="none" 
	d="
M981.468628,528.000000 
	C985.556641,527.334351 990.103333,526.589417 994.671692,526.017090 
	C1012.749878,523.752258 1028.119385,516.364807 1040.293701,501.921021 
	C1033.623657,494.218140 1026.935547,486.494232 1020.038147,478.528687 
	C1012.174072,487.011261 1002.878601,492.255035 991.988892,494.525238 
	C973.304626,498.420349 955.985657,495.428864 941.411011,482.657928 
	C934.845581,476.904999 930.646790,469.152740 929.527771,460.000000 
	C969.422058,460.000000 1009.242432,460.000000 1049.531372,460.000000 
	C1050.000000,482.594055 1050.000000,505.188110 1050.000000,528.000000 
	C1027.312866,528.000000 1004.625122,528.000000 981.468628,528.000000 
z"/>
<path fill="#00FEC9" opacity="1.000000" stroke="none" 
	d="
M399.166748,41.997017 
	C399.110748,28.643780 399.054749,15.290547 398.999390,1.468657 
	C416.354218,1.000000 433.708466,1.000000 451.530182,1.419132 
	C450.961609,6.823215 450.479889,12.008152 448.769440,16.749842 
	C445.595123,25.549526 442.731171,34.788712 433.164551,39.289452 
	C430.058411,40.750767 427.052032,42.424076 423.550262,44.000259 
	C415.122589,43.332413 407.144684,42.664715 399.166748,41.997017 
z"/>
<path fill="#00FCD1" opacity="1.000000" stroke="none" 
	d="
M424.000000,44.000412 
	C427.052032,42.424076 430.058411,40.750767 433.164551,39.289452 
	C442.731171,34.788712 445.595123,25.549526 448.769440,16.749842 
	C450.479889,12.008152 450.961609,6.823215 451.998840,1.419132 
	C461.020905,1.000000 470.041779,1.000000 479.531250,1.375437 
	C479.998260,2.501744 479.996674,3.252615 479.631500,4.073451 
	C479.177612,6.094056 479.087341,8.044695 478.997620,10.330027 
	C478.997162,11.110974 478.996155,11.557230 478.630005,12.072622 
	C476.843628,16.425892 475.422424,20.710024 474.000732,25.370304 
	C473.998535,26.498739 473.996826,27.251028 473.646790,28.057281 
	C472.532745,29.738783 471.766998,31.366322 470.999847,33.246223 
	C470.997345,33.666828 470.996246,33.835072 470.652588,34.054081 
	C465.601257,39.269829 461.059784,44.601326 456.134155,49.550507 
	C451.674408,54.031578 445.310669,56.179352 439.848907,54.377678 
	C434.055298,52.466560 429.241638,47.584827 424.000000,44.000412 
z"/>
<path fill="#FFFFFF" opacity="1.000000" stroke="none" 
	d="
M1.000000,459.468658 
	C2.946940,466.152802 4.366840,473.501312 6.936730,480.422821 
	C15.676392,503.961365 32.981506,518.333069 56.844719,524.861145 
	C62.882645,526.512878 69.386894,526.460144 75.838425,527.595337 
	C51.076183,528.000000 26.152370,528.000000 1.000000,528.000000 
	C1.000000,505.312958 1.000000,482.625122 1.000000,459.468658 
z"/>
<path fill="#00F4DA" opacity="1.000000" stroke="none" 
	d="
M479.995117,4.003486 
	C479.996674,3.252615 479.998260,2.501744 479.999908,1.375437 
	C486.354401,1.000000 492.708801,1.000000 499.531616,1.435355 
	C499.002808,16.991306 492.967682,30.176432 484.200104,42.220173 
	C480.721313,46.998878 476.748108,51.417664 472.627411,56.004875 
	C464.835327,58.671730 457.415833,61.334026 450.045807,63.659092 
	C452.463379,60.646019 455.132294,58.176716 457.139526,55.253120 
	C461.924286,48.283981 466.396606,41.100323 470.995117,34.003311 
	C470.996246,33.835072 470.997345,33.666828 471.344025,33.193481 
	C472.458099,31.260021 473.226593,29.631666 473.995117,28.003315 
	C473.996826,27.251028 473.998535,26.498739 474.358887,25.310093 
	C476.143341,20.583651 477.569214,16.293566 478.995117,12.003483 
	C478.996155,11.557230 478.997162,11.110974 479.282104,10.070606 
	C479.709015,7.652159 479.852081,5.827822 479.995117,4.003486 
z"/>
<path fill="#00E3E7" opacity="1.000000" stroke="none" 
	d="
M527.535339,0.999999 
	C529.407593,1.342870 530.815247,1.685742 532.602905,2.483945 
	C530.248962,15.255791 524.426270,26.120173 517.348694,36.416889 
	C513.162476,42.507111 509.113403,48.691528 504.564758,54.903191 
	C497.763641,56.021935 491.400421,57.071075 485.057129,57.763168 
	C486.224121,55.601044 487.280975,53.730534 488.533936,52.002163 
	C493.962799,44.513527 500.154846,37.470833 504.723938,29.495184 
	C509.707916,20.795305 514.121460,11.535299 514.000000,1.000000 
	C518.356873,1.000000 522.713806,1.000000 527.535339,0.999999 
z"/>
<path fill="#00ECE0" opacity="1.000000" stroke="none" 
	d="
M513.535339,1.000000 
	C514.121460,11.535299 509.707916,20.795305 504.723938,29.495184 
	C500.154846,37.470833 493.962799,44.513527 488.533936,52.002163 
	C487.280975,53.730534 486.224121,55.601044 484.864319,58.081890 
	C480.446289,60.212933 476.240967,61.668209 472.025818,62.716606 
	C472.344025,60.206589 472.671997,58.103447 473.000000,56.000309 
	C476.748108,51.417664 480.721313,46.998878 484.200104,42.220173 
	C492.967682,30.176432 499.002808,16.991306 500.000000,1.435355 
	C504.356903,1.000000 508.713776,1.000000 513.535339,1.000000 
z"/>
<path fill="#000000" opacity="1.000000" stroke="none" 
	d="
M547.000000,498.000000 
	C547.000000,455.541168 547.000000,413.582336 547.000000,371.311859 
	C558.896973,371.311859 570.632324,371.311859 582.733093,371.311859 
	C582.733093,377.226685 582.733093,383.303467 582.733093,391.045349 
	C597.309814,373.122833 616.101990,369.050415 636.759888,368.929016 
	C636.759888,380.710632 636.759888,392.119659 636.759888,403.999908 
	C631.449402,403.999908 626.141907,403.553223 620.933105,404.080688 
	C602.746399,405.922424 588.836731,417.553375 586.224182,435.624756 
	C584.395447,448.274597 584.331848,461.221558 584.082397,474.047516 
	C583.749329,491.173065 584.000000,508.309998 584.000000,525.720520 
	C571.703064,525.720520 559.635559,525.720520 547.000000,525.720520 
	C547.000000,516.689087 547.000000,507.594543 547.000000,498.000000 
z"/>
<path fill="#000000" opacity="1.000000" stroke="none" 
	d="
M690.000000,407.000000 
	C690.000000,446.806763 690.000000,486.113525 690.000000,525.709961 
	C677.720459,525.709961 665.648621,525.709961 653.287354,525.709961 
	C653.287354,474.381866 653.287354,422.981262 653.287354,371.290070 
	C665.279480,371.290070 677.351379,371.290070 690.000000,371.290070 
	C690.000000,382.973022 690.000000,394.736511 690.000000,407.000000 
z"/>
<path fill="#000000" opacity="1.000000" stroke="none" 
	d="
M213.993744,371.000000 
	C218.803421,371.000000 223.114700,371.000000 227.712097,371.000000 
	C227.712097,422.617279 227.712097,474.018188 227.712097,525.709839 
	C215.720749,525.709839 203.648834,525.709839 191.287369,525.709839 
	C191.287369,474.381622 191.287369,422.980713 191.287369,371.000000 
	C198.631439,371.000000 206.063400,371.000000 213.993744,371.000000 
z"/>
<path fill="#5101FF" opacity="1.000000" stroke="none" 
	d="
M489.998688,281.836487 
	C459.865570,281.836487 429.732452,281.836487 399.024994,281.836487 
	C399.024994,262.788849 399.024994,243.858521 399.555542,224.464325 
	C416.190582,224.333633 432.337402,224.087250 448.380798,225.258011 
	C455.789581,225.798676 463.028839,229.003662 470.262726,231.263763 
	C471.463684,231.638962 472.539917,233.220581 473.166748,234.494247 
	C477.118103,242.523102 481.568665,250.390839 484.588989,258.768005 
	C487.249908,266.148254 488.259735,274.123810 489.998688,281.836487 
z"/>
<path fill="#00ADFE" opacity="1.000000" stroke="none" 
	d="
M628.113586,61.956398 
	C630.743713,66.049545 633.373901,70.142700 635.733582,74.732361 
	C626.843323,80.468605 618.579529,86.036217 611.678650,93.640541 
	C604.539001,101.507904 598.922241,109.996788 595.732178,120.200829 
	C593.524963,127.260780 590.533569,134.072800 588.034668,141.046539 
	C587.509521,142.511932 587.180237,144.290909 587.495667,145.768509 
	C588.445007,150.215179 586.798584,153.133179 582.566284,154.863861 
	C577.239380,141.821793 567.378235,133.870361 554.991150,129.070358 
	C545.857666,125.531136 536.312622,123.053932 527.088379,119.784042 
	C528.626526,117.900696 529.929199,116.233543 531.446838,114.792816 
	C535.582947,110.866394 539.809875,107.035622 544.383667,103.106560 
	C556.667236,106.826370 568.512939,110.728539 579.166687,119.328262 
	C579.166687,109.545250 579.166687,100.773346 579.559570,92.000961 
	C581.382507,91.727730 583.059326,91.844666 584.203491,91.120277 
	C592.966980,85.572151 601.663879,79.916313 610.305969,74.180168 
	C616.303894,70.199059 622.181946,66.037384 628.113586,61.956398 
z"/>
<path fill="#000000" opacity="1.000000" stroke="none" 
	d="
M648.000000,323.093903 
	C647.393005,311.775940 656.657776,303.358612 667.908081,302.133179 
	C677.337830,301.106110 686.148132,303.279449 691.562927,312.115997 
	C695.995605,319.349609 696.260437,326.939575 692.076416,334.512146 
	C688.005676,341.879700 681.754700,345.457764 673.375427,346.061859 
	C663.347778,346.784790 655.219971,343.684296 650.397827,334.677429 
	C648.676880,331.462982 648.747253,327.289459 648.000000,323.093903 
z"/>
<path fill="#000000" opacity="1.000000" stroke="none" 
	d="
M197.427216,305.206360 
	C207.405136,300.632812 216.614059,300.491577 225.665298,306.902527 
	C234.162186,312.920837 236.602951,327.947968 230.198654,336.300171 
	C221.653427,347.444458 208.380341,348.638519 198.204178,343.481201 
	C192.060242,340.367401 187.424957,335.355957 186.919586,327.528381 
	C186.315216,318.166779 188.502563,310.390106 197.427216,305.206360 
z"/>
<path fill="#00A4FE" opacity="1.000000" stroke="none" 
	d="
M582.878418,155.035370 
	C586.798584,153.133179 588.445007,150.215179 587.495667,145.768509 
	C587.180237,144.290909 587.509521,142.511932 588.034668,141.046539 
	C590.533569,134.072800 593.524963,127.260780 595.732178,120.200829 
	C598.922241,109.996788 604.539001,101.507904 611.678650,93.640541 
	C618.579529,86.036217 626.843323,80.468605 635.786377,75.091064 
	C638.412598,80.031708 640.715393,85.110184 642.747986,90.718613 
	C641.812927,91.743912 641.209229,92.368759 640.474304,92.715759 
	C620.280273,102.250702 609.969055,120.204445 600.339233,138.992523 
	C596.870911,145.759308 591.789673,151.710907 587.287842,157.920990 
	C586.758423,158.651352 585.231689,158.658798 584.009888,158.677841 
	C583.527832,157.248001 583.203125,156.141678 582.878418,155.035370 
z"/>
<path fill="#1B23FF" opacity="1.000000" stroke="none" 
	d="
M610.047852,242.115814 
	C601.246277,251.465866 590.809143,258.632416 579.608459,264.738922 
	C575.057251,267.220184 570.354553,269.423462 565.321838,271.452637 
	C564.664062,270.544678 564.561096,269.774475 564.122559,269.354858 
	C558.933350,264.389191 557.530273,258.957214 561.547180,252.519424 
	C561.932495,251.901917 561.080750,250.080429 560.318787,249.277679 
	C559.091431,247.984695 557.460449,247.074783 556.045532,245.635254 
	C557.051025,244.512619 557.908081,243.525162 558.990173,243.046448 
	C562.278137,241.591888 565.653015,240.333908 569.422607,238.998993 
	C573.137024,237.949600 576.491516,237.072495 579.687073,235.797012 
	C582.223206,234.784698 584.564758,233.284698 587.408203,232.002426 
	C593.518921,233.084839 599.540649,235.403824 603.250000,228.000427 
	C603.670715,227.998764 603.839050,227.997330 604.044922,228.369675 
	C606.070923,233.200928 608.059387,237.658371 610.047852,242.115814 
z"/>
<path fill="#063FFF" opacity="1.000000" stroke="none" 
	d="
M651.838989,158.012009 
	C651.223083,161.735016 650.607239,165.458038 649.529053,169.649460 
	C647.789795,170.417709 646.523743,170.779099 645.234131,171.007019 
	C638.790649,172.145752 632.467346,173.105469 626.925964,177.391205 
	C618.712646,183.743454 613.031921,192.106354 606.819946,200.137192 
	C604.006592,203.774353 600.134583,206.648743 600.964600,212.345108 
	C596.282898,217.459900 591.636536,222.227158 586.537964,226.995361 
	C583.119385,226.996307 580.153076,226.996307 576.492981,226.996307 
	C579.631653,220.875107 586.653931,219.201416 586.796326,213.184799 
	C582.149353,213.478607 578.077881,213.736023 574.156250,213.690567 
	C575.768127,212.308182 577.238281,211.239517 578.690674,210.147339 
	C586.211975,204.491745 594.141785,199.290878 601.122131,193.031494 
	C607.202820,187.578857 612.089539,180.815720 617.719116,174.834274 
	C626.967773,165.007538 638.715210,160.070694 651.838989,158.012009 
z"/>
<path fill="#276BF6" opacity="1.000000" stroke="none" 
	d="
M399.175293,154.999969 
	C399.126495,152.955002 399.077698,150.910019 399.531311,148.432556 
	C402.486969,148.326340 404.944458,148.962189 407.392914,148.929092 
	C424.435364,148.698761 440.711792,153.295837 457.025055,157.166504 
	C468.871490,159.977356 480.352142,164.329575 492.310150,168.132568 
	C495.843964,170.228363 499.276337,171.912750 502.229828,174.212250 
	C506.022644,177.165237 509.430756,180.612350 512.548340,183.916138 
	C503.061157,182.606552 494.030121,181.227432 484.954590,179.509857 
	C480.237305,176.387527 475.827148,172.921661 470.824310,170.994904 
	C464.770447,168.663391 458.215057,167.634201 451.520935,166.016205 
	C449.671234,165.057526 448.211700,164.062515 446.675690,163.204407 
	C444.085907,161.757584 441.447662,160.397583 438.425659,158.989807 
	C425.072784,157.652359 412.124023,156.326172 399.175293,154.999969 
z"/>
<path fill="#0121FF" opacity="1.000000" stroke="none" 
	d="
M610.355896,241.976837 
	C608.059387,237.658371 606.070923,233.200928 604.346802,228.222595 
	C609.677856,222.037735 613.948303,216.166519 616.495117,208.630356 
	C621.936157,192.530136 628.920105,181.072495 646.122803,183.037659 
	C642.503723,197.479126 635.661377,210.420029 626.998291,222.343338 
	C622.027039,229.185547 616.139160,235.361801 610.355896,241.976837 
z"/>
<path fill="#460DFE" opacity="1.000000" stroke="none" 
	d="
M524.998230,280.839355 
	C519.306519,281.221100 513.614746,281.602875 507.452148,281.524445 
	C504.377716,274.168091 502.102661,267.122589 499.058929,260.426483 
	C496.912964,255.705383 493.723541,251.458572 490.963318,246.639557 
	C488.288818,240.016754 485.449890,233.926254 480.036682,229.397675 
	C478.943726,228.483337 478.656891,226.605316 478.416016,225.099640 
	C484.234192,225.983704 489.634766,226.939728 495.027588,228.267792 
	C496.023041,230.271240 496.824219,232.078796 498.065613,233.502518 
	C502.630341,238.737671 507.341064,243.845520 511.997498,249.397858 
	C513.117981,252.845413 513.989136,256.017761 515.406860,258.923401 
	C518.908936,266.100769 524.613342,272.296387 524.998230,280.839355 
z"/>
<path fill="#0157FF" opacity="1.000000" stroke="none" 
	d="
M651.913086,157.570663 
	C638.715210,160.070694 626.967773,165.007538 617.719116,174.834274 
	C612.089539,180.815720 607.202820,187.578857 601.122131,193.031494 
	C594.141785,199.290878 586.211975,204.491745 578.690674,210.147339 
	C577.238281,211.239517 575.768127,212.308182 573.713806,213.691620 
	C570.400879,213.634537 567.680237,213.273514 565.108337,212.605408 
	C569.899536,207.200348 574.542053,202.102371 579.541016,196.997635 
	C585.477905,192.948074 591.408386,189.304092 596.563843,184.777374 
	C606.532776,176.024078 615.722168,166.363342 625.890442,157.863205 
	C633.503052,151.499405 641.975037,145.939896 652.832275,147.005890 
	C652.550598,150.380371 652.268921,153.754837 651.913086,157.570663 
z"/>
<path fill="#3022FF" opacity="1.000000" stroke="none" 
	d="
M556.000000,246.003052 
	C557.460449,247.074783 559.091431,247.984695 560.318787,249.277679 
	C561.080750,250.080429 561.932495,251.901917 561.547180,252.519424 
	C557.530273,258.957214 558.933350,264.389191 564.122559,269.354858 
	C564.561096,269.774475 564.664062,270.544678 564.969604,271.495148 
	C560.628296,273.234650 556.240356,274.631012 551.312012,275.749329 
	C550.016357,273.986633 549.493896,272.312378 548.465576,271.050262 
	C544.053345,265.634857 539.492188,260.340759 534.955811,254.656281 
	C532.000977,251.041946 529.447144,247.308365 526.066833,244.610367 
	C520.431702,240.112717 514.217773,236.346634 508.362823,232.113220 
	C507.005524,231.131790 506.112457,229.508270 505.468384,228.108032 
	C511.619354,228.085541 517.307739,228.135208 523.042664,228.518921 
	C529.249146,233.653259 535.386169,238.483536 541.599915,243.213120 
	C542.316956,243.758911 543.449646,243.805435 544.408508,243.978638 
	C548.268311,244.675812 552.135498,245.331833 556.000000,246.003052 
z"/>
<path fill="#02F6CD" opacity="1.000000" stroke="none" 
	d="
M470.652588,34.054077 
	C466.396606,41.100323 461.924286,48.283981 457.139526,55.253120 
	C455.132294,58.176716 452.463379,60.646019 449.666718,63.702263 
	C447.491302,64.387932 445.744415,64.693199 443.565186,64.998032 
	C428.477692,63.330666 413.822540,61.663731 399.167389,59.996799 
	C399.120026,54.305862 399.072632,48.614922 399.096008,42.460503 
	C407.144684,42.664715 415.122589,43.332413 423.550262,44.000263 
	C429.241638,47.584827 434.055298,52.466560 439.848907,54.377678 
	C445.310669,56.179352 451.674408,54.031578 456.134155,49.550507 
	C461.059784,44.601326 465.601257,39.269829 470.652588,34.054077 
z"/>
<path fill="#00DBEC" opacity="1.000000" stroke="none" 
	d="
M505.002655,54.833595 
	C509.113403,48.691528 513.162476,42.507111 517.348694,36.416889 
	C524.426270,26.120173 530.248962,15.255791 532.992554,2.553305 
	C538.433716,3.380145 543.865417,4.592958 549.599365,6.347570 
	C548.513489,10.748065 547.713196,14.966185 545.618347,18.392805 
	C540.830811,26.223902 535.464661,33.705734 530.225037,41.254139 
	C527.260925,45.524330 524.082275,49.645554 520.541260,53.903702 
	C515.055725,54.260223 510.029205,54.546909 505.002655,54.833595 
z"/>
<path fill="#4D0AFE" opacity="1.000000" stroke="none" 
	d="
M477.998413,225.171600 
	C478.656891,226.605316 478.943726,228.483337 480.036682,229.397675 
	C485.449890,233.926254 488.288818,240.016754 490.617249,246.605286 
	C488.448608,245.122284 486.177551,243.581009 484.797852,241.459946 
	C476.564636,228.802490 464.039490,224.274643 449.936188,223.080658 
	C440.806915,222.307785 431.610565,222.335953 422.445343,221.976944 
	C414.685547,221.672974 406.927307,221.328491 399.168396,221.001923 
	C399.122589,216.973526 399.076752,212.945129 399.559753,208.458557 
	C409.931580,208.642776 419.770813,209.354706 429.619568,209.892365 
	C433.413239,210.099472 437.228577,209.910248 441.359222,210.043060 
	C450.110107,214.108109 458.470367,218.182541 466.993256,221.882263 
	C470.480469,223.396042 474.319458,224.099503 477.998413,225.171600 
z"/>
<path fill="#00C8F6" opacity="1.000000" stroke="none" 
	d="
M575.104614,15.948968 
	C580.672913,19.070955 586.241150,22.192949 591.673767,25.816849 
	C581.384460,36.200253 571.211792,46.062279 561.102173,55.988636 
	C559.880798,57.187916 559.000793,58.734951 557.560120,60.069473 
	C552.092773,58.719238 547.027954,57.420330 542.101440,55.810570 
	C554.207336,43.157612 566.062744,30.722256 575.104614,15.948968 
z"/>
<path fill="#00B4FD" opacity="1.000000" stroke="none" 
	d="
M627.968140,61.637527 
	C622.181946,66.037384 616.303894,70.199059 610.305969,74.180168 
	C601.663879,79.916313 592.966980,85.572151 584.203491,91.120277 
	C583.059326,91.844666 581.382507,91.727730 579.488525,91.537956 
	C579.071899,85.717316 579.119202,80.359184 579.512085,74.956802 
	C593.793152,68.005585 606.088867,58.682747 618.106689,48.950550 
	C621.345337,53.073257 624.583984,57.195961 627.968140,61.637527 
z"/>
<path fill="#0099FE" opacity="1.000000" stroke="none" 
	d="
M584.167297,159.001358 
	C585.231689,158.658798 586.758423,158.651352 587.287842,157.920990 
	C591.789673,151.710907 596.870911,145.759308 600.339233,138.992523 
	C609.969055,120.204445 620.280273,102.250702 640.474304,92.715759 
	C641.209229,92.368759 641.812927,91.743912 642.794067,91.100525 
	C644.649170,95.053650 646.187927,99.154808 647.400391,103.629013 
	C645.505920,104.454956 643.824768,104.680695 642.387573,105.396431 
	C630.065369,111.533134 620.838135,121.268417 612.762756,132.037201 
	C608.534424,137.675781 605.443298,144.170242 601.871704,150.297470 
	C597.674133,157.498734 592.524414,163.788879 585.093628,167.579819 
	C584.737366,164.440125 584.452332,161.720734 584.167297,159.001358 
z"/>
<path fill="#4B06FF" opacity="1.000000" stroke="none" 
	d="
M399.097168,221.373581 
	C406.927307,221.328491 414.685547,221.672974 422.445343,221.976944 
	C431.610565,222.335953 440.806915,222.307785 449.936188,223.080658 
	C464.039490,224.274643 476.564636,228.802490 484.797852,241.459946 
	C486.177551,243.581009 488.448608,245.122284 490.653900,246.965744 
	C493.723541,251.458572 496.912964,255.705383 499.058929,260.426483 
	C502.102661,267.122589 504.377716,274.168091 506.990112,281.451721 
	C501.640747,281.886749 496.282471,281.934357 490.461426,281.909241 
	C488.259735,274.123810 487.249908,266.148254 484.588989,258.768005 
	C481.568665,250.390839 477.118103,242.523102 473.166748,234.494247 
	C472.539917,233.220581 471.463684,231.638962 470.262726,231.263763 
	C463.028839,229.003662 455.789581,225.798676 448.380798,225.258011 
	C432.337402,224.087250 416.190582,224.333633 399.628571,224.000839 
	C399.122681,223.249222 399.074280,222.497238 399.097168,221.373581 
z"/>
<path fill="#00C0F9" opacity="1.000000" stroke="none" 
	d="
M557.962585,60.120800 
	C559.000793,58.734951 559.880798,57.187916 561.102173,55.988636 
	C571.211792,46.062279 581.384460,36.200253 591.820801,26.133303 
	C597.012146,29.743687 601.920837,33.539520 606.658875,37.788269 
	C594.954407,47.508572 583.420532,56.775963 571.520508,66.014969 
	C566.757080,64.031319 562.359863,62.076061 557.962585,60.120800 
z"/>
<path fill="#2379F4" opacity="1.000000" stroke="none" 
	d="
M491.995911,167.994507 
	C480.352142,164.329575 468.871490,159.977356 457.025055,157.166504 
	C440.711792,153.295837 424.435364,148.698761 407.392914,148.929092 
	C404.944458,148.962189 402.486969,148.326340 399.605896,148.000305 
	C399.131165,146.284241 399.084167,144.567947 399.561951,142.426086 
	C410.583405,142.008621 421.087738,141.773880 431.574341,142.102753 
	C439.768585,142.359741 447.940918,143.316254 456.426636,144.100204 
	C463.672882,151.560837 473.041046,154.384384 482.063538,158.240875 
	C482.785522,159.425949 483.407928,160.343414 484.203644,161.071503 
	C486.766693,163.416733 489.393616,165.692154 491.995911,167.994507 
z"/>
<path fill="#012CFF" opacity="1.000000" stroke="none" 
	d="
M646.460083,182.852768 
	C628.920105,181.072495 621.936157,192.530136 616.495117,208.630356 
	C613.948303,216.166519 609.677856,222.037735 604.309265,227.848816 
	C603.839050,227.997330 603.670715,227.998764 603.252075,227.573944 
	C603.738831,221.987534 604.475891,216.827393 605.278564,211.207672 
	C603.177185,211.595612 602.088623,211.796585 601.000000,211.997559 
	C600.134583,206.648743 604.006592,203.774353 606.819946,200.137192 
	C613.031921,192.106354 618.712646,183.743454 626.925964,177.391205 
	C632.467346,173.105469 638.790649,172.145752 645.234131,171.007019 
	C646.523743,170.779099 647.789795,170.417709 649.451538,170.065781 
	C648.823364,174.231750 647.810364,178.449814 646.460083,182.852768 
z"/>
<path fill="#0084FF" opacity="1.000000" stroke="none" 
	d="
M649.832947,114.004883 
	C650.548218,117.728897 651.263550,121.452904 651.517273,125.589851 
	C637.547119,129.033844 627.226562,137.286148 617.864258,146.810547 
	C608.790161,156.041718 600.234802,165.781296 591.240234,175.093445 
	C589.779053,176.606216 587.221375,177.059814 585.097473,177.605927 
	C585.311523,175.150711 585.598511,173.092529 586.205627,170.903656 
	C591.943665,165.339249 598.619324,160.681839 602.542358,154.325516 
	C614.072571,135.643280 629.308899,121.866653 649.832947,114.004883 
z"/>
<path fill="#3C13FF" opacity="1.000000" stroke="none" 
	d="
M534.985352,255.002441 
	C539.492188,260.340759 544.053345,265.634857 548.465576,271.050262 
	C549.493896,272.312378 550.016357,273.986633 550.910278,275.800262 
	C542.658875,277.746735 534.268738,279.364258 525.438477,280.910583 
	C524.613342,272.296387 518.908936,266.100769 515.406860,258.923401 
	C513.989136,256.017761 513.117981,252.845413 512.356201,249.433075 
	C519.493469,253.468628 526.900696,255.507416 534.985352,255.002441 
z"/>
<path fill="#0075FF" opacity="1.000000" stroke="none" 
	d="
M585.170471,178.002960 
	C587.221375,177.059814 589.779053,176.606216 591.240234,175.093445 
	C600.234802,165.781296 608.790161,156.041718 617.864258,146.810547 
	C627.226562,137.286148 637.547119,129.033844 651.445190,126.002831 
	C652.216492,129.393173 652.598328,132.783463 652.527466,136.643799 
	C638.330261,139.188568 627.876404,147.166397 618.231384,156.353210 
	C609.869141,164.318222 601.993652,172.795105 593.610718,180.737091 
	C590.568115,183.619583 586.679016,185.608536 583.109375,187.612854 
	C583.751953,184.147995 584.461243,181.075485 585.170471,178.002960 
z"/>
<path fill="#00D0F2" opacity="1.000000" stroke="none" 
	d="
M574.932373,15.634537 
	C566.062744,30.722256 554.207336,43.157612 541.665283,55.760296 
	C537.393982,55.625172 533.697266,55.229469 530.042969,54.499733 
	C534.736084,48.597706 539.387146,43.029945 544.037537,37.461651 
	C551.172791,28.917994 557.317871,19.780609 561.000366,9.166954 
	C565.586975,11.218003 570.173523,13.269052 574.932373,15.634537 
z"/>
<path fill="#16B2E3" opacity="1.000000" stroke="none" 
	d="
M399.168182,117.992371 
	C399.122101,113.637016 399.076019,109.281670 399.556274,104.465370 
	C414.000916,104.338211 427.919281,104.671989 441.906128,105.464172 
	C442.262573,110.613266 442.550476,115.303963 442.462372,120.048378 
	C440.969360,120.321671 439.835815,120.794113 438.737885,120.722275 
	C425.544922,119.859032 412.357239,118.915176 399.168182,117.992371 
z"/>
<path fill="#00B9FB" opacity="1.000000" stroke="none" 
	d="
M571.886719,66.043350 
	C583.420532,56.775963 594.954407,47.508572 606.798889,38.097187 
	C610.683289,41.414257 614.257080,44.875317 617.968750,48.643463 
	C606.088867,58.682747 593.793152,68.005585 579.441956,74.553764 
	C580.279358,68.295898 574.332214,68.703049 571.886719,66.043350 
z"/>
<path fill="#0CD4DB" opacity="1.000000" stroke="none" 
	d="
M399.168365,93.997955 
	C399.121033,90.632225 399.073700,87.266495 399.501129,83.449364 
	C403.712708,82.998459 407.463470,83.208748 411.183807,82.961250 
	C423.778534,82.123360 436.361328,81.106575 448.953796,80.231873 
	C449.623871,80.185326 450.340912,80.815002 450.894531,81.444427 
	C448.542694,85.853722 446.332458,89.948479 443.646118,94.030884 
	C428.502777,94.011681 413.835571,94.004814 399.168365,93.997955 
z"/>
<path fill="#0062FF" opacity="1.000000" stroke="none" 
	d="
M583.176086,188.005157 
	C586.679016,185.608536 590.568115,183.619583 593.610718,180.737091 
	C601.993652,172.795105 609.869141,164.318222 618.231384,156.353210 
	C627.876404,147.166397 638.330261,139.188568 652.453613,137.061371 
	C652.881348,140.041565 652.930359,143.074249 652.905762,146.556396 
	C641.975037,145.939896 633.503052,151.499405 625.890442,157.863205 
	C615.722168,166.363342 606.532776,176.024078 596.563843,184.777374 
	C591.408386,189.304092 585.477905,192.948074 579.571899,196.643188 
	C580.556152,193.532059 581.866150,190.768616 583.176086,188.005157 
z"/>
<path fill="#3B41F7" opacity="1.000000" stroke="none" 
	d="
M399.169495,181.008530 
	C399.124359,176.980362 399.079193,172.952179 399.529175,168.464111 
	C403.451324,167.875198 406.915344,167.362869 410.298157,167.690201 
	C419.828064,168.612335 429.324585,169.879562 438.901001,171.470428 
	C438.923035,176.289795 438.878265,180.649506 438.419373,185.005066 
	C425.060028,183.670120 412.114777,182.339325 399.169495,181.008530 
z"/>
<path fill="#07E3D8" opacity="1.000000" stroke="none" 
	d="
M451.036102,81.129883 
	C450.340912,80.815002 449.623871,80.185326 448.953796,80.231873 
	C436.361328,81.106575 423.778534,82.123360 411.183807,82.961250 
	C407.463470,83.208748 403.712708,82.998459 399.572632,82.997009 
	C399.122742,79.963028 399.076141,76.930000 399.498413,73.386642 
	C402.739166,72.587440 405.516846,72.006920 408.281769,72.062569 
	C417.856934,72.255287 427.427612,72.669296 437.438812,72.999420 
	C443.568848,73.008492 449.260712,72.979630 454.950531,73.074196 
	C455.652161,73.085854 456.342896,73.755791 456.906311,74.422470 
	C454.861328,76.859467 452.948700,78.994675 451.036102,81.129883 
z"/>
<path fill="#00D6EF" opacity="1.000000" stroke="none" 
	d="
M560.620667,9.087667 
	C557.317871,19.780609 551.172791,28.917994 544.037537,37.461651 
	C539.387146,43.029945 534.736084,48.597706 529.630371,54.569317 
	C526.450317,54.593246 523.725342,54.213558 521.000305,53.833870 
	C524.082275,49.645554 527.260925,45.524330 530.225037,41.254139 
	C535.464661,33.705734 540.830811,26.223902 545.618347,18.392805 
	C547.713196,14.966185 548.513489,10.748065 549.950134,6.528146 
	C553.412781,7.114075 556.826843,8.061229 560.620667,9.087667 
z"/>
<path fill="#008EFF" opacity="1.000000" stroke="none" 
	d="
M649.904236,113.606796 
	C629.308899,121.866653 614.072571,135.643280 602.542358,154.325516 
	C598.619324,160.681839 591.943665,165.339249 585.898804,170.743988 
	C585.236145,169.810059 585.200562,168.905106 585.164917,168.000137 
	C592.524414,163.788879 597.674133,157.498734 601.871704,150.297470 
	C605.443298,144.170242 608.534424,137.675781 612.762756,132.037201 
	C620.838135,121.268417 630.065369,111.533134 642.387573,105.396431 
	C643.824768,104.680695 645.505920,104.454956 647.453918,104.002052 
	C648.547729,107.070930 649.261597,110.139824 649.904236,113.606796 
z"/>
<path fill="#422CF9" opacity="1.000000" stroke="none" 
	d="
M399.101440,181.466949 
	C412.114777,182.339325 425.060028,183.670120 438.487152,185.460938 
	C438.921265,189.616821 438.873505,193.312698 438.393005,197.006393 
	C425.032104,196.005539 412.103882,195.006866 399.175690,194.008209 
	C399.128235,189.980591 399.080780,185.952972 399.101440,181.466949 
z"/>
<path fill="#325AF3" opacity="1.000000" stroke="none" 
	d="
M438.834259,171.010773 
	C429.324585,169.879562 419.828064,168.612335 410.298157,167.690201 
	C406.915344,167.362869 403.451324,167.875198 399.596741,168.006744 
	C399.124115,163.978638 399.079102,159.948029 399.104675,155.458694 
	C412.124023,156.326172 425.072784,157.652359 438.495453,159.445953 
	C438.924347,163.612503 438.879303,167.311630 438.834259,171.010773 
z"/>
<path fill="#2287EC" opacity="1.000000" stroke="none" 
	d="
M456.122986,143.961914 
	C447.940918,143.316254 439.768585,142.359741 431.574341,142.102753 
	C421.087738,141.773880 410.583405,142.008621 399.629669,142.001419 
	C399.125885,139.299591 399.079163,136.596817 399.557373,133.447540 
	C408.421265,133.003555 416.770233,132.753525 425.096313,133.082581 
	C432.786682,133.386520 440.452545,134.311310 448.424377,135.122757 
	C451.187347,138.175873 453.655182,141.068893 456.122986,143.961914 
z"/>
<path fill="#11C2DF" opacity="1.000000" stroke="none" 
	d="
M399.098938,94.447922 
	C413.835571,94.004814 428.502777,94.011681 443.597107,94.441223 
	C443.295380,98.244530 442.566498,101.625153 441.837646,105.005768 
	C427.919281,104.671989 414.000916,104.338211 399.625244,104.005707 
	C399.121765,100.970612 399.075623,97.934250 399.098938,94.447922 
z"/>
<path fill="#05EBD3" opacity="1.000000" stroke="none" 
	d="
M437.000000,72.999084 
	C427.427612,72.669296 417.856934,72.255287 408.281769,72.062569 
	C405.516846,72.006920 402.739166,72.587440 399.568146,72.936958 
	C399.121399,68.969872 399.073853,64.942139 399.096832,60.455597 
	C413.822540,61.663731 428.477692,63.330666 443.530121,65.348595 
	C442.725769,66.908752 441.502289,68.097160 440.328766,69.332993 
	C439.192413,70.529640 438.107483,71.775070 437.000000,72.999084 
z"/>
<path fill="#1BA3E6" opacity="1.000000" stroke="none" 
	d="
M399.099548,118.433258 
	C412.357239,118.915176 425.544922,119.859032 438.737885,120.722275 
	C439.835815,120.794113 440.969360,120.321671 442.530243,120.445938 
	C443.692078,123.512917 444.410004,126.236061 444.697754,128.962555 
	C429.234314,127.976608 414.201080,126.987335 399.167847,125.998062 
	C399.122223,123.623421 399.076569,121.248779 399.099548,118.433258 
z"/>
<path fill="#3E1AFE" opacity="1.000000" stroke="none" 
	d="
M399.108490,194.453857 
	C412.103882,195.006866 425.032104,196.005539 438.460205,197.452072 
	C438.912140,200.600296 438.864105,203.300629 438.440155,205.945831 
	C433.248566,205.049911 428.459961,203.761734 423.611206,203.468826 
	C415.489380,202.978180 407.329163,203.122192 399.185120,202.999115 
	C399.137177,200.299255 399.089233,197.599380 399.108490,194.453857 
z"/>
<path fill="#1F93E9" opacity="1.000000" stroke="none" 
	d="
M399.099457,126.431976 
	C414.201080,126.987335 429.234314,127.976608 445.000061,129.137863 
	C446.531433,131.194107 447.330292,133.078384 448.129181,134.962662 
	C440.452545,134.311310 432.786682,133.386520 425.096313,133.082581 
	C416.770233,132.753525 408.421265,133.003555 399.625824,133.001831 
	C399.123291,130.957062 399.077179,128.911484 399.099457,126.431976 
z"/>
<path fill="#460DFE" opacity="1.000000" stroke="none" 
	d="
M399.112610,203.411819 
	C407.329163,203.122192 415.489380,202.978180 423.611206,203.468826 
	C428.459961,203.761734 433.248566,205.049911 438.512695,206.300446 
	C439.652161,207.773987 440.343079,208.837799 441.034027,209.901611 
	C437.228577,209.910248 433.413239,210.099472 429.619568,209.892365 
	C419.770813,209.354706 409.931580,208.642776 399.634583,208.000641 
	C399.133789,206.608780 399.086945,205.216660 399.112610,203.411819 
z"/>
<path fill="#FFFFFF" opacity="1.000000" stroke="none" 
	d="
M815.784180,404.011780 
	C833.564697,413.304443 841.980286,427.594299 842.185913,447.494537 
	C842.326294,461.086151 838.557312,472.903778 829.543518,482.647247 
	C823.482117,489.199402 815.497375,493.311310 806.484680,495.008667 
	C795.210571,497.131866 784.475586,495.363922 774.610229,489.814178 
	C762.117981,482.786804 755.523804,471.572266 752.921509,457.594757 
	C751.169495,448.184113 751.896057,439.104370 755.049805,430.216248 
	C759.802673,416.821381 768.685547,407.447845 782.427063,402.994873 
	C793.546631,399.391602 804.519348,399.694580 815.784180,404.011780 
z"/>
<path fill="#FFFFFF" opacity="1.000000" stroke="none" 
	d="
M39.998676,461.852539 
	C35.901516,444.124359 38.638367,428.531830 50.623631,414.739990 
	C59.407001,404.632660 71.007545,400.075378 83.395340,400.339447 
	C105.514366,400.810883 123.804230,413.225372 128.067612,439.053101 
	C130.465057,453.576935 127.692070,466.624756 119.082016,478.571564 
	C112.119774,488.231934 102.434837,492.927246 91.057076,495.028961 
	C76.876213,497.648529 64.368935,493.716797 53.618900,484.762573 
	C46.695885,478.996063 42.562534,470.978943 39.998676,461.852539 
z"/>
<path fill="#FFFFFF" opacity="1.000000" stroke="none" 
	d="
M981.182739,399.636414 
	C996.072083,401.497192 1010.706604,415.386200 1014.001648,430.772186 
	C1014.267578,432.013641 1014.569397,433.247375 1014.914612,434.745453 
	C986.295044,434.745453 957.762939,434.745453 929.220459,434.745453 
	C931.075867,418.527222 944.644836,403.192810 960.767700,400.166199 
	C967.286377,398.942474 974.149536,399.554535 981.182739,399.636414 
z"/>
<path fill="#02F6CD" opacity="1.000000" stroke="none" 
	d="
M478.629974,12.072619 
	C477.569214,16.293566 476.143341,20.583651 474.359344,24.933947 
	C475.422424,20.710024 476.843628,16.425892 478.629974,12.072619 
z"/>
<path fill="#02F6CD" opacity="1.000000" stroke="none" 
	d="
M479.631531,4.073452 
	C479.852081,5.827822 479.709015,7.652159 479.281494,9.735914 
	C479.087341,8.044695 479.177612,6.094056 479.631531,4.073452 
z"/>
<path fill="#02F6CD" opacity="1.000000" stroke="none" 
	d="
M473.646790,28.057276 
	C473.226593,29.631666 472.458099,31.260021 471.345398,32.941120 
	C471.766998,31.366322 472.532745,29.738783 473.646790,28.057276 
z"/>
<path fill="#03EBDA" opacity="1.000000" stroke="none" 
	d="
M437.438812,72.999413 
	C438.107483,71.775070 439.192413,70.529640 440.328766,69.332993 
	C441.502289,68.097160 442.725769,66.908752 443.962463,65.349030 
	C445.744415,64.693199 447.491302,64.387932 449.617249,64.039497 
	C457.415833,61.334026 464.835327,58.671730 472.627411,56.004868 
	C472.671997,58.103447 472.344025,60.206589 471.859802,63.020634 
	C466.815247,67.194580 461.926971,70.657631 457.038696,74.120682 
	C456.342896,73.755791 455.652161,73.085854 454.950531,73.074196 
	C449.260712,72.979630 443.568848,73.008492 437.438812,72.999413 
z"/>
<path fill="#FFFFFF" opacity="1.000000" stroke="none" 
	d="
M456.906311,74.422470 
	C461.926971,70.657631 466.815247,67.194580 471.869568,63.427505 
	C476.240967,61.668209 480.446289,60.212933 484.844421,58.438938 
	C491.400421,57.071075 497.763641,56.021935 504.564758,54.903198 
	C510.029205,54.546909 515.055725,54.260223 520.541260,53.903702 
	C523.725342,54.213558 526.450317,54.593246 529.587891,54.903351 
	C533.697266,55.229469 537.393982,55.625172 541.526917,56.071152 
	C547.027954,57.420330 552.092773,58.719238 557.560120,60.069469 
	C562.359863,62.076061 566.757080,64.031319 571.520508,66.014969 
	C574.332214,68.703049 580.279358,68.295898 579.096313,74.598022 
	C579.119202,80.359184 579.071899,85.717316 579.095703,91.538437 
	C579.166687,100.773346 579.166687,109.545250 579.166687,119.328262 
	C568.512939,110.728539 556.667236,106.826370 543.989624,103.024231 
	C537.475525,101.724510 531.738464,100.446739 525.537476,99.098015 
	C520.584839,99.019775 516.051331,98.616501 511.620392,99.118462 
	C507.335480,99.603882 502.940308,100.509720 498.991730,102.175018 
	C495.117645,103.808929 494.743561,110.677277 498.155670,112.458191 
	C500.558472,113.712288 503.340576,114.239571 506.158264,115.424088 
	C513.225769,117.205704 520.088379,118.654617 526.950989,120.103531 
	C536.312622,123.053932 545.857666,125.531136 554.991150,129.070358 
	C567.378235,133.870361 577.239380,141.821793 582.566284,154.863861 
	C583.203125,156.141678 583.527832,157.248001 584.009888,158.677841 
	C584.452332,161.720734 584.737366,164.440125 585.093628,167.579819 
	C585.200562,168.905106 585.236145,169.810059 585.578613,170.874680 
	C585.598511,173.092529 585.311523,175.150711 585.097473,177.605927 
	C584.461243,181.075485 583.751953,184.147995 583.109375,187.612839 
	C581.866150,190.768616 580.556152,193.532059 579.215332,196.649948 
	C574.542053,202.102371 569.899536,207.200348 564.788330,212.743683 
	C556.515686,217.114502 548.711609,221.039963 540.491333,224.985748 
	C534.382019,226.065689 528.689087,227.125275 522.996094,228.184875 
	C517.307739,228.135208 511.619354,228.085541 505.019958,228.033356 
	C501.084412,227.985794 498.059906,227.940781 495.035370,227.895752 
	C489.634766,226.939728 484.234192,225.983704 478.416016,225.099640 
	C474.319458,224.099503 470.480469,223.396042 466.993256,221.882263 
	C458.470367,218.182541 450.110107,214.108109 441.359222,210.043060 
	C440.343079,208.837799 439.652161,207.773987 438.888672,206.355591 
	C438.864105,203.300629 438.912140,200.600296 438.892944,197.454269 
	C438.873505,193.312698 438.921265,189.616821 438.901245,185.465073 
	C438.878265,180.649506 438.923035,176.289795 438.901001,171.470428 
	C438.879303,167.311630 438.924347,163.612503 438.899597,159.457214 
	C441.447662,160.397583 444.085907,161.757584 446.675690,163.204407 
	C448.211700,164.062515 449.671234,165.057526 451.675659,166.336609 
	C462.285583,173.159958 473.494354,176.873016 484.999115,179.848297 
	C494.030121,181.227432 503.061157,182.606552 512.985352,183.982834 
	C518.639832,183.114670 523.538391,182.666733 528.091797,181.169510 
	C529.806152,180.605789 531.463501,177.713989 531.746155,175.688095 
	C531.943542,174.273438 529.948059,172.334457 528.576843,170.992615 
	C527.588013,170.024963 526.076477,169.421249 524.692261,169.053940 
	C510.488373,165.284729 496.262848,161.597015 482.043335,157.886536 
	C473.041046,154.384384 463.672882,151.560837 456.426636,144.100204 
	C453.655182,141.068893 451.187347,138.175873 448.424377,135.122757 
	C447.330292,133.078384 446.531433,131.194107 445.430237,129.134521 
	C444.410004,126.236061 443.692078,123.512917 442.906250,120.392212 
	C442.550476,115.303963 442.262573,110.613266 441.906128,105.464172 
	C442.566498,101.625153 443.295380,98.244530 444.073242,94.453568 
	C446.332458,89.948479 448.542694,85.853722 450.894531,81.444427 
	C452.948700,78.994675 454.861328,76.859467 456.906311,74.422470 
z"/>
<path fill="#00B4FD" opacity="1.000000" stroke="none" 
	d="
M526.001404,99.168961 
	C531.738464,100.446739 537.475525,101.724510 543.606689,103.084610 
	C539.809875,107.035622 535.582947,110.866394 531.446838,114.792816 
	C529.929199,116.233543 528.626526,117.900696 527.088379,119.784042 
	C520.088379,118.654617 513.225769,117.205704 506.351318,115.138931 
	C509.954193,112.315536 513.799255,110.405769 517.117981,107.820274 
	C520.358765,105.295486 523.062134,102.080780 526.001404,99.168961 
z"/>
<path fill="#1A3CFF" opacity="1.000000" stroke="none" 
	d="
M540.907593,224.965424 
	C548.711609,221.039963 556.515686,217.114502 564.639648,213.050781 
	C567.680237,213.273514 570.400879,213.634537 573.563904,213.994492 
	C578.077881,213.736023 582.149353,213.478607 586.796326,213.184799 
	C586.653931,219.201416 579.631653,220.875107 576.492981,226.996307 
	C580.153076,226.996307 583.119385,226.996307 586.539917,227.412781 
	C586.993591,229.219910 586.993164,230.610565 586.992676,232.001221 
	C584.564758,233.284698 582.223206,234.784698 579.687073,235.797012 
	C576.491516,237.072495 573.137024,237.949600 569.275024,238.692078 
	C565.508240,236.585449 562.411682,234.585709 559.106445,233.028748 
	C553.105652,230.201996 546.980713,227.638687 540.907593,224.965424 
z"/>
<path fill="#292DFF" opacity="1.000000" stroke="none" 
	d="
M540.491333,224.985748 
	C546.980713,227.638687 553.105652,230.201996 559.106445,233.028748 
	C562.411682,234.585709 565.508240,236.585449 568.846497,238.692490 
	C565.653015,240.333908 562.278137,241.591888 558.990173,243.046448 
	C557.908081,243.525162 557.051025,244.512619 556.045532,245.635254 
	C552.135498,245.331833 548.268311,244.675812 544.408508,243.978638 
	C543.449646,243.805435 542.316956,243.758911 541.599915,243.213120 
	C535.386169,238.483536 529.249146,233.653259 523.042664,228.518921 
	C528.689087,227.125275 534.382019,226.065689 540.491333,224.985748 
z"/>
<path fill="#0D2CFF" opacity="1.000000" stroke="none" 
	d="
M587.408203,232.002411 
	C586.993164,230.610565 586.993591,229.219910 586.992188,227.411835 
	C591.636536,222.227158 596.282898,217.459900 600.964600,212.345108 
	C602.088623,211.796585 603.177185,211.595612 605.278564,211.207672 
	C604.475891,216.827393 603.738831,221.987534 602.999634,227.574158 
	C599.540649,235.403824 593.518921,233.084839 587.408203,232.002411 
z"/>
<path fill="#1681FD" opacity="1.000000" stroke="none" 
	d="
M482.063538,158.240860 
	C496.262848,161.597015 510.488373,165.284729 524.692261,169.053940 
	C526.076477,169.421249 527.588013,170.024963 528.576843,170.992615 
	C529.948059,172.334457 531.943542,174.273438 531.746155,175.688095 
	C531.463501,177.713989 529.806152,180.605789 528.091797,181.169510 
	C523.538391,182.666733 518.639832,183.114670 513.441589,183.913300 
	C509.430756,180.612350 506.022644,177.165237 502.229828,174.212250 
	C499.276337,171.912750 495.843964,170.228363 492.310150,168.132568 
	C489.393616,165.692154 486.766693,163.416733 484.203644,161.071503 
	C483.407928,160.343414 482.785522,159.425949 482.063538,158.240860 
z"/>
<path fill="#325AF3" opacity="1.000000" stroke="none" 
	d="
M484.954590,179.509857 
	C473.494354,176.873016 462.285583,173.159958 452.031433,166.361847 
	C458.215057,167.634201 464.770447,168.663391 470.824310,170.994904 
	C475.827148,172.921661 480.237305,176.387527 484.954590,179.509857 
z"/>
<path fill="#3E1AFE" opacity="1.000000" stroke="none" 
	d="
M495.027588,228.267792 
	C498.059906,227.940781 501.084412,227.985794 504.557373,228.105515 
	C506.112457,229.508270 507.005524,231.131790 508.362823,232.113220 
	C514.217773,236.346634 520.431702,240.112717 526.066833,244.610367 
	C529.447144,247.308365 532.000977,251.041946 534.955811,254.656281 
	C526.900696,255.507416 519.493469,253.468628 512.355591,249.036469 
	C507.341064,243.845520 502.630341,238.737671 498.065613,233.502518 
	C496.824219,232.078796 496.023041,230.271240 495.027588,228.267792 
z"/>
<path fill="#00B9FB" opacity="1.000000" stroke="none" 
	d="
M525.537476,99.098007 
	C523.062134,102.080780 520.358765,105.295486 517.117981,107.820274 
	C513.799255,110.405769 509.954193,112.315536 506.146423,114.806229 
	C503.340576,114.239571 500.558472,113.712288 498.155670,112.458191 
	C494.743561,110.677277 495.117645,103.808929 498.991730,102.175018 
	C502.940308,100.509720 507.335480,99.603882 511.620392,99.118462 
	C516.051331,98.616501 520.584839,99.019775 525.537476,99.098007 
z"/>
</svg>