<svg version="1.1" id="Layer_1" xmlns="http://www.w3.org/2000/svg" xmlns:xlink="http://www.w3.org/1999/xlink" x="0px" y="0px"
	 width="100%" viewBox="0 0 343 380" enable-background="new 0 0 343 380" xml:space="preserve">
<path fill="#5101FF" opacity="1.000000" stroke="none" 
	d="
M129.000000,381.000000 
	C86.420723,381.000000 43.841450,381.000000 1.000000,381.000000 
	C1.000000,352.646301 1.000000,324.291809 1.455729,295.468658 
	C7.477073,294.994263 13.044996,295.079651 18.607189,294.938751 
	C20.897102,294.880798 23.182308,294.017578 25.456440,294.072052 
	C32.312073,294.236359 39.170929,294.539185 46.009903,295.041504 
	C51.759789,295.463867 57.474072,296.595459 63.221939,296.749939 
	C67.843582,296.874176 72.491898,296.005981 77.495438,295.680603 
	C84.907646,298.222351 91.952789,300.661682 99.038727,303.442871 
	C101.504005,307.108002 104.422234,310.181488 106.255165,313.804047 
	C110.743309,322.674377 115.070465,331.658875 118.837044,340.853607 
	C124.106255,353.716400 128.430817,366.906403 129.000000,381.000000 
z"/>
<path fill="#FFFFFF" opacity="1.000000" stroke="none" 
	d="
M165.000000,0.999999 
	C224.593063,1.000000 284.186127,1.000000 344.000000,1.000000 
	C344.000000,59.354042 344.000000,117.708359 343.620239,176.346283 
	C342.771484,173.088104 342.302460,169.546326 341.905579,165.578674 
	C341.596313,162.102295 341.214935,159.051804 340.895294,155.608276 
	C340.008118,151.794785 339.059174,148.374329 338.064240,144.550583 
	C336.955383,140.386826 335.892487,136.626373 334.869995,132.444107 
	C332.310608,125.665833 329.710846,119.309357 327.058105,112.586838 
	C323.948212,106.481369 320.891327,100.741936 317.800354,94.656593 
	C313.634766,88.246277 309.503235,82.181862 305.205353,75.856186 
	C299.376831,69.360062 293.714691,63.125195 287.918396,56.586769 
	C280.073578,49.714550 272.362946,43.145889 264.397766,36.333542 
	C256.107788,31.352736 248.072372,26.615610 239.866669,21.570267 
	C233.130676,18.563530 226.564957,15.865008 219.659058,12.994507 
	C213.895874,11.179182 208.472870,9.535836 202.841034,7.562181 
	C195.754593,5.876451 188.877014,4.521031 181.567825,3.096102 
	C175.757492,2.351061 170.378738,1.675530 165.000000,0.999999 
z"/>
<path fill="#FFFFFF" opacity="1.000000" stroke="none" 
	d="
M344.000000,205.000000 
	C344.000000,263.593475 344.000000,322.186951 344.000000,381.000000 
	C285.979279,381.000000 227.958298,381.000000 169.647232,380.615723 
	C172.904022,379.767303 176.450897,379.303101 180.426666,378.911133 
	C184.904221,378.268341 188.952881,377.553284 193.404953,376.908691 
	C199.553375,375.358887 205.298370,373.738678 211.436646,372.066345 
	C219.181015,369.134979 226.532104,366.255707 234.177155,363.217041 
	C240.661789,359.744690 246.852478,356.431702 253.400986,353.061707 
	C259.188080,349.040985 264.617340,345.077362 270.398315,341.058716 
	C276.405884,336.188354 282.061798,331.372955 287.981812,326.364014 
	C290.179047,323.817505 292.112152,321.464569 294.357117,318.976379 
	C309.403076,303.389252 320.215729,285.400909 328.924316,265.626740 
	C331.043304,259.513733 333.085083,253.775620 335.461731,247.852905 
	C336.475983,244.780365 337.155396,241.892456 337.916931,238.612869 
	C338.610626,235.148651 339.222168,232.076080 340.014587,228.643600 
	C340.504089,226.201370 340.812714,224.119064 341.458496,221.843948 
	C341.808594,220.101471 341.821503,218.551819 341.914276,216.617401 
	C342.274017,214.489517 342.553894,212.746384 342.907074,210.598114 
	C343.320251,208.461990 343.660126,206.730988 344.000000,205.000000 
z"/>
<path fill="#00FEC8" opacity="1.000000" stroke="none" 
	d="
M1.000000,56.000000 
	C1.000000,37.734901 1.000000,19.469801 1.000000,1.000000 
	C21.687111,1.000000 42.374897,1.000000 63.531342,1.448031 
	C62.856133,8.869188 62.221752,15.975329 60.444435,22.783079 
	C58.010010,32.107773 52.799133,40.088764 44.818645,45.571934 
	C38.935062,49.614368 32.300461,52.563740 25.541607,56.000111 
	C17.055147,56.000046 9.027574,56.000023 1.000000,56.000000 
z"/>
<path fill="#00FDCF" opacity="1.000000" stroke="none" 
	d="
M26.000496,56.000153 
	C32.300461,52.563740 38.935062,49.614368 44.818645,45.571934 
	C52.799133,40.088764 58.010010,32.107773 60.444435,22.783079 
	C62.221752,15.975329 62.856133,8.869188 64.000000,1.448031 
	C74.020897,1.000000 84.041786,1.000000 94.531342,1.457078 
	C94.487785,19.178049 91.113724,35.710247 82.067680,50.679852 
	C80.207329,53.758400 77.822678,56.593800 75.308861,59.180958 
	C73.220413,61.330345 70.834671,63.931801 68.145943,64.610207 
	C61.564564,66.270775 54.731766,66.934875 47.798416,67.722885 
	C43.992027,65.895607 40.265953,64.573181 36.815540,62.733704 
	C33.076599,60.740398 29.594568,58.265194 26.000496,56.000153 
z"/>
<path fill="#4A07FF" opacity="1.000000" stroke="none" 
	d="
M129.468658,381.000000 
	C128.430817,366.906403 124.106255,353.716400 118.837044,340.853607 
	C115.070465,331.658875 110.743309,322.674377 106.255165,313.804047 
	C104.422234,310.181488 101.504005,307.108002 99.437225,303.408203 
	C106.880585,304.543243 113.966240,306.054779 121.053101,307.950928 
	C126.036804,314.890350 131.019318,321.445190 136.036774,328.356934 
	C136.751282,330.022491 137.416687,331.338684 138.112564,332.638550 
	C146.339157,348.005249 154.840271,363.264069 157.000000,381.000000 
	C147.979111,381.000000 138.958206,381.000000 129.468658,381.000000 
z"/>
<path fill="#00E6E6" opacity="1.000000" stroke="none" 
	d="
M164.583344,0.999999 
	C170.378738,1.675530 175.757492,2.351061 181.566635,3.499853 
	C180.171570,10.301498 179.249222,17.083492 176.343277,22.869196 
	C169.013397,37.462814 162.106186,52.410278 150.456223,64.397415 
	C148.157730,66.762444 146.794312,70.036247 144.585449,72.971771 
	C137.138824,74.127708 130.106430,75.202827 123.077347,75.907730 
	C123.718895,74.206055 124.053421,72.567177 125.042068,71.590340 
	C135.666748,61.092594 143.645523,48.835262 150.382996,35.549690 
	C155.940979,24.589956 159.650116,13.313471 160.000000,1.000000 
	C161.388885,1.000000 162.777786,1.000000 164.583344,0.999999 
z"/>
<path fill="#00ECE0" opacity="1.000000" stroke="none" 
	d="
M159.532059,1.000000 
	C159.650116,13.313471 155.940979,24.589956 150.382996,35.549690 
	C143.645523,48.835262 135.666748,61.092594 125.042068,71.590340 
	C124.053421,72.567177 123.718895,74.206055 122.792923,76.135445 
	C114.670631,79.490608 106.836075,82.247856 98.962891,84.639481 
	C98.615875,82.849388 98.307480,81.424919 98.124634,79.705421 
	C98.500328,78.606522 98.750473,77.802650 99.347992,76.964615 
	C104.219017,73.110512 109.350761,69.809677 113.143974,65.366203 
	C121.954941,55.044785 129.784500,44.023262 134.994171,31.257889 
	C138.982361,21.485544 141.509644,11.513963 142.000000,1.000000 
	C147.688034,1.000000 153.376083,1.000000 159.532059,1.000000 
z"/>
<path fill="#00F3DC" opacity="1.000000" stroke="none" 
	d="
M141.532059,1.000000 
	C141.509644,11.513963 138.982361,21.485544 134.994171,31.257889 
	C129.784500,44.023262 121.954941,55.044785 113.143974,65.366203 
	C109.350761,69.809677 104.219017,73.110512 99.347733,76.561523 
	C98.000061,73.128502 97.000031,70.064400 96.034729,66.651871 
	C98.882202,63.147587 102.413918,60.380093 104.368851,56.760899 
	C109.604103,47.068748 114.996521,37.313023 118.727547,27.003866 
	C121.704819,18.777372 122.330490,9.699796 124.000000,1.000000 
	C129.688034,1.000000 135.376083,1.000000 141.532059,1.000000 
z"/>
<path fill="#00F8D7" opacity="1.000000" stroke="none" 
	d="
M123.532059,1.000000 
	C122.330490,9.699796 121.704819,18.777372 118.727547,27.003866 
	C114.996521,37.313023 109.604103,47.068748 104.368851,56.760899 
	C102.413918,60.380093 98.882202,63.147587 95.674919,66.688248 
	C92.628365,68.428040 90.033188,69.912010 87.312309,71.110680 
	C81.911728,73.489891 76.441849,75.711838 71.034264,77.654190 
	C72.651299,75.433716 74.049957,73.355576 75.847389,71.714088 
	C89.790215,58.980896 97.417480,42.686073 101.916748,24.802706 
	C103.875107,17.018738 104.674332,8.943147 106.000000,1.000000 
	C111.688042,1.000000 117.376083,1.000000 123.532059,1.000000 
z"/>
<path fill="#4E0BFD" opacity="1.000000" stroke="none" 
	d="
M77.128380,295.578125 
	C72.491898,296.005981 67.843582,296.874176 63.221939,296.749939 
	C57.474072,296.595459 51.759789,295.463867 46.009903,295.041504 
	C39.170929,294.539185 32.312073,294.236359 25.456440,294.072052 
	C23.182308,294.017578 20.897102,294.880798 18.607189,294.938751 
	C13.044996,295.079651 7.477073,294.994263 1.455729,295.000000 
	C1.000000,289.645081 1.000000,284.290131 1.468604,278.467590 
	C19.494289,278.335052 37.051369,278.670105 54.698456,279.388153 
	C55.799870,281.461121 56.405296,283.811951 57.893322,284.726105 
	C64.161530,288.576996 70.693146,291.999115 77.128380,295.578125 
z"/>
<path fill="#01F9D3" opacity="1.000000" stroke="none" 
	d="
M105.541931,1.000000 
	C104.674332,8.943147 103.875107,17.018738 101.916748,24.802706 
	C97.417480,42.686073 89.790215,58.980896 75.847389,71.714088 
	C74.049957,73.355576 72.651299,75.433716 70.643250,77.700470 
	C66.145821,78.727760 62.073063,79.364182 57.551025,80.000397 
	C52.734398,79.333061 48.367046,78.665932 44.038059,77.640701 
	C45.384331,74.188393 46.692238,71.094193 48.000145,68.000000 
	C54.731766,66.934875 61.564564,66.270775 68.145943,64.610207 
	C70.834671,63.931801 73.220413,61.330345 75.308861,59.180958 
	C77.822678,56.593800 80.207329,53.758400 82.067680,50.679852 
	C91.113724,35.710247 94.487785,19.178049 95.000000,1.457078 
	C98.361290,1.000000 101.722572,1.000000 105.541931,1.000000 
z"/>
<path fill="#0067FF" opacity="1.000000" stroke="none" 
	d="
M344.000000,191.000000 
	C344.000000,194.362106 344.000000,197.724197 343.571594,201.543320 
	C332.515442,202.354233 322.463593,205.544281 313.453613,210.624222 
	C305.465393,215.128082 298.503571,221.508331 291.293365,227.314438 
	C287.169464,230.635269 283.396301,234.403320 279.571075,238.080154 
	C275.645203,241.853745 271.756073,245.674683 268.023285,249.637283 
	C264.885345,252.968384 261.995026,256.532776 258.623352,259.999817 
	C254.614655,261.339111 250.977692,262.672516 247.427490,263.671204 
	C249.233154,258.519684 250.952072,253.702820 253.045319,248.894989 
	C259.909698,244.139175 266.655853,239.682068 272.832947,234.541214 
	C283.508270,225.656754 293.542603,215.988342 304.379181,207.315155 
	C315.886963,198.104752 328.824463,191.650604 344.000000,191.000000 
z"/>
<path fill="#410DFF" opacity="1.000000" stroke="none" 
	d="
M157.460632,381.000000 
	C154.840271,363.264069 146.339157,348.005249 138.112564,332.638550 
	C137.416687,331.338684 136.751282,330.022491 136.392227,328.392212 
	C144.141418,331.713684 151.570099,335.356842 159.273102,339.197815 
	C160.405655,340.815063 161.217819,342.264862 162.129471,343.649170 
	C169.411606,354.707001 177.353180,365.426971 179.997772,378.838928 
	C176.450897,379.303101 172.904022,379.767303 169.178574,380.615723 
	C165.307098,381.000000 161.614182,381.000000 157.460632,381.000000 
z"/>
<path fill="#2584EB" opacity="1.000000" stroke="none" 
	d="
M1.000000,188.000000 
	C1.000000,183.974823 1.000000,179.949631 1.464556,175.462219 
	C9.627913,175.061661 17.342413,174.833649 25.021999,175.249832 
	C38.000271,175.953171 50.956451,177.064209 64.150269,178.264603 
	C68.528595,184.028198 72.678574,189.531021 76.410973,195.022675 
	C75.329803,194.994797 74.644173,195.081909 74.005798,194.946426 
	C49.935436,189.837341 25.482367,188.766754 1.000000,188.000000 
z"/>
<path fill="#1F97E8" opacity="1.000000" stroke="none" 
	d="
M63.921917,178.003830 
	C50.956451,177.064209 38.000271,175.953171 25.021999,175.249832 
	C17.342413,174.833649 9.627913,175.061661 1.464556,175.000000 
	C1.000000,170.310745 1.000000,165.621490 1.387342,160.422607 
	C2.890165,159.678757 4.017920,159.193817 5.119294,159.247726 
	C23.074463,160.126724 41.026291,161.073914 59.168121,162.339478 
	C60.878887,167.783432 62.400402,172.893631 63.921917,178.003830 
z"/>
<path fill="#0081FF" opacity="1.000000" stroke="none" 
	d="
M341.833466,166.004562 
	C342.302460,169.546326 342.771484,173.088104 343.620239,176.814941 
	C344.000000,177.000000 344.000000,177.500000 343.613129,177.794891 
	C341.944641,178.419312 340.604340,178.605316 339.390839,179.101456 
	C330.855255,182.591248 321.891388,185.354736 313.963531,189.913849 
	C306.890656,193.981308 300.764404,199.822678 294.601776,205.309555 
	C288.307037,210.914047 282.761780,217.373047 276.366608,222.848541 
	C269.268250,228.926102 261.579742,234.314407 254.086670,239.561646 
	C254.073746,236.747498 254.122375,234.374527 254.515808,231.957245 
	C258.802124,229.213654 263.289276,227.053329 266.585144,223.716370 
	C277.439026,212.727066 287.297485,200.703232 298.601746,190.223984 
	C310.912140,178.812073 324.510315,168.861618 341.833466,166.004562 
z"/>
<path fill="#0174FF" opacity="1.000000" stroke="none" 
	d="
M254.148193,240.002823 
	C261.579742,234.314407 269.268250,228.926102 276.366608,222.848541 
	C282.761780,217.373047 288.307037,210.914047 294.601776,205.309555 
	C300.764404,199.822678 306.890656,193.981308 313.963531,189.913849 
	C321.891388,185.354736 330.855255,182.591248 339.390839,179.101456 
	C340.604340,178.605316 341.944641,178.419312 343.613129,178.044891 
	C344.000000,182.024551 344.000000,186.049088 344.000000,190.536819 
	C328.824463,191.650604 315.886963,198.104752 304.379181,207.315155 
	C293.542603,215.988342 283.508270,225.656754 272.832947,234.541214 
	C266.655853,239.682068 259.909698,244.139175 253.118622,248.491104 
	C253.261139,245.386414 253.704666,242.694626 254.148193,240.002823 
z"/>
<path fill="#0ADBD8" opacity="1.000000" stroke="none" 
	d="
M1.000000,113.000000 
	C1.000000,109.969406 1.000000,106.938812 1.424188,103.454239 
	C5.609785,102.997490 9.373199,103.073235 13.132230,102.977295 
	C24.470781,102.687904 35.823284,102.584930 47.137959,101.885399 
	C52.132896,101.576576 57.049736,100.004555 62.450684,99.004852 
	C68.309288,99.022110 73.719246,99.040527 78.985954,99.364807 
	C75.071617,104.424911 71.300537,109.179153 67.326324,113.563675 
	C66.246017,112.919510 65.332108,112.328667 64.498016,112.425468 
	C60.923809,112.840256 57.368885,113.948692 53.814560,113.918098 
	C36.208378,113.766541 18.604616,113.333702 1.000000,113.000000 
z"/>
<path fill="#02F7CD" opacity="1.000000" stroke="none" 
	d="
M47.798416,67.722885 
	C46.692238,71.094193 45.384331,74.188393 43.580513,77.641136 
	C34.637234,77.586212 26.193499,77.045013 17.741209,76.804459 
	C12.167175,76.645821 6.580832,76.919746 1.000000,77.000000 
	C1.000000,70.312355 1.000000,63.624710 1.000000,56.468533 
	C9.027574,56.000023 17.055147,56.000046 25.541609,56.000111 
	C29.594568,58.265194 33.076599,60.740398 36.815540,62.733704 
	C40.265953,64.573181 43.992027,65.895607 47.798416,67.722885 
z"/>
<path fill="#04EFD1" opacity="1.000000" stroke="none" 
	d="
M1.000000,77.463181 
	C6.580832,76.919746 12.167175,76.645821 17.741209,76.804459 
	C26.193499,77.045013 34.637234,77.586212 43.542149,77.999252 
	C48.367046,78.665932 52.734398,79.333061 57.550919,80.454422 
	C58.000313,83.938896 58.000538,86.969147 57.616013,90.043854 
	C55.629223,90.282501 54.024479,90.456871 52.425716,90.675087 
	C49.282276,91.104141 46.142166,91.557556 42.555191,92.000626 
	C28.406473,91.333572 14.703237,90.666786 1.000000,90.000000 
	C1.000000,85.975456 1.000000,81.950912 1.000000,77.463181 
z"/>
<path fill="#0DD0DA" opacity="1.000000" stroke="none" 
	d="
M1.000000,113.460632 
	C18.604616,113.333702 36.208378,113.766541 53.814560,113.918098 
	C57.368885,113.948692 60.923809,112.840256 64.498016,112.425468 
	C65.332108,112.328667 66.246017,112.919510 67.200562,113.857117 
	C65.510788,118.013359 63.743660,121.506454 61.509846,124.999741 
	C41.028774,124.999954 21.014387,124.999977 1.000000,125.000000 
	C1.000000,121.307091 1.000000,117.614182 1.000000,113.460632 
z"/>
<path fill="#4A15FC" opacity="1.000000" stroke="none" 
	d="
M54.608452,279.005157 
	C37.051369,278.670105 19.494289,278.335052 1.468604,278.000000 
	C1.000000,273.975464 1.000000,269.950897 1.399678,265.470520 
	C7.030843,265.015839 12.270693,264.826813 17.492144,265.056335 
	C29.869160,265.600403 42.237450,266.342987 54.700203,267.458008 
	C54.730240,271.608826 54.669346,275.307007 54.608452,279.005157 
z"/>
<path fill="#18ADE4" opacity="1.000000" stroke="none" 
	d="
M1.000000,153.000000 
	C1.000000,149.637894 1.000000,146.275803 1.467911,142.457977 
	C11.151333,142.037292 20.375769,141.831970 29.579889,142.173706 
	C39.140015,142.528671 48.680496,143.412796 58.259415,144.519196 
	C58.375206,148.601868 58.461155,152.230881 58.064148,155.897919 
	C43.414738,155.279449 29.247034,154.648361 15.082541,153.951981 
	C10.384115,153.720993 5.693944,153.322113 1.000000,153.000000 
z"/>
<path fill="#3F37F7" opacity="1.000000" stroke="none" 
	d="
M1.000000,247.000000 
	C1.000000,243.307098 1.000000,239.614182 1.468484,235.460632 
	C19.494984,236.001404 37.053001,237.002808 54.702229,238.456818 
	C54.737026,242.606339 54.680611,246.303268 54.181190,250.000107 
	C47.190762,249.334259 40.657120,248.396027 34.092815,248.063858 
	C23.072153,247.506210 12.031970,247.334259 1.000000,247.000000 
z"/>
<path fill="#4620FA" opacity="1.000000" stroke="none" 
	d="
M54.609268,267.005310 
	C42.237450,266.342987 29.869160,265.600403 17.492144,265.056335 
	C12.270693,264.826813 7.030843,265.015839 1.399678,265.007324 
	C1.000000,261.638702 1.000000,258.277435 1.468654,254.458008 
	C19.496906,255.002747 37.056507,256.005585 54.704544,257.455078 
	C54.731743,260.936279 54.670506,263.970795 54.609268,267.005310 
z"/>
<path fill="#07E6D5" opacity="1.000000" stroke="none" 
	d="
M1.000000,90.463181 
	C14.703237,90.666786 28.406473,91.333572 42.797142,92.277428 
	C49.657059,94.705002 55.829548,96.855507 62.002033,99.006012 
	C57.049736,100.004555 52.132896,101.576576 47.137959,101.885399 
	C35.823284,102.584930 24.470781,102.687904 13.132230,102.977295 
	C9.373199,103.073235 5.609785,102.997490 1.424188,103.000122 
	C1.000000,98.975456 1.000000,94.950912 1.000000,90.463181 
z"/>
<path fill="#10C7DE" opacity="1.000000" stroke="none" 
	d="
M1.000000,125.449982 
	C21.014387,124.999977 41.028774,124.999954 61.554703,125.388245 
	C61.020844,128.850967 59.975445,131.925369 58.465775,134.999908 
	C39.001003,134.666702 20.000502,134.333344 1.000000,134.000000 
	C1.000000,131.299988 1.000000,128.599976 1.000000,125.449982 
z"/>
<path fill="#015AFF" opacity="1.000000" stroke="none" 
	d="
M258.995117,259.993896 
	C261.995026,256.532776 264.885345,252.968384 268.023285,249.637283 
	C271.756073,245.674683 275.645203,241.853745 279.571075,238.080154 
	C283.396301,234.403320 287.169464,230.635269 291.293365,227.314438 
	C298.503571,221.508331 305.465393,215.128082 313.453613,210.624222 
	C322.463593,205.544281 332.515442,202.354233 343.571594,202.000168 
	C344.000000,202.750000 344.000000,203.500000 344.000000,204.625000 
	C343.660126,206.730988 343.320251,208.461990 342.496307,210.609100 
	C339.901306,211.350021 337.791412,211.946991 335.679321,211.954849 
	C323.382233,212.000702 312.830414,217.441528 303.393555,224.168549 
	C293.926117,230.917389 286.022736,239.818771 277.035645,247.298279 
	C271.402161,251.986771 265.033783,255.792236 258.995117,259.993896 
z"/>
<path fill="#374DF4" opacity="1.000000" stroke="none" 
	d="
M1.000000,226.000000 
	C1.000000,223.629440 1.000000,221.258896 1.412629,218.391830 
	C5.605434,217.664658 9.419689,216.993011 13.159695,217.282074 
	C26.990549,218.350998 40.796883,219.737198 54.702988,221.446808 
	C54.732887,224.594849 54.672222,227.300217 54.197586,230.005157 
	C52.787590,229.985931 51.787521,230.018692 50.796158,229.940720 
	C34.196793,228.635345 17.598518,227.316132 1.000000,226.000000 
z"/>
<path fill="#2977EF" opacity="1.000000" stroke="none" 
	d="
M1.000000,188.428467 
	C25.482367,188.766754 49.935436,189.837341 74.005798,194.946426 
	C74.644173,195.081909 75.329803,194.994797 76.716080,195.170807 
	C79.503120,197.130035 81.567467,198.929947 83.135101,200.803833 
	C77.758522,200.585602 72.878654,200.293411 67.595497,199.950943 
	C66.564842,199.685867 65.944275,199.306961 65.309082,199.280579 
	C53.438648,198.787476 41.967434,195.128510 29.856560,195.756149 
	C20.293728,196.251770 10.622878,194.663040 1.000000,194.000000 
	C1.000000,192.285645 1.000000,190.571289 1.000000,188.428467 
z"/>
<path fill="#14BCE0" opacity="1.000000" stroke="none" 
	d="
M1.000000,134.444153 
	C20.000502,134.333344 39.001003,134.666702 58.603584,135.418060 
	C58.880302,138.579224 58.554935,141.322372 58.229568,144.065521 
	C48.680496,143.412796 39.140015,142.528671 29.579889,142.173706 
	C20.375769,141.831970 11.151333,142.037292 1.467911,142.001129 
	C1.000000,139.629440 1.000000,137.258896 1.000000,134.444153 
z"/>
<path fill="#3B41F6" opacity="1.000000" stroke="none" 
	d="
M1.000000,226.449982 
	C17.598518,227.316132 34.196793,228.635345 50.796158,229.940720 
	C51.787521,230.018692 52.787590,229.985931 54.287926,230.442047 
	C54.731834,233.254349 54.671425,235.629272 54.611015,238.004211 
	C37.053001,237.002808 19.494984,236.001404 1.468484,235.000000 
	C1.000000,232.299988 1.000000,229.599976 1.000000,226.449982 
z"/>
<path fill="#2F60F4" opacity="1.000000" stroke="none" 
	d="
M1.000000,210.000000 
	C1.000000,208.933212 1.000000,207.866425 1.466822,206.399811 
	C28.767689,206.671738 55.507042,208.426254 82.056046,213.352234 
	C83.571236,214.564346 85.123184,215.302734 86.466675,216.317184 
	C88.393005,217.771683 90.167236,219.427628 91.584557,220.997192 
	C86.774796,220.331223 82.386887,219.665619 77.536118,219.000000 
	C73.314987,219.024673 69.556702,219.049347 65.470421,218.998627 
	C62.318981,216.947311 59.530602,214.916183 56.624714,213.070023 
	C56.287014,212.855484 55.298393,213.665527 54.198654,214.000702 
	C52.789661,213.983612 51.763947,214.116547 50.801880,213.926773 
	C34.351982,210.681992 17.713587,209.873428 1.000000,210.000000 
z"/>
<path fill="#2E66F1" opacity="1.000000" stroke="none" 
	d="
M81.999695,213.001831 
	C55.507042,208.426254 28.767689,206.671738 1.466822,206.000000 
	C1.000000,204.611115 1.000000,203.222214 1.424703,201.415314 
	C6.738401,200.969727 11.629985,200.829620 16.515760,200.942001 
	C23.205021,201.095856 29.914789,201.167175 36.570568,201.771591 
	C45.735554,202.603882 54.858307,203.901260 64.334030,205.145386 
	C70.446854,207.527588 76.224800,209.763794 82.002045,212.250458 
	C82.000801,212.667892 82.000252,212.834854 81.999695,213.001831 
z"/>
<path fill="#3359F3" opacity="1.000000" stroke="none" 
	d="
M1.000000,210.444168 
	C17.713587,209.873428 34.351982,210.681992 50.801880,213.926773 
	C51.763947,214.116547 52.789661,213.983612 54.290859,214.431244 
	C54.734783,216.909134 54.673611,218.956650 54.612434,221.004150 
	C40.796883,219.737198 26.990549,218.350998 13.159695,217.282074 
	C9.419689,216.993011 5.605434,217.664658 1.412629,217.947662 
	C1.000000,215.629440 1.000000,213.258896 1.000000,210.444168 
z"/>
<path fill="#2C6EF0" opacity="1.000000" stroke="none" 
	d="
M63.999153,204.999390 
	C54.858307,203.901260 45.735554,202.603882 36.570568,201.771591 
	C29.914789,201.167175 23.205021,201.095856 16.515760,200.942001 
	C11.629985,200.829620 6.738401,200.969727 1.424703,200.998657 
	C1.000000,198.958328 1.000000,196.916672 1.000000,194.437500 
	C10.622878,194.663040 20.293728,196.251770 29.856560,195.756149 
	C41.967434,195.128510 53.438648,198.787476 65.309082,199.280579 
	C65.944275,199.306961 66.564842,199.685867 67.546936,200.289703 
	C66.600830,202.118942 65.299995,203.559174 63.999153,204.999390 
z"/>
<path fill="#462DF9" opacity="1.000000" stroke="none" 
	d="
M54.616108,257.008423 
	C37.056507,256.005585 19.496906,255.002747 1.468654,253.999939 
	C1.000000,251.958328 1.000000,249.916672 1.000000,247.437500 
	C12.031970,247.334259 23.072153,247.506210 34.092815,248.063858 
	C40.657120,248.396027 47.190762,249.334259 54.271412,250.431427 
	C54.741791,252.911362 54.678951,254.959900 54.616108,257.008423 
z"/>
<path fill="#1BA5E5" opacity="1.000000" stroke="none" 
	d="
M1.000000,153.437500 
	C5.693944,153.322113 10.384115,153.720993 15.082541,153.951981 
	C29.247034,154.648361 43.414738,155.279449 58.182533,156.258057 
	C58.848873,158.388657 58.913872,160.197189 58.978874,162.005722 
	C41.026291,161.073914 23.074463,160.126724 5.119294,159.247726 
	C4.017920,159.193817 2.890165,159.678757 1.387342,159.956482 
	C1.000000,157.958328 1.000000,155.916672 1.000000,153.437500 
z"/>
<path fill="#F1F2F2" opacity="1.000000" stroke="none" 
	d="
M59.168121,162.339478 
	C58.913872,160.197189 58.848873,158.388657 58.665489,156.220001 
	C58.461155,152.230881 58.375206,148.601868 58.259415,144.519196 
	C58.554935,141.322372 58.880302,138.579224 59.067856,135.417923 
	C59.975445,131.925369 61.020844,128.850967 62.021385,125.388054 
	C63.743660,121.506454 65.510788,118.013359 67.403679,114.226822 
	C71.300537,109.179153 75.071617,104.424911 79.286453,99.225311 
	C86.153969,94.188332 92.577744,89.596718 99.001511,85.005096 
	C106.836075,82.247856 114.670631,79.490608 122.789619,76.505646 
	C130.106430,75.202827 137.138824,74.127708 145.047592,73.031006 
	C151.964371,72.851486 158.004761,72.693550 164.465363,72.609924 
	C169.897858,72.861618 174.910126,73.039009 180.250305,73.447220 
	C185.720581,74.373535 190.862946,75.069031 196.396942,75.876495 
	C204.194489,77.896278 211.600418,79.804085 219.352798,81.860252 
	C226.741852,85.144958 233.784439,88.281303 241.072510,91.672058 
	C244.627792,93.079094 245.413956,95.480537 245.218231,98.792969 
	C244.998199,102.516823 245.308502,106.272011 245.297180,110.472610 
	C245.267899,118.957100 245.329544,126.982544 245.298065,135.467010 
	C245.204956,144.585617 245.204956,153.245193 245.204956,163.187073 
	C228.840912,150.679932 211.648636,143.629486 192.825867,139.401611 
	C184.678955,137.846985 176.841629,136.500229 168.585403,135.070297 
	C163.697372,134.704636 159.092941,133.612808 154.791245,134.331940 
	C148.552261,135.374893 142.069122,136.850479 136.549759,139.767883 
	C131.120056,142.637878 131.843948,148.170563 137.369873,151.671814 
	C147.115891,154.569458 156.560562,157.226959 166.360764,160.040405 
	C175.889389,162.475067 185.098343,164.619553 194.228622,167.058594 
	C218.149582,173.448776 238.959030,184.165588 250.131317,208.366455 
	C250.958588,211.197662 251.783081,213.663818 252.648804,216.520462 
	C253.001389,218.659714 253.312759,220.408493 253.680878,222.559570 
	C253.881836,224.307999 254.026001,225.654114 254.100983,227.413284 
	C254.078186,229.218094 254.124603,230.609818 254.171021,232.001556 
	C254.122375,234.374527 254.073746,236.747498 254.086655,239.561646 
	C253.704666,242.694626 253.261139,245.386414 252.744293,248.482101 
	C250.952072,253.702820 249.233154,258.519684 247.236832,263.973267 
	C244.287811,268.733917 241.616180,272.857819 238.625153,277.095642 
	C234.433380,281.087189 230.561035,284.964783 226.359283,288.914551 
	C220.614456,292.288269 215.198990,295.589813 209.421539,298.929993 
	C205.376099,300.414001 201.692642,301.859375 197.650238,303.357483 
	C193.813171,304.378143 190.335068,305.346039 186.421555,306.350830 
	C176.984222,307.568848 167.982285,308.750031 158.524414,309.825867 
	C153.044998,309.770447 148.021500,309.820374 142.640442,309.661652 
	C135.205887,308.824097 128.128891,308.195190 121.051903,307.566315 
	C113.966240,306.054779 106.880585,304.543243 99.396423,303.066345 
	C91.952789,300.661682 84.907646,298.222351 77.495438,295.680603 
	C70.693146,291.999115 64.161530,288.576996 57.893322,284.726105 
	C56.405296,283.811951 55.799870,281.461121 54.698456,279.388153 
	C54.669346,275.307007 54.730240,271.608826 54.700203,267.458008 
	C54.670506,263.970795 54.731743,260.936279 54.704544,257.455078 
	C54.678951,254.959900 54.741791,252.911362 54.714417,250.431519 
	C54.680611,246.303268 54.737026,242.606339 54.702229,238.456818 
	C54.671425,235.629272 54.731834,233.254349 54.701904,230.442505 
	C54.672222,227.300217 54.732887,224.594849 54.702991,221.446808 
	C54.673611,218.956650 54.734783,216.909134 54.703754,214.431091 
	C55.298393,213.665527 56.287014,212.855484 56.624714,213.070023 
	C59.530602,214.916183 62.318981,216.947311 65.645889,219.292908 
	C84.357079,233.072571 105.421211,239.579163 127.389160,244.953491 
	C133.520111,245.919144 139.262283,246.772247 145.460144,247.716644 
	C150.689072,247.740326 155.462311,247.672699 160.660034,247.588562 
	C164.055298,247.020508 167.026062,246.468948 170.370209,245.950562 
	C175.122299,244.674850 179.801971,243.280350 179.881470,237.709702 
	C179.955673,232.508987 175.399109,231.009827 171.460571,229.902237 
	C160.359833,226.780487 149.157776,224.019012 137.640228,220.958725 
	C128.858994,218.585220 120.433197,216.368530 111.680946,213.974899 
	C102.113602,209.441940 92.872704,205.085907 83.631805,200.729874 
	C81.567467,198.929947 79.503120,197.130035 77.133667,195.181992 
	C72.678574,189.531021 68.528595,184.028198 64.150269,178.264603 
	C62.400402,172.893631 60.878887,167.783432 59.168121,162.339478 
z"/>
<path fill="#01ACFE" opacity="1.000000" stroke="none" 
	d="
M250.128555,208.001389 
	C238.959030,184.165588 218.149582,173.448776 194.228622,167.058594 
	C185.098343,164.619553 175.889389,162.475067 166.418732,159.704849 
	C169.152283,157.270584 172.302475,155.488708 175.189774,153.351654 
	C181.244934,148.869934 187.161804,144.201355 193.135437,139.609497 
	C211.648636,143.629486 228.840912,150.679932 245.204956,163.187073 
	C245.204956,153.245193 245.204956,144.585617 245.723679,135.464478 
	C249.949051,134.437759 254.192764,134.836472 257.261566,133.126556 
	C266.433228,128.016235 275.151794,122.091225 284.034058,116.463432 
	C295.307648,109.320511 306.568237,102.157082 317.834442,95.002502 
	C320.891327,100.741936 323.948212,106.481369 326.729523,112.727432 
	C307.253052,122.777245 289.254547,133.947845 278.365997,153.263977 
	C273.265778,162.311707 266.969604,171.779373 265.741058,181.621628 
	C264.390625,192.440399 256.294220,198.054169 252.661697,206.691910 
	C252.378830,207.364532 250.998703,207.575729 250.128555,208.001389 
z"/>
<path fill="#00A3FE" opacity="1.000000" stroke="none" 
	d="
M250.131317,208.366455 
	C250.998703,207.575729 252.378830,207.364532 252.661697,206.691910 
	C256.294220,198.054169 264.390625,192.440399 265.741058,181.621628 
	C266.969604,171.779373 273.265778,162.311707 278.365997,153.263977 
	C289.254547,133.947845 307.253052,122.777245 326.782501,113.093475 
	C329.710846,119.309357 332.310608,125.665833 334.431335,132.468903 
	C326.620422,136.613403 319.303650,140.341614 311.953339,144.002502 
	C299.356262,150.276581 291.941803,161.503311 284.677032,172.774109 
	C277.528229,183.865051 271.075867,195.419586 263.605835,206.280960 
	C260.915100,210.193237 258.884460,215.820404 252.607574,216.129974 
	C251.783081,213.663818 250.958588,211.197662 250.131317,208.366455 
z"/>
<path fill="#00B2FE" opacity="1.000000" stroke="none" 
	d="
M317.800354,94.656586 
	C306.568237,102.157082 295.307648,109.320511 284.034058,116.463432 
	C275.151794,122.091225 266.433228,128.016235 257.261566,133.126556 
	C254.192764,134.836472 249.949051,134.437759 245.816788,135.005463 
	C245.329544,126.982544 245.267899,118.957100 245.673187,110.468086 
	C248.357956,109.396606 250.729630,109.107529 252.766571,108.124687 
	C260.890137,104.205002 269.091156,100.388222 276.918854,95.928436 
	C285.614624,90.974075 293.974915,85.422272 302.375946,79.968353 
	C303.664734,79.131691 304.387299,77.422890 305.371735,76.117447 
	C309.503235,82.181862 313.634766,88.246277 317.800354,94.656586 
z"/>
<path fill="#00C0FA" opacity="1.000000" stroke="none" 
	d="
M240.827026,91.417648 
	C233.784439,88.281303 226.741852,85.144958 219.358124,81.511024 
	C219.519516,80.013771 219.773361,78.708588 220.565063,78.064247 
	C225.547836,74.008904 230.841797,70.318848 235.663589,66.087219 
	C241.465347,60.995533 247.029358,55.612968 252.450638,50.114132 
	C256.711273,45.792538 260.598938,41.103214 264.652283,36.577236 
	C272.362946,43.145889 280.073578,49.714550 287.769897,56.900848 
	C286.245697,58.784443 284.788879,60.120857 283.217194,61.304813 
	C273.777954,68.415306 264.392761,75.601868 254.820114,82.528938 
	C250.351608,85.762497 245.503235,88.471100 240.827026,91.417648 
z"/>
<path fill="#00C9F6" opacity="1.000000" stroke="none" 
	d="
M264.397766,36.333549 
	C260.598938,41.103214 256.711273,45.792538 252.450638,50.114132 
	C247.029358,55.612968 241.465347,60.995533 235.663589,66.087219 
	C230.841797,70.318848 225.547836,74.008904 220.565063,78.064247 
	C219.773361,78.708588 219.519516,80.013771 219.011658,81.362663 
	C211.600418,79.804085 204.194489,77.896278 196.442780,75.546318 
	C201.204620,70.056007 206.518066,65.196739 211.368042,59.912113 
	C217.489929,53.241577 223.547577,46.463890 229.038391,39.278133 
	C233.187973,33.847630 236.404907,27.704468 240.036926,21.878483 
	C248.072372,26.615610 256.107788,31.352736 264.397766,36.333549 
z"/>
<path fill="#03B9FC" opacity="1.000000" stroke="none" 
	d="
M241.072510,91.672058 
	C245.503235,88.471100 250.351608,85.762497 254.820114,82.528938 
	C264.392761,75.601868 273.777954,68.415306 283.217194,61.304813 
	C284.788879,60.120857 286.245697,58.784443 287.904083,57.204403 
	C293.714691,63.125195 299.376831,69.360062 305.205353,75.856186 
	C304.387299,77.422890 303.664734,79.131691 302.375946,79.968353 
	C293.974915,85.422272 285.614624,90.974075 276.918854,95.928436 
	C269.091156,100.388222 260.890137,104.205002 252.766571,108.124687 
	C250.729630,109.107529 248.357956,109.396606 245.764099,110.009048 
	C245.308502,106.272011 244.998199,102.516823 245.218231,98.792969 
	C245.413956,95.480537 244.627792,93.079094 241.072510,91.672058 
z"/>
<path fill="#01DEEB" opacity="1.000000" stroke="none" 
	d="
M164.045166,72.535614 
	C158.004761,72.693550 151.964371,72.851486 145.461823,72.950188 
	C146.794312,70.036247 148.157730,66.762444 150.456223,64.397415 
	C162.106186,52.410278 169.013397,37.462814 176.343277,22.869196 
	C179.249222,17.083492 180.171570,10.301498 181.998230,3.569361 
	C188.877014,4.521031 195.754593,5.876451 202.694519,7.898935 
	C202.452911,9.157969 202.073807,9.723625 201.856018,10.345754 
	C196.277725,26.279400 188.358200,40.860439 177.222137,53.649731 
	C173.424118,58.011600 169.855606,62.585781 166.394745,67.221596 
	C165.265320,68.734459 164.809204,70.749977 164.045166,72.535614 
z"/>
<path fill="#00D1F2" opacity="1.000000" stroke="none" 
	d="
M239.866669,21.570267 
	C236.404907,27.704468 233.187973,33.847630 229.038391,39.278133 
	C223.547577,46.463890 217.489929,53.241577 211.368042,59.912113 
	C206.518066,65.196739 201.204620,70.056007 196.051147,75.434341 
	C190.862946,75.069031 185.720581,74.373535 180.275070,73.066757 
	C180.498489,71.289795 180.803741,69.943275 181.585770,68.986389 
	C189.509583,59.290901 198.132111,50.094170 205.295929,39.872559 
	C211.094208,31.599329 215.163193,22.114109 219.999222,13.166485 
	C226.564957,15.865008 233.130676,18.563530 239.866669,21.570267 
z"/>
<path fill="#00D7EF" opacity="1.000000" stroke="none" 
	d="
M219.659058,12.994506 
	C215.163193,22.114109 211.094208,31.599329 205.295929,39.872559 
	C198.132111,50.094170 189.509583,59.290901 181.585770,68.986389 
	C180.803741,69.943275 180.498489,71.289795 179.947174,72.835938 
	C174.910126,73.039009 169.897858,72.861618 164.465363,72.609924 
	C164.809204,70.749977 165.265320,68.734459 166.394745,67.221596 
	C169.855606,62.585781 173.424118,58.011600 177.222137,53.649731 
	C188.358200,40.860439 196.277725,26.279400 201.856018,10.345754 
	C202.073807,9.723625 202.452911,9.157969 202.903351,8.229245 
	C208.472870,9.535836 213.895874,11.179182 219.659058,12.994506 
z"/>
<path fill="#009AFE" opacity="1.000000" stroke="none" 
	d="
M252.648788,216.520462 
	C258.884460,215.820404 260.915100,210.193237 263.605835,206.280960 
	C271.075867,195.419586 277.528229,183.865051 284.677032,172.774109 
	C291.941803,161.503311 299.356262,150.276581 311.953339,144.002502 
	C319.303650,140.341614 326.620422,136.613403 334.390961,132.890686 
	C335.892487,136.626373 336.955383,140.386826 337.733887,144.691956 
	C335.517273,146.209717 333.664429,147.409500 331.639801,148.119049 
	C318.621094,152.681641 307.813629,160.687012 298.899841,170.844208 
	C289.532257,181.518524 281.130798,193.047485 272.433258,204.300461 
	C267.070160,211.239365 262.195404,218.625916 253.624115,222.157257 
	C253.312759,220.408493 253.001389,218.659714 252.648788,216.520462 
z"/>
<path fill="#0092FF" opacity="1.000000" stroke="none" 
	d="
M253.680878,222.559570 
	C262.195404,218.625916 267.070160,211.239365 272.433258,204.300461 
	C281.130798,193.047485 289.532257,181.518524 298.899841,170.844208 
	C307.813629,160.687012 318.621094,152.681641 331.639801,148.119049 
	C333.664429,147.409500 335.517273,146.209717 337.779846,145.095245 
	C339.059174,148.374329 340.008118,151.794785 340.514771,155.616211 
	C329.088470,158.940125 318.457550,162.749603 309.909424,170.554169 
	C303.972290,175.974854 298.282837,181.714386 292.916748,187.700531 
	C286.626007,194.718201 281.066071,202.395813 274.706818,209.345871 
	C268.602692,216.017136 263.036591,223.477539 254.170181,227.000214 
	C254.026001,225.654114 253.881836,224.307999 253.680878,222.559570 
z"/>
<path fill="#008BFF" opacity="1.000000" stroke="none" 
	d="
M254.100983,227.413284 
	C263.036591,223.477539 268.602692,216.017136 274.706818,209.345871 
	C281.066071,202.395813 286.626007,194.718201 292.916748,187.700531 
	C298.282837,181.714386 303.972290,175.974854 309.909424,170.554169 
	C318.457550,162.749603 329.088470,158.940125 340.453003,156.009247 
	C341.214935,159.051804 341.596313,162.102295 341.905579,165.578674 
	C324.510315,168.861618 310.912140,178.812073 298.601746,190.223984 
	C287.297485,200.703232 277.439026,212.727066 266.585144,223.716370 
	C263.289276,227.053329 258.802124,229.213654 254.515808,231.957245 
	C254.124603,230.609818 254.078186,229.218094 254.100983,227.413284 
z"/>
<path fill="#071CFF" opacity="1.000000" stroke="none" 
	d="
M328.847107,266.001617 
	C320.215729,285.400909 309.403076,303.389252 294.205139,318.619751 
	C292.160828,309.932678 290.580414,301.466949 289.299683,292.856323 
	C293.895660,289.382690 298.232635,286.104279 302.461121,282.691498 
	C303.585083,281.784332 304.591492,280.582550 305.285431,279.315369 
	C310.398804,269.977905 317.314026,263.933075 328.847107,266.001617 
z"/>
<path fill="#0324FF" opacity="1.000000" stroke="none" 
	d="
M328.924316,265.626740 
	C317.314026,263.933075 310.398804,269.977905 305.285431,279.315369 
	C304.591492,280.582550 303.585083,281.784332 302.461121,282.691498 
	C298.232635,286.104279 293.895660,289.382690 288.934082,292.894318 
	C286.844208,293.384399 285.419647,293.691559 284.001770,293.614380 
	C286.338165,286.821259 288.667877,280.412445 291.185333,273.731537 
	C297.102661,267.285706 302.772522,261.054626 308.607452,254.982132 
	C309.919678,253.616501 311.830475,252.836792 313.427673,251.732376 
	C320.090881,247.124954 327.358276,246.123718 335.126862,248.037506 
	C333.085083,253.775620 331.043304,259.513733 328.924316,265.626740 
z"/>
<path fill="#3B13FF" opacity="1.000000" stroke="none" 
	d="
M180.426666,378.911133 
	C177.353180,365.426971 169.411606,354.707001 162.129471,343.649170 
	C161.217819,342.264862 160.405655,340.815063 159.237915,338.841003 
	C158.156494,336.861298 157.293610,335.477173 156.629135,334.003571 
	C154.381897,329.019867 152.205002,324.004486 150.312149,319.136536 
	C159.081863,325.514984 167.540619,331.758118 176.035675,338.352905 
	C181.715179,351.415802 187.358353,364.127014 193.001526,376.838257 
	C188.952881,377.553284 184.904221,378.268341 180.426666,378.911133 
z"/>
<path fill="#0151FF" opacity="1.000000" stroke="none" 
	d="
M238.944565,276.981689 
	C241.616180,272.857819 244.287811,268.733917 247.150085,264.307983 
	C250.977692,262.672516 254.614655,261.339111 258.623352,259.999817 
	C265.033783,255.792236 271.402161,251.986771 277.035645,247.298279 
	C286.022736,239.818771 293.926117,230.917389 303.393555,224.168549 
	C312.830414,217.441528 323.382233,212.000702 335.679321,211.954849 
	C337.791412,211.946991 339.901306,211.350021 342.423004,211.014221 
	C342.553894,212.746384 342.274017,214.489517 341.502747,216.628754 
	C339.399445,217.348236 337.774261,218.005936 336.177643,217.942719 
	C322.096741,217.385025 310.386566,223.920029 299.999023,231.905014 
	C287.992493,241.134537 277.288269,252.073273 266.186005,262.449097 
	C264.352356,264.162750 263.376251,266.794006 261.883728,269.266998 
	C261.178223,270.021851 260.592773,270.510925 259.628296,271.041504 
	C252.481018,273.049255 245.712799,275.015472 238.944565,276.981689 
z"/>
<path fill="#0138FF" opacity="1.000000" stroke="none" 
	d="
M339.833710,229.003525 
	C339.222168,232.076080 338.610626,235.148651 337.459320,238.611404 
	C330.501434,239.385452 323.939789,239.054398 317.696167,240.307678 
	C306.061768,242.643082 298.839569,251.573349 291.722687,260.067810 
	C287.634247,264.947662 284.540375,270.660767 280.786591,276.265472 
	C278.048798,278.021027 275.523163,279.509918 272.998352,280.561249 
	C272.999451,278.080841 272.999725,276.037994 273.035217,273.646118 
	C279.262482,265.811096 285.278473,258.170532 291.683777,250.871597 
	C304.401581,236.379517 320.036560,228.039963 339.833710,229.003525 
z"/>
<path fill="#0042FF" opacity="1.000000" stroke="none" 
	d="
M340.014587,228.643600 
	C320.036560,228.039963 304.401581,236.379517 291.683777,250.871597 
	C285.278473,258.170532 279.262482,265.811096 272.669708,273.685730 
	C266.514038,276.714539 260.759094,279.354828 255.042511,281.630920 
	C256.722992,277.844452 258.365143,274.422211 260.007324,271.000000 
	C260.592773,270.510925 261.178223,270.021851 262.236206,269.232513 
	C268.083038,265.169495 273.840302,261.840881 278.728760,257.527588 
	C284.122223,252.768692 288.457214,246.828110 293.713531,241.892395 
	C306.996948,229.419189 322.440247,221.778946 341.121307,222.036758 
	C340.812714,224.119064 340.504089,226.201370 340.014587,228.643600 
z"/>
<path fill="#3415FF" opacity="1.000000" stroke="none" 
	d="
M193.404953,376.908691 
	C187.358353,364.127014 181.715179,351.415802 176.294983,338.245667 
	C177.012527,337.524536 177.507065,337.262268 178.355133,337.034637 
	C180.357178,338.096893 182.006882,339.122620 183.654053,340.152405 
	C189.436310,343.767517 195.217682,347.384033 201.035278,351.350952 
	C201.592239,352.515717 202.208664,353.284332 202.619064,354.150543 
	C205.451218,360.128448 208.240372,366.126770 211.043365,372.118500 
	C205.298370,373.738678 199.553375,375.358887 193.404953,376.908691 
z"/>
<path fill="#2C1AFF" opacity="1.000000" stroke="none" 
	d="
M211.436646,372.066345 
	C208.240372,366.126770 205.451218,360.128448 202.619064,354.150543 
	C202.208664,353.284332 201.592239,352.515717 201.035477,350.913361 
	C200.666946,345.750275 200.334091,341.375732 200.353409,337.036987 
	C205.902084,340.245911 211.013596,343.571930 216.330566,346.528442 
	C219.029053,348.028931 222.097946,348.863281 225.139252,350.317505 
	C228.147141,354.882965 231.015182,359.129700 233.883209,363.376434 
	C226.532104,366.255707 219.181015,369.134979 211.436646,372.066345 
z"/>
<path fill="#221EFF" opacity="1.000000" stroke="none" 
	d="
M234.177155,363.217041 
	C231.015182,359.129700 228.147141,354.882965 225.138214,349.892914 
	C224.331741,343.433472 223.666183,337.717346 223.376648,332.042419 
	C229.168442,333.389069 234.584229,334.694519 240.144638,336.299896 
	C244.540573,342.106110 248.791870,347.612427 253.043167,353.118744 
	C246.852478,356.431702 240.661789,359.744690 234.177155,363.217041 
z"/>
<path fill="#012DFF" opacity="1.000000" stroke="none" 
	d="
M280.998779,275.998779 
	C284.540375,270.660767 287.634247,264.947662 291.722687,260.067810 
	C298.839569,251.573349 306.061768,242.643082 317.696167,240.307678 
	C323.939789,239.054398 330.501434,239.385452 337.377197,239.003067 
	C337.155396,241.892456 336.475983,244.780365 335.461731,247.852905 
	C327.358276,246.123718 320.090881,247.124954 313.427673,251.732376 
	C311.830475,252.836792 309.919678,253.616501 308.607452,254.982132 
	C302.772522,261.054626 297.102661,267.285706 290.795532,273.737427 
	C287.144928,274.676544 284.071838,275.337677 280.998779,275.998779 
z"/>
<path fill="#0D21FF" opacity="1.000000" stroke="none" 
	d="
M283.995056,293.998749 
	C285.419647,293.691559 286.844208,293.384399 288.634399,293.039246 
	C290.580414,301.466949 292.160828,309.932678 293.893250,318.755005 
	C292.112152,321.464569 290.179047,323.817505 287.642853,326.134583 
	C280.360260,321.066193 273.680725,316.033722 267.001160,310.613525 
	C267.333221,308.483887 267.665375,306.741943 268.310638,304.863586 
	C273.747498,301.151062 278.871277,297.574921 283.995056,293.998749 
z"/>
<path fill="#1A20FF" opacity="1.000000" stroke="none" 
	d="
M253.400986,353.061707 
	C248.791870,347.612427 244.540573,342.106110 240.179138,335.946503 
	C240.975372,333.767273 241.899063,332.251251 242.783691,330.712799 
	C243.872803,328.818726 244.929367,326.905914 246.431763,325.000793 
	C250.242355,324.667297 253.621170,324.334259 257.146606,324.302673 
	C261.544342,330.107330 265.795502,335.610535 270.046631,341.113708 
	C264.617340,345.077362 259.188080,349.040985 253.400986,353.061707 
z"/>
<path fill="#1220FF" opacity="1.000000" stroke="none" 
	d="
M270.398315,341.058716 
	C265.795502,335.610535 261.544342,330.107330 257.282074,323.991394 
	C260.514374,319.252808 263.757782,315.127014 267.001221,311.001221 
	C273.680725,316.033722 280.360260,321.066193 287.378723,326.328125 
	C282.061798,331.372955 276.405884,336.188354 270.398315,341.058716 
z"/>
<path fill="#014AFF" opacity="1.000000" stroke="none" 
	d="
M341.458496,221.843948 
	C322.440247,221.778946 306.996948,229.419189 293.713531,241.892395 
	C288.457214,246.828110 284.122223,252.768692 278.728760,257.527588 
	C273.840302,261.840881 268.083038,265.169495 262.356323,268.966736 
	C263.376251,266.794006 264.352356,264.162750 266.186005,262.449097 
	C277.288269,252.073273 287.992493,241.134537 299.999023,231.905014 
	C310.386566,223.920029 322.096741,217.385025 336.177643,217.942719 
	C337.774261,218.005936 339.399445,217.348236 341.422913,217.013489 
	C341.821503,218.551819 341.808594,220.101471 341.458496,221.843948 
z"/>
<path fill="#4513FE" opacity="1.000000" stroke="none" 
	d="
M150.001190,319.001221 
	C152.205002,324.004486 154.381897,329.019867 156.629135,334.003571 
	C157.293610,335.477173 158.156494,336.861298 158.963608,338.643219 
	C151.570099,335.356842 144.141418,331.713684 136.357285,328.035248 
	C131.019318,321.445190 126.036804,314.890350 121.053101,307.950928 
	C128.128891,308.195190 135.205887,308.824097 142.670425,310.025024 
	C145.372375,313.398468 147.686783,316.199829 150.001190,319.001221 
z"/>
<path fill="#02F1D8" opacity="1.000000" stroke="none" 
	d="
M58.000763,89.999390 
	C58.000538,86.969147 58.000313,83.938896 58.000198,80.454636 
	C62.073063,79.364182 66.145821,78.727760 70.609589,78.045059 
	C76.441849,75.711838 81.911728,73.489891 87.312309,71.110680 
	C90.033188,69.912010 92.628365,68.428040 95.640190,67.036690 
	C97.000031,70.064400 98.000061,73.128502 99.000351,76.595688 
	C98.750473,77.802650 98.500328,78.606522 97.754684,79.745262 
	C91.724220,82.070358 86.307640,84.546921 80.624924,85.930107 
	C73.193649,87.738907 65.551941,88.683189 58.000763,89.999390 
z"/>
<path fill="#05EAD9" opacity="1.000000" stroke="none" 
	d="
M57.616013,90.043854 
	C65.551941,88.683189 73.193649,87.738907 80.624924,85.930107 
	C86.307640,84.546921 91.724220,82.070358 97.629135,80.040291 
	C98.307480,81.424919 98.615875,82.849388 98.962891,84.639481 
	C92.577744,89.596718 86.153969,94.188332 79.429703,98.919449 
	C73.719246,99.040527 68.309288,99.022110 62.450684,99.004852 
	C55.829548,96.855507 49.657059,94.705002 43.242622,92.277695 
	C46.142166,91.557556 49.282276,91.104141 52.425716,90.675087 
	C54.024479,90.456871 55.629223,90.282501 57.616013,90.043854 
z"/>
<path fill="#296DF6" opacity="1.000000" stroke="none" 
	d="
M83.135101,200.803833 
	C92.872704,205.085907 102.113602,209.441940 111.679482,214.359528 
	C112.004326,215.947189 112.004189,216.973282 111.595413,217.990967 
	C101.458763,215.988373 91.730759,213.994186 82.002747,212.000000 
	C76.224800,209.763794 70.446854,207.527588 64.334030,205.145386 
	C65.299995,203.559174 66.600830,202.118942 67.950226,200.339966 
	C72.878654,200.293411 77.758522,200.585602 83.135101,200.803833 
z"/>
<path fill="#2465FC" opacity="1.000000" stroke="none" 
	d="
M82.002045,212.250458 
	C91.730759,213.994186 101.458763,215.988373 111.964203,218.030792 
	C124.544235,224.599625 136.478836,230.896927 148.082382,237.754333 
	C152.523041,240.378677 156.206848,244.283661 160.235550,247.605057 
	C155.462311,247.672699 150.689072,247.740326 145.402893,247.395996 
	C143.348297,245.536957 142.005829,243.753357 140.229828,242.702194 
	C133.256317,238.574860 126.399597,234.104919 119.021194,230.844696 
	C110.273758,226.979568 101.033234,224.230392 92.006409,220.997559 
	C90.167236,219.427628 88.393005,217.771683 86.466675,216.317184 
	C85.123184,215.302734 83.571236,214.564346 82.056046,213.352234 
	C82.000252,212.834854 82.000801,212.667892 82.002045,212.250458 
z"/>
<path fill="#2C5AFB" opacity="1.000000" stroke="none" 
	d="
M91.584564,220.997192 
	C101.033234,224.230392 110.273758,226.979568 119.021194,230.844696 
	C126.399597,234.104919 133.256317,238.574860 140.229828,242.702194 
	C142.005829,243.753357 143.348297,245.536957 144.947205,247.304688 
	C139.262283,246.772247 133.520111,245.919144 127.341797,244.612366 
	C126.676323,243.726379 126.557114,243.066910 126.201698,242.894577 
	C113.158096,236.570343 100.076408,230.324539 87.041962,223.981628 
	C83.951424,222.477692 81.009338,220.668686 77.998970,219.000000 
	C82.386887,219.665619 86.774796,220.331223 91.584564,220.997192 
z"/>
<path fill="#3359F3" opacity="1.000000" stroke="none" 
	d="
M77.536118,219.000000 
	C81.009338,220.668686 83.951424,222.477692 87.041962,223.981628 
	C100.076408,230.324539 113.158096,236.570343 126.201698,242.894577 
	C126.557114,243.066910 126.676323,243.726379 126.953041,244.499817 
	C105.421211,239.579163 84.357079,233.072571 65.973892,219.368317 
	C69.556702,219.049347 73.314987,219.024673 77.536118,219.000000 
z"/>
<path fill="#05B3F9" opacity="1.000000" stroke="none" 
	d="
M192.825867,139.401611 
	C187.161804,144.201355 181.244934,148.869934 175.189774,153.351654 
	C172.302475,155.488708 169.152283,157.270584 166.063217,159.548904 
	C156.560562,157.226959 147.115891,154.569458 137.774414,151.509796 
	C141.019363,149.727646 144.253876,148.524246 147.284409,146.932480 
	C154.575241,143.102997 161.770477,139.091522 169.004288,135.153473 
	C176.841629,136.500229 184.678955,137.846985 192.825867,139.401611 
z"/>
<path fill="#2E28FF" opacity="1.000000" stroke="none" 
	d="
M158.980362,309.931213 
	C167.982285,308.750031 176.984222,307.568848 186.465210,306.747650 
	C191.206619,310.857178 195.432632,314.649170 199.744644,318.340729 
	C202.428787,320.638611 205.242966,322.784607 207.747742,325.278687 
	C203.331131,327.371613 199.165573,329.184601 194.628433,330.957642 
	C186.838928,327.944366 179.420990,324.970947 171.703018,321.852753 
	C168.000610,318.980682 164.526505,316.335876 161.238632,313.476929 
	C160.224762,312.595337 159.718857,311.129517 158.980362,309.931213 
z"/>
<path fill="#1E76FD" opacity="1.000000" stroke="none" 
	d="
M137.995651,221.115540 
	C149.157776,224.019012 160.359833,226.780487 171.460571,229.902237 
	C175.399109,231.009827 179.955673,232.508987 179.881470,237.709702 
	C179.801971,243.280350 175.122299,244.674850 170.332916,245.609360 
	C168.604950,243.817566 167.508926,242.057144 165.933075,241.040375 
	C157.915680,235.867310 149.714111,230.978531 141.726944,225.760712 
	C140.146255,224.728058 139.222412,222.689972 137.995651,221.115540 
z"/>
<path fill="#1E6CFD" opacity="1.000000" stroke="none" 
	d="
M137.640228,220.958725 
	C139.222412,222.689972 140.146255,224.728058 141.726944,225.760712 
	C149.714111,230.978531 157.915680,235.867310 165.933075,241.040375 
	C167.508926,242.057144 168.604950,243.817566 169.959564,245.576202 
	C167.026062,246.468948 164.055298,247.020508 160.660034,247.588562 
	C156.206848,244.283661 152.523041,240.378677 148.082382,237.754333 
	C136.478836,230.896927 124.544235,224.599625 112.372841,218.039200 
	C112.004189,216.973282 112.004326,215.947189 112.005928,214.536469 
	C120.433197,216.368530 128.858994,218.585220 137.640228,220.958725 
z"/>
<path fill="#1F34FF" opacity="1.000000" stroke="none" 
	d="
M198.009186,303.304718 
	C201.692642,301.859375 205.376099,300.414001 209.783539,299.090210 
	C216.671692,300.474548 222.835846,301.737274 229.037537,303.349976 
	C232.049744,306.132507 235.024429,308.565033 237.849274,311.297668 
	C236.466507,313.065247 235.233551,314.532776 233.577103,316.000122 
	C230.101578,316.333710 227.049576,316.667480 223.677856,316.859924 
	C218.101181,314.391174 212.733368,312.279816 207.626251,309.660278 
	C204.227982,307.917206 201.201874,305.448578 198.009186,303.304718 
z"/>
<path fill="#262EFF" opacity="1.000000" stroke="none" 
	d="
M197.650238,303.357483 
	C201.201874,305.448578 204.227982,307.917206 207.626251,309.660278 
	C212.733368,312.279816 218.101181,314.391174 223.629761,317.196533 
	C221.267609,320.449646 218.633804,323.224823 215.592224,325.999146 
	C212.789200,325.665131 210.393997,325.331940 207.998779,324.998779 
	C205.242966,322.784607 202.428787,320.638611 199.744644,318.340729 
	C195.432632,314.649170 191.206619,310.857178 186.900620,306.710815 
	C190.335068,305.346039 193.813171,304.378143 197.650238,303.357483 
z"/>
<path fill="#3B1CFE" opacity="1.000000" stroke="none" 
	d="
M158.524414,309.825867 
	C159.718857,311.129517 160.224762,312.595337 161.238632,313.476929 
	C164.526505,316.335876 168.000610,318.980682 171.707123,322.231140 
	C174.008057,327.502869 176.004837,332.251434 178.001617,337.000000 
	C177.507065,337.262268 177.012527,337.524536 176.258682,337.894043 
	C167.540619,331.758118 159.081863,325.514984 150.312149,319.136536 
	C147.686783,316.199829 145.372375,313.398468 143.027985,310.233704 
	C148.021500,309.820374 153.044998,309.770447 158.524414,309.825867 
z"/>
<path fill="#0AB9F5" opacity="1.000000" stroke="none" 
	d="
M168.585403,135.070297 
	C161.770477,139.091522 154.575241,143.102997 147.284409,146.932480 
	C144.253876,148.524246 141.019363,149.727646 137.473068,151.269653 
	C131.843948,148.170563 131.120056,142.637878 136.549759,139.767883 
	C142.069122,136.850479 148.552261,135.374893 154.791245,134.331940 
	C159.092941,133.612808 163.697372,134.704636 168.585403,135.070297 
z"/>
<path fill="#1048FF" opacity="1.000000" stroke="none" 
	d="
M259.628296,271.041504 
	C258.365143,274.422211 256.722992,277.844452 254.846436,281.905182 
	C250.407806,285.029114 246.203598,287.514557 241.535095,290.000000 
	C236.276764,289.614136 231.482727,289.228271 226.688690,288.842407 
	C230.561035,284.964783 234.433380,281.087189 238.625153,277.095642 
	C245.712799,275.015472 252.481018,273.049255 259.628296,271.041504 
z"/>
<path fill="#193FFF" opacity="1.000000" stroke="none" 
	d="
M226.359299,288.914551 
	C231.482727,289.228271 236.276764,289.614136 241.573608,290.365326 
	C242.384079,292.154175 242.691742,293.577698 242.691727,295.151306 
	C237.922699,297.867584 233.461349,300.433807 229.000000,303.000000 
	C222.835846,301.737274 216.671692,300.474548 210.145538,299.051575 
	C215.198990,295.589813 220.614456,292.288269 226.359299,288.914551 
z"/>
<path fill="#0E2FFF" opacity="1.000000" stroke="none" 
	d="
M284.001770,293.614380 
	C278.871277,297.574921 273.747498,301.151062 267.872986,304.863586 
	C261.748383,305.666229 256.374481,306.332489 251.005096,306.626312 
	C252.673050,302.169647 254.336517,298.085449 256.310974,293.865356 
	C262.080505,289.485931 267.539032,285.242371 272.997559,280.998779 
	C275.523163,279.509918 278.048798,278.021027 280.786591,276.265472 
	C284.071838,275.337677 287.144928,274.676544 290.607788,274.009552 
	C288.667877,280.412445 286.338165,286.821259 284.001770,293.614380 
z"/>
<path fill="#0C3BFF" opacity="1.000000" stroke="none" 
	d="
M272.998352,280.561249 
	C267.539032,285.242371 262.080505,289.485931 255.891830,293.874512 
	C251.107590,294.346741 247.053482,294.673981 242.999390,295.001221 
	C242.691742,293.577698 242.384079,292.154175 242.037903,290.365326 
	C246.203598,287.514557 250.407806,285.029114 254.808090,282.269409 
	C260.759094,279.354828 266.514038,276.714539 272.634491,274.034698 
	C272.999725,276.037994 272.999451,278.080841 272.998352,280.561249 
z"/>
<path fill="#331CFF" opacity="1.000000" stroke="none" 
	d="
M178.355133,337.034637 
	C176.004837,332.251434 174.008057,327.502869 172.007172,322.375916 
	C179.420990,324.970947 186.838928,327.944366 194.818359,331.228210 
	C196.920319,333.359497 198.460770,335.180359 200.001221,337.001221 
	C200.334091,341.375732 200.666946,345.750275 200.999603,350.562378 
	C195.217682,347.384033 189.436310,343.767517 183.654053,340.152405 
	C182.006882,339.122620 180.357178,338.096893 178.355133,337.034637 
z"/>
<path fill="#2921FF" opacity="1.000000" stroke="none" 
	d="
M200.353394,337.036987 
	C198.460770,335.180359 196.920319,333.359497 195.189941,331.268097 
	C199.165573,329.184601 203.331131,327.371613 207.747742,325.278687 
	C210.393997,325.331940 212.789200,325.665131 215.642410,326.339874 
	C218.400467,328.454681 220.700546,330.227966 223.000610,332.001221 
	C223.666183,337.717346 224.331741,343.433472 224.998352,349.574188 
	C222.097946,348.863281 219.029053,348.028931 216.330566,346.528442 
	C211.013596,343.571930 205.902084,340.245911 200.353394,337.036987 
z"/>
<path fill="#1F26FF" opacity="1.000000" stroke="none" 
	d="
M223.376648,332.042419 
	C220.700546,330.227966 218.400467,328.454681 216.050201,326.340698 
	C218.633804,323.224823 221.267609,320.449646 223.949478,317.337830 
	C227.049576,316.667480 230.101578,316.333710 233.880554,316.147583 
	C238.404999,319.197205 242.202499,322.099213 246.000000,325.001221 
	C244.929367,326.905914 243.872803,328.818726 242.783691,330.712799 
	C241.899063,332.251251 240.975372,333.767273 240.034515,335.646606 
	C234.584229,334.694519 229.168442,333.389069 223.376648,332.042419 
z"/>
<path fill="#1629FF" opacity="1.000000" stroke="none" 
	d="
M246.431763,325.000793 
	C242.202499,322.099213 238.404999,319.197205 234.304047,316.147736 
	C235.233551,314.532776 236.466507,313.065247 238.221390,311.258179 
	C242.829086,309.611969 246.914856,308.305389 251.000610,306.998779 
	C256.374481,306.332489 261.748383,305.666229 267.559906,305.000000 
	C267.665375,306.741943 267.333221,308.483887 267.001129,310.613525 
	C263.757782,315.127014 260.514374,319.252808 257.135468,323.689941 
	C253.621170,324.334259 250.242355,324.667297 246.431763,325.000793 
z"/>
<path fill="#1535FF" opacity="1.000000" stroke="none" 
	d="
M251.005096,306.626343 
	C246.914856,308.305389 242.829086,309.611969 238.371216,310.958069 
	C235.024429,308.565033 232.049744,306.132507 229.037537,303.349976 
	C233.461349,300.433807 237.922699,297.867584 242.691727,295.151306 
	C247.053482,294.673981 251.107590,294.346741 255.580841,294.010376 
	C254.336517,298.085449 252.673050,302.169647 251.005096,306.626343 
z"/>
</svg>