<svg version="1.1" id="Layer_1" xmlns="http://www.w3.org/2000/svg" xmlns:xlink="http://www.w3.org/1999/xlink" x="0px" y="0px"
	 width="100%" viewBox="0 0 1000 1000" enable-background="new 0 0 1000 1000" xml:space="preserve">
<path fill="#FFFFFF" opacity="1.000000" stroke="none" 
	d="
M927.000000,1001.000000 
	C618.000000,1001.000000 309.500000,1001.000000 1.000000,1001.000000 
	C1.000000,667.666687 1.000000,334.333344 1.000000,1.000000 
	C334.333344,1.000000 667.666687,1.000000 1001.000000,1.000000 
	C1001.000000,334.333344 1001.000000,667.666687 1001.000000,1001.000000 
	C976.500000,1001.000000 952.000000,1001.000000 927.000000,1001.000000 
M49.018402,509.916748 
	C49.088146,515.201721 49.018448,520.493042 49.259171,525.770203 
	C49.654503,534.436584 50.251190,543.093811 51.709106,551.967896 
	C62.669041,551.981323 73.632629,551.841919 84.586624,552.103882 
	C87.769524,552.179871 89.243805,550.942810 90.676460,548.390381 
	C97.323090,536.548645 104.146912,524.806396 111.182121,513.849915 
	C111.514214,518.224243 111.846313,522.598572 112.061859,527.902283 
	C112.432884,535.534424 112.803902,543.166504 113.328033,551.667114 
	C120.967735,551.768250 128.610275,551.772034 136.246429,551.994507 
	C146.432465,552.291321 153.535782,547.822021 158.524918,538.976074 
	C172.797348,513.670227 187.321548,488.506439 201.732376,463.278564 
	C204.506119,458.422791 207.214661,453.529785 210.321579,447.998260 
	C199.008957,447.998260 188.421173,448.210785 177.849106,447.895386 
	C173.517426,447.766205 171.058533,448.944550 168.896820,452.935028 
	C162.656204,464.455170 155.841324,475.664215 149.140472,486.051575 
	C148.995956,478.416870 149.005249,470.775085 148.652359,463.150024 
	C148.420700,458.144714 147.665863,453.163574 146.199524,448.027100 
	C135.377853,448.018005 124.554131,448.122162 113.735840,447.926514 
	C110.727982,447.872101 109.061424,448.687683 107.543831,451.428406 
	C100.948029,463.340240 94.051628,475.085632 87.001305,486.013123 
	C86.632538,475.625671 86.297607,465.236847 85.867821,454.851929 
	C85.776566,452.647095 85.339302,450.456543 84.140442,448.034973 
	C75.660843,448.022034 67.174149,448.219757 58.703716,447.934540 
	C50.846272,447.670044 45.424179,451.054871 41.629364,457.708496 
	C37.192188,465.488464 32.615341,473.188629 28.122139,480.936798 
	C25.407999,485.617157 22.737680,490.322906 19.659000,495.695526 
	C29.529985,495.695526 38.587269,495.695526 47.702995,495.695526 
	C48.082897,497.538605 48.378605,498.973206 48.749596,501.434784 
	C48.887291,503.952423 49.024986,506.470093 49.018402,509.916748 
M680.039185,521.460449 
	C679.261841,524.817505 678.484558,528.174500 677.548645,532.216248 
	C670.877258,504.288452 664.401917,477.181366 657.957031,450.201874 
	C652.841187,450.201874 648.212341,450.201874 643.294617,450.201874 
	C651.652893,483.661285 659.944641,516.854187 668.231201,550.026489 
	C673.888184,550.026489 679.183777,550.026489 684.778381,550.026489 
	C691.536438,524.604492 698.275391,499.254333 705.203369,473.193390 
	C711.181274,495.611664 716.904419,517.126892 722.658997,538.633667 
	C725.763123,550.234497 725.789246,550.098938 737.606689,550.267822 
	C740.979736,550.315979 742.424438,549.574097 743.312988,545.993774 
	C747.636536,528.573364 752.386230,511.258972 756.951294,493.898224 
	C760.751587,479.446167 764.505127,464.981873 768.358948,450.218262 
	C763.369995,450.218262 758.765930,450.218262 753.718079,450.218262 
	C746.950745,477.019836 740.167236,503.885712 733.219971,531.399963 
	C726.003174,504.029602 718.910461,477.129944 711.807312,450.190582 
	C707.470581,450.190582 703.357483,450.190582 699.156921,450.190582 
	C692.812744,473.785492 686.512329,497.217743 680.039185,521.460449 
M771.275085,484.009644 
	C770.893677,484.941803 769.937073,486.148224 770.228516,486.759460 
	C771.625427,489.688934 773.360107,492.457367 774.974792,495.283020 
	C775.036926,494.699646 775.099060,494.116302 775.161194,493.532959 
	C781.978821,491.883484 788.737244,489.224213 795.627869,488.820587 
	C806.032898,488.211182 810.923340,494.168823 810.445984,505.287384 
	C808.669556,505.287384 806.865723,505.214294 805.069336,505.299438 
	C794.742737,505.788757 784.430969,506.422760 775.177856,511.802521 
	C767.323792,516.368835 763.931641,523.290955 764.690186,532.275574 
	C765.441711,541.177063 770.344177,546.946655 778.492737,550.111267 
	C789.682129,554.456848 800.954285,551.701599 808.784119,542.691162 
	C809.487366,541.881897 809.656799,540.608704 810.074097,539.550964 
	C810.657043,539.977600 811.239929,540.404236 811.822876,540.830811 
	C811.822876,543.933167 811.822876,547.035522 811.822876,550.137817 
	C816.325012,550.137817 820.364563,550.137817 824.118896,550.137817 
	C824.118896,532.942566 824.631165,516.126831 823.943726,499.360260 
	C823.463745,487.653351 816.045593,480.201965 804.514038,477.829590 
	C792.928528,475.446106 782.068115,477.629578 771.275085,484.009644 
M879.849426,532.627991 
	C875.745605,528.002258 873.461426,522.718994 873.722534,516.125183 
	C882.469482,516.125183 890.949585,516.125122 899.429688,516.125122 
	C908.021912,516.125122 916.614075,516.125183 925.054443,516.125183 
	C929.738831,494.049805 914.991760,476.117218 893.376770,476.797913 
	C872.234497,477.463715 857.912415,494.191010 859.037354,516.903992 
	C859.778564,531.869080 869.088928,544.545898 882.967407,549.486572 
	C897.076904,554.509460 915.562378,550.804016 924.381042,541.030396 
	C922.654480,537.974792 920.892517,534.856567 919.115356,531.711365 
	C903.089966,542.288818 891.467834,542.626221 879.849426,532.627991 
M955.459717,551.850952 
	C957.441528,551.636658 959.439270,551.518494 961.402466,551.192078 
	C972.270569,549.384949 979.552246,542.910156 980.879700,533.944763 
	C982.244568,524.727173 977.859558,517.473938 967.443359,512.377991 
	C961.933594,509.682526 956.141113,507.568695 950.600708,504.930969 
	C946.887695,503.163239 943.471863,500.734772 944.536987,495.814606 
	C945.589050,490.954681 949.473022,489.437866 953.856201,488.987427 
	C961.155579,488.237274 967.618896,490.493439 973.653503,495.051392 
	C975.552917,491.625336 977.380188,488.329285 979.161438,485.116425 
	C968.896790,475.525757 949.533752,474.101776 938.525757,481.885712 
	C927.932434,489.376404 927.429443,504.438293 937.980225,512.049072 
	C942.622437,515.397644 948.234070,517.400574 953.400330,520.024780 
	C956.941650,521.823547 960.774841,523.228821 963.939636,525.545044 
	C968.659729,528.999512 968.207092,535.003601 963.127136,537.887390 
	C960.916138,539.142578 958.152832,539.814209 955.588989,539.986389 
	C947.518494,540.528564 940.901794,536.738586 934.653320,531.858154 
	C932.386536,535.139038 930.320374,538.129578 928.145142,541.277954 
	C935.681091,548.473999 944.614441,551.388672 955.459717,551.850952 
M835.454590,478.499756 
	C835.456787,495.801636 835.302063,513.105408 835.507874,530.404846 
	C835.692200,545.899902 844.214172,553.003723 858.966309,550.182007 
	C858.966309,546.312317 858.966309,542.399780 858.966309,538.508789 
	C850.987488,537.770020 849.384583,536.147766 849.310242,527.673462 
	C849.170105,511.703735 849.260681,495.731964 849.257324,479.761017 
	C849.255249,469.962677 849.256897,460.164337 849.256897,450.301819 
	C844.534119,450.301819 840.156067,450.301819 835.454773,450.301819 
	C835.454773,459.577332 835.454773,468.538544 835.454590,478.499756 
M458.081146,540.590027 
	C449.265198,534.023499 445.778534,525.040894 445.715057,513.900269 
	C464.729309,513.900269 483.300079,513.900269 501.795471,513.900269 
	C505.996704,489.367676 485.378510,471.648895 462.283783,479.538635 
	C449.988098,483.739166 442.790375,492.687134 440.296173,505.101990 
	C437.403625,519.499634 440.097015,532.700317 451.513000,542.912292 
	C465.386871,555.322998 489.460205,554.597534 500.935638,541.545959 
	C499.911957,540.153809 498.865204,538.730286 497.815674,537.302917 
	C484.091034,547.705688 471.835602,548.790527 458.081146,540.590027 
M635.759094,487.858856 
	C632.499512,481.667542 626.976074,478.889465 620.378784,478.178162 
	C607.397095,476.778534 596.891785,481.338898 589.074158,491.876099 
	C588.179688,493.081757 587.370911,494.350952 586.009277,496.340424 
	C586.009277,480.660309 586.009277,466.018219 586.009277,451.235382 
	C584.104736,451.235382 582.341064,451.235382 580.357910,451.235382 
	C580.357910,484.202118 580.357910,516.946655 580.357910,549.945862 
	C582.205261,549.945862 583.968750,549.945862 586.143005,549.945862 
	C586.143005,538.247009 586.072571,526.621155 586.161987,514.996582 
	C586.260010,502.270844 591.658264,492.447510 603.040466,486.531799 
	C619.904602,477.766968 632.765747,485.516479 632.957275,504.414612 
	C633.095642,518.071838 633.002014,531.731445 633.011475,545.389954 
	C633.012695,547.154663 633.011658,548.919434 633.011658,550.658936 
	C635.321228,550.658936 636.932495,550.658936 638.664307,550.658936 
	C638.664307,533.016602 638.794861,515.572693 638.545959,498.134277 
	C638.500183,494.928833 636.915100,491.745331 635.759094,487.858856 
M325.290771,550.196167 
	C325.879120,548.936218 326.960907,547.683167 326.978455,546.415283 
	C327.130615,535.422424 326.869720,524.420898 327.161957,513.433472 
	C327.587463,497.436035 339.036285,485.120117 354.515350,483.542999 
	C365.176453,482.456757 371.385712,487.063263 373.204102,497.562714 
	C373.656189,500.172943 373.896820,502.850159 373.918518,505.499207 
	C374.005981,516.160217 373.970612,526.822205 373.978363,537.483826 
	C373.981476,541.751953 373.978851,546.020020 373.978851,550.596375 
	C376.217377,550.476440 377.806854,550.391296 378.982269,550.328308 
	C378.982269,531.840637 379.474792,513.720520 378.783264,495.645721 
	C378.414001,485.994080 372.366760,479.830475 363.472778,478.441650 
	C358.651184,477.688721 353.456635,477.867188 348.650421,478.781921 
	C339.214691,480.577820 332.543060,486.682983 326.824585,496.093201 
	C326.824585,489.501617 326.824585,484.474731 326.824585,479.386017 
	C324.718323,479.386017 323.130615,479.386017 321.632141,479.386017 
	C321.408447,479.927246 321.178223,480.224701 321.177673,480.522583 
	C321.135651,502.844025 321.159973,525.165833 321.027008,547.486633 
	C321.009918,550.354187 322.524414,550.307861 325.290771,550.196167 
M246.985962,488.469360 
	C246.985962,478.028717 246.985962,467.588074 246.985962,456.667664 
	C261.931244,456.667664 276.335754,456.667664 290.697449,456.667664 
	C290.697449,454.579437 290.697449,452.982483 290.697449,451.202637 
	C274.013397,451.202637 257.578827,451.202637 241.037994,451.202637 
	C241.037994,484.309570 241.037994,517.244507 241.037994,550.292480 
	C243.035965,550.292480 244.797668,550.292480 247.001266,550.292480 
	C247.001266,534.808777 247.001266,519.568604 247.001266,503.816711 
	C259.835846,503.816711 272.236511,503.816711 284.907043,503.816711 
	C284.800201,501.689545 284.720184,500.096191 284.613190,497.965942 
	C271.929565,497.965942 259.547668,497.965942 246.985962,497.965942 
	C246.985962,494.761414 246.985962,492.110748 246.985962,488.469360 
M374.042358,451.012878 
	C373.041382,452.664337 372.040436,454.315826 370.345764,457.111786 
	C384.401978,457.111786 396.474243,457.111786 408.988831,457.111786 
	C408.988831,488.482117 408.988831,519.387146 408.988831,550.580078 
	C411.215118,550.480835 412.967896,550.402710 415.123962,550.306580 
	C415.123962,518.940186 415.123962,488.026642 415.123962,456.693604 
	C427.469025,456.693604 439.392761,456.693604 451.322174,456.693604 
	C451.322174,454.565430 451.322174,452.868958 451.322174,451.011841 
	C425.591156,451.011841 400.266113,451.011841 374.042358,451.012878 
M566.764709,538.027100 
	C559.944092,544.094421 551.957520,546.610107 542.877136,546.136108 
	C526.567932,545.284607 514.861389,532.408875 514.845703,515.150513 
	C514.829834,497.775848 526.348633,484.898956 542.573181,483.829193 
	C551.872192,483.216064 559.722290,486.442200 566.847046,492.483307 
	C568.136963,490.692413 569.178650,489.246277 570.186829,487.846527 
	C557.197815,473.992157 532.557068,474.375641 518.767334,488.427521 
	C504.256622,503.214142 505.142029,529.479370 520.612244,543.156860 
	C535.024170,555.898682 560.289124,554.742798 572.268921,539.879517 
	C570.509766,539.037781 568.912415,538.273438 566.764709,538.027100 
M299.718567,543.277466 
	C299.718567,545.534241 299.718567,547.791016 299.718567,550.281189 
	C302.128906,550.160889 303.889069,550.072998 305.371277,549.999023 
	C305.371277,526.126526 305.371277,502.752960 305.371277,479.306732 
	C303.357513,479.306732 301.728821,479.306732 299.718689,479.306732 
	C299.718689,500.437317 299.718689,521.383240 299.718567,543.277466 
M302.454651,461.338257 
	C303.719879,461.220520 304.985138,461.102783 306.180786,460.991516 
	C306.180786,457.510773 306.180786,454.399353 306.180786,451.401520 
	C303.696442,451.401520 301.474274,451.401520 299.093719,451.401520 
	C299.093719,454.106140 298.845917,456.465881 299.209442,458.727386 
	C299.366058,459.701752 300.788605,460.472656 302.454651,461.338257 
z"/>
<path fill="#222234" opacity="1.000000" stroke="none" 
	d="
M680.125549,521.055176 
	C686.512329,497.217743 692.812744,473.785492 699.156921,450.190582 
	C703.357483,450.190582 707.470581,450.190582 711.807312,450.190582 
	C718.910461,477.129944 726.003174,504.029602 733.219971,531.399963 
	C740.167236,503.885712 746.950745,477.019836 753.718079,450.218262 
	C758.765930,450.218262 763.369995,450.218262 768.358948,450.218262 
	C764.505127,464.981873 760.751587,479.446167 756.951294,493.898224 
	C752.386230,511.258972 747.636536,528.573364 743.312988,545.993774 
	C742.424438,549.574097 740.979736,550.315979 737.606689,550.267822 
	C725.789246,550.098938 725.763123,550.234497 722.658997,538.633667 
	C716.904419,517.126892 711.181274,495.611664 705.203369,473.193390 
	C698.275391,499.254333 691.536438,524.604492 684.778381,550.026489 
	C679.183777,550.026489 673.888184,550.026489 668.231201,550.026489 
	C659.944641,516.854187 651.652893,483.661285 643.294617,450.201874 
	C648.212341,450.201874 652.841187,450.201874 657.957031,450.201874 
	C664.401917,477.181366 670.877258,504.288452 677.548645,532.216248 
	C678.484558,528.174500 679.261841,524.817505 680.125549,521.055176 
z"/>
<path fill="#01E6C7" opacity="1.000000" stroke="none" 
	d="
M149.251984,486.995422 
	C155.841324,475.664215 162.656204,464.455170 168.896820,452.935028 
	C171.058533,448.944550 173.517426,447.766205 177.849106,447.895386 
	C188.421173,448.210785 199.008957,447.998260 210.321579,447.998260 
	C207.214661,453.529785 204.506119,458.422791 201.732376,463.278564 
	C187.321548,488.506439 172.797348,513.670227 158.524918,538.976074 
	C153.535782,547.822021 146.432465,552.291321 136.246429,551.994507 
	C128.610275,551.772034 120.967735,551.768250 113.496246,551.032288 
	C119.030579,541.029968 124.467278,531.701965 129.744949,522.284912 
	C136.315887,510.560181 142.755600,498.761932 149.251984,486.995422 
z"/>
<path fill="#01E5C7" opacity="1.000000" stroke="none" 
	d="
M87.264458,486.891510 
	C94.051628,475.085632 100.948029,463.340240 107.543831,451.428406 
	C109.061424,448.687683 110.727982,447.872101 113.735840,447.926514 
	C124.554131,448.122162 135.377853,448.018005 146.578552,448.425598 
	C145.964630,450.829529 144.971649,452.834961 143.687469,455.029388 
	C140.166855,460.843475 136.886963,466.440338 133.718018,472.099335 
	C126.086800,485.726898 118.507515,499.383575 110.907280,513.028503 
	C104.146912,524.806396 97.323090,536.548645 90.676460,548.390381 
	C89.243805,550.942810 87.769524,552.179871 84.586624,552.103882 
	C73.632629,551.841919 62.669041,551.981323 51.320015,551.519287 
	C63.042103,529.677612 75.153282,508.284576 87.264458,486.891510 
z"/>
<path fill="#232336" opacity="1.000000" stroke="none" 
	d="
M771.604248,483.823303 
	C782.068115,477.629578 792.928528,475.446106 804.514038,477.829590 
	C816.045593,480.201965 823.463745,487.653351 823.943726,499.360260 
	C824.631165,516.126831 824.118896,532.942566 824.118896,550.137817 
	C820.364563,550.137817 816.325012,550.137817 811.822876,550.137817 
	C811.822876,547.035522 811.822876,543.933167 811.822876,540.830811 
	C811.239929,540.404236 810.657043,539.977600 810.074097,539.550964 
	C809.656799,540.608704 809.487366,541.881897 808.784119,542.691162 
	C800.954285,551.701599 789.682129,554.456848 778.492737,550.111267 
	C770.344177,546.946655 765.441711,541.177063 764.690186,532.275574 
	C763.931641,523.290955 767.323792,516.368835 775.177856,511.802521 
	C784.430969,506.422760 794.742737,505.788757 805.069336,505.299438 
	C806.865723,505.214294 808.669556,505.287384 810.445984,505.287384 
	C810.923340,494.168823 806.032898,488.211182 795.627869,488.820587 
	C788.737244,489.224213 781.978821,491.883484 775.161194,493.532959 
	C775.099060,494.116302 775.036926,494.699646 774.974792,495.283020 
	C773.360107,492.457367 771.625427,489.688934 770.228516,486.759460 
	C769.937073,486.148224 770.893677,484.941803 771.604248,483.823303 
M782.604065,521.029114 
	C778.172546,525.504639 777.226746,529.721313 779.603516,534.405762 
	C782.234802,539.591736 789.055115,542.165527 795.572021,540.431824 
	C805.002441,537.922913 811.465759,527.663147 810.674866,516.017029 
	C801.257385,515.931152 791.829773,515.558411 782.604065,521.029114 
z"/>
<path fill="#222234" opacity="1.000000" stroke="none" 
	d="
M880.106018,532.886475 
	C891.467834,542.626221 903.089966,542.288818 919.115356,531.711365 
	C920.892517,534.856567 922.654480,537.974792 924.381042,541.030396 
	C915.562378,550.804016 897.076904,554.509460 882.967407,549.486572 
	C869.088928,544.545898 859.778564,531.869080 859.037354,516.903992 
	C857.912415,494.191010 872.234497,477.463715 893.376770,476.797913 
	C914.991760,476.117218 929.738831,494.049805 925.054443,516.125183 
	C916.614075,516.125183 908.021912,516.125122 899.429688,516.125122 
	C890.949585,516.125122 882.469482,516.125183 873.722534,516.125183 
	C873.461426,522.718994 875.745605,528.002258 880.106018,532.886475 
M904.405212,505.928802 
	C906.870361,505.928802 909.335449,505.928802 911.810242,505.928802 
	C911.440674,494.638245 905.051880,487.952179 894.947449,487.847321 
	C883.648682,487.730072 874.949585,495.317108 874.457092,505.928802 
	C884.121216,505.928802 893.776245,505.928802 904.405212,505.928802 
z"/>
<path fill="#232336" opacity="1.000000" stroke="none" 
	d="
M955.001709,551.849365 
	C944.614441,551.388672 935.681091,548.473999 928.145142,541.277954 
	C930.320374,538.129578 932.386536,535.139038 934.653320,531.858154 
	C940.901794,536.738586 947.518494,540.528564 955.588989,539.986389 
	C958.152832,539.814209 960.916138,539.142578 963.127136,537.887390 
	C968.207092,535.003601 968.659729,528.999512 963.939636,525.545044 
	C960.774841,523.228821 956.941650,521.823547 953.400330,520.024780 
	C948.234070,517.400574 942.622437,515.397644 937.980225,512.049072 
	C927.429443,504.438293 927.932434,489.376404 938.525757,481.885712 
	C949.533752,474.101776 968.896790,475.525757 979.161438,485.116425 
	C977.380188,488.329285 975.552917,491.625336 973.653503,495.051392 
	C967.618896,490.493439 961.155579,488.237274 953.856201,488.987427 
	C949.473022,489.437866 945.589050,490.954681 944.536987,495.814606 
	C943.471863,500.734772 946.887695,503.163239 950.600708,504.930969 
	C956.141113,507.568695 961.933594,509.682526 967.443359,512.377991 
	C977.859558,517.473938 982.244568,524.727173 980.879700,533.944763 
	C979.552246,542.910156 972.270569,549.384949 961.402466,551.192078 
	C959.439270,551.518494 957.441528,551.636658 955.001709,551.849365 
z"/>
<path fill="#02E6C7" opacity="1.000000" stroke="none" 
	d="
M48.674313,500.407837 
	C48.378605,498.973206 48.082897,497.538605 47.702995,495.695526 
	C38.587269,495.695526 29.529985,495.695526 19.659000,495.695526 
	C22.737680,490.322906 25.407999,485.617157 28.122139,480.936798 
	C32.615341,473.188629 37.192188,465.488464 41.629364,457.708496 
	C45.424179,451.054871 50.846272,447.670044 58.703716,447.934540 
	C67.174149,448.219757 75.660843,448.022034 84.455963,448.410095 
	C84.166847,450.016327 83.562218,451.247437 82.679077,452.722656 
	C75.921104,464.140289 69.160767,475.163849 63.081127,486.550873 
	C60.059616,492.210144 57.007393,496.623779 49.759159,495.383881 
	C49.561974,495.350189 49.286255,495.775604 48.924561,496.095306 
	C48.845268,497.461731 48.759789,498.934784 48.674313,500.407837 
z"/>
<path fill="#252538" opacity="1.000000" stroke="none" 
	d="
M835.454712,477.999756 
	C835.454773,468.538544 835.454773,459.577332 835.454773,450.301819 
	C840.156067,450.301819 844.534119,450.301819 849.256897,450.301819 
	C849.256897,460.164337 849.255249,469.962677 849.257324,479.761017 
	C849.260681,495.731964 849.170105,511.703735 849.310242,527.673462 
	C849.384583,536.147766 850.987488,537.770020 858.966309,538.508789 
	C858.966309,542.399780 858.966309,546.312317 858.966309,550.182007 
	C844.214172,553.003723 835.692200,545.899902 835.507874,530.404846 
	C835.302063,513.105408 835.456787,495.801636 835.454712,477.999756 
z"/>
<path fill="#28283A" opacity="1.000000" stroke="none" 
	d="
M458.390289,540.791626 
	C471.835602,548.790527 484.091034,547.705688 497.815674,537.302917 
	C498.865204,538.730286 499.911957,540.153809 500.935638,541.545959 
	C489.460205,554.597534 465.386871,555.322998 451.513000,542.912292 
	C440.097015,532.700317 437.403625,519.499634 440.296173,505.101990 
	C442.790375,492.687134 449.988098,483.739166 462.283783,479.538635 
	C485.378510,471.648895 505.996704,489.367676 501.795471,513.900269 
	C483.300079,513.900269 464.729309,513.900269 445.715057,513.900269 
	C445.778534,525.040894 449.265198,534.023499 458.390289,540.791626 
M464.509796,484.684235 
	C453.676910,488.546661 448.277466,496.688812 446.171844,507.730713 
	C462.942719,507.730713 479.448639,507.730713 495.956909,507.730713 
	C495.635895,488.708832 481.073212,479.454926 464.509796,484.684235 
z"/>
<path fill="#262638" opacity="1.000000" stroke="none" 
	d="
M635.899780,488.205261 
	C636.915100,491.745331 638.500183,494.928833 638.545959,498.134277 
	C638.794861,515.572693 638.664307,533.016602 638.664307,550.658936 
	C636.932495,550.658936 635.321228,550.658936 633.011658,550.658936 
	C633.011658,548.919434 633.012695,547.154663 633.011475,545.389954 
	C633.002014,531.731445 633.095642,518.071838 632.957275,504.414612 
	C632.765747,485.516479 619.904602,477.766968 603.040466,486.531799 
	C591.658264,492.447510 586.260010,502.270844 586.161987,514.996582 
	C586.072571,526.621155 586.143005,538.247009 586.143005,549.945862 
	C583.968750,549.945862 582.205261,549.945862 580.357910,549.945862 
	C580.357910,516.946655 580.357910,484.202118 580.357910,451.235382 
	C582.341064,451.235382 584.104736,451.235382 586.009277,451.235382 
	C586.009277,466.018219 586.009277,480.660309 586.009277,496.340424 
	C587.370911,494.350952 588.179688,493.081757 589.074158,491.876099 
	C596.891785,481.338898 607.397095,476.778534 620.378784,478.178162 
	C626.976074,478.889465 632.499512,481.667542 635.899780,488.205261 
z"/>
<path fill="#016585" opacity="1.000000" stroke="none" 
	d="
M143.978699,454.840424 
	C144.971649,452.834961 145.964630,450.829529 147.051468,448.497864 
	C147.665863,453.163574 148.420700,458.144714 148.652359,463.150024 
	C149.005249,470.775085 148.995956,478.416870 149.196228,486.523499 
	C142.755600,498.761932 136.315887,510.560181 129.744949,522.284912 
	C124.467278,531.701965 119.030579,541.029968 113.419685,550.598022 
	C112.803902,543.166504 112.432884,535.534424 112.370872,527.214966 
	C120.454918,509.183044 128.291611,491.865753 135.972992,474.479797 
	C138.828766,468.016052 141.320801,461.391602 143.978699,454.840424 
z"/>
<path fill="#016585" opacity="1.000000" stroke="none" 
	d="
M82.957596,452.478546 
	C83.562218,451.247437 84.166847,450.016327 84.916466,448.522339 
	C85.339302,450.456543 85.776566,452.647095 85.867821,454.851929 
	C86.297607,465.236847 86.632538,475.625671 87.132881,486.452332 
	C75.153282,508.284576 63.042103,529.677612 50.846947,551.412781 
	C50.251190,543.093811 49.654503,534.436584 49.259171,525.770203 
	C49.018448,520.493042 49.088146,515.201721 49.543304,509.458008 
	C52.221817,509.002075 54.402000,508.790436 56.523365,509.053345 
	C60.624027,509.561615 62.643524,508.070404 64.022972,503.971741 
	C67.022079,495.060822 70.843575,486.430573 74.117035,477.606995 
	C77.205063,469.283234 80.021622,460.858734 82.957596,452.478546 
z"/>
<path fill="#28283A" opacity="1.000000" stroke="none" 
	d="
M324.876526,550.199951 
	C322.524414,550.307861 321.009918,550.354187 321.027008,547.486633 
	C321.159973,525.165833 321.135651,502.844025 321.177673,480.522583 
	C321.178223,480.224701 321.408447,479.927246 321.632141,479.386017 
	C323.130615,479.386017 324.718323,479.386017 326.824585,479.386017 
	C326.824585,484.474731 326.824585,489.501617 326.824585,496.093201 
	C332.543060,486.682983 339.214691,480.577820 348.650421,478.781921 
	C353.456635,477.867188 358.651184,477.688721 363.472778,478.441650 
	C372.366760,479.830475 378.414001,485.994080 378.783264,495.645721 
	C379.474792,513.720520 378.982269,531.840637 378.982269,550.328308 
	C377.806854,550.391296 376.217377,550.476440 373.978851,550.596375 
	C373.978851,546.020020 373.981476,541.751953 373.978363,537.483826 
	C373.970612,526.822205 374.005981,516.160217 373.918518,505.499207 
	C373.896820,502.850159 373.656189,500.172943 373.204102,497.562714 
	C371.385712,487.063263 365.176453,482.456757 354.515350,483.542999 
	C339.036285,485.120117 327.587463,497.436035 327.161957,513.433472 
	C326.869720,524.420898 327.130615,535.422424 326.978455,546.415283 
	C326.960907,547.683167 325.879120,548.936218 324.876526,550.199951 
z"/>
<path fill="#252538" opacity="1.000000" stroke="none" 
	d="
M246.985962,488.964722 
	C246.985962,492.110748 246.985962,494.761414 246.985962,497.965942 
	C259.547668,497.965942 271.929565,497.965942 284.613190,497.965942 
	C284.720184,500.096191 284.800201,501.689545 284.907043,503.816711 
	C272.236511,503.816711 259.835846,503.816711 247.001266,503.816711 
	C247.001266,519.568604 247.001266,534.808777 247.001266,550.292480 
	C244.797668,550.292480 243.035965,550.292480 241.037994,550.292480 
	C241.037994,517.244507 241.037994,484.309570 241.037994,451.202637 
	C257.578827,451.202637 274.013397,451.202637 290.697449,451.202637 
	C290.697449,452.982483 290.697449,454.579437 290.697449,456.667664 
	C276.335754,456.667664 261.931244,456.667664 246.985962,456.667664 
	C246.985962,467.588074 246.985962,478.028717 246.985962,488.964722 
z"/>
<path fill="#262638" opacity="1.000000" stroke="none" 
	d="
M374.491730,451.012360 
	C400.266113,451.011841 425.591156,451.011841 451.322174,451.011841 
	C451.322174,452.868958 451.322174,454.565430 451.322174,456.693604 
	C439.392761,456.693604 427.469025,456.693604 415.123962,456.693604 
	C415.123962,488.026642 415.123962,518.940186 415.123962,550.306580 
	C412.967896,550.402710 411.215118,550.480835 408.988831,550.580078 
	C408.988831,519.387146 408.988831,488.482117 408.988831,457.111786 
	C396.474243,457.111786 384.401978,457.111786 370.345764,457.111786 
	C372.040436,454.315826 373.041382,452.664337 374.491730,451.012360 
z"/>
<path fill="#28283A" opacity="1.000000" stroke="none" 
	d="
M567.039917,537.768066 
	C568.912415,538.273438 570.509766,539.037781 572.268921,539.879517 
	C560.289124,554.742798 535.024170,555.898682 520.612244,543.156860 
	C505.142029,529.479370 504.256622,503.214142 518.767334,488.427521 
	C532.557068,474.375641 557.197815,473.992157 570.186829,487.846527 
	C569.178650,489.246277 568.136963,490.692413 566.847046,492.483307 
	C559.722290,486.442200 551.872192,483.216064 542.573181,483.829193 
	C526.348633,484.898956 514.829834,497.775848 514.845703,515.150513 
	C514.861389,532.408875 526.567932,545.284607 542.877136,546.136108 
	C551.957520,546.610107 559.944092,544.094421 567.039917,537.768066 
z"/>
<path fill="#2C2C3E" opacity="1.000000" stroke="none" 
	d="
M299.718628,542.803345 
	C299.718689,521.383240 299.718689,500.437317 299.718689,479.306732 
	C301.728821,479.306732 303.357513,479.306732 305.371277,479.306732 
	C305.371277,502.752960 305.371277,526.126526 305.371277,549.999023 
	C303.889069,550.072998 302.128906,550.160889 299.718567,550.281189 
	C299.718567,547.791016 299.718567,545.534241 299.718628,542.803345 
z"/>
<path fill="#004654" opacity="1.000000" stroke="none" 
	d="
M82.679077,452.722656 
	C80.021622,460.858734 77.205063,469.283234 74.117035,477.606995 
	C70.843575,486.430573 67.022079,495.060822 64.022972,503.971741 
	C62.643524,508.070404 60.624027,509.561615 56.523365,509.053345 
	C54.402000,508.790436 52.221817,509.002075 49.615448,508.993500 
	C49.024986,506.470093 48.887291,503.952423 48.711952,500.921326 
	C48.759789,498.934784 48.845268,497.461731 48.924561,496.095306 
	C49.286255,495.775604 49.561974,495.350189 49.759159,495.383881 
	C57.007393,496.623779 60.059616,492.210144 63.081127,486.550873 
	C69.160767,475.163849 75.921104,464.140289 82.679077,452.722656 
z"/>
<path fill="#004654" opacity="1.000000" stroke="none" 
	d="
M143.687485,455.029388 
	C141.320801,461.391602 138.828766,468.016052 135.972992,474.479797 
	C128.291611,491.865753 120.454918,509.183044 112.429146,526.750244 
	C111.846313,522.598572 111.514214,518.224243 111.044693,513.439209 
	C118.507515,499.383575 126.086800,485.726898 133.718018,472.099335 
	C136.886963,466.440338 140.166855,460.843475 143.687485,455.029388 
z"/>
<path fill="#252538" opacity="1.000000" stroke="none" 
	d="
M302.045349,461.337097 
	C300.788605,460.472656 299.366058,459.701752 299.209442,458.727386 
	C298.845917,456.465881 299.093719,454.106140 299.093719,451.401520 
	C301.474274,451.401520 303.696442,451.401520 306.180786,451.401520 
	C306.180786,454.399353 306.180786,457.510773 306.180786,460.991516 
	C304.985138,461.102783 303.719879,461.220520 302.045349,461.337097 
z"/>
<path fill="#FBFBFC" opacity="1.000000" stroke="none" 
	d="
M782.915100,520.813477 
	C791.829773,515.558411 801.257385,515.931152 810.674866,516.017029 
	C811.465759,527.663147 805.002441,537.922913 795.572021,540.431824 
	C789.055115,542.165527 782.234802,539.591736 779.603516,534.405762 
	C777.226746,529.721313 778.172546,525.504639 782.915100,520.813477 
z"/>
<path fill="#FBFBFC" opacity="1.000000" stroke="none" 
	d="
M903.918274,505.928802 
	C893.776245,505.928802 884.121216,505.928802 874.457092,505.928802 
	C874.949585,495.317108 883.648682,487.730072 894.947449,487.847321 
	C905.051880,487.952179 911.440674,494.638245 911.810242,505.928802 
	C909.335449,505.928802 906.870361,505.928802 903.918274,505.928802 
z"/>
<path fill="#FDFDFD" opacity="1.000000" stroke="none" 
	d="
M464.876129,484.519867 
	C481.073212,479.454926 495.635895,488.708832 495.956909,507.730713 
	C479.448639,507.730713 462.942719,507.730713 446.171844,507.730713 
	C448.277466,496.688812 453.676910,488.546661 464.876129,484.519867 
z"/>
</svg>