<?xml version="1.0" encoding="UTF-8" standalone="no"?>
<svg
   version="1.0"
   width="454"
   height="227"
   viewBox="0 0 340.49998 170.25001"
   preserveAspectRatio="xMidYMid meet"
   id="svg23"
   sodipodi:docname="2.svg"
   inkscape:version="1.1 (c68e22c387, 2021-05-23)"
   xmlns:inkscape="http://www.inkscape.org/namespaces/inkscape"
   xmlns:sodipodi="http://sodipodi.sourceforge.net/DTD/sodipodi-0.dtd"
   xmlns="http://www.w3.org/2000/svg"
   xmlns:svg="http://www.w3.org/2000/svg">
  <defs
     id="defs27" />
  <sodipodi:namedview
     id="namedview25"
     pagecolor="#ffffff"
     bordercolor="#666666"
     borderopacity="1.0"
     inkscape:pageshadow="2"
     inkscape:pageopacity="0.0"
     inkscape:pagecheckerboard="0"
     inkscape:document-units="px"
     showgrid="false"
     units="px"
     inkscape:showpageshadow="false"
     width="454px"
     inkscape:zoom="1.8756036"
     inkscape:cx="214.06443"
     inkscape:cy="118.62848"
     inkscape:window-width="1366"
     inkscape:window-height="705"
     inkscape:window-x="-8"
     inkscape:window-y="-8"
     inkscape:window-maximized="1"
     inkscape:current-layer="svg23" />
  <metadata
     id="metadata9">
Created by potrace 1.16, written by Peter Selinger 2001-2019
</metadata>
  <g
     transform="matrix(0.04912655,0,0,-0.04912655,-30.590655,205.3936)"
     fill="#000000"
     stroke="none"
     id="g21"
     style="stroke-width:2.03556">
    <path
       d="M 660,2455 V 760 h 375 375 V 2455 4150 H 1035 660 Z"
       id="path11"
       style="fill:#808080;fill-opacity:1;stroke-width:2.03556" />
    <path
       d="M 1850,2455 V 760 h 375 375 v 1695 1695 h -375 -375 z"
       id="path13"
       style="fill:#666666;fill-opacity:1;stroke-width:2.03556" />
    <path
       d="M 3040,2455 V 760 h 375 375 v 1695 1695 h -375 -375 z"
       id="path15"
       style="fill:#4d4d4d;fill-opacity:1;stroke-width:2.03556" />
    <path
       d="M 4230,2455 V 760 h 375 375 v 1360 1360 h 370 370 v 335 335 h -745 -745 z"
       id="path17"
       style="fill:#333333;fill-opacity:1;stroke-width:2.03556" />
    <path
       d="m 6160,3781 v -328 l 50,-21 c 60,-25 176,-99 243,-156 72,-60 171,-188 221,-286 186,-362 164,-833 -55,-1159 -139,-209 -341,-347 -608,-419 -87,-23 -118,-26 -343,-30 l -248,-4 V 1069 760 h 218 c 317,0 509,26 735,100 707,233 1155,846 1157,1583 1,803 -499,1448 -1280,1647 -43,11 -81,20 -84,20 -3,0 -6,-148 -6,-329 z"
       id="path19"
       style="fill:#3fada8;fill-opacity:1;stroke-width:2.03556" />
  </g>
</svg>
