<svg version="1.1" id="Layer_1" xmlns="http://www.w3.org/2000/svg" xmlns:xlink="http://www.w3.org/1999/xlink" x="0px" y="0px"
	 width="100%" viewBox="0 0 1024 1024" enable-background="new 0 0 1024 1024" xml:space="preserve">
<path fill="#000000" opacity="1.000000" stroke="none" 
	d="
M247.420502,496.548340 
	C251.764496,480.411804 256.327209,464.748322 260.118439,448.900269 
	C262.826263,437.580841 265.859985,426.351532 268.592377,415.044922 
	C269.543365,411.109772 271.474792,409.744171 275.547272,409.767578 
	C301.712891,409.917847 327.880310,409.905151 354.045929,409.745972 
	C358.295776,409.720154 359.412933,411.305695 359.407898,415.315002 
	C359.320679,484.481201 359.318420,553.647644 359.413788,622.813782 
	C359.419464,626.927002 358.109375,628.366943 353.962128,628.325439 
	C336.630524,628.151978 319.294617,628.099792 301.964233,628.318542 
	C297.118408,628.379700 295.712067,626.715210 295.730164,621.960693 
	C295.892670,579.294800 295.842285,536.628174 295.854218,493.961761 
	C295.855194,490.545715 295.854370,487.129669 295.306122,483.671448 
	C291.366730,493.625671 288.472076,503.808044 286.536926,514.158447 
	C285.337646,520.572754 283.478943,526.766357 281.841248,533.019714 
	C275.771454,556.196960 269.123077,579.224670 263.231720,602.445435 
	C261.439789,609.508301 259.826477,616.642029 258.090393,623.735474 
	C257.280853,627.043335 255.633911,628.350037 252.171295,628.297913 
	C240.673798,628.124939 229.171539,628.134705 217.672943,628.252930 
	C214.470673,628.285828 212.813004,627.083008 211.963303,624.012939 
	C205.083542,599.155273 197.541779,574.463806 191.358459,549.435913 
	C186.210541,528.598877 179.854279,508.114349 174.594391,487.323639 
	C174.278351,486.074432 173.640717,484.906586 172.229202,483.744141 
	C171.994904,488.917297 171.471970,494.096069 171.572021,499.262787 
	C172.368973,540.423462 171.624832,581.587219 171.951782,622.747681 
	C171.984131,626.819946 170.452118,628.333313 166.341675,628.280334 
	C152.677261,628.104126 139.007431,628.073059 125.343788,628.270081 
	C120.871941,628.334595 119.685760,626.563721 119.691139,622.345093 
	C119.779007,553.512207 119.782959,484.679047 119.659622,415.846222 
	C119.651413,411.265289 121.070343,409.765381 125.665855,409.793213 
	C151.831360,409.951569 177.999771,409.987366 204.163788,409.725281 
	C209.186188,409.674988 210.377914,412.339142 211.311859,416.163177 
	C217.270660,440.561096 224.290405,464.669830 231.174576,488.815430 
	C233.637375,497.453552 236.042709,506.108093 238.530304,514.739014 
	C238.836395,515.801025 238.965088,517.056763 240.734665,518.031250 
	C244.143982,511.322815 245.050293,503.899017 247.420502,496.548340 
z"/>
<path fill="#000000" opacity="1.000000" stroke="none" 
	d="
M499.731323,410.906067 
	C510.057861,412.265961 519.948608,413.297211 529.340088,417.105896 
	C547.898743,424.632233 562.801270,436.284515 573.810303,453.281128 
	C597.338257,489.605347 599.527588,527.838806 583.834900,567.226318 
	C575.261414,588.745117 559.844482,605.320862 539.290894,616.086609 
	C524.151917,624.016296 507.575134,628.133545 490.303650,628.206970 
	C461.146088,628.330811 431.986908,628.142212 402.830048,628.333069 
	C397.960663,628.364868 396.615173,626.749756 396.623779,622.018188 
	C396.748871,553.371826 396.748718,484.725098 396.628937,416.078705 
	C396.620667,411.344574 398.010620,409.699493 402.864594,409.732941 
	C430.355255,409.922668 457.848053,409.784119 485.339691,409.878998 
	C489.987793,409.895020 494.633850,410.502869 499.731323,410.906067 
M465.355316,526.499939 
	C465.348267,538.999390 465.367523,551.498840 465.327301,563.998230 
	C465.280762,578.460327 464.846893,576.295837 477.969635,576.763367 
	C492.807343,577.291992 503.346405,570.785034 511.266174,558.637390 
	C517.961975,548.367126 520.407166,537.042053 521.300354,525.099182 
	C522.441284,509.845764 520.613464,495.073761 513.434326,481.464935 
	C506.475433,468.273621 496.572205,459.149475 480.124420,460.986481 
	C478.149994,461.207031 476.128082,461.010193 474.128265,460.993744 
	C465.608490,460.923584 465.316376,461.196320 465.319763,469.502533 
	C465.327362,488.168304 465.343536,506.834106 465.355316,526.499939 
z"/>
<path fill="#000000" opacity="1.000000" stroke="none" 
	d="
M671.000000,409.853851 
	C691.812805,410.160889 712.144897,409.107147 732.439331,410.693146 
	C748.598999,411.956055 764.612061,413.670929 778.467590,423.400909 
	C793.115906,433.687653 803.762756,447.219910 806.564514,464.866455 
	C809.663269,484.384094 808.492981,503.827881 795.284912,520.434204 
	C783.446716,535.318481 767.760742,543.572205 749.406799,547.350830 
	C732.407410,550.850525 715.204895,548.905457 698.093384,549.343140 
	C689.665100,549.558777 689.328979,549.714783 689.325806,558.030518 
	C689.317627,579.357361 689.202881,600.685486 689.415161,622.010193 
	C689.462585,626.771667 688.032349,628.378174 683.191284,628.319580 
	C664.033142,628.087891 644.869751,628.114807 625.710510,628.286804 
	C621.249207,628.326782 619.612793,627.038330 619.621460,622.336975 
	C619.748596,553.524780 619.752380,484.712158 619.611572,415.899963 
	C619.601379,410.929657 621.376282,409.686462 626.014709,409.758698 
	C640.840088,409.989441 655.671143,409.850067 671.000000,409.853851 
M690.783142,462.068329 
	C688.959473,462.803741 688.433289,464.355957 688.430603,466.097992 
	C688.414673,476.404846 688.381714,486.712524 688.498840,497.018280 
	C688.534485,500.154510 690.212769,501.806122 693.605652,501.703949 
	C698.755371,501.548859 703.941284,501.982147 709.059875,501.550232 
	C715.802429,500.981354 722.725586,501.079315 729.018005,497.884369 
	C735.650452,494.516754 739.871704,487.011932 739.357178,479.393982 
	C738.809143,471.278809 734.313843,464.625732 726.723511,462.700012 
	C715.156067,459.765228 703.306763,461.390625 690.783142,462.068329 
z"/>
<path fill="#000000" opacity="1.000000" stroke="none" 
	d="
M175.860626,271.991638 
	C168.459702,276.199036 161.435867,280.327271 154.337357,284.322754 
	C134.471512,295.504517 114.817589,307.062317 94.983521,318.287201 
	C75.877617,329.099976 56.857361,340.060303 37.769650,350.903320 
	C36.083652,351.861053 35.337513,353.010254 35.359577,354.854065 
	C35.385498,357.019867 35.340023,359.186432 35.339985,361.352661 
	C35.338169,459.170044 35.294842,556.987488 35.458370,654.804626 
	C35.466999,659.968689 34.101181,663.383606 29.485826,665.566406 
	C25.800816,667.309143 22.959610,670.600342 19.058212,671.837219 
	C17.202684,670.002930 17.762358,668.071472 17.761892,666.331421 
	C17.733259,559.515503 17.755608,452.699585 17.655706,345.883789 
	C17.652094,342.020935 18.928036,339.851807 22.262867,337.998749 
	C44.499352,325.642639 66.667885,313.163116 88.794510,300.610931 
	C102.105087,293.059967 115.261444,285.237488 128.556366,277.658539 
	C148.082367,266.527496 167.690811,255.541199 187.226273,244.426697 
	C207.903397,232.662674 228.408722,220.588348 249.263229,209.149338 
	C255.830948,205.546860 262.290558,201.785660 268.734589,197.988480 
	C271.142853,196.569397 273.209564,196.319519 275.659393,197.908981 
	C287.670624,205.701996 300.403778,212.295761 312.848541,219.317200 
	C326.166260,226.831161 339.435913,234.483994 352.739807,242.018600 
	C367.786530,250.540253 382.860779,259.054169 397.784760,267.813324 
	C413.861420,277.248993 430.197876,286.240814 446.367920,295.518768 
	C467.136871,307.435455 487.836945,319.472076 508.605988,331.388580 
	C512.491089,333.617706 516.578003,335.492676 520.538391,337.594086 
	C522.425476,338.595398 524.197876,339.785889 525.807678,341.849274 
	C521.488586,346.497864 516.623352,350.024292 511.065552,352.155548 
	C507.829193,353.396606 504.730408,350.771210 501.919952,349.146881 
	C485.928833,339.904877 470.026093,330.510162 454.063538,321.218506 
	C435.656158,310.503662 417.150909,299.955566 398.715485,289.291138 
	C381.013000,279.050659 363.244354,268.915344 345.539764,258.669861 
	C322.501282,245.337677 299.265747,232.346283 276.196198,219.067169 
	C273.364990,217.437469 271.135651,217.353256 268.400726,219.035675 
	C257.915588,225.485703 247.170486,231.562271 236.364975,237.382355 
	C224.360001,243.848495 213.110733,251.586624 200.779770,257.508423 
	C192.257187,261.601318 184.373062,267.023682 175.860626,271.991638 
z"/>
<path fill="#000000" opacity="1.000000" stroke="none" 
	d="
M683.264404,800.794495 
	C660.711670,787.853333 638.569641,774.926147 616.204712,762.396790 
	C598.793579,752.642517 581.572754,742.557556 564.184021,732.777710 
	C544.752075,721.848816 525.392944,710.803528 506.123566,699.594727 
	C504.119385,698.428894 501.883270,697.665466 499.858856,696.529785 
	C497.121796,694.994324 496.863007,693.097107 499.532440,691.192688 
	C503.194580,688.579834 506.933899,686.074829 510.583588,683.445068 
	C512.980652,681.717834 515.001892,682.775146 517.000977,684.115601 
	C529.738464,692.656494 543.532959,699.383606 556.677368,707.237671 
	C577.392151,719.615234 598.467957,731.386963 619.335632,743.511719 
	C636.581970,753.532471 653.871765,763.500854 671.238098,773.315857 
	C689.768005,783.788513 708.153198,794.502258 726.577515,805.153198 
	C733.482727,809.145142 740.517029,812.917114 747.364014,817.004578 
	C749.851685,818.489685 751.745850,818.369690 754.205017,816.910522 
	C766.789307,809.443787 779.438843,802.084290 792.144836,794.826050 
	C819.019592,779.473755 845.959290,764.235046 872.842163,748.896729 
	C891.762146,738.101685 910.780029,727.483215 929.518982,716.363586 
	C946.828064,706.092285 964.435608,696.315002 982.067017,686.602112 
	C986.252991,684.296143 987.786560,681.632385 987.779602,676.809143 
	C987.640381,579.646912 987.679932,482.484406 987.684204,385.321960 
	C987.684692,373.791687 992.427307,367.718353 1004.135620,364.329437 
	C1005.829956,365.700928 1005.238892,367.666443 1005.239319,369.389648 
	C1005.264893,476.218323 1005.243652,583.046997 1005.308350,689.875610 
	C1005.310486,693.448547 1004.249268,695.677551 1001.013428,697.465576 
	C984.404236,706.643188 967.920593,716.047729 951.379395,725.348572 
	C937.611084,733.090332 923.775635,740.714050 910.057556,748.543579 
	C894.886169,757.202698 879.872559,766.138489 864.686646,774.771667 
	C838.940857,789.408081 813.024902,803.747253 787.363892,818.529663 
	C776.852478,824.585022 765.768311,829.663574 755.841431,836.719849 
	C752.461670,839.122253 749.463623,839.101807 745.782898,836.891479 
	C731.523926,828.328918 717.125671,819.994202 702.679565,811.749329 
	C696.333008,808.127075 689.583984,805.214722 683.264404,800.794495 
z"/>
<path fill="#000000" opacity="1.000000" stroke="none" 
	d="
M831.117310,478.010010 
	C831.151123,456.549713 831.212646,435.587158 831.187805,414.624664 
	C831.183899,411.332733 832.309509,409.784546 835.841187,409.802246 
	C855.826660,409.902405 875.813660,409.956146 895.798340,409.799744 
	C900.362427,409.764038 900.356934,412.332214 900.353882,415.581573 
	C900.315796,455.720062 900.327759,495.858612 900.325989,535.997131 
	C900.324707,564.643738 900.233154,593.290894 900.409180,621.936401 
	C900.437927,626.620422 899.174622,628.360596 894.261719,628.300293 
	C875.111328,628.065308 855.956421,628.191711 836.803162,628.220581 
	C833.771667,628.225159 831.372498,628.268311 831.373596,623.888184 
	C831.386108,575.428040 831.228333,526.967896 831.117310,478.010010 
z"/>
<path fill="#000000" opacity="1.000000" stroke="none" 
	d="
M98.651237,359.673584 
	C86.297447,366.745392 74.248947,373.617218 61.483395,380.898010 
	C60.250854,374.135681 60.673435,368.381653 61.010612,362.657379 
	C61.120655,360.789124 62.989540,360.077057 64.407761,359.264252 
	C71.039543,355.463440 77.562675,351.490265 84.275040,347.807434 
	C99.436607,339.488831 114.198181,330.444916 129.216446,321.860474 
	C156.080597,306.504883 183.026123,291.291718 209.914337,275.978088 
	C227.540726,265.939331 245.124420,255.825638 262.737976,245.764328 
	C263.288971,245.449585 263.959045,245.343338 265.290192,244.902679 
	C265.772186,251.589783 265.705902,257.957581 264.885986,264.245972 
	C264.614502,266.328308 261.961121,267.353455 260.045135,268.283142 
	C249.696609,273.304749 240.095078,279.630157 230.093719,285.252869 
	C201.385941,301.392212 172.697281,317.560425 144.248444,334.157104 
	C129.311615,342.871033 114.063881,351.051971 98.651237,359.673584 
z"/>
<path fill="#000000" opacity="1.000000" stroke="none" 
	d="
M962.200562,657.785034 
	C962.237061,658.866394 962.249634,659.532410 962.247986,660.198425 
	C962.210754,674.946045 962.028809,674.623047 949.336487,681.764526 
	C932.826111,691.054138 916.465881,700.642639 899.937622,709.878052 
	C887.175415,717.009338 874.745544,724.729553 861.753967,731.505188 
	C846.291199,739.569763 831.531433,748.974915 816.390930,757.666565 
	C797.781433,768.349609 779.093872,778.896667 760.437439,789.497803 
	C759.734619,789.897156 759.064880,790.482544 757.591858,789.817017 
	C756.301819,783.908142 757.617798,777.669189 757.984497,771.474121 
	C758.098022,769.554688 760.342773,768.845886 761.928040,767.948181 
	C789.706665,752.218689 817.508728,736.530518 845.257751,720.748962 
	C867.078613,708.339050 888.813049,695.777100 910.625916,683.353149 
	C926.217529,674.472534 941.864380,665.688416 957.522095,656.924866 
	C959.019043,656.087097 960.947937,653.952820 962.200562,657.785034 
z"/>
</svg>