<svg version="1.1" id="Layer_1" xmlns="http://www.w3.org/2000/svg" xmlns:xlink="http://www.w3.org/1999/xlink" x="0px" y="0px"
	 width="100%" viewBox="0 0 500 500" enable-background="new 0 0 500 500" xml:space="preserve">
<path fill="#A0F807" opacity="1.000000" stroke="none" 
	d="
M501.000000,55.000000 
	C501.000000,185.355972 501.000000,315.711945 500.690613,446.243439 
	C499.271545,447.987396 497.610352,449.406830 497.139801,451.147980 
	C493.498566,464.622192 484.232666,474.355225 474.667389,483.455688 
	C466.954681,490.793579 457.523132,496.152313 447.024231,499.137207 
	C446.545013,499.273468 446.335266,500.357452 446.000000,501.000000 
	C315.977356,501.000000 185.954727,501.000000 55.750980,500.678406 
	C52.672386,499.040039 49.741890,497.790863 46.883343,496.394379 
	C36.822426,491.479401 27.927708,484.921204 20.296196,476.757782 
	C12.682261,468.613190 6.553060,459.540863 3.731404,448.514618 
	C3.314014,446.883545 1.934420,445.498749 1.000000,444.000000 
	C1.000000,314.977356 1.000000,185.954727 1.327012,56.753857 
	C2.417349,55.353001 3.537481,54.223782 3.885981,52.892555 
	C6.114707,44.379105 10.661033,37.182476 16.041895,30.368973 
	C20.998278,24.092970 26.141912,18.085827 33.297733,14.166923 
	C39.409363,10.819874 45.484581,7.406329 51.575382,4.021257 
	C53.384499,3.015810 55.191845,2.007176 57.000000,1.000000 
	C186.355972,1.000000 315.711945,1.000000 445.247131,1.330716 
	C448.235443,2.757997 451.184235,3.591937 453.828430,4.998529 
	C463.161316,9.963188 471.792877,15.683196 479.306305,23.460777 
	C487.190277,31.621891 493.632263,40.310699 497.536377,50.953091 
	C498.109467,52.515354 499.817261,53.661377 501.000000,55.000000 
M162.933640,358.545563 
	C208.180008,401.218536 285.041931,406.030579 336.771667,369.303711 
	C362.289520,351.186737 379.505798,327.355988 384.380951,295.994904 
	C386.816986,280.324188 388.562836,264.397156 383.961212,247.205475 
	C393.507050,250.197083 401.928253,252.836243 410.641266,255.566849 
	C410.435730,251.748550 410.233429,247.990540 410.009827,243.836761 
	C425.244080,244.086502 438.327881,249.537170 450.617828,257.742218 
	C458.343323,242.112427 459.414398,226.439133 454.820953,209.095581 
	C464.360565,212.110916 472.675476,214.739166 480.908936,217.341644 
	C483.199982,194.946793 468.315857,158.025085 429.627747,142.354385 
	C392.810822,127.441628 344.892578,138.608444 321.133179,180.612808 
	C304.112244,172.000107 285.899292,167.317108 266.851959,165.643509 
	C266.640778,165.135483 266.429565,164.627441 266.218353,164.119400 
	C270.966614,160.821518 275.714874,157.523636 280.602386,154.129028 
	C273.734467,149.005249 265.727966,149.116577 257.221802,150.192505 
	C259.130188,149.083466 261.038574,147.974411 263.021851,146.821854 
	C257.410034,142.809372 250.318497,142.350296 245.191284,145.827423 
	C237.672195,150.926651 236.922409,157.995392 239.775314,164.894608 
	C223.597031,169.666824 207.749924,174.341339 191.686707,179.079620 
	C168.375427,138.687164 121.362144,127.607262 84.620911,142.106522 
	C46.502552,157.149246 30.706089,193.200729 32.615887,217.303452 
	C40.949486,214.727859 49.360287,212.128403 58.826534,209.202744 
	C54.179001,226.911224 55.360981,242.549942 63.128155,257.851746 
	C75.630684,249.259201 88.711853,243.973984 103.479500,243.953186 
	C103.479500,248.325882 103.479500,252.022858 103.479500,255.358429 
	C111.965515,252.744278 120.214874,250.203033 129.849472,247.235062 
	C122.047585,290.868408 130.426926,328.101532 162.933640,358.545563 
M76.832840,26.514376 
	C56.862534,27.289957 42.599373,40.588978 41.475365,60.089882 
	C40.929688,69.557083 41.188072,79.081383 41.356789,88.574959 
	C41.456905,94.208534 44.687485,97.287277 49.623047,97.153618 
	C54.530205,97.020744 57.160397,93.938110 57.205845,88.024536 
	C57.268597,79.860184 57.114090,71.693192 57.248798,63.530567 
	C57.465721,50.386036 65.194183,42.779373 78.205956,42.746395 
	C88.870155,42.719368 99.534996,42.802761 110.198555,42.715313 
	C116.235474,42.665806 120.007248,39.281662 119.884605,34.335464 
	C119.766350,29.566359 116.143661,26.557505 110.259476,26.530197 
	C99.428810,26.479935 88.597740,26.515064 76.832840,26.514376 
M435.045441,451.068085 
	C431.781494,451.571777 428.524170,452.452301 425.252380,452.509857 
	C414.603699,452.697113 403.949188,452.524139 393.297943,452.610687 
	C387.929047,452.654297 384.252655,455.913574 384.116730,460.428802 
	C383.977478,465.055115 387.873840,468.701477 393.350952,468.740967 
	C405.000916,468.824921 416.656586,468.972900 428.301361,468.711578 
	C445.476685,468.326172 459.995544,456.014130 461.954498,439.044403 
	C463.225586,428.033295 462.727051,416.793823 462.629730,405.660095 
	C462.587616,400.841766 458.972229,397.877533 454.516846,397.970490 
	C450.016541,398.064423 446.956635,401.092743 446.866302,406.063904 
	C446.715149,414.383057 446.735229,422.707825 446.836700,431.028381 
	C446.943451,439.779114 443.610687,446.505524 435.045441,451.068085 
M74.535156,455.555817 
	C65.467674,452.157349 61.326519,445.377045 61.260822,435.936127 
	C61.184410,424.956299 61.294174,413.975189 61.213917,402.995422 
	C61.173061,397.406372 58.137798,394.112640 53.323223,394.088043 
	C48.471130,394.063263 45.313908,397.335571 45.272289,402.878204 
	C45.182362,414.855896 44.835155,426.854065 45.376911,438.808350 
	C46.038059,453.396973 53.339813,464.257660 66.910446,469.685272 
	C80.927086,475.291260 95.822464,472.335297 110.334618,471.834106 
	C112.305656,471.766052 115.124748,467.443176 115.763855,464.677338 
	C116.625038,460.950348 113.888046,458.078339 110.174828,456.957733 
	C108.311989,456.395508 106.236412,456.440704 104.252686,456.393127 
	C94.617790,456.161987 84.981422,455.992432 74.535156,455.555817 
M392.039001,34.222973 
	C393.947693,37.688293 397.032410,38.827187 400.802979,38.805969 
	C408.956940,38.760086 417.111633,38.751244 425.265533,38.803410 
	C438.042664,38.885155 445.759003,46.579117 445.832581,59.352692 
	C445.894867,70.169174 445.807037,80.986504 445.863953,91.803040 
	C445.895355,97.769226 448.849518,101.087570 453.895111,101.071327 
	C458.944916,101.055069 461.800049,97.766960 461.827484,91.699837 
	C461.877899,80.550407 461.896271,69.400253 461.829102,58.250996 
	C461.709808,38.448769 447.253601,23.382648 427.528259,22.736958 
	C418.385193,22.437670 409.223450,22.564337 400.072754,22.688475 
	C393.243652,22.781122 390.299500,26.756441 392.039001,34.222973 
z"/>
<path fill="#000000" opacity="1.000000" stroke="none" 
	d="
M446.468689,501.000000 
	C446.335266,500.357452 446.545013,499.273468 447.024231,499.137207 
	C457.523132,496.152313 466.954681,490.793579 474.667389,483.455688 
	C484.232666,474.355225 493.498566,464.622192 497.139801,451.147980 
	C497.610352,449.406830 499.271545,447.987396 500.690613,446.709473 
	C501.000000,464.927460 501.000000,482.854889 501.000000,501.000000 
	C482.979675,501.000000 464.958496,501.000000 446.468689,501.000000 
z"/>
<path fill="#000000" opacity="1.000000" stroke="none" 
	d="
M501.000000,54.531342 
	C499.817261,53.661377 498.109467,52.515354 497.536377,50.953091 
	C493.632263,40.310699 487.190277,31.621891 479.306305,23.460777 
	C471.792877,15.683196 463.161316,9.963188 453.828430,4.998529 
	C451.184235,3.591937 448.235443,2.757997 445.713165,1.330716 
	C464.259430,1.000000 482.518890,1.000000 501.000000,1.000000 
	C501.000000,18.686943 501.000000,36.374813 501.000000,54.531342 
z"/>
<path fill="#000000" opacity="1.000000" stroke="none" 
	d="
M1.000000,444.468658 
	C1.934420,445.498749 3.314014,446.883545 3.731404,448.514618 
	C6.553060,459.540863 12.682261,468.613190 20.296196,476.757782 
	C27.927708,484.921204 36.822426,491.479401 46.883343,496.394379 
	C49.741890,497.790863 52.672386,499.040039 55.284939,500.678406 
	C37.071236,501.000000 19.142475,501.000000 1.000000,501.000000 
	C1.000000,482.312988 1.000000,463.625153 1.000000,444.468658 
z"/>
<path fill="#000000" opacity="1.000000" stroke="none" 
	d="
M56.531342,1.000000 
	C55.191845,2.007176 53.384499,3.015810 51.575382,4.021257 
	C45.484581,7.406329 39.409363,10.819874 33.297733,14.166923 
	C26.141912,18.085827 20.998278,24.092970 16.041895,30.368973 
	C10.661033,37.182476 6.114707,44.379105 3.885981,52.892555 
	C3.537481,54.223782 2.417349,55.353001 1.327012,56.287815 
	C1.000000,37.739223 1.000000,19.478447 1.000000,1.000000 
	C19.353655,1.000000 37.708168,1.000000 56.531342,1.000000 
z"/>
<path fill="#060704" opacity="1.000000" stroke="none" 
	d="
M162.671646,358.310425 
	C130.426926,328.101532 122.047585,290.868408 129.849472,247.235062 
	C120.214874,250.203033 111.965515,252.744278 103.479500,255.358429 
	C103.479500,252.022858 103.479500,248.325882 103.479500,243.953186 
	C88.711853,243.973984 75.630684,249.259201 63.128155,257.851746 
	C55.360981,242.549942 54.179001,226.911224 58.826534,209.202744 
	C49.360287,212.128403 40.949486,214.727859 32.615887,217.303452 
	C30.706089,193.200729 46.502552,157.149246 84.620911,142.106522 
	C121.362144,127.607262 168.375427,138.687164 191.686707,179.079620 
	C207.749924,174.341339 223.597031,169.666824 239.775314,164.894608 
	C236.922409,157.995392 237.672195,150.926651 245.191284,145.827423 
	C250.318497,142.350296 257.410034,142.809372 263.021851,146.821854 
	C261.038574,147.974411 259.130188,149.083466 257.221802,150.192505 
	C265.727966,149.116577 273.734467,149.005249 280.602386,154.129028 
	C275.714874,157.523636 270.966614,160.821518 266.218353,164.119400 
	C266.429565,164.627441 266.640778,165.135483 266.851959,165.643509 
	C285.899292,167.317108 304.112244,172.000107 321.133179,180.612808 
	C344.892578,138.608444 392.810822,127.441628 429.627747,142.354385 
	C468.315857,158.025085 483.199982,194.946793 480.908936,217.341644 
	C472.675476,214.739166 464.360565,212.110916 454.820953,209.095581 
	C459.414398,226.439133 458.343323,242.112427 450.617828,257.742218 
	C438.327881,249.537170 425.244080,244.086502 410.009827,243.836761 
	C410.233429,247.990540 410.435730,251.748550 410.641266,255.566849 
	C401.928253,252.836243 393.507050,250.197083 383.961212,247.205475 
	C388.562836,264.397156 386.816986,280.324188 384.380951,295.994904 
	C379.505798,327.355988 362.289520,351.186737 336.771667,369.303711 
	C285.041931,406.030579 208.180008,401.218536 162.671646,358.310425 
M247.773239,177.097946 
	C226.282410,178.397842 206.389374,184.974686 187.613052,195.783646 
	C167.155579,155.334518 135.609055,139.071594 91.613297,151.880905 
	C68.153030,158.711334 49.065926,181.178345 46.440651,200.307785 
	C55.540413,199.161087 64.706902,198.005981 74.448158,196.778442 
	C70.525543,211.537308 64.194397,225.423615 69.212013,240.858139 
	C84.354515,233.392120 100.287758,231.399216 116.782120,232.258591 
	C116.782120,234.588684 116.782120,236.519409 116.782120,238.419388 
	C126.269661,237.224594 135.561447,236.054443 145.809189,234.763916 
	C140.285233,248.210556 139.081924,261.389801 138.597351,274.764618 
	C137.815399,296.346710 143.374908,315.999481 156.016663,333.439301 
	C176.544357,361.758148 204.953644,377.056152 239.179077,381.347076 
	C277.796936,386.188721 312.894409,377.025909 341.904510,350.414948 
	C373.408081,321.516754 380.910095,285.293274 370.985931,244.641632 
	C370.228210,241.537888 369.350769,238.463364 368.369324,234.775192 
	C378.342041,236.068695 387.541138,237.261856 396.902893,238.476120 
	C396.902893,236.542572 396.902893,234.451065 396.902893,232.222870 
	C413.548981,231.402969 429.527435,233.501587 444.559082,240.843979 
	C449.131287,225.270676 443.234314,211.367889 439.143372,196.761322 
	C449.123993,198.018692 458.427277,199.190735 467.778870,200.368866 
	C461.916351,175.701187 440.889496,154.624557 413.429291,149.418655 
	C372.604980,141.679199 343.743317,158.895645 326.030853,196.261612 
	C301.869904,181.938263 276.250885,175.539352 247.773239,177.097946 
z"/>
<path fill="#040601" opacity="1.000000" stroke="none" 
	d="
M77.299835,26.514492 
	C88.597740,26.515064 99.428810,26.479935 110.259476,26.530197 
	C116.143661,26.557505 119.766350,29.566359 119.884605,34.335464 
	C120.007248,39.281662 116.235474,42.665806 110.198555,42.715313 
	C99.534996,42.802761 88.870155,42.719368 78.205956,42.746395 
	C65.194183,42.779373 57.465721,50.386036 57.248798,63.530567 
	C57.114090,71.693192 57.268597,79.860184 57.205845,88.024536 
	C57.160397,93.938110 54.530205,97.020744 49.623047,97.153618 
	C44.687485,97.287277 41.456905,94.208534 41.356789,88.574959 
	C41.188072,79.081383 40.929688,69.557083 41.475365,60.089882 
	C42.599373,40.588978 56.862534,27.289957 77.299835,26.514492 
z"/>
<path fill="#040601" opacity="1.000000" stroke="none" 
	d="
M435.415955,450.917847 
	C443.610687,446.505524 446.943451,439.779114 446.836700,431.028381 
	C446.735229,422.707825 446.715149,414.383057 446.866302,406.063904 
	C446.956635,401.092743 450.016541,398.064423 454.516846,397.970490 
	C458.972229,397.877533 462.587616,400.841766 462.629730,405.660095 
	C462.727051,416.793823 463.225586,428.033295 461.954498,439.044403 
	C459.995544,456.014130 445.476685,468.326172 428.301361,468.711578 
	C416.656586,468.972900 405.000916,468.824921 393.350952,468.740967 
	C387.873840,468.701477 383.977478,465.055115 384.116730,460.428802 
	C384.252655,455.913574 387.929047,452.654297 393.297943,452.610687 
	C403.949188,452.524139 414.603699,452.697113 425.252380,452.509857 
	C428.524170,452.452301 431.781494,451.571777 435.415955,450.917847 
z"/>
<path fill="#040600" opacity="1.000000" stroke="none" 
	d="
M74.940369,455.678436 
	C84.981422,455.992432 94.617790,456.161987 104.252686,456.393127 
	C106.236412,456.440704 108.311989,456.395508 110.174828,456.957733 
	C113.888046,458.078339 116.625038,460.950348 115.763855,464.677338 
	C115.124748,467.443176 112.305656,471.766052 110.334618,471.834106 
	C95.822464,472.335297 80.927086,475.291260 66.910446,469.685272 
	C53.339813,464.257660 46.038059,453.396973 45.376911,438.808350 
	C44.835155,426.854065 45.182362,414.855896 45.272289,402.878204 
	C45.313908,397.335571 48.471130,394.063263 53.323223,394.088043 
	C58.137798,394.112640 61.173061,397.406372 61.213917,402.995422 
	C61.294174,413.975189 61.184410,424.956299 61.260822,435.936127 
	C61.326519,445.377045 65.467674,452.157349 74.940369,455.678436 
z"/>
<path fill="#040600" opacity="1.000000" stroke="none" 
	d="
M391.888794,33.869164 
	C390.299500,26.756441 393.243652,22.781122 400.072754,22.688475 
	C409.223450,22.564337 418.385193,22.437670 427.528259,22.736958 
	C447.253601,23.382648 461.709808,38.448769 461.829102,58.250996 
	C461.896271,69.400253 461.877899,80.550407 461.827484,91.699837 
	C461.800049,97.766960 458.944916,101.055069 453.895111,101.071327 
	C448.849518,101.087570 445.895355,97.769226 445.863953,91.803040 
	C445.807037,80.986504 445.894867,70.169174 445.832581,59.352692 
	C445.759003,46.579117 438.042664,38.885155 425.265533,38.803410 
	C417.111633,38.751244 408.956940,38.760086 400.802979,38.805969 
	C397.032410,38.827187 393.947693,37.688293 391.888794,33.869164 
z"/>
<path fill="#FDFDFD" opacity="1.000000" stroke="none" 
	d="
M248.248032,177.083527 
	C276.250885,175.539352 301.869904,181.938263 326.030853,196.261612 
	C343.743317,158.895645 372.604980,141.679199 413.429291,149.418655 
	C440.889496,154.624557 461.916351,175.701187 467.778870,200.368866 
	C458.427277,199.190735 449.123993,198.018692 439.143372,196.761322 
	C443.234314,211.367889 449.131287,225.270676 444.559082,240.843979 
	C429.527435,233.501587 413.548981,231.402969 396.902893,232.222870 
	C396.902893,234.451065 396.902893,236.542572 396.902893,238.476120 
	C387.541138,237.261856 378.342041,236.068695 368.369324,234.775192 
	C369.350769,238.463364 370.228210,241.537888 370.985931,244.641632 
	C380.910095,285.293274 373.408081,321.516754 341.904510,350.414948 
	C312.894409,377.025909 277.796936,386.188721 239.179077,381.347076 
	C204.953644,377.056152 176.544357,361.758148 156.016663,333.439301 
	C143.374908,315.999481 137.815399,296.346710 138.597351,274.764618 
	C139.081924,261.389801 140.285233,248.210556 145.809189,234.763916 
	C135.561447,236.054443 126.269661,237.224594 116.782120,238.419388 
	C116.782120,236.519409 116.782120,234.588684 116.782120,232.258591 
	C100.287758,231.399216 84.354515,233.392120 69.212013,240.858139 
	C64.194397,225.423615 70.525543,211.537308 74.448158,196.778442 
	C64.706902,198.005981 55.540413,199.161087 46.440651,200.307785 
	C49.065926,181.178345 68.153030,158.711334 91.613297,151.880905 
	C135.609055,139.071594 167.155579,155.334518 187.613052,195.783646 
	C206.389374,184.974686 226.282410,178.397842 248.248032,177.083527 
M233.175171,279.608612 
	C233.848740,285.376740 234.066742,291.244812 235.305161,296.889008 
	C237.059158,304.882874 240.100601,312.480713 245.903610,318.552368 
	C252.031281,324.963715 259.346466,324.937714 265.510468,318.616882 
	C266.665009,317.432953 267.770447,316.150879 268.650757,314.757599 
	C276.792419,301.871552 279.493988,287.712982 277.701019,272.755768 
	C276.891632,266.003998 274.237579,259.821014 267.774017,256.316833 
	C252.617203,248.099792 236.304565,256.280060 233.860138,273.260437 
	C233.599899,275.068207 233.432999,276.889374 233.175171,279.608612 
M410.549896,198.824677 
	C410.994171,194.548401 412.016907,190.239990 411.781433,186.001480 
	C410.820770,168.709976 398.847778,159.641220 382.209656,164.106598 
	C375.610077,165.877823 369.170868,169.050278 363.330322,172.668915 
	C353.033203,179.048737 353.043457,183.160889 363.223755,189.895279 
	C372.107635,195.772110 378.170929,203.366592 380.851440,213.674774 
	C381.182556,214.948044 381.716583,216.186615 382.293610,217.374710 
	C384.713928,222.357986 387.390106,223.297089 392.327423,220.639297 
	C401.016266,215.962051 407.200562,209.078568 410.549896,198.824677 
M139.821945,193.300629 
	C142.653732,191.262756 145.577728,189.340042 148.297150,187.161880 
	C153.208939,183.227631 153.353836,179.828003 148.475266,175.739059 
	C140.706406,169.227554 131.884155,164.669846 121.765953,163.138580 
	C110.664848,161.458557 102.475716,166.051590 98.013268,176.128586 
	C90.868317,192.263123 100.235580,214.890457 116.643005,221.289780 
	C120.156387,222.660065 122.884567,222.038345 124.613632,218.635406 
	C125.659187,216.577682 126.433548,214.369095 127.190308,212.180084 
	C129.667786,205.013718 132.805069,198.299988 139.821945,193.300629 
M225.386398,344.186371 
	C238.853683,351.033508 253.022781,352.144165 267.631317,349.197601 
	C276.067047,347.496124 283.908325,344.491058 290.016357,338.037872 
	C292.467834,335.447845 293.774872,332.583466 290.739655,329.819855 
	C287.946960,327.277039 285.515259,328.793182 282.932556,331.032806 
	C280.104309,333.485413 276.906647,335.993805 273.429260,337.135071 
	C255.691345,342.956604 238.570038,343.375885 223.183075,330.357910 
	C221.928726,329.296661 217.977463,329.636383 216.771881,330.831177 
	C215.672546,331.920654 215.735413,335.716003 216.824631,337.150208 
	C218.867386,339.839905 222.021545,341.685486 225.386398,344.186371 
M319.744659,237.386627 
	C308.932404,245.207672 286.292084,244.123962 278.087219,235.570053 
	C277.106842,234.547943 274.437958,235.145401 272.551697,234.992172 
	C272.728851,236.919205 272.220825,239.406830 273.236328,240.647934 
	C274.957336,242.751328 277.445862,244.489914 279.951752,245.642960 
	C291.632019,251.017517 303.761871,251.577469 315.803558,247.305527 
	C320.023651,245.808395 323.834839,242.830276 327.377075,239.965073 
	C328.349457,239.178543 327.674744,236.355728 327.755859,234.467316 
	C325.995544,234.601746 324.187286,234.540192 322.495178,234.953705 
	C321.655121,235.158981 321.028290,236.236938 319.744659,237.386627 
M193.963089,248.698318 
	C201.249008,248.825348 208.587662,249.546387 215.805420,248.905609 
	C222.487701,248.312378 228.798233,245.590134 233.203232,240.147964 
	C234.193848,238.924118 233.608780,236.424896 233.749100,234.512817 
	C231.857788,234.730835 229.129150,234.220276 228.206284,235.280930 
	C220.057755,244.645950 193.862732,245.417358 184.101746,235.681198 
	C183.048798,234.630920 180.452271,235.128159 178.571762,234.907562 
	C178.798874,236.935974 178.284760,240.051941 179.383820,240.800995 
	C183.709183,243.748932 188.541962,245.952393 193.963089,248.698318 
z"/>
<path fill="#030303" opacity="1.000000" stroke="none" 
	d="
M233.198990,279.156494 
	C233.432999,276.889374 233.599899,275.068207 233.860138,273.260437 
	C236.304565,256.280060 252.617203,248.099792 267.774017,256.316833 
	C274.237579,259.821014 276.891632,266.003998 277.701019,272.755768 
	C279.493988,287.712982 276.792419,301.871552 268.650757,314.757599 
	C267.770447,316.150879 266.665009,317.432953 265.510468,318.616882 
	C259.346466,324.937714 252.031281,324.963715 245.903610,318.552368 
	C240.100601,312.480713 237.059158,304.882874 235.305161,296.889008 
	C234.066742,291.244812 233.848740,285.376740 233.198990,279.156494 
z"/>
<path fill="#040404" opacity="1.000000" stroke="none" 
	d="
M410.418701,199.206192 
	C407.200562,209.078568 401.016266,215.962051 392.327423,220.639297 
	C387.390106,223.297089 384.713928,222.357986 382.293610,217.374710 
	C381.716583,216.186615 381.182556,214.948044 380.851440,213.674774 
	C378.170929,203.366592 372.107635,195.772110 363.223755,189.895279 
	C353.043457,183.160889 353.033203,179.048737 363.330322,172.668915 
	C369.170868,169.050278 375.610077,165.877823 382.209656,164.106598 
	C398.847778,159.641220 410.820770,168.709976 411.781433,186.001480 
	C412.016907,190.239990 410.994171,194.548401 410.418701,199.206192 
z"/>
<path fill="#030303" opacity="1.000000" stroke="none" 
	d="
M139.553162,193.535767 
	C132.805069,198.299988 129.667786,205.013718 127.190308,212.180084 
	C126.433548,214.369095 125.659187,216.577682 124.613632,218.635406 
	C122.884567,222.038345 120.156387,222.660065 116.643005,221.289780 
	C100.235580,214.890457 90.868317,192.263123 98.013268,176.128586 
	C102.475716,166.051590 110.664848,161.458557 121.765953,163.138580 
	C131.884155,164.669846 140.706406,169.227554 148.475266,175.739059 
	C153.353836,179.828003 153.208939,183.227631 148.297150,187.161880 
	C145.577728,189.340042 142.653732,191.262756 139.553162,193.535767 
z"/>
<path fill="#0A0A0A" opacity="1.000000" stroke="none" 
	d="
M225.049927,344.034241 
	C222.021545,341.685486 218.867386,339.839905 216.824631,337.150208 
	C215.735413,335.716003 215.672546,331.920654 216.771881,330.831177 
	C217.977463,329.636383 221.928726,329.296661 223.183075,330.357910 
	C238.570038,343.375885 255.691345,342.956604 273.429260,337.135071 
	C276.906647,335.993805 280.104309,333.485413 282.932556,331.032806 
	C285.515259,328.793182 287.946960,327.277039 290.739655,329.819855 
	C293.774872,332.583466 292.467834,335.447845 290.016357,338.037872 
	C283.908325,344.491058 276.067047,347.496124 267.631317,349.197601 
	C253.022781,352.144165 238.853683,351.033508 225.049927,344.034241 
z"/>
<path fill="#0D0D0D" opacity="1.000000" stroke="none" 
	d="
M320.024841,237.153351 
	C321.028290,236.236938 321.655121,235.158981 322.495178,234.953705 
	C324.187286,234.540192 325.995544,234.601746 327.755859,234.467316 
	C327.674744,236.355728 328.349457,239.178543 327.377075,239.965073 
	C323.834839,242.830276 320.023651,245.808395 315.803558,247.305527 
	C303.761871,251.577469 291.632019,251.017517 279.951752,245.642960 
	C277.445862,244.489914 274.957336,242.751328 273.236328,240.647934 
	C272.220825,239.406830 272.728851,236.919205 272.551697,234.992172 
	C274.437958,235.145401 277.106842,234.547943 278.087219,235.570053 
	C286.292084,244.123962 308.932404,245.207672 320.024841,237.153351 
z"/>
<path fill="#0D0D0D" opacity="1.000000" stroke="none" 
	d="
M193.574738,248.565247 
	C188.541962,245.952393 183.709183,243.748932 179.383820,240.800995 
	C178.284760,240.051941 178.798874,236.935974 178.571762,234.907562 
	C180.452271,235.128159 183.048798,234.630920 184.101746,235.681198 
	C193.862732,245.417358 220.057755,244.645950 228.206284,235.280930 
	C229.129150,234.220276 231.857788,234.730835 233.749100,234.512817 
	C233.608780,236.424896 234.193848,238.924118 233.203232,240.147964 
	C228.798233,245.590134 222.487701,248.312378 215.805420,248.905609 
	C208.587662,249.546387 201.249008,248.825348 193.574738,248.565247 
z"/>
</svg>