<svg version="1.1" id="Layer_1" xmlns="http://www.w3.org/2000/svg" xmlns:xlink="http://www.w3.org/1999/xlink" x="0px" y="0px"
	 width="100%" viewBox="0 0 605 599" enable-background="new 0 0 605 599" xml:space="preserve">
<path fill="#FFFFFF" opacity="1.000000" stroke="none" 
	d="
M338.000000,600.000000 
	C225.333328,600.000000 113.166664,600.000000 1.000000,600.000000 
	C1.000000,400.333344 1.000000,200.666672 1.000000,1.000000 
	C202.666672,1.000000 404.333344,1.000000 606.000000,1.000000 
	C606.000000,200.666672 606.000000,400.333344 606.000000,600.000000 
	C516.833313,600.000000 427.666656,600.000000 338.000000,600.000000 
M577.928467,315.049011 
	C577.843201,303.718994 577.757935,292.388977 577.752075,280.356506 
	C577.621948,279.910431 577.491821,279.464325 577.552307,278.228851 
	C577.274963,275.509399 576.997620,272.789978 576.786072,269.263794 
	C576.562317,268.498077 576.338562,267.732330 576.248901,266.279083 
	C576.078003,264.864410 575.907104,263.449768 575.792603,261.229523 
	C575.116638,257.126526 574.563232,252.998962 573.746399,248.924210 
	C560.145264,181.078613 526.784912,125.186623 471.615479,83.157623 
	C413.068970,38.555969 346.794281,20.489073 273.628052,28.910566 
	C216.656357,35.468052 166.160645,57.882694 124.323380,96.775993 
	C52.492592,163.552277 23.028118,246.434402 38.064342,343.646393 
	C48.516354,411.220551 81.299744,467.173401 134.522659,509.942657 
	C198.386841,561.263184 271.594208,580.731689 352.596985,566.934814 
	C420.688995,555.336792 476.540863,521.859863 519.548279,467.784363 
	C554.836670,423.414398 574.071594,372.601105 577.928467,315.049011 
z"/>
<path fill="#4854A3" opacity="1.000000" stroke="none" 
	d="
M576.114868,266.966614 
	C576.338562,267.732330 576.562317,268.498077 576.527710,269.973267 
	C576.633545,273.461243 576.997620,276.239746 577.361694,279.018219 
	C577.491821,279.464325 577.621948,279.910431 577.486816,281.046173 
	C577.147705,287.214752 576.951233,292.695526 577.033142,298.172119 
	C577.121948,304.102936 577.470276,310.029846 577.705322,315.958466 
	C574.071594,372.601105 554.836670,423.414398 519.548279,467.784363 
	C476.540863,521.859863 420.688995,555.336792 352.596985,566.934814 
	C271.594208,580.731689 198.386841,561.263184 134.522659,509.942657 
	C81.299744,467.173401 48.516354,411.220551 38.064342,343.646393 
	C23.028118,246.434402 52.492592,163.552277 124.323380,96.775993 
	C166.160645,57.882694 216.656357,35.468052 273.628052,28.910566 
	C346.794281,20.489073 413.068970,38.555969 471.615479,83.157623 
	C526.784912,125.186623 560.145264,181.078613 573.746399,248.924210 
	C574.563232,252.998962 575.116638,257.126526 575.555054,261.875000 
	C575.583252,264.002533 575.849060,265.484558 576.114868,266.966614 
M366.561523,111.844246 
	C342.867340,104.705078 323.078735,111.386574 305.948212,129.588150 
	C305.248718,128.564804 304.769043,127.663712 304.108093,126.924835 
	C277.783508,97.496529 228.920120,104.739784 212.718430,140.600693 
	C212.068390,142.039505 210.392120,143.389023 208.878403,144.006668 
	C188.945679,152.140060 177.657669,166.949295 174.151138,188.052979 
	C173.853958,189.841522 172.376648,191.884445 170.848480,192.949936 
	C150.198318,207.348221 141.478271,230.114578 147.162415,254.614853 
	C147.581619,256.421722 146.874741,259.204346 145.633133,260.574005 
	C129.227753,278.671387 125.727829,303.364441 136.453964,325.156525 
	C137.344421,326.965698 137.241150,329.937347 136.392151,331.826172 
	C126.916481,352.907776 128.508682,372.799408 141.908768,391.785706 
	C143.583435,394.158508 144.814117,397.390533 144.891022,400.260864 
	C145.669647,429.321686 168.513046,455.915222 197.193665,461.029297 
	C199.227554,461.391968 201.518738,462.719238 202.841431,464.305695 
	C227.068619,493.363983 268.675903,497.519958 298.044525,473.647247 
	C300.831848,471.381561 303.417297,468.867554 306.139679,466.430176 
	C307.030212,467.275818 307.664429,467.813385 308.224701,468.419342 
	C334.843231,497.206604 384.030457,497.002197 409.928345,464.234100 
	C410.931213,462.965240 412.755951,461.936584 414.361908,461.614471 
	C444.532135,455.562866 467.178284,430.108582 467.495880,398.995239 
	C467.515961,397.026886 468.365295,394.741821 469.563202,393.160339 
	C483.491791,374.771729 485.870453,354.985931 476.583252,333.984375 
	C474.836426,330.034210 474.989410,327.078705 476.691437,323.254761 
	C485.714447,302.982880 483.682159,283.496277 470.508545,265.788605 
	C466.501129,260.401947 464.783936,256.179962 465.888428,249.162659 
	C469.575928,225.734467 460.414764,207.285828 441.455780,193.385834 
	C439.923584,192.262482 438.317963,190.299606 438.052734,188.530945 
	C434.890839,167.448029 423.477112,152.947144 403.967590,144.537201 
	C402.032990,143.703247 400.036560,141.923538 399.089020,140.063171 
	C392.174927,126.487938 381.611084,117.189972 366.561523,111.844246 
z"/>
<path fill="#565E8D" opacity="1.000000" stroke="none" 
	d="
M577.816895,315.503723 
	C577.470276,310.029846 577.121948,304.102936 577.033142,298.172119 
	C576.951233,292.695526 577.147705,287.214752 577.447144,281.397400 
	C577.757935,292.388977 577.843201,303.718994 577.816895,315.503723 
z"/>
<path fill="#565E8D" opacity="1.000000" stroke="none" 
	d="
M577.457031,278.623535 
	C576.997620,276.239746 576.633545,273.461243 576.494873,270.376648 
	C576.997620,272.789978 577.274963,275.509399 577.457031,278.623535 
z"/>
<path fill="#565E8D" opacity="1.000000" stroke="none" 
	d="
M576.181885,266.622864 
	C575.849060,265.484558 575.583252,264.002533 575.526855,262.277802 
	C575.907104,263.449768 576.078003,264.864410 576.181885,266.622864 
z"/>
<path fill="#FAFBFD" opacity="1.000000" stroke="none" 
	d="
M366.945251,111.939178 
	C381.611084,117.189972 392.174927,126.487938 399.089020,140.063171 
	C400.036560,141.923538 402.032990,143.703247 403.967590,144.537201 
	C423.477112,152.947144 434.890839,167.448029 438.052734,188.530945 
	C438.317963,190.299606 439.923584,192.262482 441.455780,193.385834 
	C460.414764,207.285828 469.575928,225.734467 465.888428,249.162659 
	C464.783936,256.179962 466.501129,260.401947 470.508545,265.788605 
	C483.682159,283.496277 485.714447,302.982880 476.691437,323.254761 
	C474.989410,327.078705 474.836426,330.034210 476.583252,333.984375 
	C485.870453,354.985931 483.491791,374.771729 469.563202,393.160339 
	C468.365295,394.741821 467.515961,397.026886 467.495880,398.995239 
	C467.178284,430.108582 444.532135,455.562866 414.361908,461.614471 
	C412.755951,461.936584 410.931213,462.965240 409.928345,464.234100 
	C384.030457,497.002197 334.843231,497.206604 308.224701,468.419342 
	C307.664429,467.813385 307.030212,467.275818 306.139679,466.430176 
	C303.417297,468.867554 300.831848,471.381561 298.044525,473.647247 
	C268.675903,497.519958 227.068619,493.363983 202.841431,464.305695 
	C201.518738,462.719238 199.227554,461.391968 197.193665,461.029297 
	C168.513046,455.915222 145.669647,429.321686 144.891022,400.260864 
	C144.814117,397.390533 143.583435,394.158508 141.908768,391.785706 
	C128.508682,372.799408 126.916481,352.907776 136.392151,331.826172 
	C137.241150,329.937347 137.344421,326.965698 136.453964,325.156525 
	C125.727829,303.364441 129.227753,278.671387 145.633133,260.574005 
	C146.874741,259.204346 147.581619,256.421722 147.162415,254.614853 
	C141.478271,230.114578 150.198318,207.348221 170.848480,192.949936 
	C172.376648,191.884445 173.853958,189.841522 174.151138,188.052979 
	C177.657669,166.949295 188.945679,152.140060 208.878403,144.006668 
	C210.392120,143.389023 212.068390,142.039505 212.718430,140.600693 
	C228.920120,104.739784 277.783508,97.496529 304.108093,126.924835 
	C304.769043,127.663712 305.248718,128.564804 305.948212,129.588150 
	C323.078735,111.386574 342.867340,104.705078 366.945251,111.939178 
M344.339172,473.331482 
	C367.004120,478.462433 385.288483,471.460236 399.435608,453.280396 
	C401.931549,450.072937 404.756775,448.309143 408.940735,447.755585 
	C434.138367,444.421814 453.236206,422.802734 452.626038,398.050262 
	C452.496307,392.787537 453.893066,388.959686 457.221497,385.009399 
	C467.989380,372.229675 470.387329,354.341003 463.330872,341.406769 
	C447.848419,351.523529 430.858887,352.081451 413.347321,348.946991 
	C408.332794,348.049469 405.608643,344.581604 406.425751,340.290955 
	C407.263153,335.893768 410.857117,333.972351 415.837341,334.555847 
	C422.098785,335.289459 428.439880,336.106995 434.705536,335.857330 
	C443.511475,335.506439 452.282257,333.336090 458.046082,326.199371 
	C472.370361,308.463196 469.886230,282.585907 452.630493,267.735504 
	C448.224457,263.943665 447.338043,260.415894 449.532532,255.130493 
	C452.747711,247.386703 452.979919,239.201935 450.922668,231.086441 
	C447.481995,217.513626 439.872437,206.143036 426.466187,202.304535 
	C412.626770,198.341965 398.105530,199.571884 386.781616,210.714752 
	C378.230347,219.129303 375.422668,229.997086 374.937195,241.643921 
	C374.729950,246.615463 371.587067,249.895737 367.319214,249.739807 
	C363.181824,249.588654 360.196198,246.445343 360.166351,241.670090 
	C360.146698,238.526718 360.560059,235.354782 361.050140,232.238190 
	C365.253662,205.506332 383.491333,188.192673 407.236176,186.780441 
	C412.137054,186.488968 417.037445,186.188660 422.389587,185.865128 
	C421.738098,183.689240 421.339386,181.739746 420.585205,179.939148 
	C415.725433,168.337189 407.013611,161.334503 395.325562,156.704758 
	C387.397858,153.564545 381.483582,155.608871 375.450439,159.969070 
	C372.897339,161.814224 370.598999,164.015274 368.210815,166.084473 
	C364.787476,169.050598 360.643158,169.325684 357.819733,166.738998 
	C354.656982,163.841431 354.440674,159.688400 357.470795,156.013031 
	C358.730347,154.485275 360.200867,153.012604 361.854950,151.949936 
	C368.339264,147.784058 374.935059,143.791718 381.488190,139.735657 
	C366.600586,116.656807 327.999634,118.080437 314.922516,142.889587 
	C314.046906,144.550735 313.718933,146.679169 313.712036,148.592331 
	C313.630402,171.254913 313.652466,193.917877 313.671906,216.580734 
	C313.673096,217.977707 313.880310,219.374512 313.942383,220.152893 
	C320.271942,219.347992 326.137177,218.309799 332.043915,217.946976 
	C336.472351,217.674988 339.494568,220.850174 339.571442,224.857193 
	C339.646332,228.760223 336.550354,231.746124 332.122711,232.042923 
	C329.969299,232.187256 327.768799,232.099228 325.670990,232.521027 
	C316.672424,234.330338 313.660431,238.073853 313.660065,247.126892 
	C313.658447,287.786743 313.656952,328.446625 313.655426,369.106476 
	C313.655365,370.843994 313.655426,372.581482 313.655426,375.270081 
	C315.417297,373.962372 316.309692,373.299042 317.203064,372.637054 
	C328.071198,364.584198 340.217590,360.139496 353.773834,359.630676 
	C358.536285,359.451904 361.645874,361.582489 362.223145,365.528717 
	C362.832428,369.693787 360.173645,372.946411 355.428986,373.786407 
	C354.613403,373.930817 353.768951,373.907837 352.938965,373.975922 
	C339.785156,375.054596 328.412811,380.228729 319.396545,389.776672 
	C292.748444,417.996002 305.552338,461.933929 344.339172,473.331482 
M205.942383,201.136765 
	C204.946060,201.060318 203.948196,200.901657 202.953659,200.920380 
	C194.707047,201.075607 186.254913,199.844910 178.812500,204.998016 
	C162.652405,216.187256 156.196777,235.760284 162.631104,254.343796 
	C165.340546,262.169159 165.207611,262.240051 158.953674,268.027863 
	C139.319092,286.199097 138.835632,319.172516 166.734528,334.421112 
	C170.276520,336.356995 174.540863,337.752686 178.532104,337.918671 
	C186.282303,338.240967 194.088623,337.690277 201.847244,337.149963 
	C206.351578,336.836304 210.069992,338.955475 210.852173,343.058105 
	C211.598724,346.973969 209.253754,350.311066 204.737595,351.190460 
	C200.664017,351.983673 196.531174,352.608673 192.395264,352.921478 
	C176.470444,354.125946 161.646301,351.276978 149.293152,340.194061 
	C141.985474,353.889740 144.155869,371.873627 154.978333,384.355194 
	C158.658066,388.599030 159.956085,392.829620 159.925583,398.343414 
	C159.793594,422.207092 177.334045,443.199310 200.709808,446.759735 
	C206.860916,447.696686 210.851196,450.111053 214.616760,454.915649 
	C234.137009,479.822021 271.617096,481.141357 293.307465,458.069855 
	C296.329315,454.855621 297.208435,452.262360 295.302643,447.642975 
	C288.800354,431.882233 289.025604,415.785614 295.776276,400.087250 
	C297.444427,396.208099 296.873383,393.716431 294.246674,390.811035 
	C284.346771,379.860718 271.943542,374.348938 257.381744,373.164948 
	C252.181152,372.742065 249.756927,370.131592 249.974258,365.715881 
	C250.174469,361.647400 253.509811,358.594177 258.313110,359.144714 
	C264.554993,359.860138 271.020905,360.508270 276.824799,362.689941 
	C284.454071,365.557770 291.532715,369.890350 298.910248,373.624512 
	C298.910248,372.764130 298.910309,371.616089 298.910248,370.468048 
	C298.907837,328.806671 298.800903,287.144714 299.022766,245.484512 
	C299.053833,239.649261 296.446045,236.225555 291.719055,234.333267 
	C288.254395,232.946274 284.348083,232.365723 280.588959,232.080521 
	C274.931488,231.651321 271.867889,229.300186 271.966431,224.642944 
	C272.059235,220.255997 275.131653,217.504730 280.596680,217.940170 
	C286.642029,218.421890 292.628571,219.641769 298.903046,220.579361 
	C298.903046,198.401993 298.505676,176.073029 299.101166,153.770554 
	C299.335052,145.011520 296.091705,138.754486 290.046204,133.286758 
	C283.955261,127.777924 276.768311,124.567070 268.679993,123.256264 
	C253.796417,120.844238 236.711044,128.402542 230.338379,140.427261 
	C232.040512,140.980270 233.930984,141.201813 235.367615,142.127640 
	C242.445892,146.689072 249.606186,151.168869 256.319427,156.231857 
	C259.710693,158.789459 259.507263,162.731552 256.753387,166.016327 
	C253.869568,169.456070 250.339111,169.053955 246.904419,166.892288 
	C245.518173,166.019836 244.471878,164.626175 243.171875,163.594482 
	C237.156921,158.821136 231.175537,153.374207 222.734436,154.956589 
	C208.442368,157.635773 197.633423,165.233459 191.802460,178.966599 
	C190.822037,181.275696 190.287994,183.774338 189.563858,186.132767 
	C196.237839,186.428955 202.047607,186.385162 207.788666,186.991653 
	C239.608398,190.353134 252.982620,218.094971 252.850983,243.040527 
	C252.827866,247.423920 249.488831,249.496429 245.477982,249.737488 
	C241.634476,249.968475 239.273270,247.585495 238.436798,243.936127 
	C238.032928,242.174149 238.103256,240.298630 238.005875,238.472000 
	C236.916931,218.045914 226.067139,205.102036 205.942383,201.136765 
z"/>
<path fill="#4955A2" opacity="1.000000" stroke="none" 
	d="
M343.937561,473.230530 
	C305.552338,461.933929 292.748444,417.996002 319.396545,389.776672 
	C328.412811,380.228729 339.785156,375.054596 352.938965,373.975922 
	C353.768951,373.907837 354.613403,373.930817 355.428986,373.786407 
	C360.173645,372.946411 362.832428,369.693787 362.223145,365.528717 
	C361.645874,361.582489 358.536285,359.451904 353.773834,359.630676 
	C340.217590,360.139496 328.071198,364.584198 317.203064,372.637054 
	C316.309692,373.299042 315.417297,373.962372 313.655426,375.270081 
	C313.655426,372.581482 313.655365,370.843994 313.655426,369.106476 
	C313.656952,328.446625 313.658447,287.786743 313.660065,247.126892 
	C313.660431,238.073853 316.672424,234.330338 325.670990,232.521027 
	C327.768799,232.099228 329.969299,232.187256 332.122711,232.042923 
	C336.550354,231.746124 339.646332,228.760223 339.571442,224.857193 
	C339.494568,220.850174 336.472351,217.674988 332.043915,217.946976 
	C326.137177,218.309799 320.271942,219.347992 313.942383,220.152893 
	C313.880310,219.374512 313.673096,217.977707 313.671906,216.580734 
	C313.652466,193.917877 313.630402,171.254913 313.712036,148.592331 
	C313.718933,146.679169 314.046906,144.550735 314.922516,142.889587 
	C327.999634,118.080437 366.600586,116.656807 381.488190,139.735657 
	C374.935059,143.791718 368.339264,147.784058 361.854950,151.949936 
	C360.200867,153.012604 358.730347,154.485275 357.470795,156.013031 
	C354.440674,159.688400 354.656982,163.841431 357.819733,166.738998 
	C360.643158,169.325684 364.787476,169.050598 368.210815,166.084473 
	C370.598999,164.015274 372.897339,161.814224 375.450439,159.969070 
	C381.483582,155.608871 387.397858,153.564545 395.325562,156.704758 
	C407.013611,161.334503 415.725433,168.337189 420.585205,179.939148 
	C421.339386,181.739746 421.738098,183.689240 422.389587,185.865128 
	C417.037445,186.188660 412.137054,186.488968 407.236176,186.780441 
	C383.491333,188.192673 365.253662,205.506332 361.050140,232.238190 
	C360.560059,235.354782 360.146698,238.526718 360.166351,241.670090 
	C360.196198,246.445343 363.181824,249.588654 367.319214,249.739807 
	C371.587067,249.895737 374.729950,246.615463 374.937195,241.643921 
	C375.422668,229.997086 378.230347,219.129303 386.781616,210.714752 
	C398.105530,199.571884 412.626770,198.341965 426.466187,202.304535 
	C439.872437,206.143036 447.481995,217.513626 450.922668,231.086441 
	C452.979919,239.201935 452.747711,247.386703 449.532532,255.130493 
	C447.338043,260.415894 448.224457,263.943665 452.630493,267.735504 
	C469.886230,282.585907 472.370361,308.463196 458.046082,326.199371 
	C452.282257,333.336090 443.511475,335.506439 434.705536,335.857330 
	C428.439880,336.106995 422.098785,335.289459 415.837341,334.555847 
	C410.857117,333.972351 407.263153,335.893768 406.425751,340.290955 
	C405.608643,344.581604 408.332794,348.049469 413.347321,348.946991 
	C430.858887,352.081451 447.848419,351.523529 463.330872,341.406769 
	C470.387329,354.341003 467.989380,372.229675 457.221497,385.009399 
	C453.893066,388.959686 452.496307,392.787537 452.626038,398.050262 
	C453.236206,422.802734 434.138367,444.421814 408.940735,447.755585 
	C404.756775,448.309143 401.931549,450.072937 399.435608,453.280396 
	C385.288483,471.460236 367.004120,478.462433 343.937561,473.230530 
M382.217529,290.742859 
	C383.177673,290.470490 384.136658,290.193939 385.098145,289.926300 
	C405.356140,284.287567 419.889282,266.989655 420.916687,247.292099 
	C421.245575,240.985825 418.778046,237.301773 414.066925,237.065308 
	C409.185822,236.820282 406.491302,239.980743 406.092804,246.389557 
	C405.450500,256.718018 400.695801,264.862030 392.392059,270.765472 
	C374.056641,283.800781 349.083496,275.938995 340.950958,254.738403 
	C338.683807,248.828201 335.056458,246.585907 330.485565,248.269012 
	C326.312531,249.805649 324.938141,254.025604 327.012909,259.641937 
	C332.448578,274.356262 342.865417,284.007904 357.624756,288.902374 
	C360.615509,289.894135 362.074921,291.381042 363.231628,294.262146 
	C369.854279,310.758026 381.418884,320.925507 399.802124,322.256531 
	C407.445068,322.809906 411.781647,320.651917 412.106628,315.511871 
	C412.432068,310.364044 409.149139,308.090668 401.269135,308.006989 
	C390.795563,307.895782 380.889069,300.645050 378.460327,291.195496 
	C379.468140,291.093262 380.453888,290.993256 382.217529,290.742859 
M384.667969,430.309845 
	C391.187195,418.216339 401.221039,412.101349 415.054932,412.264832 
	C419.394012,412.316101 422.628296,409.286072 422.777344,405.432709 
	C422.925873,401.594330 419.768188,398.169006 415.570770,398.048737 
	C403.287842,397.696686 392.258667,401.100769 382.965210,409.402618 
	C370.111938,420.884430 365.170441,435.900055 363.866577,452.482849 
	C363.440887,457.896729 365.711487,460.867767 370.254822,461.442688 
	C374.553833,461.986694 377.140869,459.265045 378.336884,453.993469 
	C380.091339,446.260559 382.279022,438.625885 384.667969,430.309845 
M362.204315,334.085022 
	C357.899292,334.378387 353.554138,334.402802 349.300079,335.037628 
	C344.672607,335.728180 342.278900,338.928314 342.934509,343.007568 
	C343.633667,347.357605 346.502319,349.144897 350.734802,349.039795 
	C351.900421,349.010834 353.072052,349.005920 354.229065,348.880524 
	C368.721649,347.309875 379.901642,353.328064 388.421143,364.490845 
	C392.120148,369.337494 394.751495,374.995789 397.903168,380.264282 
	C400.191376,384.089325 403.991730,385.367065 407.683624,383.621490 
	C411.279053,381.921448 412.785217,377.944122 411.022064,373.921234 
	C401.708008,352.669861 387.183685,337.632690 362.204315,334.085022 
z"/>
<path fill="#4955A2" opacity="1.000000" stroke="none" 
	d="
M206.380859,201.208557 
	C226.067139,205.102036 236.916931,218.045914 238.005875,238.472000 
	C238.103256,240.298630 238.032928,242.174149 238.436798,243.936127 
	C239.273270,247.585495 241.634476,249.968475 245.477982,249.737488 
	C249.488831,249.496429 252.827866,247.423920 252.850983,243.040527 
	C252.982620,218.094971 239.608398,190.353134 207.788666,186.991653 
	C202.047607,186.385162 196.237839,186.428955 189.563858,186.132767 
	C190.287994,183.774338 190.822037,181.275696 191.802460,178.966599 
	C197.633423,165.233459 208.442368,157.635773 222.734436,154.956589 
	C231.175537,153.374207 237.156921,158.821136 243.171875,163.594482 
	C244.471878,164.626175 245.518173,166.019836 246.904419,166.892288 
	C250.339111,169.053955 253.869568,169.456070 256.753387,166.016327 
	C259.507263,162.731552 259.710693,158.789459 256.319427,156.231857 
	C249.606186,151.168869 242.445892,146.689072 235.367615,142.127640 
	C233.930984,141.201813 232.040512,140.980270 230.338379,140.427261 
	C236.711044,128.402542 253.796417,120.844238 268.679993,123.256264 
	C276.768311,124.567070 283.955261,127.777924 290.046204,133.286758 
	C296.091705,138.754486 299.335052,145.011520 299.101166,153.770554 
	C298.505676,176.073029 298.903046,198.401993 298.903046,220.579361 
	C292.628571,219.641769 286.642029,218.421890 280.596680,217.940170 
	C275.131653,217.504730 272.059235,220.255997 271.966431,224.642944 
	C271.867889,229.300186 274.931488,231.651321 280.588959,232.080521 
	C284.348083,232.365723 288.254395,232.946274 291.719055,234.333267 
	C296.446045,236.225555 299.053833,239.649261 299.022766,245.484512 
	C298.800903,287.144714 298.907837,328.806671 298.910248,370.468048 
	C298.910309,371.616089 298.910248,372.764130 298.910248,373.624512 
	C291.532715,369.890350 284.454071,365.557770 276.824799,362.689941 
	C271.020905,360.508270 264.554993,359.860138 258.313110,359.144714 
	C253.509811,358.594177 250.174469,361.647400 249.974258,365.715881 
	C249.756927,370.131592 252.181152,372.742065 257.381744,373.164948 
	C271.943542,374.348938 284.346771,379.860718 294.246674,390.811035 
	C296.873383,393.716431 297.444427,396.208099 295.776276,400.087250 
	C289.025604,415.785614 288.800354,431.882233 295.302643,447.642975 
	C297.208435,452.262360 296.329315,454.855621 293.307465,458.069855 
	C271.617096,481.141357 234.137009,479.822021 214.616760,454.915649 
	C210.851196,450.111053 206.860916,447.696686 200.709808,446.759735 
	C177.334045,443.199310 159.793594,422.207092 159.925583,398.343414 
	C159.956085,392.829620 158.658066,388.599030 154.978333,384.355194 
	C144.155869,371.873627 141.985474,353.889740 149.293152,340.194061 
	C161.646301,351.276978 176.470444,354.125946 192.395264,352.921478 
	C196.531174,352.608673 200.664017,351.983673 204.737595,351.190460 
	C209.253754,350.311066 211.598724,346.973969 210.852173,343.058105 
	C210.069992,338.955475 206.351578,336.836304 201.847244,337.149963 
	C194.088623,337.690277 186.282303,338.240967 178.532104,337.918671 
	C174.540863,337.752686 170.276520,336.356995 166.734528,334.421112 
	C138.835632,319.172516 139.319092,286.199097 158.953674,268.027863 
	C165.207611,262.240051 165.340546,262.169159 162.631104,254.343796 
	C156.196777,235.760284 162.652405,216.187256 178.812500,204.998016 
	C186.254913,199.844910 194.707047,201.075607 202.953659,200.920380 
	C203.948196,200.901657 204.946060,201.060318 206.380859,201.208557 
M234.749023,314.303101 
	C238.687485,309.621704 244.082611,305.516632 246.217117,300.121552 
	C249.287231,292.361664 254.525375,288.966736 261.635925,285.878510 
	C274.015472,280.501892 281.878876,270.496368 285.985535,257.664215 
	C287.338989,253.435028 285.413910,249.459213 281.802307,248.197342 
	C277.848267,246.815811 273.855133,248.758621 272.116241,252.946625 
	C271.670898,254.019241 271.379028,255.155121 270.943695,256.232452 
	C264.998230,270.945038 248.156448,279.780121 232.581833,276.369598 
	C217.221390,273.005920 207.577454,261.563416 206.053909,244.894165 
	C205.584763,239.760971 202.596451,236.771286 198.234711,237.071365 
	C193.827393,237.374603 191.065872,240.754791 191.398254,245.802673 
	C191.594238,248.779175 191.887802,251.809555 192.651932,254.678711 
	C198.317612,275.951813 212.701889,287.565155 233.888870,291.490448 
	C232.560867,299.476471 220.903839,308.995361 209.355499,307.957886 
	C205.443741,307.606476 202.412170,308.625946 200.754852,312.363159 
	C198.358475,317.766846 203.197601,322.875793 210.346710,322.505188 
	C218.983215,322.057465 227.102722,319.991058 234.749023,314.303101 
M223.057846,405.352936 
	C215.665924,401.576508 207.881348,399.506958 199.519455,399.832489 
	C194.665131,400.021515 191.442841,402.704803 191.376144,406.738586 
	C191.302856,411.172821 194.492538,414.079315 199.589905,414.060181 
	C214.164688,414.005463 224.633652,420.819458 230.151932,433.994141 
	C233.120346,441.081146 234.191559,448.987823 235.875198,456.578735 
	C236.924667,461.310486 239.672394,463.671906 244.222260,463.081421 
	C248.238449,462.560242 250.860580,459.287262 250.450974,454.891052 
	C250.096664,451.088348 249.632111,447.268463 248.828476,443.539795 
	C245.408524,427.672089 238.542664,414.037079 223.057846,405.352936 
M263.003418,351.967163 
	C267.276215,351.195526 269.447693,348.650330 269.113007,344.304718 
	C268.794983,340.175537 266.257935,337.965607 262.253662,337.769012 
	C257.126038,337.517334 251.861893,336.831787 246.867218,337.638062 
	C224.342468,341.274231 210.545349,355.739105 201.466400,375.588226 
	C199.114868,380.729370 200.420593,384.879059 204.402191,386.651123 
	C208.652878,388.542908 212.509842,386.531097 214.932312,381.158569 
	C225.007462,358.814026 237.710480,350.966705 263.003418,351.967163 
z"/>
<path fill="#FAFBFD" opacity="1.000000" stroke="none" 
	d="
M381.828583,290.818054 
	C380.453888,290.993256 379.468140,291.093262 378.460327,291.195496 
	C380.889069,300.645050 390.795563,307.895782 401.269135,308.006989 
	C409.149139,308.090668 412.432068,310.364044 412.106628,315.511871 
	C411.781647,320.651917 407.445068,322.809906 399.802124,322.256531 
	C381.418884,320.925507 369.854279,310.758026 363.231628,294.262146 
	C362.074921,291.381042 360.615509,289.894135 357.624756,288.902374 
	C342.865417,284.007904 332.448578,274.356262 327.012909,259.641937 
	C324.938141,254.025604 326.312531,249.805649 330.485565,248.269012 
	C335.056458,246.585907 338.683807,248.828201 340.950958,254.738403 
	C349.083496,275.938995 374.056641,283.800781 392.392059,270.765472 
	C400.695801,264.862030 405.450500,256.718018 406.092804,246.389557 
	C406.491302,239.980743 409.185822,236.820282 414.066925,237.065308 
	C418.778046,237.301773 421.245575,240.985825 420.916687,247.292099 
	C419.889282,266.989655 405.356140,284.287567 385.098145,289.926300 
	C384.136658,290.193939 383.177673,290.470490 381.828583,290.818054 
z"/>
<path fill="#FAFBFD" opacity="1.000000" stroke="none" 
	d="
M384.475037,430.629608 
	C382.279022,438.625885 380.091339,446.260559 378.336884,453.993469 
	C377.140869,459.265045 374.553833,461.986694 370.254822,461.442688 
	C365.711487,460.867767 363.440887,457.896729 363.866577,452.482849 
	C365.170441,435.900055 370.111938,420.884430 382.965210,409.402618 
	C392.258667,401.100769 403.287842,397.696686 415.570770,398.048737 
	C419.768188,398.169006 422.925873,401.594330 422.777344,405.432709 
	C422.628296,409.286072 419.394012,412.316101 415.054932,412.264832 
	C401.221039,412.101349 391.187195,418.216339 384.475037,430.629608 
z"/>
<path fill="#F9FBFD" opacity="1.000000" stroke="none" 
	d="
M362.657196,334.103943 
	C387.183685,337.632690 401.708008,352.669861 411.022064,373.921234 
	C412.785217,377.944122 411.279053,381.921448 407.683624,383.621490 
	C403.991730,385.367065 400.191376,384.089325 397.903168,380.264282 
	C394.751495,374.995789 392.120148,369.337494 388.421143,364.490845 
	C379.901642,353.328064 368.721649,347.309875 354.229065,348.880524 
	C353.072052,349.005920 351.900421,349.010834 350.734802,349.039795 
	C346.502319,349.144897 343.633667,347.357605 342.934509,343.007568 
	C342.278900,338.928314 344.672607,335.728180 349.300079,335.037628 
	C353.554138,334.402802 357.899292,334.378387 362.657196,334.103943 
z"/>
<path fill="#FAFBFD" opacity="1.000000" stroke="none" 
	d="
M234.464813,314.522858 
	C227.102722,319.991058 218.983215,322.057465 210.346710,322.505188 
	C203.197601,322.875793 198.358475,317.766846 200.754852,312.363159 
	C202.412170,308.625946 205.443741,307.606476 209.355499,307.957886 
	C220.903839,308.995361 232.560867,299.476471 233.888870,291.490448 
	C212.701889,287.565155 198.317612,275.951813 192.651932,254.678711 
	C191.887802,251.809555 191.594238,248.779175 191.398254,245.802673 
	C191.065872,240.754791 193.827393,237.374603 198.234711,237.071365 
	C202.596451,236.771286 205.584763,239.760971 206.053909,244.894165 
	C207.577454,261.563416 217.221390,273.005920 232.581833,276.369598 
	C248.156448,279.780121 264.998230,270.945038 270.943695,256.232452 
	C271.379028,255.155121 271.670898,254.019241 272.116241,252.946625 
	C273.855133,248.758621 277.848267,246.815811 281.802307,248.197342 
	C285.413910,249.459213 287.338989,253.435028 285.985535,257.664215 
	C281.878876,270.496368 274.015472,280.501892 261.635925,285.878510 
	C254.525375,288.966736 249.287231,292.361664 246.217117,300.121552 
	C244.082611,305.516632 238.687485,309.621704 234.464813,314.522858 
z"/>
<path fill="#FAFBFD" opacity="1.000000" stroke="none" 
	d="
M223.369141,405.555298 
	C238.542664,414.037079 245.408524,427.672089 248.828476,443.539795 
	C249.632111,447.268463 250.096664,451.088348 250.450974,454.891052 
	C250.860580,459.287262 248.238449,462.560242 244.222260,463.081421 
	C239.672394,463.671906 236.924667,461.310486 235.875198,456.578735 
	C234.191559,448.987823 233.120346,441.081146 230.151932,433.994141 
	C224.633652,420.819458 214.164688,414.005463 199.589905,414.060181 
	C194.492538,414.079315 191.302856,411.172821 191.376144,406.738586 
	C191.442841,402.704803 194.665131,400.021515 199.519455,399.832489 
	C207.881348,399.506958 215.665924,401.576508 223.369141,405.555298 
z"/>
<path fill="#FAFBFD" opacity="1.000000" stroke="none" 
	d="
M262.573059,351.980652 
	C237.710480,350.966705 225.007462,358.814026 214.932312,381.158569 
	C212.509842,386.531097 208.652878,388.542908 204.402191,386.651123 
	C200.420593,384.879059 199.114868,380.729370 201.466400,375.588226 
	C210.545349,355.739105 224.342468,341.274231 246.867218,337.638062 
	C251.861893,336.831787 257.126038,337.517334 262.253662,337.769012 
	C266.257935,337.965607 268.794983,340.175537 269.113007,344.304718 
	C269.447693,348.650330 267.276215,351.195526 262.573059,351.980652 
z"/>
</svg>