<svg version="1.1" id="Layer_1" xmlns="http://www.w3.org/2000/svg" xmlns:xlink="http://www.w3.org/1999/xlink" x="0px" y="0px"
	 width="100%" viewBox="0 0 365 356" enable-background="new 0 0 365 356" xml:space="preserve">
<path fill="#000000" opacity="1.000000" stroke="none" 
	d="
M1.000000,54.000000 
	C1.000000,36.360973 1.000000,18.721943 1.000000,1.000000 
	C76.354210,1.000000 151.708450,1.000000 227.868958,1.257205 
	C228.061234,2.013397 227.524170,2.741696 226.821838,2.977275 
	C214.643753,7.062116 213.053802,25.510172 221.030991,32.893394 
	C227.606094,38.978912 234.654434,38.031940 241.881241,37.660439 
	C251.800888,48.457932 261.606842,59.146553 271.429932,69.819412 
	C279.380737,78.458038 287.315887,87.111443 295.322113,95.698532 
	C310.333588,111.799126 325.406647,127.842323 340.418915,143.942215 
	C343.967529,147.747894 347.376556,151.683701 350.782471,155.484512 
	C339.062134,168.756241 327.513123,181.834015 315.654297,195.050293 
	C313.553192,197.443100 311.761841,199.697403 309.724365,202.030975 
	C309.308746,202.398285 309.139313,202.686325 308.984924,202.987183 
	C309.000000,203.000000 308.973083,202.970993 308.724670,203.042770 
	C308.304657,203.401581 308.133057,203.688614 307.979492,203.986862 
	C307.997559,203.998077 307.967010,203.967331 307.626038,204.121933 
	C307.158234,206.040161 306.443512,208.019699 306.999146,209.532684 
	C310.865997,220.062149 315.046814,230.475952 318.979706,240.981949 
	C319.481720,242.323013 319.131439,243.983139 319.188171,245.509308 
	C319.200317,245.523148 319.168152,245.514816 318.977417,245.659424 
	C318.509338,246.170731 318.232025,246.537445 317.649170,247.039124 
	C315.214172,249.412033 313.084717,251.649994 310.646454,254.024048 
	C306.187897,258.422577 302.038147,262.685059 297.581940,267.081085 
	C296.159729,269.390686 291.865021,269.912842 293.974976,273.782440 
	C296.362823,278.161774 298.630646,282.606537 300.991821,287.390106 
	C304.727509,293.728943 306.927216,299.929413 303.647217,307.129822 
	C301.966644,312.235596 300.605896,317.131500 299.143494,322.410461 
	C297.321259,328.513702 295.600708,334.233887 293.479553,339.971802 
	C289.744446,339.314697 286.409943,338.639893 282.930725,337.695374 
	C282.203552,337.351593 281.621124,337.277527 280.698730,337.037872 
	C278.932831,336.569000 277.506897,336.265747 275.871155,335.642059 
	C266.449463,332.857269 257.237549,330.392944 247.815247,327.613037 
	C244.481094,326.420380 241.360825,325.530426 238.232849,324.668488 
	C226.496567,321.434540 214.757767,318.209778 202.820480,314.651093 
	C198.494324,313.283722 194.367615,312.246826 190.037216,311.158722 
	C192.244385,308.204651 194.147537,305.657471 196.355988,302.967896 
	C202.702240,296.218201 208.743179,289.610931 214.945694,282.700500 
	C218.493591,278.655731 221.664307,274.681702 225.349579,271.262238 
	C227.455719,269.308014 230.399689,268.256744 233.324036,266.983032 
	C240.178726,269.051880 249.152802,265.093536 252.351578,258.872833 
	C253.424164,255.385101 254.708649,252.115997 254.832611,248.803482 
	C255.145447,240.445084 250.863556,234.545517 243.032516,231.585876 
	C235.571548,228.766098 228.303177,230.717728 222.640350,237.115692 
	C217.417114,243.670425 216.769653,250.567551 219.657990,258.050842 
	C214.890564,263.089386 210.426849,267.979248 205.646942,273.016113 
	C203.553986,275.294312 201.841614,277.483368 199.987778,279.545258 
	C195.351440,284.701935 190.650925,289.800903 185.670486,295.083557 
	C183.579025,297.348358 181.770187,299.433594 180.013977,301.562225 
	C178.275620,303.669189 176.590378,305.819977 174.578583,308.085022 
	C171.168915,311.443390 168.062500,314.668274 164.648422,318.031219 
	C159.887054,323.098083 155.433365,328.026855 150.670563,333.086426 
	C143.802444,339.777771 137.243423,346.338318 129.984055,353.599335 
	C137.253601,353.599335 144.080170,355.551666 148.484344,353.118774 
	C154.352646,349.877106 158.336639,343.224396 163.432098,337.904175 
	C167.171616,334.216309 170.609116,330.661194 174.357254,326.960632 
	C177.874313,322.021118 181.977173,321.148071 186.990128,323.912964 
	C187.502228,324.195404 188.276093,324.003174 189.127563,324.341370 
	C190.540634,324.779846 191.754639,324.908203 193.120361,325.338867 
	C194.152588,325.772736 195.033127,325.904266 196.132233,326.356384 
	C205.559906,329.141968 214.768982,331.606964 224.192520,334.389740 
	C225.664352,335.015381 226.928223,335.298950 228.178040,335.634949 
	C237.440201,338.124573 246.699570,340.624573 256.155701,343.447021 
	C265.236938,346.109436 274.122314,348.446198 283.345093,350.970886 
	C287.841583,352.422729 292.023499,353.619324 296.139191,355.011536 
	C296.896973,355.267822 297.386597,356.316864 298.000000,357.000000 
	C199.073822,357.000000 100.147636,357.000000 1.000000,357.000000 
	C1.000000,260.645874 1.000000,164.291595 1.251843,67.122284 
	C2.029961,67.074997 2.716466,67.778046 3.056823,68.620872 
	C5.486550,74.637581 10.217388,78.495651 16.313496,78.646988 
	C21.263166,78.769867 23.316303,80.855652 24.976770,84.668724 
	C25.622316,86.151131 26.459728,87.549988 27.257931,89.336639 
	C32.947193,100.465439 38.588264,111.244507 44.435387,122.381714 
	C65.060326,122.744904 85.479202,122.749962 106.367279,122.834030 
	C113.146690,122.925514 119.456924,122.955261 125.767120,122.947601 
	C161.798645,122.903847 197.830185,122.851196 234.332336,122.886459 
	C242.434036,123.072334 250.936752,121.106804 257.451355,123.854675 
	C263.984619,126.610420 268.534393,134.068115 273.954498,139.464050 
	C274.543610,140.050507 275.409912,140.527634 275.678223,141.233826 
	C276.341553,142.979645 277.432587,144.959900 277.122955,146.616257 
	C274.404602,161.158524 284.926605,170.913849 296.001282,170.049667 
	C307.354401,169.163773 313.747345,161.976242 313.841858,151.304901 
	C313.934357,140.860367 306.142120,132.125153 296.143616,133.485550 
	C288.027985,134.589752 284.051361,130.859863 279.548431,126.082733 
	C277.039673,123.421196 274.393921,120.888451 271.799164,118.308434 
	C252.234070,98.854500 232.666306,79.403252 212.849594,59.593025 
	C186.038742,59.174580 159.476990,59.003891 132.917358,59.170052 
	C128.818604,59.195698 126.371712,58.089424 124.124329,54.669914 
	C117.708748,44.908260 103.748520,44.193943 95.569458,53.102673 
	C87.921135,61.794842 89.896309,75.808487 99.491043,81.704758 
	C108.820145,87.437782 123.172272,82.250656 125.358932,74.845245 
	C127.198288,73.774025 128.628571,72.315987 130.211655,72.125084 
	C133.769211,71.696091 137.402588,71.895813 141.469055,71.907944 
	C150.621643,71.929070 159.310318,71.881859 168.462830,71.906334 
	C180.218018,71.985901 191.512680,71.854485 202.797760,72.123711 
	C204.954819,72.175179 207.570129,73.291214 209.129425,74.793030 
	C218.335968,83.660179 227.280975,92.798492 236.341827,101.817589 
	C238.839096,104.303375 241.431442,106.693657 243.980179,109.127769 
	C243.754837,109.474854 243.529510,109.821938 243.304169,110.169022 
	C234.869812,110.169022 226.435455,110.169022 217.537384,110.096123 
	C207.049194,110.072556 197.024704,110.121887 186.536819,110.096466 
	C175.049789,110.069992 164.026138,110.118263 152.538635,110.094215 
	C140.719711,110.068504 129.364670,110.115105 117.545532,110.087570 
	C107.723076,110.061951 98.364700,110.110458 88.541550,110.089920 
	C81.385933,110.067848 74.695084,110.114807 67.542633,110.090424 
	C63.946114,110.010674 60.788654,109.763176 57.682133,110.056015 
	C54.021675,110.401070 52.129826,109.020683 50.663532,105.620934 
	C48.895885,101.522446 46.284103,97.788017 44.014885,93.531235 
	C41.230049,87.558083 38.407307,81.978203 35.751579,76.319939 
	C35.137909,75.012466 35.095547,73.436844 34.958672,71.651794 
	C38.444191,66.895721 38.978539,61.987370 38.044762,56.653446 
	C36.653877,48.708382 30.224152,43.653908 22.131615,42.060867 
	C15.962862,40.846531 5.921529,45.678520 3.635778,52.118431 
	C2.539963,52.880230 1.769982,53.440117 1.000000,54.000000 
M181.091827,219.529709 
	C181.380966,219.627213 181.670120,219.724731 182.824661,219.972000 
	C189.899475,220.207291 196.007965,218.347427 200.720566,211.705902 
	C201.489502,209.762985 202.354904,207.852005 203.010345,205.871521 
	C205.601822,198.041092 202.758881,190.727509 195.235519,185.681122 
	C188.892838,181.426697 179.732559,181.950180 173.250015,187.041473 
	C166.729019,191.867279 166.753159,198.789444 167.052734,205.891205 
	C167.122971,207.556259 166.364838,209.256256 165.361191,211.191162 
	C162.564255,214.099655 159.767319,217.008133 156.346054,220.169159 
	C153.890656,222.518417 151.435257,224.867676 148.141861,227.086777 
	C146.726990,227.140991 145.312134,227.195206 142.984848,227.092209 
	C112.994881,227.043732 83.004906,226.995255 52.984440,226.981735 
	C52.984440,226.981735 53.030720,226.985107 52.941658,226.335876 
	C52.895123,225.902802 52.848587,225.469711 53.092449,224.427246 
	C53.425861,223.630997 53.759277,222.834747 54.705685,221.688293 
	C57.148552,216.152802 59.591419,210.617325 62.651661,204.699905 
	C63.881660,200.666397 66.340561,198.263916 70.782394,197.919342 
	C72.251434,197.805389 73.642708,196.688919 75.760666,195.954773 
	C78.212418,192.649765 80.664177,189.344772 83.821304,185.557480 
	C83.881149,183.233398 84.073235,180.903793 83.976761,178.586227 
	C83.648308,170.696274 79.681557,165.081223 72.221725,162.897568 
	C65.935188,161.057358 59.295811,160.426498 53.353710,166.230225 
	C48.541332,171.248032 45.459072,176.793243 47.985214,184.786072 
	C49.482315,187.908936 50.979416,191.031815 52.692245,194.604660 
	C52.053673,195.977722 51.116135,197.993591 49.864094,200.664673 
	C47.900230,205.091980 45.936367,209.519302 43.373081,214.332993 
	C39.511272,222.662689 35.649467,230.992386 31.862497,239.160660 
	C45.279797,246.787811 58.105408,254.176422 71.030128,261.387390 
	C78.262085,265.422272 85.658379,269.162628 93.295876,273.655365 
	C96.009666,275.139862 98.646355,276.792938 101.452240,278.076019 
	C108.776382,281.425232 113.713997,285.893036 115.273026,294.758057 
	C116.787506,303.369751 125.621521,307.239502 136.033615,305.994537 
	C143.174881,305.140656 149.103470,298.702087 150.168777,290.294708 
	C151.610565,283.199554 148.934357,277.508209 143.553772,273.251587 
	C137.975708,268.838715 131.636826,267.569763 124.827896,270.681610 
	C122.959045,271.535767 120.971901,272.131104 118.729637,272.213715 
	C104.816467,264.523224 90.903297,256.832703 76.333954,248.854019 
	C71.960579,246.525421 67.587196,244.196838 62.571053,241.526001 
	C63.854527,241.141678 64.440788,240.966125 65.948692,240.913361 
	C70.638275,240.875473 75.327850,240.837585 80.945663,240.918915 
	C102.938362,240.863220 124.931068,240.807526 147.803329,240.899841 
	C150.532349,240.607269 153.261353,240.314713 156.608551,239.758514 
	C160.085709,236.180954 163.562866,232.603378 167.649017,228.750748 
	C170.100647,226.314133 172.370697,223.645966 175.072113,221.527939 
	C176.688080,220.260956 178.979340,219.855270 181.002792,219.006226 
	C181.002792,219.006226 180.951706,219.048370 181.091827,219.529709 
M188.930725,163.975082 
	C196.954758,163.927719 204.978790,163.880356 213.911255,163.972824 
	C217.774429,164.311615 222.978363,163.170151 225.269135,165.244995 
	C235.284348,174.316223 244.454559,184.320374 253.277649,194.429749 
	C252.866241,197.005249 251.756195,199.695267 252.156555,202.137695 
	C254.794952,218.233154 271.124725,224.265045 284.133240,213.355423 
	C284.752777,212.592896 285.382812,211.838638 285.990204,211.066513 
	C290.607239,205.196976 290.912048,196.764435 286.739655,190.476395 
	C282.398193,183.933563 274.289612,180.185867 267.560669,182.401016 
	C264.077789,183.547546 262.084381,182.659225 259.768646,180.332611 
	C250.269073,170.788498 240.640564,161.372742 230.555786,151.212341 
	C228.734680,151.152908 226.913559,151.042023 225.092453,151.041824 
	C198.699814,151.038956 172.306961,151.001495 145.914841,151.121933 
	C142.618164,151.136993 140.214386,150.574921 138.021271,147.747437 
	C133.428986,141.826797 127.393799,139.361740 119.142616,141.996582 
	C114.669647,141.800598 112.417755,145.022476 109.323502,148.247162 
	C102.744781,157.159943 105.007957,166.880386 110.982346,173.125748 
	C115.960701,178.329910 127.508011,181.215240 136.663971,173.758575 
	C137.947021,172.134689 139.271164,170.541183 140.501480,168.878296 
	C141.716415,167.236191 142.836472,165.523895 144.915375,163.985428 
	C148.945938,163.937592 152.976501,163.889740 157.934952,163.975418 
	C167.957672,163.928696 177.980392,163.881973 188.930725,163.975082 
z"/>
<path fill="#000000" opacity="1.000000" stroke="none" 
	d="
M241.000000,0.999999 
	C282.600067,1.000000 324.200104,1.000000 366.000000,1.000000 
	C366.000000,50.354050 366.000000,99.708366 365.783447,149.877686 
	C364.326569,149.600433 362.982941,148.604324 361.862366,147.400558 
	C353.644745,138.572845 345.454742,129.719254 337.290009,120.842567 
	C330.145782,113.075378 323.096893,105.220047 315.915558,97.487541 
	C301.739410,82.223389 287.517273,67.001762 273.279846,51.794704 
	C267.396179,45.510330 261.340759,39.384892 255.532501,33.032608 
	C253.146820,30.423458 251.635483,27.835835 252.660904,23.476412 
	C254.463669,15.812193 250.932892,5.757382 241.788300,2.874855 
	C241.370102,2.743027 241.255829,1.646968 241.000000,0.999999 
z"/>
<path fill="#000000" opacity="1.000000" stroke="none" 
	d="
M366.000000,161.000000 
	C366.000000,226.222809 366.000000,291.445618 366.000000,357.000000 
	C345.313629,357.000000 324.625458,357.000000 303.457306,356.605652 
	C303.931519,352.473877 304.885742,348.736511 305.998962,344.654297 
	C307.385529,340.206116 308.613129,336.102753 309.993042,331.644104 
	C311.697571,325.191895 313.249756,319.094940 314.988892,312.651917 
	C316.735016,307.868896 318.294128,303.431915 319.915649,298.620361 
	C319.919769,297.492737 319.861481,296.739685 319.827026,295.736328 
	C319.577698,295.313660 319.304535,295.141296 319.015686,294.984467 
	C319.000000,295.000000 319.033142,294.969879 318.994690,294.661438 
	C318.649078,293.871429 318.341919,293.389801 317.894287,292.580536 
	C314.875793,286.488068 311.997742,280.723267 309.175018,274.631287 
	C312.856812,270.550690 316.483246,266.797302 320.413452,262.910522 
	C324.508820,258.867584 328.300476,254.958023 332.412079,250.897598 
	C333.814514,249.461395 334.897034,248.176071 335.912933,246.969788 
	C331.248535,235.550079 326.632385,224.248459 322.006592,212.589722 
	C320.378540,207.165680 325.122559,205.295502 327.425049,201.910568 
	C330.909515,198.242920 334.117249,194.736237 337.254700,191.167770 
	C344.053375,183.435135 350.705475,175.569702 357.653534,167.974503 
	C360.078888,165.323273 363.197815,163.306519 366.000000,161.000000 
z"/>
<path fill="#FB06A0" opacity="1.000000" stroke="none" 
	d="
M366.000000,160.541931 
	C363.197815,163.306519 360.078888,165.323273 357.653534,167.974503 
	C350.705475,175.569702 344.053375,183.435135 337.254700,191.167770 
	C334.117249,194.736237 330.909515,198.242920 327.070679,201.836502 
	C322.926483,199.567490 319.445251,197.239624 315.964050,194.911774 
	C327.513123,181.834015 339.062134,168.756241 350.782471,155.484512 
	C347.376556,151.683701 343.967529,147.747894 340.418915,143.942215 
	C325.406647,127.842323 310.333588,111.799126 295.322113,95.698532 
	C287.315887,87.111443 279.380737,78.458038 271.429932,69.819412 
	C261.606842,59.146553 251.800888,48.457932 241.881241,37.660439 
	C234.654434,38.031940 227.606094,38.978912 221.030991,32.893394 
	C213.053802,25.510172 214.643753,7.062116 226.821838,2.977275 
	C227.524170,2.741696 228.061234,2.013397 228.337616,1.257205 
	C232.024551,1.000000 236.049088,1.000000 240.536819,0.999999 
	C241.255829,1.646968 241.370102,2.743027 241.788300,2.874855 
	C250.932892,5.757382 254.463669,15.812193 252.660904,23.476412 
	C251.635483,27.835835 253.146820,30.423458 255.532501,33.032608 
	C261.340759,39.384892 267.396179,45.510330 273.279846,51.794704 
	C287.517273,67.001762 301.739410,82.223389 315.915558,97.487541 
	C323.096893,105.220047 330.145782,113.075378 337.290009,120.842567 
	C345.454742,129.719254 353.644745,138.572845 361.862366,147.400558 
	C362.982941,148.604324 364.326569,149.600433 365.783447,150.346344 
	C366.000000,153.361282 366.000000,156.722580 366.000000,160.541931 
z"/>
<path fill="#C60DC4" opacity="1.000000" stroke="none" 
	d="
M34.790283,71.984619 
	C35.095547,73.436844 35.137909,75.012466 35.751579,76.319939 
	C38.407307,81.978203 41.230049,87.558083 43.911911,93.895370 
	C40.186218,98.266670 35.127937,97.765572 33.033100,93.274170 
	C31.786980,90.602440 30.430136,88.692360 27.209740,88.986908 
	C26.459728,87.549988 25.622316,86.151131 24.976770,84.668724 
	C23.316303,80.855652 21.263166,78.769867 16.313496,78.646988 
	C10.217388,78.495651 5.486550,74.637581 3.056823,68.620872 
	C2.716466,67.778046 2.029961,67.074997 1.251843,66.653625 
	C1.000000,62.975456 1.000000,58.950912 1.000000,54.463184 
	C1.769982,53.440117 2.539963,52.880230 3.818886,52.417004 
	C9.978639,56.288418 15.624302,60.070953 21.291458,63.820999 
	C21.683481,64.080414 22.333584,63.972099 22.693861,64.252769 
	C23.575071,64.939270 24.947756,65.661308 25.083485,66.531189 
	C26.031496,72.606979 30.391979,72.261269 34.790283,71.984619 
z"/>
<path fill="#AE10D2" opacity="1.000000" stroke="none" 
	d="
M305.839996,344.999115 
	C304.885742,348.736511 303.931519,352.473877 302.988647,356.605652 
	C301.611115,357.000000 300.222198,357.000000 298.416656,357.000000 
	C297.386597,356.316864 296.896973,355.267822 296.139191,355.011536 
	C292.023499,353.619324 287.841583,352.422729 283.343140,350.565491 
	C283.109955,345.908051 282.524658,342.519470 277.516235,341.459839 
	C276.687225,341.284424 276.542084,337.876556 276.080933,335.962494 
	C277.506897,336.265747 278.932831,336.569000 280.926666,337.193787 
	C282.021515,337.665192 282.548492,337.815125 283.075470,337.965088 
	C286.409943,338.639893 289.744446,339.314697 293.830139,340.055603 
	C298.334259,341.747528 302.087128,343.373322 305.839996,344.999115 
z"/>
<path fill="#FC05A1" opacity="1.000000" stroke="none" 
	d="
M213.099396,59.951157 
	C232.666306,79.403252 252.234070,98.854500 271.799164,118.308434 
	C274.393921,120.888451 277.039673,123.421196 279.548431,126.082733 
	C284.051361,130.859863 288.027985,134.589752 296.143616,133.485550 
	C306.142120,132.125153 313.934357,140.860367 313.841858,151.304901 
	C313.747345,161.976242 307.354401,169.163773 296.001282,170.049667 
	C284.926605,170.913849 274.404602,161.158524 277.122955,146.616257 
	C277.432587,144.959900 276.341553,142.979645 275.678223,141.233826 
	C275.409912,140.527634 274.543610,140.050507 273.954498,139.464050 
	C268.534393,134.068115 263.984619,126.610420 257.451355,123.854675 
	C250.936752,121.106804 242.434036,123.072334 234.032913,122.706238 
	C231.835342,122.277496 230.407822,122.113861 228.959900,121.592010 
	C227.510071,119.594025 226.166290,117.868484 224.630554,116.335228 
	C222.496140,114.204292 220.217819,112.217514 218.001099,110.169022 
	C226.435455,110.169022 234.869812,110.169022 243.304169,110.169022 
	C243.529510,109.821938 243.754837,109.474854 243.980179,109.127769 
	C241.431442,106.693657 238.839096,104.303375 236.341827,101.817589 
	C227.280975,92.798492 218.335968,83.660179 209.129425,74.793030 
	C207.570129,73.291214 204.954819,72.175179 202.797760,72.123711 
	C191.512680,71.854485 180.218018,71.985901 168.454529,71.524719 
	C168.097778,67.378479 165.896698,65.801163 162.629120,65.130791 
	C159.787720,64.547852 157.040665,63.800316 157.470398,60.060947 
	C176.325668,60.016605 194.712524,59.983879 213.099396,59.951157 
z"/>
<path fill="#E808AF" opacity="1.000000" stroke="none" 
	d="
M253.931442,193.985947 
	C244.454559,184.320374 235.284348,174.316223 225.269135,165.244995 
	C222.978363,163.170151 217.774429,164.311615 213.370667,163.578125 
	C210.684998,159.401337 205.753555,157.329910 206.477295,152.060486 
	C214.983292,152.001373 223.021393,151.955566 231.059509,151.909760 
	C240.640564,161.372742 250.269073,170.788498 259.768646,180.332611 
	C262.084381,182.659225 264.077789,183.547546 267.560669,182.401016 
	C274.289612,180.185867 282.398193,183.933563 286.739655,190.476395 
	C290.912048,196.764435 290.607239,205.196976 285.990204,211.066513 
	C285.382812,211.838638 284.752777,212.592896 283.619080,213.629883 
	C279.336578,210.755890 275.601013,207.566727 271.777679,204.486542 
	C270.774933,203.678696 269.447693,203.287231 268.362549,202.564713 
	C266.868408,201.569855 264.755768,200.743103 264.148285,199.316299 
	C262.114563,194.539459 258.095917,194.278931 253.931442,193.985947 
z"/>
<path fill="#8D15E7" opacity="1.000000" stroke="none" 
	d="
M149.838013,291.002594 
	C149.103470,298.702087 143.174881,305.140656 136.033615,305.994537 
	C125.621521,307.239502 116.787506,303.369751 115.273026,294.758057 
	C113.713997,285.893036 108.776382,281.425232 101.452240,278.076019 
	C98.646355,276.792938 96.009666,275.139862 93.380707,273.096741 
	C94.119530,270.878021 94.773514,269.217987 95.427505,267.557922 
	C93.528244,267.008667 91.642883,266.403595 89.725761,265.926056 
	C87.854424,265.459930 85.601486,265.639679 84.123611,264.638794 
	C78.726158,260.983368 77.754791,255.060776 76.990128,249.142212 
	C90.903297,256.832703 104.816467,264.523224 119.094421,272.814972 
	C121.079872,277.411530 123.406509,280.279053 128.210434,280.845612 
	C130.316162,281.093964 133.159698,282.474609 134.067398,284.188751 
	C137.624084,290.905426 143.783539,290.629883 149.838013,291.002594 
z"/>
<path fill="#8A16E9" opacity="1.000000" stroke="none" 
	d="
M76.662041,248.998108 
	C77.754791,255.060776 78.726158,260.983368 84.123611,264.638794 
	C85.601486,265.639679 87.854424,265.459930 89.725761,265.926056 
	C91.642883,266.403595 93.528244,267.008667 95.427505,267.557922 
	C94.773514,269.217987 94.119530,270.878021 93.223083,272.786865 
	C85.658379,269.162628 78.262085,265.422272 71.030128,261.387390 
	C58.105408,254.176422 45.279797,246.787811 31.862497,239.160660 
	C35.649467,230.992386 39.511272,222.662689 43.851837,214.428528 
	C47.584621,217.028885 50.838654,219.533691 54.092686,222.038513 
	C53.759277,222.834747 53.425861,223.630997 52.827187,224.922119 
	C52.718185,225.939697 52.874451,226.462402 53.030716,226.985107 
	C53.030720,226.985107 52.984440,226.981735 53.202549,227.173019 
	C53.950340,227.594589 54.480022,227.824875 55.036285,228.422882 
	C56.115711,230.118896 56.921429,231.856277 58.280663,232.677368 
	C60.206184,233.840576 62.612759,234.171997 64.683182,235.138550 
	C68.423828,236.884857 68.452774,238.172699 65.027054,240.790573 
	C64.440788,240.966125 63.854527,241.141678 62.571053,241.526001 
	C67.587196,244.196838 71.960579,246.525421 76.662041,248.998108 
z"/>
<path fill="#EA0BAA" opacity="1.000000" stroke="none" 
	d="
M212.849594,59.593025 
	C194.712524,59.983879 176.325668,60.016605 157.001694,60.043236 
	C147.959579,60.037144 139.854553,60.037144 131.749542,60.037144 
	C131.618454,60.721725 131.487381,61.406311 131.356293,62.090893 
	C133.077774,63.171661 134.671188,64.701530 136.548233,65.236732 
	C140.106400,66.251274 141.410767,68.360977 141.005112,71.839615 
	C137.402588,71.895813 133.769211,71.696091 130.211655,72.125084 
	C128.628571,72.315987 127.198288,73.774025 125.092163,74.627495 
	C118.736694,71.147385 112.696480,68.090309 107.331421,64.120728 
	C103.086823,60.980164 99.671120,56.719315 95.887321,52.955956 
	C103.748520,44.193943 117.708748,44.908260 124.124329,54.669914 
	C126.371712,58.089424 128.818604,59.195698 132.917358,59.170052 
	C159.476990,59.003891 186.038742,59.174580 212.849594,59.593025 
z"/>
<path fill="#CF0CBE" opacity="1.000000" stroke="none" 
	d="
M34.958668,71.651794 
	C30.391979,72.261269 26.031496,72.606979 25.083485,66.531189 
	C24.947756,65.661308 23.575071,64.939270 22.693861,64.252769 
	C22.333584,63.972099 21.683481,64.080414 21.291458,63.820999 
	C15.624302,60.070953 9.978639,56.288418 4.144719,52.215088 
	C5.921529,45.678520 15.962862,40.846531 22.131615,42.060867 
	C30.224152,43.653908 36.653877,48.708382 38.044762,56.653446 
	C38.978539,61.987370 38.444191,66.895721 34.958668,71.651794 
z"/>
<path fill="#C10EC6" opacity="1.000000" stroke="none" 
	d="
M252.035065,259.071686 
	C249.152802,265.093536 240.178726,269.051880 232.995667,266.807312 
	C226.125717,266.587280 223.509048,261.572327 219.961685,257.902191 
	C216.769653,250.567551 217.417114,243.670425 222.881561,237.362396 
	C226.358536,243.058548 232.718460,243.624146 237.305649,246.771301 
	C242.647446,250.436142 250.190903,251.240936 252.035065,259.071686 
z"/>
<path fill="#9913DE" opacity="1.000000" stroke="none" 
	d="
M196.050690,303.110321 
	C194.147537,305.657471 192.244385,308.204651 190.037216,311.158722 
	C194.367615,312.246826 198.494324,313.283722 202.847229,315.030365 
	C204.290787,316.835449 205.336472,318.472321 206.758194,318.923004 
	C210.758560,320.191132 215.423660,319.999023 216.778839,325.515167 
	C217.014465,326.474213 219.112137,327.263397 220.480576,327.601166 
	C224.165375,328.510651 225.490997,330.464752 223.978058,334.071960 
	C214.768982,331.606964 205.559906,329.141968 196.392975,326.264954 
	C196.375351,325.091888 196.614197,323.939026 196.209488,323.630615 
	C192.320389,320.667023 188.652664,317.059937 184.258957,315.215576 
	C180.255432,313.535034 177.254837,311.353394 174.881836,307.951508 
	C176.590378,305.819977 178.275620,303.669189 180.013977,301.562225 
	C181.770187,299.433594 183.579025,297.348358 185.983688,295.305359 
	C191.689423,295.583923 195.446899,297.423218 196.050690,303.110321 
z"/>
<path fill="#C10EC6" opacity="1.000000" stroke="none" 
	d="
M200.057602,212.023727 
	C196.007965,218.347427 189.899475,220.207291 182.241852,219.745972 
	C181.446091,219.328522 181.210312,219.171326 180.951706,219.048370 
	C180.951706,219.048370 181.002792,219.006226 180.677368,218.808960 
	C174.244720,218.524567 169.982193,214.983414 165.987823,210.940186 
	C166.364838,209.256256 167.122971,207.556259 167.052734,205.891205 
	C166.753159,198.789444 166.729019,191.867279 173.611847,187.374237 
	C173.615112,191.056229 175.423874,192.756622 178.240891,194.223938 
	C180.285217,195.288788 181.840378,197.280334 183.644196,198.822937 
	C185.257904,200.202972 186.886276,201.568924 188.559921,202.874741 
	C189.693039,203.758850 191.621048,204.300247 191.972855,205.389252 
	C193.293076,209.476044 196.586746,210.773834 200.057602,212.023727 
z"/>
<path fill="#E309B1" opacity="1.000000" stroke="none" 
	d="
M95.569458,53.102669 
	C99.671120,56.719315 103.086823,60.980164 107.331421,64.120728 
	C112.696480,68.090309 118.736694,71.147385 124.752441,74.815811 
	C123.172272,82.250656 108.820145,87.437782 99.491043,81.704758 
	C89.896309,75.808487 87.921135,61.794842 95.569458,53.102669 
z"/>
<path fill="#BE0FC6" opacity="1.000000" stroke="none" 
	d="
M27.257931,89.336639 
	C30.430136,88.692360 31.786980,90.602440 33.033100,93.274170 
	C35.127937,97.765572 40.186218,98.266670 43.934753,94.260139 
	C46.284103,97.788017 48.895885,101.522446 50.663532,105.620934 
	C52.129826,109.020683 54.021675,110.401070 57.682133,110.056015 
	C60.788654,109.763176 63.946114,110.010674 67.468880,110.425804 
	C68.271797,112.392380 68.443558,114.078018 69.167381,115.478264 
	C69.960220,117.012001 71.262779,118.282257 72.343201,119.667336 
	C70.461548,120.447144 68.601463,121.832016 66.694435,121.899986 
	C59.214104,122.166626 51.718975,122.017967 44.229340,122.023567 
	C38.588264,111.244507 32.947193,100.465439 27.257931,89.336639 
z"/>
<path fill="#C60DC4" opacity="1.000000" stroke="none" 
	d="
M109.976593,147.953079 
	C112.417755,145.022476 114.669647,141.800598 119.964523,141.991455 
	C125.544807,141.151962 128.188599,143.453873 130.773254,147.363617 
	C134.644485,153.219513 137.816971,159.788055 143.998154,163.842392 
	C142.836472,165.523895 141.716415,167.236191 140.501480,168.878296 
	C139.271164,170.541183 137.947021,172.134689 136.025909,173.777588 
	C129.991119,169.440308 125.201927,163.462570 119.038261,161.153061 
	C111.915070,158.484009 111.150696,153.582458 109.976593,147.953079 
z"/>
<path fill="#A612D7" opacity="1.000000" stroke="none" 
	d="
M47.927338,184.030533 
	C45.459072,176.793243 48.541332,171.248032 53.775070,166.373749 
	C55.685787,166.979172 57.492619,167.054321 58.608868,167.970688 
	C63.153389,171.701447 68.522438,175.018036 71.605659,179.772537 
	C74.684532,184.520325 78.522568,185.371262 83.115936,186.039780 
	C80.664177,189.344772 78.212418,192.649765 75.059982,196.001556 
	C71.081642,195.229385 67.547539,194.933655 64.581108,193.479706 
	C58.860363,190.675797 53.460339,187.217499 47.927338,184.030533 
z"/>
<path fill="#E909AC" opacity="1.000000" stroke="none" 
	d="
M322.016266,212.946823 
	C326.632385,224.248459 331.248535,235.550079 335.912933,246.969788 
	C334.897034,248.176071 333.814514,249.461395 332.178162,250.616623 
	C330.532684,246.996689 328.203217,245.605057 324.547424,245.938507 
	C322.785095,246.099228 320.968201,245.661942 319.176025,245.495453 
	C319.131439,243.983139 319.481720,242.323013 318.979706,240.981949 
	C315.046814,230.475952 310.865997,220.062149 306.999146,209.532684 
	C306.443512,208.019699 307.158234,206.040161 307.661835,204.484375 
	C310.377136,207.539413 312.348663,210.873718 315.208740,213.028748 
	C316.643005,214.109467 319.695587,213.042496 322.016266,212.946823 
z"/>
<path fill="#CB0DBF" opacity="1.000000" stroke="none" 
	d="
M200.389084,211.864807 
	C196.586746,210.773834 193.293076,209.476044 191.972855,205.389252 
	C191.621048,204.300247 189.693039,203.758850 188.559921,202.874741 
	C186.886276,201.568924 185.257904,200.202972 183.644196,198.822937 
	C181.840378,197.280334 180.285217,195.288788 178.240891,194.223938 
	C175.423874,192.756622 173.615112,191.056229 173.962677,187.302216 
	C179.732559,181.950180 188.892838,181.426697 195.235519,185.681122 
	C202.758881,190.727509 205.601822,198.041092 203.010345,205.871521 
	C202.354904,207.852005 201.489502,209.762985 200.389084,211.864807 
z"/>
<path fill="#A013D9" opacity="1.000000" stroke="none" 
	d="
M224.192520,334.389740 
	C225.490997,330.464752 224.165375,328.510651 220.480576,327.601166 
	C219.112137,327.263397 217.014465,326.474213 216.778839,325.515167 
	C215.423660,319.999023 210.758560,320.191132 206.758194,318.923004 
	C205.336472,318.472321 204.290787,316.835449 203.046692,315.360809 
	C214.757767,318.209778 226.496567,321.434540 238.232849,324.668488 
	C241.360825,325.530426 244.481094,326.420380 247.889374,328.016510 
	C248.399750,329.701813 248.800415,330.664398 248.820618,331.634918 
	C248.898666,335.385437 248.820282,339.027588 254.046875,339.555786 
	C254.796967,339.631592 255.327606,341.878937 255.959808,343.121338 
	C246.699570,340.624573 237.440201,338.124573 228.178040,335.634949 
	C226.928223,335.298950 225.664352,335.015381 224.192520,334.389740 
z"/>
<path fill="#C90DC0" opacity="1.000000" stroke="none" 
	d="
M252.351578,258.872833 
	C250.190903,251.240936 242.647446,250.436142 237.305649,246.771301 
	C232.718460,243.624146 226.358536,243.058548 223.207733,237.220551 
	C228.303177,230.717728 235.571548,228.766098 243.032516,231.585876 
	C250.863556,234.545517 255.145447,240.445084 254.832611,248.803482 
	C254.708649,252.115997 253.424164,255.385101 252.351578,258.872833 
z"/>
<path fill="#CF10B5" opacity="1.000000" stroke="none" 
	d="
M228.980301,121.950226 
	C230.407822,122.113861 231.835342,122.277496 233.562286,122.621346 
	C197.830185,122.851196 161.798645,122.903847 125.767120,122.947601 
	C119.456924,122.955261 113.146690,122.925514 106.065269,122.672318 
	C101.976532,120.599251 98.440918,119.064224 95.410080,116.841034 
	C92.959969,115.043816 91.118034,112.417496 89.006317,110.158958 
	C98.364700,110.110458 107.723076,110.061951 117.571259,110.440277 
	C120.059563,113.403236 121.765343,116.271851 124.149033,118.370461 
	C126.060997,120.053757 128.766144,121.731911 131.169693,121.807358 
	C142.101837,122.150513 153.051804,121.925850 164.464127,121.918770 
	C176.290054,121.929642 187.647202,121.927162 199.472488,121.943283 
	C209.620514,121.958000 219.300400,121.954109 228.980301,121.950226 
z"/>
<path fill="#E808AF" opacity="1.000000" stroke="none" 
	d="
M199.004364,121.924675 
	C187.647202,121.927162 176.290054,121.929642 164.314667,121.605194 
	C162.564957,120.717354 161.487671,119.965172 160.293152,119.626877 
	C153.046585,117.574585 153.037659,117.606110 153.002502,110.166534 
	C164.026138,110.118263 175.049789,110.069992 186.624710,110.424622 
	C189.312164,112.454292 191.597214,113.922722 193.543167,115.751877 
	C195.536469,117.625534 197.197754,119.852409 199.004364,121.924675 
z"/>
<path fill="#DF09B5" opacity="1.000000" stroke="none" 
	d="
M253.604553,194.207855 
	C258.095917,194.278931 262.114563,194.539459 264.148285,199.316299 
	C264.755768,200.743103 266.868408,201.569855 268.362549,202.564713 
	C269.447693,203.287231 270.774933,203.678696 271.777679,204.486542 
	C275.601013,207.566727 279.336578,210.755890 283.445709,213.948242 
	C271.124725,224.265045 254.794952,218.233154 252.156555,202.137695 
	C251.756195,199.695267 252.866241,197.005249 253.604553,194.207855 
z"/>
<path fill="#9514E1" opacity="1.000000" stroke="none" 
	d="
M150.003387,290.648651 
	C143.783539,290.629883 137.624084,290.905426 134.067398,284.188751 
	C133.159698,282.474609 130.316162,281.093964 128.210434,280.845612 
	C123.406509,280.279053 121.079872,277.411530 119.249123,273.130707 
	C120.971901,272.131104 122.959045,271.535767 124.827896,270.681610 
	C131.636826,267.569763 137.975708,268.838715 143.553772,273.251587 
	C148.934357,277.508209 151.610565,283.199554 150.003387,290.648651 
z"/>
<path fill="#DF09B5" opacity="1.000000" stroke="none" 
	d="
M152.538635,110.094223 
	C153.037659,117.606110 153.046585,117.574585 160.293152,119.626877 
	C161.487671,119.965172 162.564957,120.717354 163.845886,121.591843 
	C153.051804,121.925850 142.101837,122.150513 131.169693,121.807358 
	C128.766144,121.731911 126.060997,120.053757 124.149033,118.370461 
	C121.765343,116.271851 120.059563,113.403236 118.035339,110.514404 
	C129.364670,110.115105 140.719711,110.068504 152.538635,110.094223 
z"/>
<path fill="#AE10D2" opacity="1.000000" stroke="none" 
	d="
M83.468620,185.798630 
	C78.522568,185.371262 74.684532,184.520325 71.605659,179.772537 
	C68.522438,175.018036 63.153389,171.701447 58.608868,167.970688 
	C57.492619,167.054321 55.685787,166.979172 54.089752,166.236130 
	C59.295811,160.426498 65.935188,161.057358 72.221725,162.897568 
	C79.681557,165.081223 83.648308,170.696274 83.976761,178.586227 
	C84.073235,180.903793 83.881149,183.233398 83.468620,185.798630 
z"/>
<path fill="#BE0FC6" opacity="1.000000" stroke="none" 
	d="
M109.650047,148.100128 
	C111.150696,153.582458 111.915070,158.484009 119.038261,161.153061 
	C125.201927,163.462570 129.991119,169.440308 135.704956,173.905121 
	C127.508011,181.215240 115.960701,178.329910 110.982346,173.125748 
	C105.007957,166.880386 102.744781,157.159943 109.650047,148.100128 
z"/>
<path fill="#A713D5" opacity="1.000000" stroke="none" 
	d="
M256.155670,343.447021 
	C255.327606,341.878937 254.796967,339.631592 254.046875,339.555786 
	C248.820282,339.027588 248.898666,335.385437 248.820618,331.634918 
	C248.800415,330.664398 248.399750,329.701813 248.099731,328.332092 
	C257.237549,330.392944 266.449463,332.857269 275.871155,335.642059 
	C276.542084,337.876556 276.687225,341.284424 277.516235,341.459839 
	C282.524658,342.519470 283.109955,345.908051 283.005737,350.377563 
	C274.122314,348.446198 265.236938,346.109436 256.155670,343.447021 
z"/>
<path fill="#9315E2" opacity="1.000000" stroke="none" 
	d="
M65.487869,240.851959 
	C68.452774,238.172699 68.423828,236.884857 64.683182,235.138550 
	C62.612759,234.171997 60.206184,233.840576 58.280663,232.677368 
	C56.921429,231.856277 56.115711,230.118896 55.503693,228.409149 
	C58.755062,228.024384 61.565613,228.016968 64.376160,228.018600 
	C71.650551,228.022858 78.926849,227.933655 86.198570,228.076294 
	C90.209000,228.154938 93.076324,232.092087 92.826080,236.905548 
	C92.599319,241.267380 89.137779,239.608597 86.816246,239.968231 
	C84.561165,240.317581 82.284576,240.528168 80.017433,240.799713 
	C75.327850,240.837585 70.638275,240.875473 65.487869,240.851959 
z"/>
<path fill="#CA10B9" opacity="1.000000" stroke="none" 
	d="
M144.456757,163.913910 
	C137.816971,159.788055 134.644485,153.219513 130.773254,147.363617 
	C128.188599,143.453873 125.544807,141.151962 120.349548,141.976807 
	C127.393799,139.361740 133.428986,141.826797 138.021271,147.747437 
	C140.214386,150.574921 142.618164,151.136993 145.914841,151.121933 
	C172.306961,151.001495 198.699814,151.038956 225.092453,151.041824 
	C226.913559,151.042023 228.734680,151.152908 230.807648,151.561050 
	C223.021393,151.955566 214.983292,152.001373 206.007736,152.040161 
	C197.053391,152.045380 189.036484,152.057617 180.549835,152.057709 
	C171.656174,152.045532 163.232254,152.045532 153.653778,152.045532 
	C154.975647,156.695648 155.991348,160.268768 157.007065,163.841888 
	C152.976501,163.889740 148.945938,163.937592 144.456757,163.913910 
z"/>
<path fill="#F506A9" opacity="1.000000" stroke="none" 
	d="
M199.472488,121.943283 
	C197.197754,119.852409 195.536469,117.625534 193.543167,115.751877 
	C191.597214,113.922722 189.312164,112.454292 187.088104,110.499359 
	C197.024704,110.121887 207.049194,110.072556 217.537384,110.096123 
	C220.217819,112.217514 222.496140,114.204292 224.630554,116.335228 
	C226.166290,117.868484 227.510071,119.594025 228.959900,121.592010 
	C219.300400,121.954109 209.620514,121.958000 199.472488,121.943283 
z"/>
<path fill="#C90DC0" opacity="1.000000" stroke="none" 
	d="
M88.541550,110.089920 
	C91.118034,112.417496 92.959969,115.043816 95.410080,116.841034 
	C98.440918,119.064224 101.976532,120.599251 105.596077,122.593307 
	C85.479202,122.749962 65.060326,122.744904 44.435390,122.381714 
	C51.718975,122.017967 59.214104,122.166626 66.694435,121.899986 
	C68.601463,121.832016 70.461548,120.447144 72.343201,119.667336 
	C71.262779,118.282257 69.960220,117.012001 69.167381,115.478264 
	C68.443558,114.078018 68.271797,112.392380 67.930481,110.497147 
	C74.695084,110.114807 81.385933,110.067848 88.541550,110.089920 
z"/>
<path fill="#A713D5" opacity="1.000000" stroke="none" 
	d="
M196.355988,302.967896 
	C195.446899,297.423218 191.689423,295.583923 186.289368,295.144836 
	C190.650925,289.800903 195.351440,284.701935 199.987778,279.545258 
	C201.841614,277.483368 203.553986,275.294312 205.678619,273.384583 
	C208.945694,276.738556 211.864899,279.871094 214.784119,283.003632 
	C208.743179,289.610931 202.702240,296.218201 196.355988,302.967896 
z"/>
<path fill="#D60AB9" opacity="1.000000" stroke="none" 
	d="
M157.471008,163.908661 
	C155.991348,160.268768 154.975647,156.695648 153.653778,152.045532 
	C163.232254,152.045532 171.656174,152.045532 180.624146,152.429871 
	C181.208649,157.875748 184.355042,161.011063 188.003113,163.835251 
	C177.980392,163.881973 167.957672,163.928696 157.471008,163.908661 
z"/>
<path fill="#7F19EC" opacity="1.000000" stroke="none" 
	d="
M163.130035,338.036926 
	C158.336639,343.224396 154.352646,349.877106 148.484344,353.118774 
	C144.080170,355.551666 137.253601,353.599335 129.984055,353.599335 
	C137.243423,346.338318 143.802444,339.777771 150.935394,333.306488 
	C155.031891,335.821625 158.132843,339.303192 163.130035,338.036926 
z"/>
<path fill="#F506A9" opacity="1.000000" stroke="none" 
	d="
M141.469055,71.907951 
	C141.410767,68.360977 140.106400,66.251274 136.548233,65.236732 
	C134.671188,64.701530 133.077774,63.171661 131.356293,62.090893 
	C131.487381,61.406311 131.618454,60.721725 131.749542,60.037144 
	C139.854553,60.037144 147.959579,60.037144 156.533295,60.054855 
	C157.040665,63.800316 159.787720,64.547852 162.629120,65.130791 
	C165.896698,65.801163 168.097778,67.378479 167.990662,71.453033 
	C159.310318,71.881859 150.621643,71.929070 141.469055,71.907951 
z"/>
<path fill="#DF09B5" opacity="1.000000" stroke="none" 
	d="
M188.466919,163.905167 
	C184.355042,161.011063 181.208649,157.875748 181.093872,152.442047 
	C189.036484,152.057617 197.053391,152.045380 205.539856,152.053467 
	C205.753555,157.329910 210.684998,159.401337 212.916443,163.508209 
	C204.978790,163.880356 196.954758,163.927719 188.466919,163.905167 
z"/>
<path fill="#CF0CBE" opacity="1.000000" stroke="none" 
	d="
M309.119690,274.958466 
	C311.997742,280.723267 314.875793,286.488068 317.947449,292.869385 
	C318.438416,293.980560 318.735779,294.475220 319.033142,294.969879 
	C319.033142,294.969879 319.000000,295.000000 319.120789,295.170776 
	C319.401825,295.580109 319.589020,295.795105 319.803223,295.986603 
	C319.861481,296.739685 319.919769,297.492737 319.589905,298.528625 
	C318.589203,298.295776 317.640900,297.896759 317.415070,297.246765 
	C314.674438,289.358124 307.025055,289.469940 300.950653,287.022858 
	C298.630646,282.606537 296.362823,278.161774 293.974976,273.782440 
	C291.865021,269.912842 296.159729,269.390686 297.899658,267.234802 
	C300.492218,268.874481 302.402771,270.571991 304.448456,272.087128 
	C305.911713,273.170898 307.556122,274.010132 309.119690,274.958466 
z"/>
<path fill="#B410CC" opacity="1.000000" stroke="none" 
	d="
M214.945694,282.700500 
	C211.864899,279.871094 208.945694,276.738556 205.994812,273.237549 
	C210.426849,267.979248 214.890564,263.089386 219.657990,258.050842 
	C223.509048,261.572327 226.125717,266.587280 232.638046,266.623230 
	C230.399689,268.256744 227.455719,269.308014 225.349579,271.262238 
	C221.664307,274.681702 218.493591,278.655731 214.945694,282.700500 
z"/>
<path fill="#9618D3" opacity="1.000000" stroke="none" 
	d="
M80.481552,240.859314 
	C82.284576,240.528168 84.561165,240.317581 86.816246,239.968231 
	C89.137779,239.608597 92.599319,241.267380 92.826080,236.905548 
	C93.076324,232.092087 90.209000,228.154938 86.198570,228.076294 
	C78.926849,227.933655 71.650551,228.022858 64.376160,228.018600 
	C61.565613,228.016968 58.755062,228.024384 55.477108,228.041443 
	C54.480022,227.824875 53.950340,227.594589 53.217796,227.155548 
	C83.004906,226.995255 112.994881,227.043732 143.082977,227.344086 
	C138.774841,227.747818 134.368546,227.899658 129.497391,228.040314 
	C119.859634,228.029160 110.686760,228.029160 100.888870,228.029160 
	C102.274498,231.485001 103.698883,233.547546 103.826607,235.687500 
	C104.046135,239.365616 105.892853,240.045120 109.008934,240.009705 
	C117.992821,239.907608 126.978516,239.964355 136.414093,239.968445 
	C140.217712,240.236069 143.570740,240.493958 146.923767,240.751831 
	C124.931068,240.807526 102.938362,240.863220 80.481552,240.859314 
z"/>
<path fill="#C90DC0" opacity="1.000000" stroke="none" 
	d="
M300.991821,287.390106 
	C307.025055,289.469940 314.674438,289.358124 317.415070,297.246765 
	C317.640900,297.896759 318.589203,298.295776 319.527527,298.903168 
	C318.294128,303.431915 316.735016,307.868896 314.600098,312.642487 
	C309.579773,312.772186 305.883453,311.323303 303.967072,306.919952 
	C306.927216,299.929413 304.727509,293.728943 300.991821,287.390106 
z"/>
<path fill="#9315E2" opacity="1.000000" stroke="none" 
	d="
M174.578583,308.085022 
	C177.254837,311.353394 180.255432,313.535034 184.258957,315.215576 
	C188.652664,317.059937 192.320389,320.667023 196.209488,323.630615 
	C196.614197,323.939026 196.375351,325.091888 196.174377,325.944366 
	C195.033127,325.904266 194.152588,325.772736 192.837433,325.128174 
	C191.244720,324.420502 190.086609,324.225830 188.928497,324.031189 
	C188.276093,324.003174 187.502228,324.195404 186.990128,323.912964 
	C181.977173,321.148071 177.874313,322.021118 174.204193,326.645020 
	C170.812347,323.614258 167.884216,320.753693 164.956085,317.893127 
	C168.062500,314.668274 171.168915,311.443390 174.578583,308.085022 
z"/>
<path fill="#8A16E9" opacity="1.000000" stroke="none" 
	d="
M164.648422,318.031219 
	C167.884216,320.753693 170.812347,323.614258 173.893555,326.790466 
	C170.609116,330.661194 167.171616,334.216309 163.432083,337.904175 
	C158.132843,339.303192 155.031891,335.821625 151.244492,333.175659 
	C155.433365,328.026855 159.887054,323.098083 164.648422,318.031219 
z"/>
<path fill="#9514E1" opacity="1.000000" stroke="none" 
	d="
M54.399185,221.863403 
	C50.838654,219.533691 47.584621,217.028885 44.151546,214.235352 
	C45.936367,209.519302 47.900230,205.091980 50.366386,200.415680 
	C54.590546,201.805069 58.312416,203.443451 62.034290,205.081833 
	C59.591419,210.617325 57.148552,216.152802 54.399185,221.863403 
z"/>
<path fill="#DF09B5" opacity="1.000000" stroke="none" 
	d="
M319.188171,245.509308 
	C320.968201,245.661942 322.785095,246.099228 324.547424,245.938507 
	C328.203217,245.605057 330.532684,246.996689 331.858215,250.767487 
	C328.300476,254.958023 324.508820,258.867584 320.067200,262.829773 
	C315.598053,260.823639 311.505676,259.021942 310.955261,253.887970 
	C313.084717,251.649994 315.214172,249.412033 317.862549,247.168228 
	C318.643646,246.613190 318.905914,246.064011 319.168152,245.514816 
	C319.168152,245.514816 319.200317,245.523148 319.188171,245.509308 
z"/>
<path fill="#BE0FC6" opacity="1.000000" stroke="none" 
	d="
M303.647217,307.129822 
	C305.883453,311.323303 309.579773,312.772186 314.413147,312.988525 
	C313.249756,319.094940 311.697571,325.191895 309.646393,331.604736 
	C308.277374,331.274658 307.295532,330.735504 306.557739,329.963196 
	C304.073425,327.362640 301.675903,324.679138 299.245178,322.027374 
	C300.605896,317.131500 301.966644,312.235596 303.647217,307.129822 
z"/>
<path fill="#B410CC" opacity="1.000000" stroke="none" 
	d="
M299.143494,322.410461 
	C301.675903,324.679138 304.073425,327.362640 306.557739,329.963196 
	C307.295532,330.735504 308.277374,331.274658 309.494049,331.960022 
	C308.613129,336.102753 307.385529,340.206116 305.998962,344.654297 
	C302.087128,343.373322 298.334259,341.747528 294.230774,340.037903 
	C295.600708,334.233887 297.321259,328.513702 299.143494,322.410461 
z"/>
<path fill="#D60AB9" opacity="1.000000" stroke="none" 
	d="
M310.646454,254.024048 
	C311.505676,259.021942 315.598053,260.823639 319.763458,262.963135 
	C316.483246,266.797302 312.856812,270.550690 309.175018,274.631287 
	C307.556122,274.010132 305.911713,273.170898 304.448456,272.087128 
	C302.402771,270.571991 300.492218,268.874481 298.206116,267.101257 
	C302.038147,262.685059 306.187897,258.422577 310.646454,254.024048 
z"/>
<path fill="#AE10D2" opacity="1.000000" stroke="none" 
	d="
M167.040009,229.025803 
	C163.562866,232.603378 160.085709,236.180954 155.930908,239.876923 
	C154.073700,239.627945 152.426117,239.622330 151.807129,238.821594 
	C150.279846,236.845856 148.832169,234.623444 148.123215,232.268173 
	C147.682220,230.803131 148.646362,228.915100 148.979843,227.216919 
	C151.435257,224.867676 153.890656,222.518417 156.736053,220.384399 
	C160.430710,223.408356 163.735367,226.217072 167.040009,229.025803 
z"/>
<path fill="#A013D9" opacity="1.000000" stroke="none" 
	d="
M62.342976,204.890869 
	C58.312416,203.443451 54.590546,201.805069 50.523636,200.088074 
	C51.116135,197.993591 52.053673,195.977722 52.692245,194.604660 
	C50.979416,191.031815 49.482315,187.908936 47.956276,184.408295 
	C53.460339,187.217499 58.860363,190.675797 64.581108,193.479706 
	C67.547539,194.933655 71.081642,195.229385 74.714417,196.039581 
	C73.642708,196.688919 72.251434,197.805389 70.782394,197.919342 
	C66.340561,198.263916 63.881660,200.666397 62.342976,204.890869 
z"/>
<path fill="#F506A9" opacity="1.000000" stroke="none" 
	d="
M322.006592,212.589722 
	C319.695587,213.042496 316.643005,214.109467 315.208740,213.028748 
	C312.348663,210.873718 310.377136,207.539413 308.002808,204.329773 
	C307.967010,203.967331 307.997559,203.998077 308.176575,203.849731 
	C308.604156,203.494049 308.809967,203.250580 308.973083,202.970993 
	C308.973083,202.970993 309.000000,203.000000 309.180969,202.846954 
	C309.608551,202.482361 309.811401,202.234970 309.970520,201.951706 
	C311.761841,199.697403 313.553192,197.443100 315.654297,195.050293 
	C319.445251,197.239624 322.926483,199.567490 326.762024,201.969421 
	C325.122559,205.295502 320.378540,207.165680 322.006592,212.589722 
z"/>
<path fill="#B410CC" opacity="1.000000" stroke="none" 
	d="
M167.344513,228.888275 
	C163.735367,226.217072 160.430710,223.408356 157.048218,220.258118 
	C159.767319,217.008133 162.564255,214.099655 165.674500,211.065674 
	C169.982193,214.983414 174.244720,218.524567 180.659500,218.837082 
	C178.979340,219.855270 176.688080,220.260956 175.072113,221.527939 
	C172.370697,223.645966 170.100647,226.314133 167.344513,228.888275 
z"/>
<path fill="#A615CF" opacity="1.000000" stroke="none" 
	d="
M148.560852,227.151855 
	C148.646362,228.915100 147.682220,230.803131 148.123215,232.268173 
	C148.832169,234.623444 150.279846,236.845856 151.807129,238.821594 
	C152.426117,239.622330 154.073700,239.627945 155.621811,240.008743 
	C153.261353,240.314713 150.532349,240.607269 147.363556,240.825836 
	C143.570740,240.493958 140.217712,240.236069 136.419128,239.587341 
	C133.969803,235.481506 131.966034,231.766495 129.962265,228.051483 
	C134.368546,227.899658 138.774841,227.747818 143.539185,227.422699 
	C145.312134,227.195206 146.726990,227.140991 148.560852,227.151855 
z"/>
<path fill="#E909AC" opacity="1.000000" stroke="none" 
	d="
M318.977417,245.659424 
	C318.905914,246.064011 318.643646,246.613190 318.168030,247.033264 
	C318.232025,246.537445 318.509338,246.170731 318.977417,245.659424 
z"/>
<path fill="#9913DE" opacity="1.000000" stroke="none" 
	d="
M189.127563,324.341339 
	C190.086609,324.225830 191.244720,324.420502 192.685730,324.825867 
	C191.754639,324.908203 190.540634,324.779846 189.127563,324.341339 
z"/>
<path fill="#9315E2" opacity="1.000000" stroke="none" 
	d="
M52.986187,226.660492 
	C52.874451,226.462402 52.718185,225.939697 52.681984,225.226807 
	C52.848587,225.469711 52.895123,225.902802 52.986187,226.660492 
z"/>
<path fill="#A713D5" opacity="1.000000" stroke="none" 
	d="
M282.930725,337.695374 
	C282.548492,337.815125 282.021515,337.665192 281.266602,337.359375 
	C281.621124,337.277527 282.203552,337.351593 282.930725,337.695374 
z"/>
<path fill="#B410CC" opacity="1.000000" stroke="none" 
	d="
M181.021759,219.289032 
	C181.210312,219.171326 181.446091,219.328522 181.809143,219.671082 
	C181.670120,219.724731 181.380966,219.627213 181.021759,219.289032 
z"/>
<path fill="#E909AC" opacity="1.000000" stroke="none" 
	d="
M308.724670,203.042770 
	C308.809967,203.250580 308.604156,203.494049 308.158508,203.838531 
	C308.133057,203.688614 308.304657,203.401581 308.724670,203.042770 
z"/>
<path fill="#E909AC" opacity="1.000000" stroke="none" 
	d="
M309.724365,202.030975 
	C309.811401,202.234970 309.608551,202.482361 309.165894,202.834137 
	C309.139313,202.686325 309.308746,202.398285 309.724365,202.030975 
z"/>
<path fill="#C90DC0" opacity="1.000000" stroke="none" 
	d="
M318.994659,294.661438 
	C318.735779,294.475220 318.438416,293.980560 318.087891,293.197021 
	C318.341919,293.389801 318.649078,293.871429 318.994659,294.661438 
z"/>
<path fill="#C90DC0" opacity="1.000000" stroke="none" 
	d="
M319.827026,295.736328 
	C319.589020,295.795105 319.401825,295.580109 319.136475,295.155273 
	C319.304535,295.141296 319.577698,295.313660 319.827026,295.736328 
z"/>
<path fill="#A612D7" opacity="1.000000" stroke="none" 
	d="
M129.497391,228.040329 
	C131.966034,231.766495 133.969803,235.481506 135.968536,239.577606 
	C126.978516,239.964355 117.992821,239.907608 109.008934,240.009705 
	C105.892853,240.045120 104.046135,239.365616 103.826607,235.687500 
	C103.698883,233.547546 102.274498,231.485001 100.888870,228.029160 
	C110.686760,228.029160 119.859634,228.029160 129.497391,228.040329 
z"/>
</svg>