<svg xmlns="http://www.w3.org/2000/svg" viewBox="0 0 368 355">
  <path d="M 57 161 L 56 162 L 55 162 L 54 163 L 53 163 L 48 168 L 48 169 L 47 170 L 47 171 L 46 172 L 46 174 L 45 175 L 45 182 L 46 183 L 46 185 L 47 186 L 47 187 L 48 188 L 48 189 L 51 192 L 51 193 L 50 194 L 50 195 L 49 196 L 49 197 L 48 198 L 48 199 L 47 200 L 47 201 L 46 202 L 46 203 L 45 204 L 45 206 L 44 207 L 44 208 L 43 209 L 43 210 L 42 211 L 42 212 L 41 213 L 41 214 L 40 215 L 40 216 L 39 217 L 39 218 L 38 219 L 38 221 L 37 222 L 37 223 L 36 224 L 36 225 L 35 226 L 35 227 L 34 228 L 34 229 L 33 230 L 33 231 L 32 232 L 32 233 L 31 234 L 31 236 L 30 237 L 30 238 L 31 238 L 32 239 L 33 239 L 34 240 L 35 240 L 37 242 L 38 242 L 39 243 L 40 243 L 41 244 L 42 244 L 44 246 L 45 246 L 46 247 L 47 247 L 48 248 L 49 248 L 50 249 L 51 249 L 53 251 L 54 251 L 55 252 L 56 252 L 57 253 L 58 253 L 59 254 L 60 254 L 62 256 L 63 256 L 64 257 L 65 257 L 66 258 L 67 258 L 69 260 L 70 260 L 71 261 L 72 261 L 73 262 L 74 262 L 75 263 L 76 263 L 78 265 L 79 265 L 80 266 L 81 266 L 82 267 L 83 267 L 85 269 L 86 269 L 87 270 L 88 270 L 89 271 L 90 271 L 91 272 L 92 272 L 94 274 L 95 274 L 96 275 L 97 275 L 98 276 L 99 276 L 101 278 L 102 278 L 103 279 L 104 279 L 105 280 L 106 280 L 107 281 L 108 281 L 110 283 L 111 283 L 112 284 L 111 285 L 111 288 L 112 289 L 112 292 L 113 293 L 113 295 L 115 297 L 115 298 L 118 301 L 119 301 L 120 302 L 121 302 L 122 303 L 123 303 L 124 304 L 135 304 L 136 303 L 137 303 L 138 302 L 139 302 L 140 301 L 141 301 L 144 298 L 144 297 L 146 295 L 146 293 L 147 292 L 147 289 L 148 288 L 148 285 L 147 284 L 147 280 L 146 279 L 146 278 L 145 277 L 145 276 L 140 271 L 139 271 L 138 270 L 137 270 L 136 269 L 134 269 L 133 268 L 126 268 L 125 269 L 123 269 L 122 270 L 121 270 L 120 271 L 119 271 L 118 272 L 117 272 L 116 271 L 115 271 L 114 270 L 113 270 L 112 269 L 111 269 L 110 268 L 109 268 L 107 266 L 106 266 L 105 265 L 104 265 L 103 264 L 102 264 L 101 263 L 100 263 L 98 261 L 97 261 L 96 260 L 95 260 L 94 259 L 93 259 L 91 257 L 90 257 L 89 256 L 88 256 L 87 255 L 86 255 L 85 254 L 84 254 L 82 252 L 81 252 L 80 251 L 79 251 L 78 250 L 77 250 L 75 248 L 74 248 L 73 247 L 72 247 L 71 246 L 70 246 L 69 245 L 68 245 L 66 243 L 65 243 L 64 242 L 63 242 L 62 241 L 61 241 L 60 240 L 61 239 L 153 239 L 175 217 L 178 217 L 179 218 L 186 218 L 187 217 L 189 217 L 190 216 L 192 216 L 195 213 L 196 213 L 196 212 L 199 209 L 199 207 L 200 206 L 200 204 L 201 203 L 201 196 L 200 195 L 200 193 L 199 192 L 199 191 L 198 190 L 198 189 L 194 185 L 193 185 L 191 183 L 189 183 L 188 182 L 177 182 L 176 183 L 175 183 L 174 184 L 173 184 L 171 186 L 170 186 L 169 187 L 169 188 L 167 190 L 167 191 L 166 192 L 166 193 L 165 194 L 165 205 L 166 206 L 166 207 L 147 226 L 51 226 L 50 225 L 50 223 L 51 222 L 51 221 L 52 220 L 52 219 L 53 218 L 53 217 L 54 216 L 54 215 L 55 214 L 55 213 L 56 212 L 56 211 L 57 210 L 57 208 L 58 207 L 58 206 L 59 205 L 59 204 L 60 203 L 60 202 L 61 201 L 61 200 L 62 199 L 62 198 L 63 197 L 66 197 L 67 196 L 70 196 L 71 195 L 72 195 L 73 194 L 74 194 L 78 190 L 78 189 L 80 187 L 80 185 L 81 184 L 81 173 L 80 172 L 80 171 L 79 170 L 79 169 L 77 167 L 77 166 L 75 164 L 74 164 L 73 163 L 72 163 L 71 162 L 70 162 L 69 161 Z" fill="url(#grad)" />
  <path d="M 118 140 L 117 141 L 114 141 L 113 142 L 112 142 L 106 148 L 106 149 L 105 150 L 105 151 L 104 152 L 104 156 L 103 157 L 103 159 L 104 160 L 104 164 L 105 165 L 105 166 L 106 167 L 106 168 L 108 170 L 108 171 L 109 172 L 110 172 L 112 174 L 113 174 L 114 175 L 116 175 L 117 176 L 127 176 L 128 175 L 129 175 L 130 174 L 131 174 L 132 173 L 133 173 L 136 170 L 136 169 L 138 167 L 138 165 L 139 164 L 139 163 L 140 162 L 222 162 L 252 192 L 251 193 L 251 197 L 250 198 L 250 201 L 251 202 L 251 205 L 252 206 L 252 207 L 253 208 L 253 209 L 254 210 L 254 211 L 256 213 L 257 213 L 259 215 L 260 215 L 261 216 L 263 216 L 264 217 L 273 217 L 274 216 L 276 216 L 277 215 L 278 215 L 280 213 L 281 213 L 283 211 L 283 210 L 285 208 L 285 206 L 286 205 L 286 202 L 287 201 L 287 197 L 286 196 L 286 193 L 285 192 L 285 191 L 284 190 L 284 189 L 278 183 L 277 183 L 276 182 L 274 182 L 273 181 L 265 181 L 264 182 L 260 182 L 228 150 L 138 150 L 137 149 L 137 148 L 131 142 L 130 142 L 129 141 L 127 141 L 126 140 Z" fill="url(#grad)" />
  <path d="M 14 41 L 13 42 L 11 42 L 10 43 L 9 43 L 8 44 L 7 44 L 2 49 L 2 50 L 1 51 L 1 52 L 0 53 L 0 65 L 1 66 L 1 68 L 3 70 L 3 71 L 6 74 L 7 74 L 8 75 L 9 75 L 10 76 L 11 76 L 12 77 L 19 77 L 21 79 L 21 80 L 22 81 L 22 82 L 23 83 L 23 84 L 24 85 L 24 86 L 25 87 L 25 88 L 26 89 L 26 90 L 27 91 L 27 92 L 28 93 L 28 94 L 29 95 L 29 96 L 30 97 L 30 98 L 31 99 L 31 100 L 33 102 L 33 103 L 34 104 L 34 105 L 35 106 L 35 107 L 36 108 L 36 109 L 37 110 L 37 111 L 38 112 L 38 113 L 39 114 L 39 115 L 40 116 L 40 117 L 41 118 L 41 119 L 42 120 L 42 121 L 255 121 L 276 142 L 276 144 L 275 145 L 275 156 L 276 157 L 276 158 L 277 159 L 277 160 L 283 166 L 284 166 L 285 167 L 287 167 L 288 168 L 297 168 L 298 167 L 300 167 L 301 166 L 302 166 L 303 165 L 304 165 L 307 162 L 307 161 L 309 159 L 309 158 L 310 157 L 310 154 L 311 153 L 311 147 L 310 146 L 310 143 L 309 142 L 309 141 L 307 139 L 307 138 L 305 136 L 304 136 L 302 134 L 301 134 L 300 133 L 298 133 L 297 132 L 288 132 L 287 133 L 285 133 L 210 58 L 125 58 L 123 56 L 123 55 L 121 53 L 121 52 L 118 49 L 117 49 L 116 48 L 115 48 L 114 47 L 112 47 L 111 46 L 102 46 L 101 47 L 100 47 L 99 48 L 98 48 L 97 49 L 96 49 L 91 54 L 91 55 L 90 56 L 90 58 L 89 59 L 89 69 L 90 70 L 90 72 L 91 73 L 91 74 L 97 80 L 98 80 L 99 81 L 101 81 L 102 82 L 111 82 L 112 81 L 114 81 L 115 80 L 116 80 L 117 79 L 118 79 L 122 75 L 122 74 L 123 73 L 123 72 L 125 70 L 204 70 L 242 108 L 241 109 L 51 109 L 49 107 L 49 106 L 48 105 L 48 104 L 47 103 L 47 102 L 46 101 L 46 100 L 45 99 L 45 98 L 44 97 L 44 96 L 43 95 L 43 94 L 41 92 L 41 91 L 40 90 L 40 89 L 39 88 L 39 87 L 38 86 L 38 85 L 37 84 L 37 83 L 36 82 L 36 81 L 35 80 L 35 79 L 34 78 L 34 77 L 33 76 L 33 75 L 32 74 L 32 73 L 31 72 L 32 71 L 32 70 L 34 68 L 34 66 L 35 65 L 35 61 L 36 60 L 36 58 L 35 57 L 35 53 L 34 52 L 34 51 L 33 50 L 33 49 L 28 44 L 27 44 L 26 43 L 25 43 L 24 42 L 22 42 L 21 41 Z" fill="url(#grad)" />
  <path d="M 230 0 L 229 1 L 226 1 L 225 2 L 223 2 L 221 4 L 220 4 L 218 6 L 218 7 L 216 9 L 216 10 L 215 11 L 215 13 L 214 14 L 214 23 L 215 24 L 215 26 L 216 27 L 216 28 L 222 34 L 223 34 L 224 35 L 225 35 L 226 36 L 238 36 L 239 35 L 241 37 L 241 38 L 254 51 L 254 52 L 267 65 L 267 66 L 279 78 L 279 79 L 292 92 L 292 93 L 305 106 L 305 107 L 317 119 L 317 120 L 330 133 L 330 134 L 343 147 L 343 148 L 349 154 L 344 159 L 344 160 L 335 169 L 335 170 L 327 178 L 327 179 L 319 187 L 319 188 L 310 197 L 310 198 L 304 204 L 304 207 L 305 208 L 305 210 L 306 211 L 306 212 L 307 213 L 307 215 L 308 216 L 308 217 L 309 218 L 309 220 L 310 221 L 310 222 L 311 223 L 311 225 L 312 226 L 312 227 L 313 228 L 313 230 L 314 231 L 314 232 L 315 233 L 315 235 L 316 236 L 316 238 L 317 239 L 317 240 L 318 241 L 318 243 L 291 270 L 291 271 L 292 272 L 292 273 L 293 274 L 293 275 L 294 276 L 294 277 L 295 278 L 295 279 L 296 280 L 296 281 L 297 282 L 297 283 L 298 284 L 298 285 L 299 286 L 299 287 L 300 288 L 300 289 L 301 290 L 301 291 L 302 292 L 302 293 L 303 294 L 303 295 L 304 296 L 304 298 L 303 299 L 303 301 L 302 302 L 302 305 L 301 306 L 301 308 L 300 309 L 300 312 L 299 313 L 299 315 L 298 316 L 298 319 L 297 320 L 297 322 L 296 323 L 296 326 L 295 327 L 295 329 L 294 330 L 294 333 L 293 334 L 293 336 L 292 337 L 292 338 L 291 339 L 288 339 L 287 338 L 285 338 L 284 337 L 281 337 L 280 336 L 278 336 L 277 335 L 274 335 L 273 334 L 271 334 L 270 333 L 267 333 L 266 332 L 264 332 L 263 331 L 260 331 L 259 330 L 257 330 L 256 329 L 253 329 L 252 328 L 250 328 L 249 327 L 246 327 L 245 326 L 243 326 L 242 325 L 239 325 L 238 324 L 236 324 L 235 323 L 232 323 L 231 322 L 229 322 L 228 321 L 225 321 L 224 320 L 222 320 L 221 319 L 218 319 L 217 318 L 215 318 L 214 317 L 211 317 L 210 316 L 208 316 L 207 315 L 204 315 L 203 314 L 201 314 L 200 313 L 197 313 L 196 312 L 194 312 L 193 311 L 190 311 L 189 310 L 188 310 L 187 309 L 192 304 L 192 303 L 202 293 L 202 292 L 212 282 L 212 281 L 221 272 L 221 271 L 227 265 L 231 265 L 232 266 L 236 266 L 237 265 L 240 265 L 241 264 L 243 264 L 245 262 L 246 262 L 249 259 L 249 258 L 250 257 L 250 256 L 251 255 L 251 254 L 252 253 L 252 242 L 251 241 L 251 240 L 250 239 L 250 238 L 248 236 L 248 235 L 246 233 L 245 233 L 244 232 L 243 232 L 242 231 L 241 231 L 240 230 L 236 230 L 235 229 L 233 229 L 232 230 L 228 230 L 227 231 L 226 231 L 225 232 L 224 232 L 219 237 L 219 238 L 218 239 L 218 240 L 217 241 L 217 243 L 216 244 L 216 251 L 217 252 L 217 255 L 218 256 L 212 262 L 212 263 L 202 273 L 202 274 L 192 284 L 192 285 L 182 295 L 182 296 L 172 306 L 172 307 L 150 329 L 150 330 L 129 351 L 129 352 L 146 352 L 161 337 L 161 336 L 177 320 L 179 320 L 180 321 L 183 321 L 184 322 L 186 322 L 187 323 L 190 323 L 191 324 L 193 324 L 194 325 L 197 325 L 198 326 L 200 326 L 201 327 L 204 327 L 205 328 L 207 328 L 208 329 L 211 329 L 212 330 L 214 330 L 215 331 L 218 331 L 219 332 L 221 332 L 222 333 L 225 333 L 226 334 L 228 334 L 229 335 L 232 335 L 233 336 L 235 336 L 236 337 L 239 337 L 240 338 L 242 338 L 243 339 L 246 339 L 247 340 L 249 340 L 250 341 L 253 341 L 254 342 L 256 342 L 257 343 L 260 343 L 261 344 L 263 344 L 264 345 L 267 345 L 268 346 L 270 346 L 271 347 L 274 347 L 275 348 L 277 348 L 278 349 L 281 349 L 282 350 L 284 350 L 285 351 L 288 351 L 289 352 L 291 352 L 292 353 L 295 353 L 296 354 L 300 354 L 301 353 L 301 350 L 302 349 L 302 347 L 303 346 L 303 343 L 304 342 L 304 340 L 305 339 L 305 337 L 306 336 L 306 333 L 307 332 L 307 330 L 308 329 L 308 326 L 309 325 L 309 323 L 310 322 L 310 319 L 311 318 L 311 316 L 312 315 L 312 312 L 313 311 L 313 309 L 314 308 L 314 305 L 315 304 L 315 302 L 316 301 L 316 299 L 317 298 L 317 294 L 316 293 L 316 292 L 315 291 L 315 290 L 314 289 L 314 288 L 313 287 L 313 286 L 312 285 L 312 284 L 311 283 L 311 282 L 310 281 L 310 280 L 309 279 L 309 278 L 308 277 L 308 276 L 307 275 L 307 274 L 306 273 L 333 246 L 333 245 L 332 244 L 332 243 L 331 242 L 331 240 L 330 239 L 330 238 L 329 237 L 329 235 L 328 234 L 328 232 L 327 231 L 327 230 L 326 229 L 326 227 L 325 226 L 325 225 L 324 224 L 324 222 L 323 221 L 323 220 L 322 219 L 322 217 L 321 216 L 321 215 L 320 214 L 320 212 L 319 211 L 319 209 L 318 208 L 320 206 L 320 205 L 328 197 L 328 196 L 337 187 L 337 186 L 345 178 L 345 177 L 354 168 L 354 167 L 362 159 L 362 158 L 366 154 L 365 153 L 365 152 L 352 139 L 352 138 L 340 126 L 340 125 L 327 112 L 327 111 L 314 98 L 314 97 L 302 85 L 302 84 L 289 71 L 289 70 L 276 57 L 276 56 L 264 44 L 264 43 L 251 30 L 251 29 L 249 27 L 249 24 L 250 23 L 250 14 L 249 13 L 249 11 L 248 10 L 248 9 L 246 7 L 246 6 L 244 4 L 243 4 L 241 2 L 239 2 L 238 1 L 235 1 L 234 0 Z" fill="url(#grad)" />

<defs>
  <linearGradient id="grad" x1="0%" y1="0%" x2="100%" y2="100%">
    <stop offset="0%" style="stop-color:#ff00ff;stop-opacity:1" />
    <stop offset="100%" style="stop-color:#8000ff;stop-opacity:1" />
  </linearGradient>
</defs>
</svg>