<svg version="1.1" id="Layer_1" xmlns="http://www.w3.org/2000/svg" xmlns:xlink="http://www.w3.org/1999/xlink" x="0px" y="0px"
	 width="100%" viewBox="0 0 129 74" enable-background="new 0 0 129 74" xml:space="preserve">
<path fill="#011621" opacity="1.000000" stroke="none" 
	d="
M88.000000,75.000000 
	C58.666668,75.000000 29.833334,75.000000 1.000000,75.000000 
	C1.000000,50.333332 1.000000,25.666666 1.000000,1.000000 
	C44.000000,1.000000 87.000000,1.000000 130.000000,1.000000 
	C130.000000,25.666666 130.000000,50.333332 130.000000,75.000000 
	C116.166664,75.000000 102.333336,75.000000 88.000000,75.000000 
M53.657410,23.297018 
	C53.440056,23.557156 53.222698,23.817295 53.005421,24.005142 
	C53.005421,24.005142 53.077709,24.005266 52.659409,24.297838 
	C52.441837,24.557795 52.224266,24.817751 52.006958,25.006798 
	C52.006958,25.006798 52.077866,25.007124 51.659122,25.295319 
	C51.440872,25.552864 51.222622,25.810411 51.001938,26.000753 
	C51.001938,26.000753 51.069019,26.005497 50.649967,26.287626 
	C50.434032,26.544176 50.218094,26.800726 49.994652,26.994595 
	C49.994652,26.994595 50.057316,27.002230 49.642124,27.288963 
	C49.429745,27.547997 49.217365,27.807030 48.999088,28.000355 
	C48.999088,28.000355 49.064941,28.004251 48.649437,28.293762 
	C48.434193,28.552212 48.218948,28.810661 48.007793,29.005009 
	C48.007793,29.005009 48.069298,29.023546 47.413845,29.183342 
	C45.912754,30.136875 44.411667,31.090408 42.488277,31.969719 
	C42.488277,31.969719 42.081863,31.833075 41.998432,31.136843 
	C39.629150,28.230406 37.622490,24.872215 34.762787,22.576746 
	C32.864254,21.052805 29.432184,20.035294 27.277033,20.701424 
	C25.694450,21.190577 25.069300,24.777344 23.467985,27.290152 
	C20.607784,26.206350 17.747585,25.122549 14.358109,23.835197 
	C13.909594,23.500067 13.461079,23.164938 12.974149,22.106100 
	C11.472605,14.480850 6.900574,21.033363 3.246574,19.364065 
	C4.735814,23.077650 0.846076,27.067142 6.333282,29.564764 
	C9.670013,32.979267 12.919051,36.485313 16.364784,39.786026 
	C21.097542,44.319595 25.979301,48.697620 31.081810,53.754402 
	C34.028889,56.890011 36.713051,60.344563 40.006767,63.059662 
	C42.611698,65.206985 46.010777,66.730530 48.043625,61.468773 
	C48.043625,61.468773 48.185558,61.091114 48.896072,61.005230 
	C52.282169,60.997932 55.668266,60.990639 58.995682,61.001266 
	C58.995682,61.001266 58.997093,60.939926 59.259640,61.379185 
	C59.526577,61.587566 59.793518,61.795948 59.995571,62.004078 
	C59.995571,62.004078 60.007496,61.940300 60.182701,62.621948 
	C61.975182,65.386887 63.871204,65.898148 66.114288,62.435253 
	C66.313133,62.152905 66.582985,61.983955 67.481133,62.089211 
	C73.865982,58.526806 79.256142,54.016998 82.151619,46.294281 
	C83.093491,44.581310 84.035362,42.868343 85.662857,41.240635 
	C88.219490,43.454746 90.715332,45.744797 93.353691,47.856823 
	C95.174789,49.314625 97.192978,50.526237 99.153297,52.217571 
	C99.153297,52.217571 99.186836,52.587475 99.260147,53.352516 
	C100.754997,54.182552 102.393539,55.848873 103.706993,55.623192 
	C105.223885,55.362556 106.725601,53.623661 107.734612,52.178127 
	C108.797958,50.654755 109.271935,48.719978 110.601173,47.053276 
	C110.998779,47.117931 111.396378,47.182590 112.113930,47.567879 
	C112.326271,47.782791 112.540085,47.996223 113.069420,48.561752 
	C113.291496,48.785358 113.519485,49.002766 114.038620,49.729393 
	C114.624535,50.234505 115.210442,50.739616 116.114868,51.566853 
	C116.327431,51.781731 116.546898,51.989323 117.079552,52.550846 
	C117.297752,52.779118 117.524811,52.998215 118.227058,53.776451 
	C120.773399,53.595726 124.653229,54.318146 125.537865,53.011978 
	C126.716919,51.271111 125.709724,47.932083 125.333672,45.323933 
	C125.214149,44.494946 124.156143,43.762760 123.451752,43.062569 
	C116.393829,36.046722 109.423096,28.938330 102.208916,22.086470 
	C98.391533,18.460814 94.142891,15.289229 89.693459,11.359820 
	C86.330986,8.709107 83.735023,10.851551 81.636238,13.082102 
	C79.007355,15.876032 76.817825,15.626393 74.048927,13.435546 
	C72.968765,12.580877 71.276360,12.499975 69.155403,12.030839 
	C68.238930,12.185981 67.322464,12.341124 65.887070,12.629622 
	C65.572395,12.795378 65.257721,12.961134 64.520287,13.035101 
	C64.520287,13.035101 64.088646,13.063975 63.559711,12.810520 
	C62.384102,14.227737 61.208496,15.644955 60.007729,17.006413 
	C60.007729,17.006413 60.068886,17.005154 59.651321,17.291121 
	C59.435020,17.548311 59.218716,17.805502 58.998169,17.997074 
	C58.998169,17.997074 59.063663,18.002924 58.646847,18.287601 
	C58.432320,18.544985 58.217793,18.802368 57.996418,18.996246 
	C57.996418,18.996246 58.059898,19.003313 57.644894,19.287659 
	C57.431866,19.544815 57.218842,19.801971 56.997261,19.997267 
	C56.997261,19.997267 57.059128,20.005808 56.643867,20.288763 
	C56.430481,20.545200 56.217091,20.801636 55.995556,20.995663 
	C55.995556,20.995663 56.058037,21.003233 55.644154,21.292940 
	C55.431816,21.552628 55.219479,21.812317 55.003639,22.004087 
	C55.003639,22.004087 55.071613,22.006292 54.654369,22.297438 
	C54.437614,22.556767 54.220856,22.816095 54.003849,23.004036 
	C54.003849,23.004036 54.075233,23.003826 53.657410,23.297018 
z"/>
<path fill="#13101C" opacity="1.000000" stroke="none" 
	d="
M14.887383,24.038746 
	C17.747585,25.122549 20.607784,26.206350 24.089027,27.137371 
	C25.172251,26.982925 25.634432,26.981258 26.314537,27.072681 
	C26.809153,27.362347 26.961988,27.629728 27.016666,28.327999 
	C28.720114,30.458685 30.397863,32.229290 32.292004,34.081135 
	C32.780632,34.344513 32.945103,34.596897 33.145142,35.128441 
	C33.542770,35.558025 33.797066,35.778683 34.023399,36.002083 
	C33.995441,36.004818 34.001671,35.948982 34.146400,36.153217 
	C34.545998,36.571148 34.800869,36.784843 35.026028,37.001366 
	C34.996315,37.004189 35.001266,36.944702 35.146748,37.149471 
	C35.546989,37.570004 35.801754,37.785767 36.025833,38.003300 
	C35.995155,38.005070 35.998268,37.943691 36.145435,38.148293 
	C36.548576,38.568916 36.804554,38.784939 37.028404,39.002396 
	C36.996284,39.003830 36.998821,38.939571 37.146210,39.144794 
	C37.549931,39.566967 37.806263,39.783916 38.029743,40.002014 
	C37.996891,40.003166 37.999008,39.937454 38.146549,40.142998 
	C38.550625,40.565979 38.807159,40.783413 39.030457,41.001827 
	C38.997219,41.002804 38.999039,40.936325 39.146729,41.141960 
	C39.551090,41.565197 39.807762,41.782795 40.031029,42.001404 
	C39.997627,42.002407 39.999466,41.935596 40.147297,42.141167 
	C40.551815,42.564392 40.808506,42.782043 41.031666,43.000793 
	C40.998138,43.001888 41.000172,42.934826 41.148022,43.140347 
	C41.552410,43.563637 41.808952,43.781406 42.031963,44.000351 
	C41.998432,44.001522 42.000820,43.934460 42.148239,44.139992 
	C42.551689,44.563381 42.807713,44.781242 43.030819,45.000504 
	C42.997902,45.001907 43.001144,44.936092 43.147026,45.141312 
	C43.547283,45.563869 43.801662,45.781212 44.026031,46.000977 
	C43.996021,46.003403 44.001797,45.943470 44.145973,46.147736 
	C44.543858,46.566319 44.797558,46.780640 45.025009,46.997200 
	C44.998760,46.999443 45.028461,46.955814 45.016666,47.330864 
	C44.630939,49.363029 44.257008,51.020145 43.647469,52.774132 
	C43.263454,52.953587 43.115051,53.036167 42.991348,53.027500 
	C43.016041,52.936256 42.979656,52.750740 42.815643,52.597939 
	C42.415260,52.254330 42.152073,52.113686 41.568314,51.882507 
	C39.838886,50.170818 38.403221,48.599834 36.826462,46.724262 
	C34.139301,44.244625 31.593229,42.069576 28.920746,39.605469 
	C27.565582,38.183578 26.336832,37.050747 25.053576,35.578880 
	C22.999350,33.213718 20.999632,31.187595 18.698765,29.004089 
	C17.227537,27.244053 16.057461,25.641401 14.887383,24.038746 
z"/>
<path fill="#0F1315" opacity="1.000000" stroke="none" 
	d="
M110.003410,46.964951 
	C109.271935,48.719978 108.797958,50.654755 107.734612,52.178127 
	C106.725601,53.623661 105.223885,55.362556 103.706993,55.623192 
	C102.393539,55.848873 100.754997,54.182552 99.579697,53.093979 
	C100.143692,52.892998 100.388138,52.950554 100.595657,52.991753 
	C100.558739,52.975395 100.514641,53.094257 100.832390,53.353516 
	C102.129959,53.436237 103.109787,53.259701 104.316330,52.979671 
	C104.828262,52.672165 105.004692,52.398113 105.354324,51.866302 
	C105.474518,50.463272 105.312729,49.247955 105.042091,47.791096 
	C104.647629,47.358921 104.362022,47.168289 104.039017,46.627724 
	C101.006783,43.491390 98.011932,40.704987 95.013367,37.955681 
	C95.009659,37.992775 95.083855,38.000111 94.996056,37.739632 
	C94.604210,37.292797 94.300171,37.106438 93.996582,36.961521 
	C93.997040,37.002964 94.079918,37.002087 93.991302,36.742908 
	C93.601173,36.294376 93.299660,36.105022 93.001480,35.952858 
	C93.004829,35.990044 93.079201,35.983288 93.041870,35.634315 
	C91.710442,34.164936 90.416336,33.044529 89.017899,31.669636 
	C88.597710,30.976896 88.281860,30.538643 87.861130,29.812111 
	C87.146416,29.024611 86.536591,28.525393 85.957077,28.019707 
	C85.987396,28.013239 85.956795,28.067165 86.045395,27.715588 
	C87.459488,26.553259 88.784981,25.742508 90.072754,24.949177 
	C90.035042,24.966599 90.000465,24.891050 90.160828,25.097149 
	C90.579636,25.535921 90.838074,25.768595 91.047806,26.001026 
	C90.999100,26.000786 90.999557,25.903368 91.159882,26.107643 
	C91.579056,26.541084 91.837914,26.770252 92.048309,26.999767 
	C91.999855,27.000118 91.999138,26.903208 92.160713,27.107010 
	C92.580917,27.541058 92.839539,27.771305 93.048401,28.001575 
	C92.998634,28.001598 92.998566,27.902060 93.161087,28.105556 
	C93.582375,28.539879 93.841148,28.770706 94.049507,29.001225 
	C93.999100,29.000917 93.999695,28.900099 94.161171,29.104458 
	C94.581703,29.539335 94.840767,29.769857 95.048424,30.002228 
	C94.997025,30.004078 94.993294,29.901287 95.162415,30.102364 
	C95.598152,30.529642 95.864769,30.755846 96.422653,31.120415 
	C98.484306,33.123024 100.254684,34.987274 102.179588,37.065525 
	C102.590088,37.520588 102.846054,37.761650 103.050949,38.000450 
	C102.999863,37.998192 103.004410,37.896027 103.161888,38.102959 
	C103.578873,38.538784 103.838371,38.767673 104.050659,38.996441 
	C104.003433,38.996315 104.003716,38.901875 104.161591,39.107994 
	C104.578987,39.542141 104.838501,39.770176 105.048859,39.999557 
	C104.999702,40.000904 104.996979,39.902588 105.163437,40.106392 
	C105.599701,40.533070 105.869507,40.755943 106.350418,41.050488 
	C106.828850,41.296516 106.982384,41.542042 107.176285,42.072670 
	C107.588226,42.525047 107.846008,42.763470 108.051743,43.000038 
	C107.999710,42.998188 108.003441,42.894115 108.161095,43.101528 
	C108.578018,43.538998 108.837288,43.769054 109.048950,43.998695 
	C109.001350,43.998276 109.002220,43.903069 109.157776,44.109283 
	C109.571220,44.542828 109.829102,44.770157 110.055603,44.994003 
	C110.024216,44.990520 110.049164,44.932434 110.034988,45.271362 
	C110.015015,46.061840 110.009216,46.513397 110.003410,46.964951 
z"/>
<path fill="#230E04" opacity="1.000000" stroke="none" 
	d="
M90.088943,11.912653 
	C94.142891,15.289229 98.391533,18.460814 102.208916,22.086470 
	C109.423096,28.938330 116.393829,36.046722 123.451752,43.062569 
	C124.156143,43.762760 125.214149,44.494946 125.333672,45.323933 
	C125.709724,47.932083 126.716919,51.271111 125.537865,53.011978 
	C124.653229,54.318146 120.773399,53.595726 118.076950,53.414589 
	C117.926842,53.052727 118.092575,52.896919 118.403748,52.925850 
	C119.127731,52.911434 119.540550,52.868088 120.303329,52.892689 
	C121.470886,52.661976 122.288490,52.363319 123.420547,51.908012 
	C126.259346,48.115337 124.442589,46.196342 121.019821,44.945854 
	C121.010956,44.982655 121.084595,45.000267 121.003433,44.734665 
	C120.614586,44.283379 120.306885,44.097694 119.999222,43.956215 
	C119.999252,44.000420 120.087654,44.000385 120.006302,43.734001 
	C119.616493,43.281429 119.308029,43.095245 118.999756,42.954567 
	C118.999939,43.000069 119.090942,42.999733 119.010757,42.731396 
	C118.619522,42.277718 118.308472,42.092373 117.997421,41.954521 
	C117.997429,42.002010 118.092407,42.002045 118.007950,41.736504 
	C117.614052,41.284801 117.304626,41.098640 116.995575,40.958172 
	C116.995956,41.003860 117.087334,41.003132 117.003754,40.738281 
	C116.612251,40.287937 116.304337,40.102444 115.997375,39.960155 
	C115.998329,40.003361 116.084740,40.001472 116.004456,39.735695 
	C115.615753,39.286659 115.307335,39.103409 114.999390,38.960182 
	C114.999878,39.000210 115.079933,38.999283 115.001007,38.734138 
	C114.614708,38.286400 114.307343,38.103806 114.000320,37.960266 
	C114.000671,37.999325 114.078796,37.998596 113.999382,37.735149 
	C113.612633,37.291283 113.305305,37.110859 112.998108,36.966042 
	C112.998238,37.001644 113.069435,37.001411 112.987625,36.739746 
	C112.604576,36.291595 112.303322,36.105114 112.002151,35.958481 
	C112.002220,35.998333 112.081924,35.998158 112.007858,35.729172 
	C111.623055,35.278728 111.312317,35.097275 111.001457,34.956673 
	C111.001335,34.997524 111.083046,34.997730 111.002716,34.732651 
	C110.614540,34.284393 110.306694,34.101215 109.999100,33.959293 
	C109.999367,34.000549 110.081871,34.000065 110.002197,33.734550 
	C109.614746,33.285355 109.306969,33.101673 108.999374,32.959156 
	C108.999565,33.000320 109.081894,32.999977 109.002365,32.734344 
	C108.614998,32.284985 108.307167,32.101257 107.999451,31.958912 
	C107.999557,32.000298 108.082321,32.000111 108.002953,31.733383 
	C107.615570,31.281525 107.307556,31.096394 106.999123,30.955500 
	C106.998703,30.999737 107.087173,31.000601 107.006577,30.733719 
	C106.616631,30.281097 106.307289,30.095358 105.997986,29.955685 
	C105.998032,30.001747 106.090157,30.001680 106.007721,29.736050 
	C105.615486,29.285381 105.305687,29.100342 104.996460,28.959370 
	C104.997032,29.003437 105.085167,29.002323 105.003281,28.736750 
	C104.613091,28.286646 104.304794,28.102116 103.996803,27.960205 
	C103.997108,28.002827 104.082344,28.002247 103.996765,27.740696 
	C103.606636,27.293648 103.302078,27.108154 102.998489,26.962303 
	C102.999458,27.001944 103.078735,27.000040 103.000961,26.734970 
	C102.616142,26.287741 102.309105,26.105579 102.002304,25.960499 
	C102.002541,25.997578 102.076698,25.997078 102.000122,25.732506 
	C101.616264,25.287609 101.308998,25.107285 101.001472,24.962688 
	C101.001221,24.998417 101.072678,24.998892 100.994308,24.733643 
	C100.610802,24.279274 100.305649,24.090153 99.992233,23.931404 
	C99.983971,23.961773 100.039459,23.932047 99.946274,23.659283 
	C99.267418,22.906595 98.681763,22.426672 97.986191,21.680037 
	C97.272942,20.993851 96.669601,20.574377 95.776520,20.024979 
	C94.680473,19.225939 93.874176,18.556826 92.938332,17.598557 
	C91.810631,16.211020 90.812477,15.112636 89.823769,13.746394 
	C89.556808,13.261647 89.280411,13.044758 89.177162,12.667248 
	C89.588799,12.299025 89.835007,12.101033 90.088943,11.912653 
z"/>
<path fill="#EF4F3B" opacity="1.000000" stroke="none" 
	d="
M64.943047,13.126891 
	C65.257721,12.961134 65.572395,12.795378 66.588783,12.678850 
	C68.195793,12.775186 69.101089,12.822291 70.295357,12.990117 
	C71.407486,14.034986 72.230644,14.959135 72.767609,16.120377 
	C71.603722,18.408743 70.726044,20.460016 69.548279,22.405407 
	C68.835106,22.248020 68.422028,22.196518 67.667816,22.196959 
	C64.589165,24.185467 61.851635,26.122032 58.916237,27.733387 
	C58.447044,25.887571 58.175716,24.366966 58.097633,22.579052 
	C60.508263,19.250128 62.725655,16.188509 64.943047,13.126891 
z"/>
<path fill="#F2691F" opacity="1.000000" stroke="none" 
	d="
M84.977234,41.155373 
	C84.035362,42.868343 83.093491,44.581310 81.836029,46.635777 
	C81.520432,46.977272 81.110497,47.033642 80.819252,47.133675 
	C80.023323,47.839821 79.518639,48.445934 79.005020,49.023495 
	C78.996078,48.994942 79.055786,48.998871 78.851562,49.147293 
	C78.432205,49.553158 78.217072,49.810593 78.003967,50.037323 
	C78.005997,50.006622 78.061790,50.032608 77.729500,50.072929 
	C76.854210,50.911358 76.311211,51.709469 75.732849,52.624191 
	C75.697479,52.740807 75.459122,52.791634 75.117950,52.695827 
	C73.865929,52.760429 72.955078,52.920837 71.961319,52.745415 
	C71.559578,51.544849 71.240746,50.680119 71.027519,49.504665 
	C72.365692,47.121933 73.598251,45.049923 74.989609,42.683517 
	C77.223236,41.054031 78.375763,37.421329 82.143433,39.929077 
	C83.254471,40.502975 84.115860,40.829174 84.977234,41.155373 
z"/>
<path fill="#25061A" opacity="1.000000" stroke="none" 
	d="
M30.797213,53.142300 
	C25.979301,48.697620 21.097542,44.319595 16.364784,39.786026 
	C12.919051,36.485313 9.670013,32.979267 6.231141,29.011890 
	C6.427236,27.956594 6.725472,27.454170 7.240494,26.988058 
	C7.457280,27.024370 7.888840,27.108122 8.038277,27.405384 
	C10.509649,30.134027 12.831586,32.565407 15.199465,35.320709 
	C17.143145,37.446011 19.040882,39.247387 21.083521,41.348679 
	C23.445869,43.444893 25.663317,45.241192 28.015678,47.327568 
	C29.378956,48.768509 30.607325,49.919376 31.949762,51.333710 
	C32.400017,52.054913 32.736206,52.512646 32.693832,52.994080 
	C31.809256,53.059284 31.303234,53.100792 30.797213,53.142300 
z"/>
<path fill="#D97C37" opacity="1.000000" stroke="none" 
	d="
M85.320053,41.198006 
	C84.115860,40.829174 83.254471,40.502975 82.150253,39.566269 
	C80.955376,36.928635 80.003319,34.901512 79.032860,32.589287 
	C79.010277,31.923275 79.006096,31.542370 79.323120,31.141693 
	C80.074890,31.124544 80.505447,31.127167 81.121201,31.394146 
	C82.787369,32.822330 84.268333,33.986160 85.872696,35.468826 
	C87.124977,37.180046 88.206192,38.614544 89.391830,39.956802 
	C92.740059,43.747330 96.131119,47.500015 99.407578,51.411251 
	C99.309860,51.554886 99.123085,51.847870 99.123085,51.847870 
	C97.192978,50.526237 95.174789,49.314625 93.353691,47.856823 
	C90.715332,45.744797 88.219490,43.454746 85.320053,41.198006 
z"/>
<path fill="#E71A71" opacity="1.000000" stroke="none" 
	d="
M15.153522,34.996788 
	C12.831586,32.565407 10.509649,30.134027 8.063831,27.056114 
	C7.781810,25.258169 7.623671,24.106762 7.654153,22.680687 
	C9.566037,22.547281 11.289300,22.688545 13.012563,22.829807 
	C13.461079,23.164938 13.909594,23.500067 14.622746,23.936974 
	C16.057461,25.641401 17.227537,27.244053 18.657124,29.343319 
	C17.662264,31.558884 16.407894,33.277836 15.153522,34.996788 
z"/>
<path fill="#C65251" opacity="1.000000" stroke="none" 
	d="
M64.731667,13.080997 
	C62.725655,16.188509 60.508263,19.250128 57.832848,22.785614 
	C55.632484,24.953037 53.793018,26.558987 52.169094,28.359352 
	C49.262283,31.581980 49.706909,32.713940 54.054836,34.300800 
	C53.247089,35.349865 52.580788,36.121540 51.520447,36.922119 
	C50.076843,36.974697 49.027279,36.998367 47.989815,36.634071 
	C48.024372,33.838585 48.046837,31.431067 48.069298,29.023546 
	C48.069298,29.023546 48.007793,29.005009 48.264725,28.955521 
	C48.702751,28.605438 48.883846,28.304846 49.064941,28.004251 
	C49.064941,28.004251 48.999088,28.000355 49.254272,27.943762 
	C49.692078,27.592190 49.874695,27.297209 50.057312,27.002228 
	C50.057316,27.002230 49.994652,26.994595 50.252434,26.940840 
	C50.696484,26.593224 50.882751,26.299360 51.069019,26.005497 
	C51.069019,26.005497 51.001938,26.000753 51.263630,25.954720 
	C51.709503,25.608166 51.893684,25.307646 52.077866,25.007126 
	C52.077866,25.007124 52.006958,25.006798 52.266724,24.958670 
	C52.710224,24.608784 52.893967,24.307024 53.077709,24.005264 
	C53.077709,24.005266 53.005421,24.005142 53.262321,23.953449 
	C53.704563,23.602444 53.889896,23.303135 54.075233,23.003826 
	C54.075233,23.003826 54.003849,23.004036 54.261604,22.953241 
	C54.703442,22.603729 54.887527,22.305012 55.071613,22.006292 
	C55.071613,22.006292 55.003639,22.004087 55.261135,21.953697 
	C55.698433,21.603283 55.878235,21.303259 56.058037,21.003233 
	C56.058037,21.003233 55.995556,20.995663 56.253151,20.941618 
	C56.693535,20.593651 56.876331,20.299728 57.059128,20.005808 
	C57.059128,20.005808 56.997261,19.997267 57.256065,19.944317 
	C57.696548,19.595348 57.878223,19.299332 58.059898,19.003315 
	C58.059898,19.003313 57.996418,18.996246 58.254028,18.943102 
	C58.695644,18.594280 58.879654,18.298601 59.063663,18.002924 
	C59.063663,18.002924 58.998169,17.997074 59.257805,17.947948 
	C59.701260,17.600933 59.885071,17.303043 60.068886,17.005154 
	C60.068886,17.005154 60.007729,17.006413 60.317253,16.913021 
	C61.780735,15.567744 62.934689,14.315859 64.088646,13.063974 
	C64.088646,13.063975 64.520287,13.035101 64.731667,13.080997 
z"/>
<path fill="#1F0C0B" opacity="1.000000" stroke="none" 
	d="
M73.053802,15.883286 
	C72.230644,14.959135 71.407486,14.034986 70.259201,12.789841 
	C69.934082,12.468845 69.862823,12.066636 69.862823,12.066636 
	C71.276360,12.499975 72.968765,12.580877 74.048927,13.435546 
	C76.817825,15.626393 79.007355,15.876032 81.636238,13.082102 
	C83.735023,10.851551 86.330986,8.709107 89.891205,11.636236 
	C89.835007,12.101033 89.588799,12.299025 88.804977,12.736012 
	C87.139946,13.292961 86.020256,13.620527 84.934990,13.962919 
	C84.969421,13.977743 84.997322,13.908162 84.738121,13.994778 
	C84.302551,14.391515 84.126183,14.701636 83.978401,15.012288 
	C84.006989,15.012818 83.991524,14.957765 83.743546,15.038610 
	C83.311592,15.403061 83.127609,15.686668 82.971954,15.982542 
	C83.000290,15.994808 83.004860,15.933229 82.742889,16.017021 
	C82.288124,16.400434 82.095322,16.700058 81.951202,17.000174 
	C81.999878,17.000666 82.000885,16.903309 81.737335,16.992203 
	C81.283829,17.388210 81.093872,17.695322 80.952835,17.997810 
	C81.001740,17.993185 80.992470,17.895369 80.651108,17.967445 
	C79.224937,18.403931 78.140129,18.768337 76.750862,19.013432 
	C75.315544,17.890509 74.184669,16.886896 73.053802,15.883286 
z"/>
<path fill="#240719" opacity="1.000000" stroke="none" 
	d="
M26.096611,26.979591 
	C25.634432,26.981258 25.172251,26.982925 24.363770,26.984118 
	C25.069300,24.777344 25.694450,21.190577 27.277033,20.701424 
	C29.432184,20.035294 32.864254,21.052805 34.762787,22.576746 
	C37.622490,24.872215 39.629150,28.230406 41.753075,31.491951 
	C41.029922,31.540854 40.552135,31.234646 39.977570,30.698904 
	C39.681271,30.180323 39.409492,30.000406 38.972076,29.699572 
	C38.680668,29.181370 38.410892,28.999773 37.967247,28.698803 
	C37.663376,28.189589 37.392933,28.009365 36.955147,27.702133 
	C36.579269,27.300964 36.302055,27.129862 36.012505,26.983494 
	C36.000175,27.008226 36.055099,27.002031 35.968555,26.749298 
	C35.587627,26.312677 35.293247,26.128792 34.995152,25.976250 
	C34.991436,26.007593 35.054150,26.000380 34.969666,25.746695 
	C34.588917,25.312878 34.292645,25.132748 33.992493,24.982611 
	C33.988605,25.012606 34.048183,25.002132 33.957375,24.754944 
	C33.574844,24.328117 33.283123,24.148479 32.987095,23.992592 
	C32.982788,24.016344 33.029034,24.002481 32.895302,23.730885 
	C32.186779,23.367071 31.611994,23.274853 30.647415,23.105412 
	C27.330845,22.723869 25.621742,23.701820 26.096611,26.979591 
z"/>
<path fill="#0C1122" opacity="1.000000" stroke="none" 
	d="
M12.993356,22.467955 
	C11.289300,22.688545 9.566037,22.547281 7.481216,23.053255 
	C7.087676,24.784243 7.055692,25.867994 7.023708,26.951746 
	C6.725472,27.454170 6.427236,27.956594 6.038440,28.739799 
	C0.846076,27.067142 4.735814,23.077650 3.246574,19.364065 
	C6.900574,21.033363 11.472605,14.480850 12.993356,22.467955 
z"/>
<path fill="#1B0E07" opacity="1.000000" stroke="none" 
	d="
M81.110497,47.033638 
	C81.110497,47.033642 81.520432,46.977272 81.724976,46.948425 
	C79.256142,54.016998 73.865982,58.526806 67.337830,61.707771 
	C68.166031,59.901955 69.137527,58.477573 70.070747,57.039608 
	C70.032471,57.026024 70.000641,57.100750 70.267609,57.015728 
	C70.721886,56.619884 70.909203,56.309067 71.047546,55.998199 
	C70.998573,55.998150 70.998451,56.096096 71.262169,56.007202 
	C71.716599,55.611301 71.907310,55.304298 72.059303,55.007439 
	C72.020584,55.017586 72.041039,55.094982 72.353363,55.068626 
	C73.596832,54.292057 74.527977,53.541843 75.459122,52.791634 
	C75.459122,52.791634 75.697479,52.740807 75.967804,52.454102 
	C76.846024,51.455803 77.453911,50.744205 78.061790,50.032608 
	C78.061790,50.032608 78.005997,50.006622 78.262314,49.954826 
	C78.697685,49.601639 78.876732,49.300255 79.055786,48.998871 
	C79.055786,48.998871 78.996078,48.994942 79.286995,48.919006 
	C80.088768,48.239925 80.599632,47.636784 81.110497,47.033638 
z"/>
<path fill="#1D0C11" opacity="1.000000" stroke="none" 
	d="
M30.939510,53.448349 
	C31.303234,53.100792 31.809256,53.059284 32.977409,53.130772 
	C34.411343,54.182682 35.183144,55.121593 36.091377,56.367661 
	C39.626911,59.586990 41.804661,65.265015 47.989532,61.868580 
	C46.010777,66.730530 42.611698,65.206985 40.006767,63.059662 
	C36.713051,60.344563 34.028889,56.890011 30.939510,53.448349 
z"/>
<path fill="#DF6E37" opacity="1.000000" stroke="none" 
	d="
M70.109024,57.053192 
	C69.137527,58.477573 68.166031,59.901955 67.059189,61.627373 
	C66.582985,61.983955 66.313133,62.152905 65.638504,62.698708 
	C63.444305,62.621544 61.725903,62.280922 60.007496,61.940300 
	C60.007496,61.940300 59.995571,62.004078 59.945919,61.745575 
	C59.596542,61.304691 59.296818,61.122307 58.997093,60.939926 
	C58.997093,60.939926 58.995682,61.001266 58.918854,60.693863 
	C58.535275,59.630383 58.228516,58.874302 58.260124,58.099918 
	C59.051182,58.079193 59.503883,58.076771 60.191971,58.335419 
	C64.299278,62.126495 66.890762,57.623837 70.109024,57.053192 
z"/>
<path fill="#D4584E" opacity="1.000000" stroke="none" 
	d="
M48.016579,61.668678 
	C41.804661,65.265015 39.626911,59.586990 36.436100,56.376522 
	C37.738064,56.406517 38.831741,56.734806 40.141205,57.353256 
	C42.925480,58.438282 45.493961,59.233139 48.058319,60.297813 
	C48.097984,60.742130 48.141769,60.916622 48.185558,61.091114 
	C48.185558,61.091114 48.043625,61.468773 48.016579,61.668678 
z"/>
<path fill="#230B08" opacity="1.000000" stroke="none" 
	d="
M48.540817,61.048172 
	C48.141769,60.916622 48.097984,60.742130 48.029949,60.285400 
	C48.005703,60.003162 47.997944,60.064529 48.259968,59.986679 
	C48.705765,59.606472 48.889542,59.304111 49.037693,59.001770 
	C49.002068,59.001789 49.002125,59.073036 49.262882,58.991047 
	C49.707100,58.605724 49.890560,58.302387 50.036545,57.998772 
	C49.999073,57.998497 49.998489,58.073441 50.256645,57.986816 
	C50.701134,57.599728 50.887470,57.299259 51.031494,56.995842 
	C50.989185,56.992897 50.983212,57.077518 51.291428,57.041096 
	C52.088882,56.704464 52.578125,56.404259 53.076344,56.089520 
	C53.085320,56.074986 53.057587,56.055038 53.404869,56.038784 
	C55.142021,56.721092 56.531891,57.419659 57.921761,58.118225 
	C58.228516,58.874302 58.535275,59.630383 58.948196,60.684906 
	C55.668266,60.990639 52.282169,60.997932 48.540817,61.048172 
z"/>
<path fill="#1C0C13" opacity="1.000000" stroke="none" 
	d="
M47.741570,29.103443 
	C48.046837,31.431067 48.024372,33.838585 47.788723,36.629570 
	C47.575539,37.013035 47.175262,36.975838 46.960239,36.949448 
	C46.745216,36.923054 46.314190,36.878967 46.184383,36.615444 
	C45.739204,36.130047 45.423828,35.908176 45.090836,35.372787 
	C44.352333,34.054165 43.631454,33.049053 42.910576,32.043941 
	C44.411667,31.090408 45.912754,30.136875 47.741570,29.103443 
z"/>
<path fill="#230B08" opacity="1.000000" stroke="none" 
	d="
M60.095100,62.281124 
	C61.725903,62.280922 63.444305,62.621544 65.545914,62.924065 
	C63.871204,65.898148 61.975182,65.386887 60.095100,62.281124 
z"/>
<path fill="#C7455E" opacity="1.000000" stroke="none" 
	d="
M42.699425,32.006828 
	C43.631454,33.049053 44.352333,34.054165 45.077339,35.702068 
	C45.072525,36.564461 45.063580,36.784058 44.787628,37.013878 
	C44.342487,37.024406 44.164356,37.024712 43.832443,36.759712 
	C42.816658,35.643642 41.954651,34.792873 40.949867,33.671181 
	C40.439785,32.673618 40.072479,31.946981 39.798103,31.148174 
	C39.891033,31.076002 40.074345,30.928440 40.074345,30.928440 
	C40.552135,31.234646 41.029922,31.540854 41.794788,31.840067 
	C42.081863,31.833075 42.488277,31.969719 42.699425,32.006828 
z"/>
<path fill="#1C0C13" opacity="1.000000" stroke="none" 
	d="
M63.824181,12.937247 
	C62.934689,14.315859 61.780735,15.567744 60.329834,16.940901 
	C61.208496,15.644955 62.384102,14.227737 63.824181,12.937247 
z"/>
<path fill="#D48142" opacity="1.000000" stroke="none" 
	d="
M105.072342,52.054020 
	C105.004692,52.398113 104.828262,52.672165 103.873558,52.963753 
	C102.317032,53.039227 101.430000,53.027122 100.564316,53.000629 
	C100.585678,52.986237 100.632576,53.008110 100.632576,53.008110 
	C100.388138,52.950554 100.143692,52.892998 99.543045,52.711456 
	C99.186836,52.587475 99.153297,52.217571 99.138191,52.032722 
	C99.123085,51.847870 99.309860,51.554886 99.729599,51.550133 
	C101.076729,51.667068 102.004105,51.788757 103.131317,51.774635 
	C103.583374,51.433655 103.798409,51.194984 104.184433,50.865353 
	C104.392601,50.807896 104.817490,50.730419 104.882378,51.061092 
	C104.988960,51.612518 105.030647,51.833267 105.072342,52.054020 
z"/>
<path fill="#230E04" opacity="1.000000" stroke="none" 
	d="
M115.796356,51.244732 
	C115.210442,50.739616 114.624535,50.234505 113.984558,49.393211 
	C113.930504,49.057026 114.107574,48.900002 114.373093,49.018166 
	C115.123695,49.727528 115.608780,50.318726 116.019402,50.993553 
	C115.944946,51.077183 115.796356,51.244732 115.796356,51.244732 
z"/>
<path fill="#230E04" opacity="1.000000" stroke="none" 
	d="
M110.302292,47.009113 
	C110.009216,46.513397 110.015015,46.061840 110.308907,45.377274 
	C111.096367,45.732403 111.595741,46.320545 112.019745,46.993256 
	C111.944382,47.077824 111.793983,47.247250 111.793983,47.247250 
	C111.396378,47.182590 110.998779,47.117931 110.302292,47.009113 
z"/>
<path fill="#AD5D54" opacity="1.000000" stroke="none" 
	d="
M69.509109,12.048738 
	C69.862823,12.066636 69.934082,12.468845 69.970230,12.669121 
	C69.101089,12.822291 68.195793,12.775186 66.848244,12.612172 
	C67.322464,12.341124 68.238930,12.185981 69.509109,12.048738 
z"/>
<path fill="#1C0C13" opacity="1.000000" stroke="none" 
	d="
M58.855255,18.145264 
	C58.879654,18.298601 58.695644,18.594280 58.257450,18.974854 
	C58.217793,18.802368 58.432320,18.544985 58.855255,18.145264 
z"/>
<path fill="#230B08" opacity="1.000000" stroke="none" 
	d="
M59.128365,61.159554 
	C59.296818,61.122307 59.596542,61.304691 59.978363,61.745701 
	C59.793518,61.795948 59.526577,61.587566 59.128365,61.159554 
z"/>
<path fill="#1C0C13" opacity="1.000000" stroke="none" 
	d="
M57.852398,19.145487 
	C57.878223,19.299332 57.696548,19.595348 57.260345,19.975246 
	C57.218842,19.801971 57.431866,19.544815 57.852398,19.145487 
z"/>
<path fill="#230E04" opacity="1.000000" stroke="none" 
	d="
M113.841934,49.135506 
	C113.519485,49.002766 113.291496,48.785358 112.997765,48.308838 
	C112.926109,48.055920 113.096542,47.903351 113.329704,47.994041 
	C113.744438,48.356487 113.926003,48.628246 114.107574,48.900002 
	C114.107574,48.900002 113.930504,49.057026 113.841934,49.135506 
z"/>
<path fill="#230E04" opacity="1.000000" stroke="none" 
	d="
M117.843781,53.130432 
	C117.524811,52.998215 117.297752,52.779118 117.004089,52.302917 
	C116.928635,52.054989 117.083763,51.920078 117.317551,52.004589 
	C117.846817,52.281277 118.027229,52.550552 118.092575,52.896919 
	C118.092575,52.896919 117.926842,53.052727 117.843781,53.130432 
z"/>
<path fill="#230E04" opacity="1.000000" stroke="none" 
	d="
M116.850945,52.122307 
	C116.546898,51.989323 116.327431,51.781731 115.955612,51.405792 
	C115.796356,51.244732 115.944946,51.077183 116.252853,51.084633 
	C116.735092,51.368080 116.909431,51.644077 117.083763,51.920078 
	C117.083763,51.920078 116.928635,52.054989 116.850945,52.122307 
z"/>
<path fill="#230E04" opacity="1.000000" stroke="none" 
	d="
M112.840744,48.132050 
	C112.540085,47.996223 112.326271,47.782791 111.953957,47.407562 
	C111.793983,47.247250 111.944382,47.077824 112.252365,47.082977 
	C112.853989,47.284298 113.032715,47.556034 113.096542,47.903351 
	C113.096542,47.903351 112.926109,48.055920 112.840744,48.132050 
z"/>
<path fill="#1C0C13" opacity="1.000000" stroke="none" 
	d="
M59.860104,17.148136 
	C59.885071,17.303043 59.701260,17.600933 59.259930,17.980757 
	C59.218716,17.805502 59.435020,17.548311 59.860104,17.148136 
z"/>
<path fill="#1C0C13" opacity="1.000000" stroke="none" 
	d="
M52.868561,24.151550 
	C52.893967,24.307024 52.710224,24.608784 52.266590,24.994123 
	C52.224266,24.817751 52.441837,24.557795 52.868561,24.151550 
z"/>
<path fill="#1C0C13" opacity="1.000000" stroke="none" 
	d="
M51.868496,25.151222 
	C51.893684,25.307646 51.709503,25.608166 51.264847,25.988323 
	C51.222622,25.810411 51.440872,25.552864 51.868496,25.151222 
z"/>
<path fill="#1C0C13" opacity="1.000000" stroke="none" 
	d="
M48.857189,28.149006 
	C48.883846,28.304846 48.702751,28.605438 48.262680,28.987572 
	C48.218948,28.810661 48.434193,28.552212 48.857189,28.149006 
z"/>
<path fill="#1C0C13" opacity="1.000000" stroke="none" 
	d="
M49.849716,27.145596 
	C49.874695,27.297209 49.692078,27.592190 49.257225,27.976616 
	C49.217365,27.807030 49.429745,27.547997 49.849716,27.145596 
z"/>
<path fill="#1C0C13" opacity="1.000000" stroke="none" 
	d="
M50.859493,26.146561 
	C50.882751,26.299360 50.696484,26.593224 50.256184,26.972181 
	C50.218094,26.800726 50.434032,26.544176 50.859493,26.146561 
z"/>
<path fill="#1C0C13" opacity="1.000000" stroke="none" 
	d="
M56.851498,20.147285 
	C56.876331,20.299728 56.693535,20.593651 56.257225,20.972822 
	C56.217091,20.801636 56.430481,20.545200 56.851498,20.147285 
z"/>
<path fill="#1C0C13" opacity="1.000000" stroke="none" 
	d="
M55.851097,21.148087 
	C55.878235,21.303259 55.698433,21.603283 55.262886,21.987656 
	C55.219479,21.812317 55.431816,21.552628 55.851097,21.148087 
z"/>
<path fill="#1C0C13" opacity="1.000000" stroke="none" 
	d="
M54.862991,22.151865 
	C54.887527,22.305012 54.703442,22.603729 54.261726,22.988934 
	C54.220856,22.816095 54.437614,22.556767 54.862991,22.151865 
z"/>
<path fill="#1C0C13" opacity="1.000000" stroke="none" 
	d="
M53.866318,23.150421 
	C53.889896,23.303135 53.704563,23.602444 53.262283,23.989594 
	C53.222698,23.817295 53.440056,23.557156 53.866318,23.150421 
z"/>
<path fill="#F34D38" opacity="1.000000" stroke="none" 
	d="
M48.034073,60.015579 
	C45.493961,59.233139 42.925480,58.438282 40.374371,57.131569 
	C41.250050,55.452728 42.108353,54.285736 42.966652,53.118744 
	C43.115051,53.036167 43.263454,52.953587 43.995621,52.870872 
	C46.937546,52.029938 49.044121,51.066628 47.015282,48.005501 
	C47.102467,47.963791 47.263233,47.856468 47.486671,47.751179 
	C49.168568,46.414619 50.627033,45.183353 52.398277,43.967834 
	C53.126942,43.944359 53.542824,43.905136 54.337265,43.889755 
	C55.474155,43.910782 56.232483,43.907963 56.911575,44.285610 
	C55.574093,48.462395 54.315842,52.258717 53.057587,56.055038 
	C53.057587,56.055038 53.085320,56.074986 52.787323,56.138268 
	C51.987289,56.493538 51.485252,56.785530 50.983212,57.077518 
	C50.983212,57.077518 50.989185,56.992897 50.819214,57.140060 
	C50.432323,57.549294 50.215405,57.811367 49.998489,58.073441 
	C49.998489,58.073441 49.999073,57.998497 49.822266,58.140106 
	C49.431015,58.545494 49.216572,58.809265 49.002125,59.073036 
	C49.002125,59.073036 49.002068,59.001789 48.823109,59.140770 
	C48.428749,59.541344 48.213348,59.802937 47.997944,60.064529 
	C47.997944,60.064529 48.005703,60.003162 48.034073,60.015579 
z"/>
<path fill="#EE4049" opacity="1.000000" stroke="none" 
	d="
M42.991348,53.027500 
	C42.108353,54.285736 41.250050,55.452728 40.158581,56.841404 
	C38.831741,56.734806 37.738064,56.406517 36.299667,56.069366 
	C35.183144,55.121593 34.411343,54.182682 33.355965,53.107071 
	C32.736206,52.512646 32.400017,52.054913 32.200779,51.118042 
	C33.881004,49.435555 35.424282,48.232201 36.967556,47.028847 
	C38.403221,48.599834 39.838886,50.170818 41.674858,52.120598 
	C42.376663,52.583172 42.678158,52.666958 42.979656,52.750740 
	C42.979656,52.750740 43.016041,52.936256 42.991348,53.027500 
z"/>
<path fill="#E92C5E" opacity="1.000000" stroke="none" 
	d="
M27.880766,47.037491 
	C25.663317,45.241192 23.445869,43.444893 21.268707,41.041737 
	C22.575354,38.929222 23.841717,37.423565 25.108082,35.917908 
	C26.336832,37.050747 27.565582,38.183578 28.884714,39.958481 
	C28.610319,42.746197 28.245543,44.891846 27.880766,47.037491 
z"/>
<path fill="#DE2B6A" opacity="1.000000" stroke="none" 
	d="
M25.053574,35.578876 
	C23.841717,37.423565 22.575354,38.929222 21.123806,40.741821 
	C19.040882,39.247387 17.143145,37.446011 15.199466,35.320709 
	C16.407894,33.277836 17.662264,31.558884 18.958273,29.500702 
	C20.999632,31.187595 22.999350,33.213718 25.053574,35.578876 
z"/>
<path fill="#ED3654" opacity="1.000000" stroke="none" 
	d="
M28.015678,47.327568 
	C28.245543,44.891846 28.610319,42.746197 29.011127,40.247536 
	C31.593229,42.069576 34.139301,44.244625 36.826462,46.724262 
	C35.424282,48.232201 33.881004,49.435555 32.086708,50.854576 
	C30.607325,49.919376 29.378956,48.768509 28.015678,47.327568 
z"/>
<path fill="#EA2D5F" opacity="1.000000" stroke="none" 
	d="
M26.314537,27.072681 
	C25.621742,23.701820 27.330845,22.723869 30.864069,23.272610 
	C31.990021,23.678848 32.509529,23.840666 33.029034,24.002483 
	C33.029034,24.002481 32.982788,24.016344 33.124111,24.202213 
	C33.526348,24.592768 33.787266,24.797451 34.048183,25.002132 
	C34.048183,25.002132 33.988605,25.012606 34.128922,25.194881 
	C34.530876,25.584898 34.792515,25.792639 35.054150,26.000380 
	C35.054150,26.000380 34.991436,26.007593 35.130566,26.190369 
	C35.531498,26.582773 35.793297,26.792402 36.055099,27.002031 
	C36.055099,27.002031 36.000175,27.008226 35.948799,27.258007 
	C35.857483,27.691210 35.817539,27.874636 35.484192,28.158859 
	C34.083248,29.532312 32.975704,30.804966 31.577297,31.941921 
	C29.854614,30.526785 28.422791,29.247349 26.990969,27.967915 
	C26.961988,27.629728 26.809153,27.362347 26.314537,27.072681 
z"/>
<path fill="#D14E5B" opacity="1.000000" stroke="none" 
	d="
M33.001804,34.919521 
	C32.945103,34.596897 32.780632,34.344513 32.277405,33.827263 
	C32.082245,33.326611 32.118073,33.161076 32.491013,33.028221 
	C34.538170,34.070889 36.248219,35.080872 38.144264,36.355797 
	C39.843277,37.803661 41.356293,38.986580 42.979141,40.490982 
	C44.480396,43.160469 45.871815,45.508469 47.263233,47.856468 
	C47.263233,47.856468 47.102467,47.963791 46.755295,47.907349 
	C45.948235,47.552540 45.488350,47.254177 45.028461,46.955814 
	C45.028461,46.955814 44.998760,46.999443 44.935978,46.748039 
	C44.582729,46.312244 44.292263,46.127857 44.001797,45.943470 
	C44.001797,45.943470 43.996021,46.003403 43.936165,45.750069 
	C43.584587,45.309853 43.292866,45.122971 43.001144,44.936092 
	C43.001144,44.936092 42.997902,45.001907 42.939217,44.749107 
	C42.587296,44.309021 42.294060,44.121738 42.000820,43.934460 
	C42.000820,43.934460 41.998432,44.001522 41.939384,43.749199 
	C41.586952,43.309528 41.293560,43.122177 41.000172,42.934826 
	C41.000172,42.934826 40.998138,43.001888 40.938698,42.749855 
	C40.585995,42.310410 40.292728,42.123001 39.999466,41.935596 
	C39.999466,41.935596 39.997627,42.002407 39.938019,41.750526 
	C39.585285,41.311211 39.292160,41.123768 38.999039,40.936325 
	C38.999039,40.936325 38.997219,41.002804 38.937683,40.750961 
	C38.585098,40.311897 38.292053,40.124676 37.999008,39.937454 
	C37.999008,39.937454 37.996891,40.003166 37.937263,39.751369 
	C37.584698,39.312904 37.291759,39.126236 36.998821,38.939571 
	C36.998821,38.939571 36.996284,39.003830 36.935898,38.752678 
	C36.583099,38.315582 36.290684,38.129635 35.998268,37.943691 
	C35.998268,37.943691 35.995155,38.005070 35.933571,37.753929 
	C35.581745,37.316757 35.291508,37.130730 35.001266,36.944702 
	C35.001266,36.944702 34.996315,37.004189 34.936794,36.751438 
	C34.585407,36.315453 34.293537,36.132217 34.001671,35.948982 
	C34.001671,35.948982 33.995441,36.004818 33.934395,35.750168 
	C33.582832,35.303520 33.292320,35.111523 33.001804,34.919521 
z"/>
<path fill="#2C0511" opacity="1.000000" stroke="none" 
	d="
M32.153900,32.995541 
	C32.118073,33.161076 32.082245,33.326611 32.061012,33.746021 
	C30.397863,32.229290 28.720114,30.458685 27.016666,28.327999 
	C28.422791,29.247349 29.854614,30.526785 31.635651,32.175388 
	C31.984865,32.544559 32.153900,32.995541 32.153900,32.995541 
z"/>
<path fill="#2C0511" opacity="1.000000" stroke="none" 
	d="
M45.016666,47.330864 
	C45.488350,47.254177 45.948235,47.552540 46.668110,47.949059 
	C49.044121,51.066628 46.937546,52.029938 44.231232,52.774002 
	C44.257008,51.020145 44.630939,49.363029 45.016666,47.330864 
z"/>
<path fill="#2C0511" opacity="1.000000" stroke="none" 
	d="
M42.148239,44.139992 
	C42.294060,44.121738 42.587296,44.309021 42.972134,44.747704 
	C42.807713,44.781242 42.551689,44.563381 42.148239,44.139992 
z"/>
<path fill="#2C0511" opacity="1.000000" stroke="none" 
	d="
M41.148022,43.140347 
	C41.293560,43.122177 41.586952,43.309528 41.972916,43.748028 
	C41.808952,43.781406 41.552410,43.563637 41.148022,43.140347 
z"/>
<path fill="#2C0511" opacity="1.000000" stroke="none" 
	d="
M40.147297,42.141167 
	C40.292728,42.123001 40.585995,42.310410 40.972225,42.748756 
	C40.808506,42.782043 40.551815,42.564392 40.147297,42.141167 
z"/>
<path fill="#2C0511" opacity="1.000000" stroke="none" 
	d="
M39.146729,41.141960 
	C39.292160,41.123768 39.585285,41.311211 39.971420,41.749523 
	C39.807762,41.782795 39.551090,41.565197 39.146729,41.141960 
z"/>
<path fill="#2C0511" opacity="1.000000" stroke="none" 
	d="
M38.146549,40.142998 
	C38.292053,40.124676 38.585098,40.311897 38.970921,40.749985 
	C38.807159,40.783413 38.550625,40.565979 38.146549,40.142998 
z"/>
<path fill="#2C0511" opacity="1.000000" stroke="none" 
	d="
M42.815643,52.597939 
	C42.678158,52.666958 42.376663,52.583172 41.968620,52.261299 
	C42.152073,52.113686 42.415260,52.254330 42.815643,52.597939 
z"/>
<path fill="#2C0511" opacity="1.000000" stroke="none" 
	d="
M44.145973,46.147736 
	C44.292263,46.127857 44.582729,46.312244 44.962227,46.745796 
	C44.797558,46.780640 44.543858,46.566319 44.145973,46.147736 
z"/>
<path fill="#2C0511" opacity="1.000000" stroke="none" 
	d="
M43.147026,45.141312 
	C43.292866,45.122971 43.584587,45.309853 43.966171,45.747643 
	C43.801662,45.781212 43.547283,45.563869 43.147026,45.141312 
z"/>
<path fill="#2C0511" opacity="1.000000" stroke="none" 
	d="
M37.146210,39.144794 
	C37.291759,39.126236 37.584698,39.312904 37.970116,39.750221 
	C37.806263,39.783916 37.549931,39.566967 37.146210,39.144794 
z"/>
<path fill="#2C0511" opacity="1.000000" stroke="none" 
	d="
M36.145435,38.148293 
	C36.290684,38.129635 36.583099,38.315582 36.968021,38.751244 
	C36.804554,38.784939 36.548576,38.568916 36.145435,38.148293 
z"/>
<path fill="#2C0511" opacity="1.000000" stroke="none" 
	d="
M35.146748,37.149471 
	C35.291508,37.130730 35.581745,37.316757 35.964249,37.752159 
	C35.801754,37.785767 35.546989,37.570004 35.146748,37.149471 
z"/>
<path fill="#2C0511" opacity="1.000000" stroke="none" 
	d="
M34.146400,36.153217 
	C34.293537,36.132217 34.585407,36.315453 34.966507,36.748611 
	C34.800869,36.784843 34.545998,36.571148 34.146400,36.153217 
z"/>
<path fill="#2C0511" opacity="1.000000" stroke="none" 
	d="
M33.145142,35.128441 
	C33.292320,35.111523 33.582832,35.303520 33.962353,35.747429 
	C33.797066,35.778683 33.542770,35.558025 33.145142,35.128441 
z"/>
<path fill="#F67510" opacity="1.000000" stroke="none" 
	d="
M104.817490,50.730419 
	C104.817490,50.730419 104.392601,50.807896 104.028488,50.878078 
	C103.420074,51.268990 103.175781,51.589718 102.931488,51.910446 
	C102.004105,51.788757 101.076729,51.667068 99.827316,51.406494 
	C96.131119,47.500015 92.740059,43.747330 89.391830,39.956802 
	C88.206192,38.614544 87.124977,37.180046 86.200867,35.317764 
	C87.295273,34.551994 88.184898,34.256126 89.345093,34.136169 
	C90.770172,34.869152 91.924690,35.426220 93.079201,35.983288 
	C93.079201,35.983288 93.004829,35.990044 93.138062,36.174530 
	C93.540840,36.573368 93.810379,36.787727 94.079918,37.002087 
	C94.079918,37.002087 93.997040,37.002964 94.135361,37.181526 
	C94.543739,37.573433 94.813797,37.786774 95.083855,38.000111 
	C95.083855,38.000111 95.009659,37.992775 95.087158,38.294060 
	C98.135246,41.389450 101.105827,44.183552 104.076408,46.977654 
	C104.362022,47.168289 104.647629,47.358921 104.968399,48.124126 
	C104.941544,49.375938 104.879517,50.053181 104.817490,50.730419 
z"/>
<path fill="#D57B35" opacity="1.000000" stroke="none" 
	d="
M113.329704,47.994041 
	C113.032715,47.556034 112.853989,47.284298 112.327736,46.998413 
	C111.595741,46.320545 111.096367,45.732403 110.323074,45.038345 
	C110.049164,44.932434 110.024216,44.990520 109.964172,44.733963 
	C109.603485,44.285965 109.302856,44.094517 109.002220,43.903069 
	C109.002220,43.903069 109.001350,43.998276 108.960739,43.735039 
	C108.614571,43.279240 108.309006,43.086678 108.003441,42.894115 
	C108.003441,42.894115 107.999710,42.998188 107.962898,42.735382 
	C107.624763,42.267960 107.323441,42.063339 107.022118,41.858723 
	C106.982384,41.542042 106.828850,41.296516 106.239990,40.795914 
	C105.611298,40.280640 105.304138,40.091614 104.996979,39.902588 
	C104.996979,39.902588 104.999702,40.000904 104.958405,39.737961 
	C104.612648,39.283974 104.308182,39.092922 104.003716,38.901875 
	C104.003716,38.901875 104.003433,38.996315 103.957962,38.736023 
	C103.609795,38.282494 103.307098,38.089260 103.004410,37.896027 
	C103.004410,37.896027 102.999863,37.998192 102.962250,37.735260 
	C102.624779,37.265392 102.324921,37.058456 102.025055,36.851524 
	C100.254684,34.987274 98.484306,33.123024 96.314468,30.864763 
	C95.607765,30.280928 95.300529,30.091106 94.993294,29.901287 
	C94.993294,29.901287 94.997025,30.004078 94.957161,29.739170 
	C94.611427,29.282877 94.305565,29.091488 93.999695,28.900099 
	C93.999695,28.900099 93.999100,29.000917 93.959320,28.737228 
	C93.612541,28.283049 93.305557,28.092554 92.998566,27.902060 
	C92.998566,27.902060 92.998634,28.001598 92.956718,27.739161 
	C92.609581,27.285551 92.304359,27.094379 91.999138,26.903210 
	C91.999138,26.903208 91.999855,27.000118 91.958084,26.737074 
	C91.610733,26.283808 91.305145,26.093588 90.999557,25.903368 
	C90.999557,25.903368 90.999100,26.000786 90.958389,25.735535 
	C90.611938,25.277208 90.306198,25.084129 90.000465,24.891052 
	C90.000465,24.891050 90.035042,24.966599 89.957184,24.669497 
	C89.233200,23.613264 88.587082,22.854132 87.950287,21.811562 
	C87.965179,21.339001 87.970734,21.149879 88.306229,20.982796 
	C89.075729,21.039259 89.515289,21.073685 90.144310,21.368738 
	C92.191811,23.461102 94.049850,25.292837 96.093826,27.398041 
	C101.974770,33.427753 107.729576,39.126591 113.336441,44.967438 
	C115.702667,47.432396 117.757172,50.196579 119.953369,52.824745 
	C119.540550,52.868088 119.127731,52.911434 118.403748,52.925850 
	C118.027229,52.550552 117.846817,52.281277 117.317551,52.004589 
	C116.909431,51.644077 116.735092,51.368080 116.327309,51.000999 
	C115.608780,50.318726 115.123695,49.727528 114.373093,49.018166 
	C113.926003,48.628246 113.744438,48.356487 113.329704,47.994041 
z"/>
<path fill="#F46A1D" opacity="1.000000" stroke="none" 
	d="
M89.074532,33.960258 
	C88.184898,34.256126 87.295273,34.551994 86.077469,34.998924 
	C84.268333,33.986160 82.787369,32.822330 81.173935,31.087778 
	C82.373703,29.643023 83.705933,28.768988 85.266556,27.944740 
	C85.494957,27.994530 85.956795,28.067165 85.956795,28.067165 
	C85.956795,28.067165 85.987396,28.013239 86.059196,28.303944 
	C86.742661,29.096565 87.354332,29.598480 87.966003,30.100393 
	C88.281860,30.538643 88.597710,30.976896 89.001724,32.008194 
	C89.084770,33.054245 89.079651,33.507252 89.074532,33.960258 
z"/>
<path fill="#DA7D31" opacity="1.000000" stroke="none" 
	d="
M104.039017,46.627724 
	C101.105827,44.183552 98.135246,41.389450 95.090866,38.256966 
	C98.011932,40.704987 101.006783,43.491390 104.039017,46.627724 
z"/>
<path fill="#210B04" opacity="1.000000" stroke="none" 
	d="
M86.045395,27.715588 
	C85.956795,28.067165 85.494957,27.994530 85.121948,27.625700 
	C83.018387,23.808132 85.105949,22.720461 87.940964,22.095001 
	C88.587082,22.854132 89.233200,23.613264 89.994896,24.652077 
	C88.784981,25.742508 87.459488,26.553259 86.045395,27.715588 
z"/>
<path fill="#DA7D31" opacity="1.000000" stroke="none" 
	d="
M89.345093,34.136169 
	C89.079651,33.507252 89.084770,33.054245 89.106064,32.262680 
	C90.416336,33.044529 91.710442,34.164936 93.041870,35.634315 
	C91.924690,35.426220 90.770172,34.869152 89.345093,34.136169 
z"/>
<path fill="#B47744" opacity="1.000000" stroke="none" 
	d="
M104.882378,51.061092 
	C104.879517,50.053181 104.941544,49.375938 105.077255,48.365669 
	C105.312729,49.247955 105.474518,50.463272 105.354324,51.866302 
	C105.030647,51.833267 104.988960,51.612518 104.882378,51.061092 
z"/>
<path fill="#986337" opacity="1.000000" stroke="none" 
	d="
M100.542961,53.015022 
	C101.430000,53.027122 102.317032,53.039227 103.646835,53.067249 
	C103.109787,53.259701 102.129959,53.436237 100.827698,53.330429 
	C100.505257,53.048088 100.542961,53.015022 100.542961,53.015022 
z"/>
<path fill="#210B04" opacity="1.000000" stroke="none" 
	d="
M87.861130,29.812111 
	C87.354332,29.598480 86.742661,29.096565 86.028877,28.310413 
	C86.536591,28.525393 87.146416,29.024611 87.861130,29.812111 
z"/>
<path fill="#230E04" opacity="1.000000" stroke="none" 
	d="
M108.161095,43.101528 
	C108.309006,43.086678 108.614571,43.279240 109.008347,43.735458 
	C108.837288,43.769054 108.578018,43.538998 108.161095,43.101528 
z"/>
<path fill="#230E04" opacity="1.000000" stroke="none" 
	d="
M109.157776,44.109283 
	C109.302856,44.094517 109.603485,44.285965 109.995552,44.737450 
	C109.829102,44.770157 109.571220,44.542828 109.157776,44.109283 
z"/>
<path fill="#230E04" opacity="1.000000" stroke="none" 
	d="
M107.176285,42.072670 
	C107.323441,42.063339 107.624763,42.267960 108.014938,42.737236 
	C107.846008,42.763470 107.588226,42.525047 107.176285,42.072670 
z"/>
<path fill="#230E04" opacity="1.000000" stroke="none" 
	d="
M105.163437,40.106392 
	C105.304138,40.091614 105.611298,40.280640 106.028885,40.724243 
	C105.869507,40.755943 105.599701,40.533070 105.163437,40.106392 
z"/>
<path fill="#F67510" opacity="1.000000" stroke="none" 
	d="
M100.564316,53.000629 
	C100.542961,53.015022 100.505257,53.048088 100.509949,53.071175 
	C100.514641,53.094257 100.558739,52.975395 100.595657,52.991753 
	C100.632576,53.008110 100.585678,52.986237 100.564316,53.000629 
z"/>
<path fill="#230E04" opacity="1.000000" stroke="none" 
	d="
M103.161888,38.102959 
	C103.307098,38.089260 103.609795,38.282494 104.005180,38.736145 
	C103.838371,38.767673 103.578873,38.538784 103.161888,38.102959 
z"/>
<path fill="#210B04" opacity="1.000000" stroke="none" 
	d="
M95.162415,30.102364 
	C95.300529,30.091106 95.607765,30.280928 96.023193,30.726398 
	C95.864769,30.755846 95.598152,30.529642 95.162415,30.102364 
z"/>
<path fill="#210B04" opacity="1.000000" stroke="none" 
	d="
M94.161171,29.104458 
	C94.305565,29.091488 94.611427,29.282877 95.008560,29.737320 
	C94.840767,29.769857 94.581703,29.539335 94.161171,29.104458 
z"/>
<path fill="#210B04" opacity="1.000000" stroke="none" 
	d="
M93.161087,28.105556 
	C93.305557,28.092554 93.612541,28.283049 94.009720,28.737537 
	C93.841148,28.770706 93.582375,28.539879 93.161087,28.105556 
z"/>
<path fill="#210B04" opacity="1.000000" stroke="none" 
	d="
M90.160828,25.097151 
	C90.306198,25.084129 90.611938,25.277208 91.007095,25.735777 
	C90.838074,25.768595 90.579636,25.535921 90.160828,25.097151 
z"/>
<path fill="#210B04" opacity="1.000000" stroke="none" 
	d="
M92.160713,27.107010 
	C92.304359,27.094379 92.609581,27.285551 93.006485,27.739140 
	C92.839539,27.771305 92.580917,27.541058 92.160713,27.107010 
z"/>
<path fill="#210B04" opacity="1.000000" stroke="none" 
	d="
M91.159882,26.107643 
	C91.305145,26.093588 91.610733,26.283808 92.006546,26.736725 
	C91.837914,26.770252 91.579056,26.541084 91.159882,26.107643 
z"/>
<path fill="#230E04" opacity="1.000000" stroke="none" 
	d="
M102.179588,37.065525 
	C102.324921,37.058456 102.624779,37.265392 103.013336,37.737518 
	C102.846054,37.761650 102.590088,37.520588 102.179588,37.065525 
z"/>
<path fill="#DA7D31" opacity="1.000000" stroke="none" 
	d="
M94.996056,37.739632 
	C94.813797,37.786774 94.543739,37.573433 94.134903,37.140083 
	C94.300171,37.106438 94.604210,37.292797 94.996056,37.739632 
z"/>
<path fill="#230E04" opacity="1.000000" stroke="none" 
	d="
M104.161591,39.107994 
	C104.308182,39.092922 104.612648,39.283974 105.007568,39.736614 
	C104.838501,39.770176 104.578987,39.542141 104.161591,39.107994 
z"/>
<path fill="#DA7D31" opacity="1.000000" stroke="none" 
	d="
M93.991302,36.742908 
	C93.810379,36.787727 93.540840,36.573368 93.134720,36.137344 
	C93.299660,36.105022 93.601173,36.294376 93.991302,36.742908 
z"/>
<path fill="#F7760E" opacity="1.000000" stroke="none" 
	d="
M120.303329,52.892693 
	C117.757172,50.196579 115.702667,47.432396 113.336441,44.967438 
	C107.729576,39.126591 101.974770,33.427753 96.127449,26.985571 
	C96.035530,25.479900 96.095924,24.660168 96.310394,23.853539 
	C96.464462,23.866638 96.772575,23.893217 97.180885,23.908604 
	C98.405952,23.926678 99.222702,23.929361 100.039459,23.932047 
	C100.039459,23.932047 99.983971,23.961773 100.134567,24.148174 
	C100.547668,24.556013 100.810173,24.777451 101.072678,24.998890 
	C101.072678,24.998892 101.001221,24.998417 101.143944,25.175692 
	C101.550011,25.567669 101.813354,25.782373 102.076698,25.997078 
	C102.076698,25.997078 102.002541,25.997578 102.145126,26.174313 
	C102.551392,26.567379 102.815063,26.783709 103.078735,27.000038 
	C103.078735,27.000040 102.999458,27.001944 103.146164,27.173721 
	C103.556030,27.564417 103.819191,27.783331 104.082344,28.002247 
	C104.082344,28.002247 103.997108,28.002827 104.145302,28.172365 
	C104.557388,28.562042 104.821281,28.782181 105.085167,29.002323 
	C105.085167,29.002323 104.997032,29.003437 105.147064,29.170862 
	C105.561447,29.559418 105.825806,29.780550 106.090157,30.001682 
	C106.090157,30.001680 105.998032,30.001747 106.147018,30.168407 
	C106.559723,30.556915 106.823448,30.778759 107.087173,31.000603 
	C107.087173,31.000601 106.998703,30.999737 107.145020,31.169510 
	C107.555000,31.559561 107.818657,31.779837 108.082321,32.000114 
	C108.082321,32.000111 107.999557,32.000298 108.145142,32.172150 
	C108.554443,32.562656 108.818169,32.781315 109.081894,32.999977 
	C109.081894,32.999977 108.999565,33.000320 109.145035,33.172394 
	C109.554291,33.563000 109.818085,33.781532 110.081871,34.000065 
	C110.081871,34.000065 109.999367,34.000549 110.145218,34.172134 
	C110.555054,34.561722 110.819054,34.779728 111.083046,34.997730 
	C111.083046,34.997730 111.001335,34.997524 111.146080,35.170406 
	C111.554527,35.561577 111.818222,35.779865 112.081924,35.998158 
	C112.081924,35.998158 112.002220,35.998333 112.144005,36.172367 
	C112.547005,36.564735 112.808220,36.783073 113.069435,37.001411 
	C113.069435,37.001411 112.998238,37.001644 113.142319,37.178329 
	C113.550529,37.569542 113.814667,37.784069 114.078796,37.998596 
	C114.078796,37.998596 114.000671,37.999325 114.144669,38.173615 
	C114.552414,38.565033 114.816170,38.782162 115.079933,38.999283 
	C115.079933,38.999283 114.999878,39.000210 115.145767,39.173172 
	C115.556015,39.564579 115.820374,39.783028 116.084740,40.001472 
	C116.084740,40.001472 115.998329,40.003361 116.147240,40.171623 
	C116.559883,40.560966 116.823608,40.782047 117.087334,41.003128 
	C117.087334,41.003132 116.995956,41.003860 117.146866,41.170059 
	C117.562660,41.558189 117.827530,41.780117 118.092407,42.002045 
	C118.092407,42.002045 117.997429,42.002010 118.147499,42.167385 
	C118.562027,42.555084 118.826485,42.777409 119.090942,42.999733 
	C119.090942,42.999733 118.999939,43.000069 119.148254,43.167484 
	C119.560272,43.556728 119.823959,43.778557 120.087654,44.000385 
	C120.087654,44.000385 119.999252,44.000420 120.146713,44.169167 
	C120.557655,44.558697 120.821121,44.779484 121.084595,45.000267 
	C121.084595,45.000267 121.010956,44.982655 121.103104,45.307732 
	C121.832191,47.776760 122.469147,49.920715 123.106094,52.064667 
	C122.288490,52.363319 121.470886,52.661976 120.303329,52.892693 
z"/>
<path fill="#F6661D" opacity="1.000000" stroke="none" 
	d="
M89.954849,21.108110 
	C89.515289,21.073685 89.075729,21.039259 88.078377,20.769424 
	C86.359932,19.074610 85.199287,17.615206 84.036560,15.855909 
	C84.020157,15.356600 84.005836,15.157182 83.991524,14.957765 
	C83.991524,14.957765 84.006989,15.012818 84.189056,14.864901 
	C84.579849,14.447377 84.788589,14.177772 84.997330,13.908164 
	C84.997322,13.908162 84.969421,13.977743 85.346146,13.977173 
	C87.086693,13.989152 88.450508,14.001702 89.814323,14.014253 
	C90.812477,15.112636 91.810631,16.211020 92.712189,17.823599 
	C91.728683,19.261234 90.841766,20.184673 89.954849,21.108110 
z"/>
<path fill="#F17117" opacity="1.000000" stroke="none" 
	d="
M90.144310,21.368740 
	C90.841766,20.184673 91.728683,19.261234 92.841736,18.112755 
	C93.874176,18.556826 94.680473,19.225939 95.896179,20.281172 
	C96.902428,21.093777 97.499268,21.520262 98.096100,21.946747 
	C98.681763,22.426672 99.267418,22.906595 99.946274,23.659283 
	C99.222702,23.929361 98.405952,23.926678 97.111809,23.875837 
	C96.634422,23.827682 96.156319,23.840437 96.156319,23.840437 
	C96.095924,24.660168 96.035530,25.479900 95.941513,26.712101 
	C94.049850,25.292837 92.191811,23.461102 90.144310,21.368740 
z"/>
<path fill="#E27D29" opacity="1.000000" stroke="none" 
	d="
M123.420547,51.908012 
	C122.469147,49.920715 121.832191,47.776760 121.111969,45.270927 
	C124.442589,46.196342 126.259346,48.115337 123.420547,51.908012 
z"/>
<path fill="#D67342" opacity="1.000000" stroke="none" 
	d="
M89.823769,13.746394 
	C88.450508,14.001702 87.086693,13.989152 85.311722,13.962349 
	C86.020256,13.620527 87.139946,13.292961 88.631821,12.896631 
	C89.280411,13.044758 89.556808,13.261647 89.823769,13.746394 
z"/>
<path fill="#E27D29" opacity="1.000000" stroke="none" 
	d="
M97.986191,21.680035 
	C97.499268,21.520262 96.902428,21.093777 96.185928,20.411098 
	C96.669601,20.574377 97.272942,20.993851 97.986191,21.680035 
z"/>
<path fill="#E27D29" opacity="1.000000" stroke="none" 
	d="
M118.007950,41.736504 
	C117.827530,41.780117 117.562660,41.558189 117.146484,41.124374 
	C117.304626,41.098640 117.614052,41.284801 118.007950,41.736504 
z"/>
<path fill="#E27D29" opacity="1.000000" stroke="none" 
	d="
M120.006302,43.734001 
	C119.823959,43.778557 119.560272,43.556728 119.148071,43.121979 
	C119.308029,43.095245 119.616493,43.281429 120.006302,43.734001 
z"/>
<path fill="#E27D29" opacity="1.000000" stroke="none" 
	d="
M119.010757,42.731396 
	C118.826485,42.777409 118.562027,42.555084 118.147491,42.119896 
	C118.308472,42.092373 118.619522,42.277718 119.010757,42.731396 
z"/>
<path fill="#E27D29" opacity="1.000000" stroke="none" 
	d="
M116.004456,39.735695 
	C115.820374,39.783028 115.556015,39.564579 115.145279,39.133141 
	C115.307335,39.103409 115.615753,39.286659 116.004456,39.735695 
z"/>
<path fill="#E27D29" opacity="1.000000" stroke="none" 
	d="
M117.003754,40.738277 
	C116.823608,40.782047 116.559883,40.560966 116.146286,40.128418 
	C116.304337,40.102444 116.612251,40.287937 117.003754,40.738277 
z"/>
<path fill="#E27D29" opacity="1.000000" stroke="none" 
	d="
M121.003433,44.734665 
	C120.821121,44.779484 120.557655,44.558697 120.146683,44.124962 
	C120.306885,44.097694 120.614586,44.283379 121.003433,44.734665 
z"/>
<path fill="#E27D29" opacity="1.000000" stroke="none" 
	d="
M109.002365,32.734344 
	C108.818169,32.781315 108.554443,32.562656 108.145027,32.130764 
	C108.307167,32.101257 108.614998,32.284985 109.002365,32.734344 
z"/>
<path fill="#E27D29" opacity="1.000000" stroke="none" 
	d="
M108.002953,31.733387 
	C107.818657,31.779837 107.555000,31.559561 107.145447,31.125275 
	C107.307556,31.096394 107.615570,31.281525 108.002953,31.733387 
z"/>
<path fill="#E27D29" opacity="1.000000" stroke="none" 
	d="
M107.006577,30.733719 
	C106.823448,30.778759 106.559723,30.556915 106.146973,30.122345 
	C106.307289,30.095358 106.616631,30.281097 107.006577,30.733719 
z"/>
<path fill="#E27D29" opacity="1.000000" stroke="none" 
	d="
M106.007721,29.736052 
	C105.825806,29.780550 105.561447,29.559418 105.146492,29.126797 
	C105.305687,29.100342 105.615486,29.285381 106.007721,29.736052 
z"/>
<path fill="#E27D29" opacity="1.000000" stroke="none" 
	d="
M100.994308,24.733641 
	C100.810173,24.777451 100.547668,24.556013 100.142838,24.117805 
	C100.305649,24.090153 100.610802,24.279274 100.994308,24.733641 
z"/>
<path fill="#E27D29" opacity="1.000000" stroke="none" 
	d="
M105.003281,28.736748 
	C104.821281,28.782181 104.557388,28.562042 104.144997,28.129745 
	C104.304794,28.102116 104.613091,28.286646 105.003281,28.736748 
z"/>
<path fill="#E27D29" opacity="1.000000" stroke="none" 
	d="
M103.996765,27.740696 
	C103.819191,27.783331 103.556030,27.564417 103.145203,27.134081 
	C103.302078,27.108154 103.606636,27.293648 103.996765,27.740696 
z"/>
<path fill="#E27D29" opacity="1.000000" stroke="none" 
	d="
M102.000122,25.732506 
	C101.813354,25.782373 101.550011,25.567669 101.144196,25.139965 
	C101.308998,25.107285 101.616264,25.287609 102.000122,25.732506 
z"/>
<path fill="#E27D29" opacity="1.000000" stroke="none" 
	d="
M103.000961,26.734970 
	C102.815063,26.783709 102.551392,26.567379 102.144897,26.137234 
	C102.309105,26.105579 102.616142,26.287741 103.000961,26.734970 
z"/>
<path fill="#E27D29" opacity="1.000000" stroke="none" 
	d="
M112.987625,36.739746 
	C112.808220,36.783073 112.547005,36.564735 112.143936,36.132515 
	C112.303322,36.105114 112.604576,36.291595 112.987625,36.739746 
z"/>
<path fill="#E27D29" opacity="1.000000" stroke="none" 
	d="
M115.001007,38.734138 
	C114.816170,38.782162 114.552414,38.565033 114.144318,38.134560 
	C114.307343,38.103806 114.614708,38.286400 115.001007,38.734138 
z"/>
<path fill="#E27D29" opacity="1.000000" stroke="none" 
	d="
M113.999382,37.735149 
	C113.814667,37.784069 113.550529,37.569542 113.142181,37.142731 
	C113.305305,37.110859 113.612633,37.291283 113.999382,37.735149 
z"/>
<path fill="#E27D29" opacity="1.000000" stroke="none" 
	d="
M112.007858,35.729172 
	C111.818222,35.779865 111.554527,35.561577 111.146202,35.129555 
	C111.312317,35.097275 111.623055,35.278728 112.007858,35.729172 
z"/>
<path fill="#E27D29" opacity="1.000000" stroke="none" 
	d="
M111.002716,34.732651 
	C110.819054,34.779728 110.555054,34.561722 110.144951,34.130875 
	C110.306694,34.101215 110.614540,34.284393 111.002716,34.732651 
z"/>
<path fill="#E27D29" opacity="1.000000" stroke="none" 
	d="
M110.002197,33.734550 
	C109.818085,33.781532 109.554291,33.563000 109.144852,33.131229 
	C109.306969,33.101673 109.614746,33.285355 110.002197,33.734550 
z"/>
<path fill="#EB4A43" opacity="1.000000" stroke="none" 
	d="
M54.196289,34.023411 
	C49.706909,32.713940 49.262283,31.581980 52.169094,28.359352 
	C53.793018,26.558987 55.632484,24.953037 57.639610,23.052921 
	C58.175716,24.366966 58.447044,25.887571 58.773926,28.034721 
	C57.285084,30.448647 55.740685,32.236031 54.196289,34.023411 
z"/>
<path fill="#290903" opacity="1.000000" stroke="none" 
	d="
M79.001907,31.161465 
	C79.006096,31.542370 79.010277,31.923275 78.628815,32.616760 
	C76.884438,32.964134 75.525696,32.998928 74.036972,32.752979 
	C73.279068,31.966002 72.651161,31.459766 72.011642,30.976887 
	C72.000031,31.000244 72.046021,30.975634 71.926102,30.672535 
	C70.878204,29.940620 69.950218,29.511803 69.016754,28.814457 
	C69.006927,28.366930 69.002579,28.187927 69.108170,27.732449 
	C68.805199,26.277277 68.392288,25.098583 67.982124,23.624043 
	C67.992897,22.933802 68.000923,22.539410 68.008942,22.145016 
	C68.422028,22.196518 68.835106,22.248020 69.755470,22.600414 
	C71.130798,23.624557 71.998840,24.347811 73.017471,25.365850 
	C75.112679,27.494246 77.057297,29.327854 79.001907,31.161465 
z"/>
<path fill="#34090A" opacity="1.000000" stroke="none" 
	d="
M67.667816,22.196959 
	C68.000923,22.539410 67.992897,22.933802 67.705811,23.815750 
	C64.682861,26.949104 62.075912,29.760021 59.150196,32.186600 
	C56.950348,34.011143 54.341347,35.342377 51.914486,36.893211 
	C52.580788,36.121540 53.247089,35.349865 54.054840,34.300800 
	C55.740685,32.236031 57.285084,30.448647 58.971794,28.359930 
	C61.851635,26.122032 64.589165,24.185467 67.667816,22.196959 
z"/>
<path fill="#EF5831" opacity="1.000000" stroke="none" 
	d="
M72.866898,25.071064 
	C71.998840,24.347811 71.130798,23.624557 70.055557,22.706299 
	C70.726044,20.460016 71.603722,18.408743 72.767609,16.120377 
	C74.184669,16.886896 75.315544,17.890509 76.743286,19.317947 
	C77.046768,20.147192 77.053375,20.552607 76.787102,21.140888 
	C75.298439,22.572857 74.082664,23.821960 72.866898,25.071064 
z"/>
<path fill="#111115" opacity="1.000000" stroke="none" 
	d="
M74.166962,33.033722 
	C75.525696,32.998928 76.884438,32.964134 78.647217,32.901863 
	C80.003319,34.901512 80.955376,36.928635 81.900597,39.318573 
	C78.375763,37.421329 77.223236,41.054031 74.687042,42.808929 
	C70.467934,46.213299 66.710190,49.197865 62.619617,52.101669 
	C61.461143,51.317142 60.635490,50.613377 59.978718,49.626831 
	C60.784760,48.231178 61.421917,47.118301 62.027149,46.000034 
	C61.995224,45.994648 61.996323,46.059391 62.251839,45.973454 
	C62.693890,45.590935 62.880424,45.294353 63.032169,44.997253 
	C62.997379,44.996731 62.998539,45.066303 63.253174,44.977562 
	C63.693897,44.591763 63.879978,44.294704 64.032990,43.997749 
	C63.999908,43.997852 64.009453,44.063313 64.358536,44.018768 
	C67.751312,40.972267 70.794998,37.970306 73.909462,34.648140 
	C74.042480,33.896526 74.104721,33.465122 74.166962,33.033722 
z"/>
<path fill="#F76122" opacity="1.000000" stroke="none" 
	d="
M70.070740,57.039604 
	C66.890762,57.623837 64.299278,62.126495 60.297211,58.014935 
	C61.136951,56.601105 62.106850,55.768826 63.409668,54.858749 
	C66.135696,53.125763 68.528801,51.470573 70.921906,49.815388 
	C71.240746,50.680119 71.559578,51.544849 71.951950,53.079964 
	C72.030670,54.198563 72.035851,54.646770 72.041031,55.094982 
	C72.041039,55.094982 72.020584,55.017586 71.847099,55.160309 
	C71.448563,55.567387 71.223511,55.831741 70.998459,56.096100 
	C70.998451,56.096096 70.998573,55.998150 70.834991,56.150986 
	C70.447815,56.569462 70.224228,56.835106 70.000641,57.100750 
	C70.000641,57.100750 70.032471,57.026024 70.070740,57.039604 
z"/>
<path fill="#D1693E" opacity="1.000000" stroke="none" 
	d="
M71.027519,49.504665 
	C68.528801,51.470573 66.135696,53.125763 63.393661,54.515820 
	C63.013969,53.561268 62.983200,52.871849 62.952438,52.182426 
	C66.710190,49.197865 70.467934,46.213299 74.528244,43.103321 
	C73.598251,45.049923 72.365692,47.121933 71.027519,49.504665 
z"/>
<path fill="#DF6E37" opacity="1.000000" stroke="none" 
	d="
M72.353363,55.068626 
	C72.035851,54.646770 72.030670,54.198563 72.034851,53.415798 
	C72.955078,52.920837 73.865929,52.760429 75.117950,52.695827 
	C74.527977,53.541843 73.596832,54.292057 72.353363,55.068626 
z"/>
<path fill="#DF6E37" opacity="1.000000" stroke="none" 
	d="
M77.729500,50.072929 
	C77.453911,50.744205 76.846024,51.455803 76.003174,52.337486 
	C76.311211,51.709469 76.854210,50.911358 77.729500,50.072929 
z"/>
<path fill="#DF6E37" opacity="1.000000" stroke="none" 
	d="
M80.819252,47.133675 
	C80.599632,47.636784 80.088768,48.239925 79.295929,48.947556 
	C79.518639,48.445934 80.023323,47.839821 80.819252,47.133675 
z"/>
<path fill="#DF6E37" opacity="1.000000" stroke="none" 
	d="
M78.851562,49.147293 
	C78.876732,49.300255 78.697685,49.601639 78.260284,49.985527 
	C78.217072,49.810593 78.432205,49.553158 78.851562,49.147293 
z"/>
<path fill="#BD3079" opacity="1.000000" stroke="none" 
	d="
M7.240494,26.988058 
	C7.055692,25.867994 7.087676,24.784243 7.292596,23.327923 
	C7.623671,24.106762 7.781810,25.258169 7.914394,26.758850 
	C7.888840,27.108122 7.457280,27.024370 7.240494,26.988058 
z"/>
<path fill="#F46224" opacity="1.000000" stroke="none" 
	d="
M73.017479,25.365852 
	C74.082664,23.821960 75.298439,22.572857 77.097916,21.063026 
	C78.785233,19.833323 79.888855,18.864346 80.992470,17.895370 
	C80.992470,17.895369 81.001740,17.993185 81.164658,17.844818 
	C81.552017,17.432070 81.776451,17.167688 82.000885,16.903309 
	C82.000885,16.903309 81.999878,17.000666 82.164452,16.854275 
	C82.554298,16.449667 82.779579,16.191448 83.004860,15.933229 
	C83.004860,15.933229 83.000290,15.994808 83.245461,16.030401 
	C83.673302,16.095930 83.855965,16.125864 84.038635,16.155800 
	C85.199287,17.615206 86.359932,19.074610 87.748444,20.747387 
	C87.970734,21.149879 87.965179,21.339001 87.950287,21.811562 
	C85.105949,22.720461 83.018387,23.808132 84.893547,27.575911 
	C83.705933,28.768988 82.373703,29.643023 80.988739,30.823425 
	C80.505447,31.127167 80.074890,31.124544 79.323120,31.141693 
	C77.057297,29.327854 75.112679,27.494246 73.017479,25.365852 
z"/>
<path fill="#101119" opacity="1.000000" stroke="none" 
	d="
M51.520447,36.922119 
	C54.341347,35.342377 56.950348,34.011143 59.150196,32.186600 
	C62.075912,29.760021 64.682861,26.949104 67.703064,24.111595 
	C68.392288,25.098583 68.805199,26.277277 68.831757,27.846951 
	C67.965393,28.842951 67.485382,29.447973 66.998863,30.022530 
	C66.992355,29.992062 67.054581,29.995256 66.844818,30.135122 
	C66.420670,30.531942 66.206276,30.788895 65.988083,31.015060 
	C65.984268,30.984274 66.045860,30.991777 65.837662,31.134781 
	C65.418373,31.538305 65.207291,31.798824 64.993401,32.026157 
	C64.990593,31.992971 65.057159,31.995251 64.848907,32.138062 
	C64.425003,32.537689 64.209358,32.794506 63.991989,33.018982 
	C63.990269,32.986637 64.054596,32.994308 63.844437,33.137154 
	C63.422695,33.542610 63.211117,33.805222 62.997635,34.033298 
	C62.995731,33.998764 63.064899,33.997986 62.855976,34.143440 
	C62.430859,34.548954 62.214661,34.809017 61.998833,35.033081 
	C61.999203,34.997086 62.071205,34.997791 61.861336,35.141861 
	C61.433010,35.544014 61.214558,35.802094 60.994408,36.026665 
	C60.992714,35.993160 61.059711,35.996792 60.851196,36.142006 
	C60.427643,36.547302 60.212605,36.807384 59.997292,37.032337 
	C59.997013,36.997204 60.067284,36.997467 59.857456,37.141342 
	C59.430401,37.544006 59.213173,37.802799 58.994694,38.027504 
	C58.993446,37.993412 59.061634,37.995697 58.853012,38.142223 
	C58.429470,38.550392 58.214542,38.812035 57.999767,39.036720 
	C57.999920,38.999767 58.073830,39.000061 57.862328,39.142033 
	C57.432613,39.542274 57.214397,39.800541 56.994316,40.025574 
	C56.992447,39.992340 57.058884,39.996620 56.850048,40.138191 
	C56.427784,40.537678 56.214355,40.795593 55.999653,41.025475 
	C55.998379,40.997437 56.047188,41.025158 55.669365,41.000473 
	C53.586269,40.644566 51.880993,40.313339 49.902489,39.837368 
	C48.811260,38.787029 47.993259,37.881432 47.175262,36.975838 
	C47.175262,36.975838 47.575539,37.013035 47.776627,37.017536 
	C49.027279,36.998367 50.076843,36.974697 51.520447,36.922119 
z"/>
<path fill="#DD6B3C" opacity="1.000000" stroke="none" 
	d="
M80.651108,17.967447 
	C79.888855,18.864346 78.785233,19.833323 77.370804,20.880161 
	C77.053375,20.552607 77.046768,20.147192 77.047737,19.437260 
	C78.140129,18.768337 79.224937,18.403931 80.651108,17.967447 
z"/>
<path fill="#DD6B3C" opacity="1.000000" stroke="none" 
	d="
M84.738129,13.994780 
	C84.788589,14.177772 84.579849,14.447377 84.160461,14.864370 
	C84.126183,14.701636 84.302551,14.391515 84.738129,13.994780 
z"/>
<path fill="#DD6B3C" opacity="1.000000" stroke="none" 
	d="
M84.036560,15.855909 
	C83.855965,16.125864 83.673302,16.095930 83.217133,16.018135 
	C83.127609,15.686668 83.311592,15.403061 83.743546,15.038610 
	C84.005836,15.157182 84.020157,15.356600 84.036560,15.855909 
z"/>
<path fill="#DD6B3C" opacity="1.000000" stroke="none" 
	d="
M82.742889,16.017019 
	C82.779579,16.191448 82.554298,16.449667 82.115768,16.853783 
	C82.095322,16.700058 82.288124,16.400434 82.742889,16.017019 
z"/>
<path fill="#DD6B3C" opacity="1.000000" stroke="none" 
	d="
M81.737335,16.992203 
	C81.776451,17.167688 81.552017,17.432070 81.115753,17.849442 
	C81.093872,17.695322 81.283829,17.388210 81.737335,16.992203 
z"/>
<path fill="#C7455E" opacity="1.000000" stroke="none" 
	d="
M32.895302,23.730886 
	C32.509529,23.840666 31.990021,23.678848 31.253860,23.349834 
	C31.611994,23.274853 32.186779,23.367071 32.895302,23.730886 
z"/>
<path fill="#C7455E" opacity="1.000000" stroke="none" 
	d="
M34.969666,25.746695 
	C34.792515,25.792639 34.530876,25.584898 34.132809,25.164886 
	C34.292645,25.132748 34.588917,25.312878 34.969666,25.746695 
z"/>
<path fill="#C7455E" opacity="1.000000" stroke="none" 
	d="
M33.957375,24.754944 
	C33.787266,24.797451 33.526348,24.592768 33.128418,24.178463 
	C33.283123,24.148479 33.574844,24.328117 33.957375,24.754944 
z"/>
<path fill="#C7455E" opacity="1.000000" stroke="none" 
	d="
M39.065453,29.929623 
	C39.409492,30.000406 39.681271,30.180323 39.977570,30.698904 
	C40.074345,30.928440 39.891033,31.076002 39.646523,30.978161 
	C39.194538,30.657810 38.991241,30.431547 38.860733,30.133839 
	C38.929348,30.066143 39.065453,29.929623 39.065453,29.929623 
z"/>
<path fill="#C7455E" opacity="1.000000" stroke="none" 
	d="
M38.069366,28.924732 
	C38.410892,28.999773 38.680668,29.181370 38.972076,29.699572 
	C39.065453,29.929623 38.929348,30.066143 38.689850,29.971710 
	C38.225945,29.657240 38.006798,29.432081 37.862297,29.132803 
	C37.931679,29.063805 38.069366,28.924732 38.069366,28.924732 
z"/>
<path fill="#C7455E" opacity="1.000000" stroke="none" 
	d="
M37.053802,27.932201 
	C37.392933,28.009365 37.663376,28.189589 37.967247,28.698803 
	C38.069366,28.924732 37.931679,29.063805 37.694450,28.981846 
	C37.233212,28.699011 37.006798,28.500872 36.846783,28.212040 
	C36.915581,28.118605 37.053802,27.932201 37.053802,27.932201 
z"/>
<path fill="#C7455E" opacity="1.000000" stroke="none" 
	d="
M35.777592,28.058060 
	C35.817539,27.874636 35.857483,27.691210 35.961128,27.233273 
	C36.302055,27.129862 36.579269,27.300964 36.955147,27.702133 
	C37.053802,27.932201 36.915581,28.118605 36.598866,28.142862 
	C36.113960,28.130766 35.945774,28.094412 35.777592,28.058060 
z"/>
<path fill="#C7455E" opacity="1.000000" stroke="none" 
	d="
M35.968555,26.749298 
	C35.793297,26.792402 35.531498,26.582773 35.134281,26.159023 
	C35.293247,26.128792 35.587627,26.312677 35.968555,26.749298 
z"/>
<path fill="#DF6E37" opacity="1.000000" stroke="none" 
	d="
M70.267609,57.015728 
	C70.224228,56.835106 70.447815,56.569462 70.883965,56.151035 
	C70.909203,56.309067 70.721886,56.619884 70.267609,57.015728 
z"/>
<path fill="#DF6E37" opacity="1.000000" stroke="none" 
	d="
M71.262177,56.007202 
	C71.223511,55.831741 71.448563,55.567387 71.885818,55.150162 
	C71.907310,55.304298 71.716599,55.611301 71.262177,56.007202 
z"/>
<path fill="#F1582F" opacity="1.000000" stroke="none" 
	d="
M62.619614,52.101669 
	C62.983200,52.871849 63.013969,53.561268 63.060745,54.593620 
	C62.106850,55.768826 61.136951,56.601105 60.061821,57.753868 
	C59.503883,58.076771 59.051182,58.079193 58.260124,58.099922 
	C56.531891,57.419659 55.142021,56.721092 53.404869,56.038784 
	C54.315842,52.258717 55.574093,48.462395 57.097046,44.019333 
	C62.256504,39.240273 67.151260,35.107952 72.046021,30.975632 
	C72.046021,30.975634 72.000031,31.000244 71.997932,31.380089 
	C71.983887,32.833317 71.971947,33.906696 71.695221,35.177299 
	C68.956779,38.270782 66.483116,41.167049 64.009453,44.063313 
	C64.009453,44.063313 63.999908,43.997852 63.811508,44.128872 
	C63.414921,44.528698 63.206730,44.797501 62.998539,45.066303 
	C62.998539,45.066303 62.997379,44.996731 62.810562,45.127113 
	C62.414604,45.524792 62.205463,45.792091 61.996323,46.059391 
	C61.996323,46.059391 61.995224,45.994648 61.716125,46.069279 
	C60.894634,47.399143 60.352238,48.654377 59.809837,49.909607 
	C60.635490,50.613377 61.461143,51.317142 62.619614,52.101669 
z"/>
<path fill="#D4584E" opacity="1.000000" stroke="none" 
	d="
M51.291428,57.041096 
	C51.485252,56.785530 51.987289,56.493538 52.778347,56.152802 
	C52.578125,56.404259 52.088882,56.704464 51.291428,57.041096 
z"/>
<path fill="#D4584E" opacity="1.000000" stroke="none" 
	d="
M50.256645,57.986816 
	C50.215405,57.811367 50.432323,57.549294 50.861526,57.143005 
	C50.887470,57.299259 50.701134,57.599728 50.256645,57.986816 
z"/>
<path fill="#D4584E" opacity="1.000000" stroke="none" 
	d="
M49.262882,58.991047 
	C49.216572,58.809265 49.431015,58.545494 49.859741,58.140385 
	C49.890560,58.302387 49.707100,58.605724 49.262882,58.991047 
z"/>
<path fill="#D4584E" opacity="1.000000" stroke="none" 
	d="
M48.259968,59.986679 
	C48.213348,59.802937 48.428749,59.541344 48.858734,59.140747 
	C48.889542,59.304111 48.705765,59.606472 48.259968,59.986679 
z"/>
<path fill="#EF4642" opacity="1.000000" stroke="none" 
	d="
M46.960239,36.949448 
	C47.993259,37.881432 48.811260,38.787029 49.896355,40.169189 
	C50.804131,41.747864 51.444813,42.849976 52.085495,43.952087 
	C50.627033,45.183353 49.168568,46.414619 47.486671,47.751179 
	C45.871815,45.508469 44.480396,43.160469 43.126747,40.184006 
	C43.438419,38.712032 43.712322,37.868523 43.986221,37.025017 
	C44.164356,37.024712 44.342487,37.024406 45.102150,36.984619 
	C45.893852,36.923080 46.104019,36.901024 46.314190,36.878967 
	C46.314190,36.878967 46.745216,36.923054 46.960239,36.949448 
M46.495537,39.475880 
	C46.495537,39.475880 46.507362,39.512589 46.495537,39.475880 
z"/>
<path fill="#ED3E4A" opacity="1.000000" stroke="none" 
	d="
M46.184383,36.615444 
	C46.104019,36.901024 45.893852,36.923080 45.369156,36.974396 
	C45.063580,36.784058 45.072525,36.564461 45.094963,36.015583 
	C45.423828,35.908176 45.739204,36.130047 46.184383,36.615444 
z"/>
<path fill="#EB3555" opacity="1.000000" stroke="none" 
	d="
M35.484192,28.158859 
	C35.945774,28.094412 36.113960,28.130766 36.530067,28.236298 
	C37.006798,28.500872 37.233212,28.699011 37.625069,29.050844 
	C38.006798,29.432081 38.225945,29.657240 38.621239,30.039406 
	C38.991241,30.431547 39.194538,30.657810 39.553589,31.050333 
	C40.072479,31.946981 40.439785,32.673618 40.636398,33.766552 
	C39.629894,34.785515 38.794079,35.438183 37.958267,36.090851 
	C36.248219,35.080872 34.538170,34.070889 32.491013,33.028221 
	C32.153900,32.995541 31.984865,32.544559 31.926512,32.311089 
	C32.975704,30.804966 34.083248,29.532312 35.484192,28.158859 
z"/>
<path fill="#ED3E4A" opacity="1.000000" stroke="none" 
	d="
M38.144264,36.355797 
	C38.794079,35.438183 39.629894,34.785515 40.779175,34.037476 
	C41.954651,34.792873 42.816658,35.643642 43.832443,36.759712 
	C43.712322,37.868523 43.438419,38.712032 43.016914,39.862518 
	C41.356293,38.986580 39.843277,37.803661 38.144264,36.355797 
z"/>
<path fill="#E77B25" opacity="1.000000" stroke="none" 
	d="
M103.131317,51.774635 
	C103.175781,51.589718 103.420074,51.268990 103.820312,50.935535 
	C103.798409,51.194984 103.583374,51.433655 103.131317,51.774635 
z"/>
<path fill="#D96145" opacity="1.000000" stroke="none" 
	d="
M71.926102,30.672535 
	C67.151260,35.107952 62.256504,39.240273 57.176277,43.638870 
	C56.232483,43.907963 55.474155,43.910782 54.454941,43.619698 
	C54.811760,42.558914 55.429474,41.792038 56.047188,41.025158 
	C56.047188,41.025158 55.998379,40.997437 56.254105,40.940758 
	C56.692848,40.588264 56.875866,40.292442 57.058884,39.996620 
	C57.058884,39.996620 56.992447,39.992340 57.250084,39.939629 
	C57.696426,39.591297 57.885128,39.295677 58.073830,39.000061 
	C58.073830,39.000061 57.999920,38.999767 58.251053,38.941780 
	C58.688671,38.587761 58.875153,38.291729 59.061638,37.995697 
	C59.061634,37.995697 58.993446,37.993412 59.245960,37.933846 
	C59.688076,37.582008 59.877678,37.289738 60.067284,36.997467 
	C60.067284,36.997467 59.997013,36.997204 60.247654,36.937973 
	C60.685436,36.584759 60.872574,36.290775 61.059711,35.996792 
	C61.059711,35.996792 60.992714,35.993160 61.244335,35.931961 
	C61.687706,35.579773 61.879456,35.288780 62.071205,34.997791 
	C62.071205,34.997791 61.999203,34.997086 62.253517,34.942276 
	C62.693523,34.590973 62.879211,34.294479 63.064899,33.997986 
	C63.064899,33.997986 62.995731,33.998764 63.243885,33.933624 
	C63.679558,33.577095 63.867077,33.285702 64.054596,32.994308 
	C64.054596,32.994308 63.990269,32.986637 64.247536,32.934952 
	C64.688927,32.587261 64.873047,32.291256 65.057159,31.995251 
	C65.057159,31.995251 64.990593,31.992971 65.241829,31.931131 
	C65.677330,31.576788 65.861595,31.284283 66.045860,30.991777 
	C66.045860,30.991777 65.984268,30.984274 66.238083,30.925304 
	C66.679451,30.575977 66.867012,30.285616 67.054581,29.995255 
	C67.054581,29.995256 66.992355,29.992062 67.294998,29.976234 
	C68.072502,29.667931 68.547363,29.375458 69.022232,29.082985 
	C69.950218,29.511803 70.878204,29.940620 71.926102,30.672535 
z"/>
<path fill="#2D0906" opacity="1.000000" stroke="none" 
	d="
M55.669365,41.000473 
	C55.429474,41.792038 54.811760,42.558914 54.076374,43.595852 
	C53.542824,43.905136 53.126942,43.944359 52.398277,43.967834 
	C51.444813,42.849976 50.804131,41.747864 50.169582,40.313934 
	C51.880993,40.313339 53.586269,40.644566 55.669365,41.000473 
z"/>
<path fill="#E27D29" opacity="1.000000" stroke="none" 
	d="
M96.310394,23.853539 
	C96.156319,23.840437 96.634422,23.827682 96.703499,23.860451 
	C96.772575,23.893217 96.464462,23.866638 96.310394,23.853539 
z"/>
<path fill="#D96145" opacity="1.000000" stroke="none" 
	d="
M71.960007,34.980080 
	C71.971947,33.906696 71.983887,32.833317 72.009544,31.356731 
	C72.651161,31.459766 73.279068,31.966002 74.036964,32.752979 
	C74.104721,33.465122 74.042480,33.896526 73.596558,34.653530 
	C72.795250,34.979446 72.377625,34.979763 71.960007,34.980080 
z"/>
<path fill="#2D0906" opacity="1.000000" stroke="none" 
	d="
M69.016754,28.814457 
	C68.547363,29.375458 68.072502,29.667931 67.301498,30.006702 
	C67.485382,29.447973 67.965393,28.842951 68.721809,28.123425 
	C69.002579,28.187927 69.006927,28.366930 69.016754,28.814457 
z"/>
<path fill="#CB6147" opacity="1.000000" stroke="none" 
	d="
M71.695221,35.177296 
	C72.377625,34.979763 72.795250,34.979446 73.525772,34.973740 
	C70.794998,37.970306 67.751312,40.972267 64.358536,44.018768 
	C66.483116,41.167049 68.956779,38.270782 71.695221,35.177296 
z"/>
<path fill="#CB6147" opacity="1.000000" stroke="none" 
	d="
M59.978722,49.626831 
	C60.352238,48.654377 60.894634,47.399143 61.748055,46.074665 
	C61.421917,47.118301 60.784760,48.231178 59.978722,49.626831 
z"/>
<path fill="#CB6147" opacity="1.000000" stroke="none" 
	d="
M63.253174,44.977562 
	C63.206730,44.797501 63.414921,44.528698 63.844589,44.128769 
	C63.879978,44.294704 63.693897,44.591763 63.253174,44.977562 
z"/>
<path fill="#CB6147" opacity="1.000000" stroke="none" 
	d="
M62.251839,45.973454 
	C62.205463,45.792091 62.414604,45.524792 62.845352,45.127632 
	C62.880424,45.294353 62.693890,45.590935 62.251839,45.973454 
z"/>
<path fill="#2D0906" opacity="1.000000" stroke="none" 
	d="
M56.850048,40.138191 
	C56.875866,40.292442 56.692848,40.588264 56.255379,40.968796 
	C56.214355,40.795593 56.427784,40.537678 56.850048,40.138191 
z"/>
<path fill="#2D0906" opacity="1.000000" stroke="none" 
	d="
M64.848907,32.138062 
	C64.873047,32.291256 64.688927,32.587261 64.249260,32.967293 
	C64.209358,32.794506 64.425003,32.537689 64.848907,32.138062 
z"/>
<path fill="#2D0906" opacity="1.000000" stroke="none" 
	d="
M65.837662,31.134781 
	C65.861595,31.284283 65.677330,31.576788 65.244637,31.964317 
	C65.207291,31.798824 65.418373,31.538305 65.837662,31.134781 
z"/>
<path fill="#2D0906" opacity="1.000000" stroke="none" 
	d="
M66.844818,30.135120 
	C66.867012,30.285616 66.679451,30.575977 66.241890,30.956093 
	C66.206276,30.788895 66.420670,30.531942 66.844818,30.135120 
z"/>
<path fill="#2D0906" opacity="1.000000" stroke="none" 
	d="
M57.862328,39.142033 
	C57.885128,39.295677 57.696426,39.591297 57.251953,39.972862 
	C57.214397,39.800541 57.432613,39.542274 57.862328,39.142033 
z"/>
<path fill="#2D0906" opacity="1.000000" stroke="none" 
	d="
M58.853016,38.142223 
	C58.875153,38.291729 58.688671,38.587761 58.250900,38.978733 
	C58.214542,38.812035 58.429470,38.550392 58.853016,38.142223 
z"/>
<path fill="#2D0906" opacity="1.000000" stroke="none" 
	d="
M59.857456,37.141342 
	C59.877678,37.289738 59.688076,37.582008 59.247208,37.967934 
	C59.213173,37.802799 59.430401,37.544006 59.857456,37.141342 
z"/>
<path fill="#2D0906" opacity="1.000000" stroke="none" 
	d="
M60.851196,36.142006 
	C60.872574,36.290775 60.685436,36.584759 60.247932,36.973106 
	C60.212605,36.807384 60.427643,36.547302 60.851196,36.142006 
z"/>
<path fill="#2D0906" opacity="1.000000" stroke="none" 
	d="
M61.861336,35.141861 
	C61.879456,35.288780 61.687706,35.579773 61.246029,35.965469 
	C61.214558,35.802094 61.433010,35.544014 61.861336,35.141861 
z"/>
<path fill="#2D0906" opacity="1.000000" stroke="none" 
	d="
M62.855976,34.143440 
	C62.879211,34.294479 62.693523,34.590973 62.253151,34.978271 
	C62.214661,34.809017 62.430859,34.548954 62.855976,34.143440 
z"/>
<path fill="#2D0906" opacity="1.000000" stroke="none" 
	d="
M63.844437,33.137154 
	C63.867077,33.285702 63.679558,33.577095 63.245789,33.968163 
	C63.211117,33.805222 63.422695,33.542610 63.844437,33.137154 
z"/>
<path fill="#ED3E4A" opacity="1.000000" stroke="none" 
	d="
M46.501450,39.494232 
	C46.507362,39.512589 46.495537,39.475880 46.501450,39.494232 
z"/>
</svg>